<svg width="570" height="427" viewBox="0 0 570 427" fill="none" xmlns="http://www.w3.org/2000/svg">
<g style="mix-blend-mode:multiply">
<path d="M51.832 12.594L43.89 18.655H21.736V12.594H6.27V166H13.585V172.061H44.935C51.205 172.061 61.655 168.508 67.089 166H104.082V12.594H51.832ZM127.348 19.073H116.898V171.852H127.348L135.29 166V13.012L127.348 19.073ZM183.36 166V171.852L191.302 166H183.36ZM240.874 18.655V172.061L249.234 166V12.803L240.874 18.655ZM260.938 34.957V78.847L269.089 72.786V34.957H260.938ZM260.938 99.747V143.428L269.089 137.367V99.747H260.938ZM431.525 172.479L440.303 179.167H453.052V20.327H440.303L431.525 13.848V172.479ZM330.996 0.680998V159.521H346.044L354.822 166H406.863L415.641 172.479L372.587 43.317L363.809 36.838V13.848L346.044 0.680998H330.996ZM563.106 13.43H473.654L465.294 19.491V172.27H472.609C482.641 172.27 492.464 170.18 501.242 166.627L502.914 166H563.106V13.43ZM19.019 227.655V375L26.752 369.148V222.012L19.019 227.655ZM49.324 249.391V285.339L57.266 279.696V243.539L49.324 249.391ZM41.382 369.148V375L49.324 369.148H41.382ZM222.219 221.594C210.097 221.594 198.184 224.311 187.734 228.909L179.583 222.012H117.301V375H170.387C184.808 385.868 202.782 392.765 222.219 392.765C237.267 392.765 251.479 388.794 263.81 381.897L255.659 375H314.179V222.012H248.553L256.913 228.909C246.254 224.311 234.55 221.594 222.219 221.594ZM427.238 381.479L436.016 388.167H448.765V229.327H436.016L427.238 222.848V381.479ZM326.709 209.681V368.521H341.757L350.535 375H402.576L411.354 381.479L368.3 252.317L359.522 245.838V222.848L341.757 209.681H326.709ZM551.714 215.115H543.354V222.221H477.937L469.368 215.115H461.008V375H493.612L502.181 382.106H531.65V375H551.714V215.115Z" fill="#FF0000"/>
</g>
<g style="mix-blend-mode:multiply">
<path d="M51.832 166L43.89 172.061C50.996 172.061 57.684 169.762 63.954 167.254L67.089 166H51.832ZM21.736 166H13.585V172.061L21.736 166ZM51.832 12.594L43.89 18.655C61.446 20.536 75.449 36.211 75.449 55.23C75.449 64.635 72.105 73.413 66.253 79.892C74.195 73.204 83.6 60.664 83.6 49.169C83.6 30.359 69.388 14.684 51.832 12.594ZM42.427 92.641C42.427 92.641 51.623 92.641 58.729 95.567C73.568 101.837 84.227 116.049 84.227 133.187C84.227 145.309 79.002 155.968 70.642 163.492C81.092 156.177 91.96 141.129 91.96 127.335C91.96 110.197 81.301 95.776 66.462 89.715C63.327 88.461 59.983 87.834 57.266 87.416C54.131 86.789 50.369 86.789 50.369 86.789L42.427 92.641ZM135.29 166H183.36V171.852H206.977V19.073H196.318V13.012H135.29L127.348 19.073V171.852L135.29 166ZM249.234 12.803L240.874 18.655H219.556V172.061H240.874L249.234 166H310.262V143.428H260.938L269.089 137.367H318.413V93.686L310.262 99.747V78.847H260.938L269.089 72.786H318.413V28.896L310.262 34.957V12.803H249.234ZM431.316 172.479L440.094 179.167V20.327L431.316 13.848H363.6L345.835 0.680998V159.521L354.613 166V36.838H363.6L406.654 166L415.432 172.479H431.316ZM474.072 13.43L465.712 19.7C465.712 19.7 485.776 21.79 494.763 25.343C524.023 37.047 544.714 65.68 544.714 98.911C544.714 122.528 534.264 143.846 517.962 158.267C538.444 144.055 552.656 119.811 552.656 92.85C552.656 59.41 531.965 30.986 502.705 19.282C493.718 15.729 474.072 13.43 474.072 13.43ZM503.332 166.209H474.072L465.712 172.27H473.027C483.059 172.27 492.882 170.389 501.66 166.836L503.332 166.209ZM26.752 222.012L19.019 227.655H6.27V375H19.019L26.752 369.148H41.382V375H88.825V311.464H49.324L57.266 305.612H96.767V285.339H49.324L57.266 279.696H104.709V243.748H96.767V222.012H26.752ZM255.659 375L263.81 381.897C267.572 379.807 270.916 377.508 274.26 375H255.659ZM179.583 222.012C149.487 235.388 128.587 265.275 128.587 300.178C128.587 328.393 142.172 353.473 163.281 369.148C146.979 353.473 136.738 331.528 136.738 307.075C136.738 272.172 157.638 242.285 187.734 228.909L179.583 222.012ZM256.913 228.909C262.556 231.417 267.99 234.552 273.006 238.314C265.9 231.626 257.749 225.983 248.553 222.012L256.913 228.909ZM427.029 381.479L435.807 388.167V229.327L427.029 222.848H359.313L341.548 209.681V368.521L350.326 375V245.838H359.313L402.367 375L411.145 381.479H427.029ZM493.612 234.343V375L502.181 382.106V241.449L493.612 234.343ZM469.368 215.115V234.343H477.937V222.221L469.368 215.115ZM531.65 375H523.081L531.65 382.106V375Z" fill="#00E0FF"/>
</g>
</svg>
