<svg xmlns="http://www.w3.org/2000/svg" width="400.785" height="351.494" viewBox="0 0 400.785 351.494">
  <title>Asset 35r</title>
  <g style="isolation: isolate">
    <g>
      <g>
        <ellipse cx="104.323" cy="272.48" rx="8.122" ry="17.626" fill="#231f20"/>
        <rect x="49.74" y="267.403" width="41.289" height="10.153" rx="5.077" ry="5.077" fill="#231f20"/>
        <path d="M109.744,271.6a23.132,23.132,0,0,1-3.682,13.819" fill="none" stroke="#fff" stroke-linecap="round" stroke-miterlimit="10" stroke-width="1.657"/>
        <ellipse cx="36.447" cy="272.48" rx="8.122" ry="17.626" fill="#231f20"/>
        <path d="M41.212,271.6a23.132,23.132,0,0,1-3.682,13.819" fill="none" stroke="#fff" stroke-linecap="round" stroke-miterlimit="10" stroke-width="1.657"/>
      </g>
      <g>
        <ellipse cx="299.261" cy="152.969" rx="8.122" ry="17.626" fill="#231f20"/>
        <ellipse cx="367.138" cy="152.969" rx="8.122" ry="17.626" fill="#231f20"/>
        <rect x="312.555" y="147.892" width="41.289" height="10.153" rx="5.077" ry="5.077" fill="#231f20"/>
        <path d="M371.9,152.087a23.141,23.141,0,0,1-3.683,13.819" fill="none" stroke="#fff" stroke-linecap="round" stroke-miterlimit="10" stroke-width="1.657"/>
        <path d="M304.232,152.087a23.132,23.132,0,0,1-3.682,13.819" fill="none" stroke="#fff" stroke-linecap="round" stroke-miterlimit="10" stroke-width="1.657"/>
      </g>
      <g>
        <path d="M398.827,288.811H318.072c-8,0-16.923-5.862-23.223-15.265l-10.678-15.939c-.994-1.482-.67-3.285.594-3.285,3.832,0,19.68,0,37.047,0a11.21,11.21,0,0,0,9.779,6.916,5.845,5.845,0,0,0,6.1-6.916c17.741,0,33.744,0,36.728,0a3.5,3.5,0,0,1,2.646,1.714c9.286,13.564,16.652,21.593,21.883,26.3C401.454,284.6,401.379,288.811,398.827,288.811Z" fill="#231f20"/>
        <path d="M297.12,271.4c.882,1.027,1.754,2.072,2.666,3.057a28.758,28.758,0,0,0,2.962,2.714,27.914,27.914,0,0,0,14.4,5.955c2.526.253,5.294.167,8,.236h.02a1.659,1.659,0,1,1-.084,3.317c-.049,0-.1,0-.148-.01l-4.038-.467a41.722,41.722,0,0,1-4.145-.624,30.117,30.117,0,0,1-7.88-2.885,29.586,29.586,0,0,1-9.4-7.968C298.649,273.628,297.9,272.509,297.12,271.4Z" fill="#fff"/>
        <path d="M396.317,286.246c-1.357.065-2.68.149-4.133.171a30.279,30.279,0,0,1-4.241-.29,29.557,29.557,0,0,1-15.08-6.7c-2.093-1.8-3.873-3.828-5.79-5.748,2.094,1.71,4.107,3.568,6.292,5.089a28.488,28.488,0,0,0,7.107,3.513,27.939,27.939,0,0,0,11.561,1.238c1.248-.147,2.614-.369,3.95-.572h.006a1.659,1.659,0,0,1,.5,3.281A1.631,1.631,0,0,1,396.317,286.246Z" fill="#fff"/>
      </g>
      <g>
        <path d="M20.565,136.046C17.089,146.3,2.4,168.3,28.527,168.3s16.6-32.251,37.34-32.251c18.5,0-13.343,34.606,14.466,34.606s15.594-34.606,36.078-34.606c17.634,0-13.456,34.654,12.027,34.605a29.262,29.262,0,0,0,9.9-1.73" fill="none" stroke="#231f20" stroke-linecap="round" stroke-miterlimit="10" stroke-width="6.055"/>
        <path d="M67.54,175.383s9.573,7.548,23.907,1.683" fill="none" stroke="#231f20" stroke-linecap="round" stroke-linejoin="round" stroke-width="1.989"/>
        <path d="M70.385,181.85s7.307,5.761,18.248,1.285" fill="none" stroke="#231f20" stroke-linecap="round" stroke-linejoin="round" stroke-width="1.518"/>
        <path d="M78.051,131.314s-9.574-7.547-23.908-1.682" fill="none" stroke="#231f20" stroke-linecap="round" stroke-linejoin="round" stroke-width="1.989"/>
        <path d="M75.205,124.847s-7.307-5.761-18.248-1.284" fill="none" stroke="#231f20" stroke-linecap="round" stroke-linejoin="round" stroke-width="1.518"/>
      </g>
      <g>
        <path d="M270.843,11.715V47.023H235.535V40.469a2.567,2.567,0,0,0-4.026-2.115c-4.192,2.91-10.385,4.751-17.295,4.751-7.088,0-13.423-1.936-17.618-4.976a2.6,2.6,0,0,0-4.148,2.079v6.815H157.14V11.715h35.308v6.816c0,2.136,4.148,2.079,4.148,2.079s.231,11.839,17.618,11.839,17.295-12.064,17.295-12.064,4.026-.044,4.026-2.115V11.715Z" fill="#231f20"/>
        <path d="M193.816,30.049q1.194.78,2.354,1.585c.8.495,1.627.95,2.435,1.425.825.445,1.673.844,2.505,1.267.857.37,1.733.693,2.594,1.04a29.4,29.4,0,0,0,10.92,1.626,37.147,37.147,0,0,0,10.882-2.2c.882-.309,1.77-.61,2.623-1,.858-.379,1.738-.715,2.569-1.157.843-.416,1.714-.788,2.541-1.243s1.66-.9,2.5-1.339A55.223,55.223,0,0,1,231,33.206c-.807.509-1.677.9-2.523,1.344s-1.725.82-2.606,1.2a32.5,32.5,0,0,1-11.2,2.571,26.826,26.826,0,0,1-11.331-2c-.869-.416-1.748-.8-2.6-1.241-.825-.49-1.668-.944-2.47-1.462-.771-.568-1.553-1.114-2.3-1.694Q194.874,31,193.816,30.049Z" fill="#fff"/>
      </g>
      <g>
        <path d="M377.729,15.375,315.3,14.068s-23.215-1.422-24.142,3.311C288.736,29.745,357.8,16.25,358.6,29.369s-67.229-4.239-69.813,8.142c-1.294,6.2,7.967,6.6,18.194,6.6h70.745" fill="none" stroke="#231f20" stroke-miterlimit="10" stroke-width="5.814"/>
        <line x1="321.04" y1="50.156" x2="374.291" y2="52.586" fill="none" stroke="#231f20" stroke-linecap="round" stroke-linejoin="round" stroke-width="1.989"/>
        <line x1="333.554" y1="55.788" x2="358.446" y2="56.925" fill="none" stroke="#231f20" stroke-linecap="round" stroke-linejoin="round" stroke-width="1.989"/>
        <line x1="356.725" y1="5.534" x2="303.462" y2="7.676" fill="none" stroke="#231f20" stroke-linecap="round" stroke-linejoin="round" stroke-width="1.989"/>
        <line x1="343.775" y1="0.994" x2="318.877" y2="1.995" fill="none" stroke="#231f20" stroke-linecap="round" stroke-linejoin="round" stroke-width="1.989"/>
      </g>
      <g>
        <path d="M258.521,288.811H170.707a4.686,4.686,0,0,1-4.686-4.686V258.667a4.686,4.686,0,0,1,4.686-4.686h55.478a18.347,18.347,0,0,1,12.972,5.373l22.321,22.32A4.181,4.181,0,0,1,258.521,288.811Z" fill="#231f20"/>
        <rect x="250.03" y="242.592" width="10.952" height="43.959" rx="5.476" ry="5.476" transform="translate(-112.244 258.161) rotate(-45)" fill="#231f20"/>
        <line x1="182.235" y1="269.383" x2="203.668" y2="280.044" fill="none" stroke="#fff" stroke-linecap="round" stroke-miterlimit="10" stroke-width="1.657"/>
        <line x1="179.392" y1="264.057" x2="190.108" y2="269.388" fill="none" stroke="#fff" stroke-linecap="round" stroke-miterlimit="10" stroke-width="1.657"/>
        <line x1="179.392" y1="259.755" x2="196.445" y2="268.238" fill="none" stroke="#fff" stroke-linecap="round" stroke-miterlimit="10" stroke-width="1.657"/>
        <line x1="220.936" y1="271.185" x2="237.989" y2="279.669" fill="none" stroke="#fff" stroke-linecap="round" stroke-miterlimit="10" stroke-width="1.657"/>
        <line x1="213.248" y1="263.997" x2="230.301" y2="272.48" fill="none" stroke="#fff" stroke-linecap="round" stroke-miterlimit="10" stroke-width="1.657"/>
      </g>
      <g>
        <g>
          <path d="M214.474,135.343h10.7a8.83,8.83,0,0,1,8.83,8.83V160.83a9.764,9.764,0,0,1-9.764,9.764h0a9.764,9.764,0,0,1-9.764-9.764V135.343a0,0,0,0,1,0,0Z" fill="#231f20"/>
          <path d="M211.607,152.969v17.625a17.626,17.626,0,1,1,0-35.251h.172Z" fill="#231f20"/>
        </g>
        <path d="M196.838,151.331a23.132,23.132,0,0,1,8.61-11.418" fill="none" stroke="#fff" stroke-linecap="round" stroke-miterlimit="10" stroke-width="1.657"/>
        <ellipse cx="227.011" cy="161.061" rx="3.646" ry="6.192" fill="#fff"/>
      </g>
      <g>
        <path d="M8.217,29.326h0A17.567,17.567,0,0,0,25.785,46.894H143.433c-21.355-.69-86.746-1.013-86.746-17.4s27.345-17.733,86.746-17.733H25.785A17.568,17.568,0,0,0,8.217,29.326Z" fill="#231f20"/>
        <ellipse cx="32.282" cy="28.992" rx="20.448" ry="1.484" fill="#fff"/>
      </g>
      <g>
        <path d="M39.806,81.673c-.4-3.752-2.656-6.176-6.076-6.176-4.15,0-6.574,3.586-6.574,9.961,0,6.441,2.424,10.027,6.574,10.027,3.453,0,5.678-2.225,6.109-5.976H50.63c-.3,9.2-6.839,14.908-17.033,14.908-11.322,0-18.361-7.106-18.361-18.959,0-11.721,7.039-18.926,18.295-18.926,10.193,0,16.8,6.076,17.1,15.141Z" fill="none" stroke="#6300ff" stroke-miterlimit="10" stroke-width="3"/>
        <path d="M55.487,103.553V67.4H70.993l7.7,21.317h.232l7.7-21.317h15.407v36.158H91.18V80.112h-.265l-8.2,20.951h-7.9l-8.2-20.951h-.233v23.441Z" fill="none" stroke="#6300ff" stroke-miterlimit="10" stroke-width="3"/>
        <path d="M142.755,92.132c-1.128,7.47-7.769,12.285-17.232,12.285-11.521,0-18.395-7.073-18.395-18.76s6.94-19.125,18-19.125c10.89,0,17.83,7.139,17.83,18.2v3.321H118.55v.73c0,4.316,2.889,7.3,7.139,7.3,3.154,0,5.611-1.494,6.441-3.951ZM118.716,81.341h13.149c-.2-3.852-2.822-6.442-6.541-6.442A6.61,6.61,0,0,0,118.716,81.341Z" fill="none" stroke="#6300ff" stroke-miterlimit="10" stroke-width="3"/>
        <path d="M149.206,89.11V79.016h21.847V89.11Z" fill="none" stroke="#6300ff" stroke-miterlimit="10" stroke-width="3"/>
      </g>
      <g>
        <path d="M16.631,194.258H29.042V223.2h8.843V194.258H50.26V223.2h8.88V194.258H71.515v38.069H16.631Z" fill="none" stroke="#6300ff" stroke-miterlimit="10" stroke-width="3"/>
        <path d="M76.585,221.316c0-7.132,5.488-11.117,15.346-11.711l8.914-.525v-2.167c0-3.041-2.168-4.719-5.419-4.719-3.355,0-5.488,1.748-5.838,4.09H78.437c.35-7.8,6.991-12.935,17.619-12.935,10.173,0,16.919,5.209,16.919,12.865v26.113h-12.06v-5.418h-.245c-2.062,3.845-6.711,5.978-11.291,5.978C82.318,232.887,76.585,228.2,76.585,221.316Zm24.26-2.657v-2.622l-6.922.454c-3.251.245-5.068,1.748-5.068,3.986,0,2.412,1.992,3.88,4.929,3.88C97.559,224.357,100.845,222.05,100.845,218.659Z" fill="none" stroke="#6300ff" stroke-miterlimit="10" stroke-width="3"/>
        <path d="M144.368,217.505h-12.48v14.822h-12.41V194.258h12.41v14.123h12.48V194.258h12.41v38.069h-12.41Z" fill="none" stroke="#6300ff" stroke-miterlimit="10" stroke-width="3"/>
        <path d="M164.644,217.121V206.493h23v10.628Z" fill="none" stroke="#6300ff" stroke-miterlimit="10" stroke-width="3"/>
      </g>
      <g>
        <path d="M40.045,335.172H27.566v14.822H15.156V311.925h12.41v14.123H40.045V311.925H52.456v38.069H40.045Z" fill="none" stroke="#6300ff" stroke-miterlimit="10" stroke-width="3"/>
        <path d="M59.1,311.925h12.41v10.417h7.516c9.124,0,14.962,5.384,14.962,13.843,0,8.426-5.838,13.809-14.962,13.809H59.1Zm12.41,19.3v9.754h5c3.146,0,5.173-1.993,5.173-4.894,0-2.867-2.027-4.86-5.173-4.86Zm25.659-19.3h12.376v38.069H97.167Z" fill="none" stroke="#6300ff" stroke-miterlimit="10" stroke-width="3"/>
        <path d="M116.185,349.994V311.925h12.13v21.5h.28l13.179-21.5h12.061v38.069h-12.1V328.075h-.279l-13.18,21.919Zm13.074-54.29c.14,3.251,2.2,5.733,5.873,5.733a5.553,5.553,0,0,0,5.838-5.733h7.341c-.14,6.327-4.894,11.536-13.179,11.536-8.32,0-13.04-5.209-13.214-11.536Z" fill="none" stroke="#6300ff" stroke-miterlimit="10" stroke-width="3"/>
      </g>
      <g>
        <g style="mix-blend-mode: multiply">
          <path d="M28.809,87.423l-5.021,3.832H9.779V87.423H0v97H4.625v3.832H24.448c3.965,0,10.573-2.247,14.009-3.832H61.848v-97Z" fill="red"/>
          <path d="M76.559,91.52H69.951v96.6h6.608l5.022-3.7V87.687Zm35.417,92.9v3.7l5.022-3.7Z" fill="red"/>
          <path d="M148.344,91.255v97l5.286-3.832V87.555Zm12.687,10.308v27.753l5.153-3.833v-23.92Zm0,40.968v27.62l5.153-3.832V142.531Z" fill="red"/>
          <path d="M268.894,188.52l5.551,4.229h8.061V92.313h-8.061l-5.551-4.1ZM205.329,79.89V180.327h9.515l5.55,4.1H253.3l5.551,4.1-27.224-81.67-5.55-4.1V88.216L214.844,79.89Z" fill="red"/>
          <path d="M352.1,87.952H295.534l-5.286,3.832v96.6h4.625a48.571,48.571,0,0,0,18.105-3.568l1.057-.4H352.1Z" fill="red"/>
          <path d="M8.061,223.409v93.168l4.89-3.7V219.841Zm19.163,13.744v22.73l5.021-3.568V233.453ZM22.2,312.877v3.7l5.022-3.7Z" fill="red"/>
          <path d="M136.548,219.577a54.629,54.629,0,0,0-21.805,4.625l-5.154-4.361H70.207v96.736h33.567a54.538,54.538,0,0,0,32.774,11.233,53.786,53.786,0,0,0,26.3-6.872l-5.154-4.361h37V219.841H153.2l5.286,4.361A55.266,55.266,0,0,0,136.548,219.577Z" fill="red"/>
          <path d="M266.184,320.674l5.551,4.229H279.8V224.466h-8.061l-5.551-4.1Zm-63.566-108.63V312.481h9.516l5.55,4.1H250.59l5.551,4.1L228.917,239l-5.55-4.1V220.369l-11.233-8.325Z" fill="red"/>
          <path d="M344.892,215.48h-5.286v4.493H298.242l-5.418-4.493h-5.286v101.1h20.616l5.418,4.494h18.634v-4.494h12.686Z" fill="red"/>
        </g>
        <g style="mix-blend-mode: multiply">
          <path d="M28.809,184.424l-5.021,3.832c4.493,0,8.722-1.454,12.686-3.039l1.983-.793Zm-19.03,0H4.625v3.832Zm19.03-97-5.021,3.832c11.1,1.19,19.955,11.1,19.955,23.127a23.208,23.208,0,0,1-5.815,15.594C42.95,125.747,48.9,117.818,48.9,110.55,48.9,98.656,39.91,88.744,28.809,87.423Zm-5.946,50.615a31.72,31.72,0,0,1,10.308,1.85,25.861,25.861,0,0,1,16.122,23.788,25.569,25.569,0,0,1-8.59,19.162c6.608-4.626,13.48-14.141,13.48-22.863A25.722,25.722,0,0,0,38.06,136.188a26.686,26.686,0,0,0-5.815-1.454,26.12,26.12,0,0,0-4.361-.4Z" fill="#00e0ff"/>
          <path d="M81.581,184.424h30.395v3.7H126.91V91.52h-6.74V87.687H81.581L76.559,91.52v96.6Z" fill="#00e0ff"/>
          <path d="M153.63,87.555l-5.286,3.7h-13.48v97h13.48l5.286-3.832h38.589V170.151H161.031l5.153-3.832h31.189V138.7l-5.154,3.832V129.316H161.031l5.153-3.833h31.189V97.731l-5.154,3.832V87.555Z" fill="#00e0ff"/>
          <path d="M268.762,188.52l5.551,4.229V92.313l-5.551-4.1H225.945L214.711,79.89V180.327l5.551,4.1V102.753h5.683l27.223,81.671,5.551,4.1Z" fill="#00e0ff"/>
          <path d="M295.8,87.952l-5.286,3.964s12.687,1.322,18.369,3.568a50.067,50.067,0,0,1,14.669,84.05,50.859,50.859,0,0,0,21.938-41.364A50.075,50.075,0,0,0,313.9,91.652C308.221,89.405,295.8,87.952,295.8,87.952Zm18.5,96.6H295.8l-5.286,3.832h4.625a48.486,48.486,0,0,0,18.105-3.436Z" fill="#00e0ff"/>
          <path d="M12.951,219.841l-4.89,3.568H0v93.168H8.061l4.89-3.7H22.2v3.7h30V276.4H27.224l5.021-3.7H57.223V259.883h-30l5.021-3.568h30v-22.73H57.223V219.841Z" fill="#00e0ff"/>
          <path d="M157.693,316.577l5.154,4.361a57.05,57.05,0,0,0,6.607-4.361Zm-48.1-96.736a54.138,54.138,0,0,0-10.308,93.036A54.114,54.114,0,0,1,114.743,224.2Zm48.9,4.361a52.461,52.461,0,0,1,10.176,5.947A53.627,53.627,0,0,0,153.2,219.841Z" fill="#00e0ff"/>
          <path d="M266.052,320.674,271.6,324.9V224.466l-5.551-4.1H223.234L212,212.044V312.481l5.551,4.1V234.906h5.682l27.224,81.671,5.551,4.1Z" fill="#00e0ff"/>
          <path d="M308.154,227.638v88.939l5.418,4.494v-88.94Zm-15.33-12.158v12.158h5.418v-7.665Zm39.382,101.1h-5.419l5.419,4.494Z" fill="#00e0ff"/>
        </g>
      </g>
    </g>
  </g>
</svg>
