<?xml version="1.0" encoding="utf-8"?>
<!-- Generator: Adobe Illustrator 22.0.1, SVG Export Plug-In . SVG Version: 6.00 Build 0)  -->
<svg version="1.1" id="Layer_1" xmlns="http://www.w3.org/2000/svg" xmlns:xlink="http://www.w3.org/1999/xlink" x="0px" y="0px"
	 viewBox="0 0 558 393" style="enable-background:new 0 0 558 393;" xml:space="preserve">
<style type="text/css">
	.st0{fill:#FF0000;}
	.st1{fill:#00E0FF;}
</style>
<g>
	<path class="st0" d="M45.8,12.6l-7.9,6.1H15.7v-6.1H0.3V166h7.3v6.1h31.3c6.3,0,16.7-3.6,22.2-6.1h37V12.6H45.8z"/>
	<path class="st0" d="M121.3,19.1h-10.4v152.8h10.4l7.9-5.9V13L121.3,19.1z M177.4,166v5.9l7.9-5.9H177.4z"/>
	<path class="st0" d="M234.9,18.7v153.4l8.4-6.1V12.8L234.9,18.7z M254.9,35v43.9l8.2-6.1V35H254.9z M254.9,99.7v43.7l8.2-6.1V99.7
		H254.9z"/>
	<path class="st0" d="M425.5,172.5l8.8,6.7h12.7V20.3h-12.7l-8.8-6.5V172.5z M325,0.7v158.8h15l8.8,6.5h52l8.8,6.5L366.6,43.3
		l-8.8-6.5v-23L340,0.7H325z"/>
	<path class="st0" d="M557.1,13.4h-89.5l-8.4,6.1v152.8h7.3c10,0,19.9-2.1,28.6-5.6l1.7-0.6h60.2V13.4z"/>
	<path class="st0" d="M13,227.7V375l7.7-5.9V222L13,227.7z M43.3,249.4v35.9l7.9-5.6v-36.2L43.3,249.4z M35.4,369.1v5.9l7.9-5.9
		H35.4z"/>
	<path class="st0" d="M216.2,221.6c-12.1,0-24,2.7-34.5,7.3l-8.2-6.9h-62.3v153h53.1c14.4,10.9,32.4,17.8,51.8,17.8
		c15,0,29.3-4,41.6-10.9l-8.2-6.9h58.5V222h-65.6l8.4,6.9C240.3,224.3,228.6,221.6,216.2,221.6z"/>
	<path class="st0" d="M421.2,381.5l8.8,6.7h12.7V229.3H430l-8.8-6.5V381.5z M320.7,209.7v158.8h15l8.8,6.5h52l8.8,6.5l-43.1-129.2
		l-8.8-6.5v-23l-17.8-13.2H320.7z"/>
	<path class="st0" d="M545.7,215.1h-8.4v7.1h-65.4l-8.6-7.1H455V375h32.6l8.6,7.1h29.5V375h20.1V215.1z"/>
</g>
<g>
	<path class="st1" d="M45.8,166l-7.9,6.1c7.1,0,13.8-2.3,20.1-4.8l3.1-1.3H45.8z M15.7,166H7.6v6.1L15.7,166z M45.8,12.6l-7.9,6.1
		c17.6,1.9,31.6,17.6,31.6,36.6c0,9.4-3.3,18.2-9.2,24.7c7.9-6.7,17.3-19.2,17.3-30.7C77.6,30.4,63.4,14.7,45.8,12.6z M36.4,92.6
		c0,0,9.2,0,16.3,2.9c14.8,6.3,25.5,20.5,25.5,37.6c0,12.1-5.2,22.8-13.6,30.3c10.4-7.3,21.3-22.4,21.3-36.2
		c0-17.1-10.7-31.6-25.5-37.6c-3.1-1.3-6.5-1.9-9.2-2.3c-3.1-0.6-6.9-0.6-6.9-0.6L36.4,92.6z"/>
	<path class="st1" d="M129.3,166h48.1v5.9H201V19.1h-10.7V13h-61l-7.9,6.1v152.8L129.3,166z"/>
	<path class="st1" d="M243.2,12.8l-8.4,5.9h-21.3v153.4h21.3l8.4-6.1h61v-22.6h-49.3l8.2-6.1h49.3V93.7l-8.2,6.1V78.8h-49.3l8.2-6.1
		h49.3V28.9l-8.2,6.1V12.8H243.2z"/>
	<path class="st1" d="M425.3,172.5l8.8,6.7V20.3l-8.8-6.5h-67.7L339.8,0.7v158.8l8.8,6.5V36.8h9L400.7,166l8.8,6.5H425.3z"/>
	<path class="st1" d="M468.1,13.4l-8.4,6.3c0,0,20.1,2.1,29.1,5.6c29.3,11.7,50,40.3,50,73.6c0,23.6-10.5,44.9-26.8,59.4
		c20.5-14.2,34.7-38.5,34.7-65.4c0-33.4-20.7-61.9-50-73.6C487.7,15.7,468.1,13.4,468.1,13.4z M497.3,166.2h-29.3l-8.4,6.1h7.3
		c10,0,19.9-1.9,28.6-5.4L497.3,166.2z"/>
	<path class="st1" d="M20.8,222l-7.7,5.6H0.3V375H13l7.7-5.9h14.6v5.9h47.4v-63.5H43.3l7.9-5.9h39.5v-20.3H43.3l7.9-5.6h47.4v-35.9
		h-7.9V222H20.8z"/>
	<path class="st1" d="M249.7,375l8.2,6.9c3.8-2.1,7.1-4.4,10.5-6.9H249.7z M173.6,222c-30.1,13.4-51,43.3-51,78.2
		c0,28.2,13.6,53.3,34.7,69c-16.3-15.7-26.5-37.6-26.5-62.1c0-34.9,20.9-64.8,51-78.2L173.6,222z M250.9,228.9
		c5.6,2.5,11.1,5.6,16.1,9.4c-7.1-6.7-15.3-12.3-24.5-16.3L250.9,228.9z"/>
	<path class="st1" d="M421,381.5l8.8,6.7V229.3l-8.8-6.5h-67.7l-17.8-13.2v158.8l8.8,6.5V245.8h9L396.4,375l8.8,6.5H421z"/>
	<path class="st1" d="M487.6,234.3V375l8.6,7.1V241.4L487.6,234.3z M463.4,215.1v19.2h8.6v-12.1L463.4,215.1z M525.7,375h-8.6
		l8.6,7.1V375z"/>
</g>
</svg>
