<svg xmlns="http://www.w3.org/2000/svg" width="392.568" height="350.994" viewBox="0 0 392.568 350.994">
  <title>Asset 33r</title>
  <g>
    <g>
      <ellipse cx="96.107" cy="272.48" rx="8.122" ry="17.626" fill="#231f20"/>
      <rect x="41.524" y="267.403" width="41.289" height="10.153" rx="5.077" ry="5.077" fill="#231f20"/>
      <path d="M101.527,271.6a23.132,23.132,0,0,1-3.682,13.819" fill="none" stroke="#fff" stroke-linecap="round" stroke-miterlimit="10" stroke-width="1.657"/>
      <ellipse cx="28.23" cy="272.48" rx="8.122" ry="17.626" fill="#231f20"/>
      <path d="M33,271.6a23.146,23.146,0,0,1-3.682,13.819" fill="none" stroke="#fff" stroke-linecap="round" stroke-miterlimit="10" stroke-width="1.657"/>
    </g>
    <g>
      <ellipse cx="291.044" cy="152.969" rx="8.122" ry="17.626" fill="#231f20"/>
      <ellipse cx="358.921" cy="152.969" rx="8.122" ry="17.626" fill="#231f20"/>
      <rect x="304.338" y="147.892" width="41.289" height="10.153" rx="5.077" ry="5.077" fill="#231f20"/>
      <path d="M363.687,152.087a23.139,23.139,0,0,1-3.682,13.819" fill="none" stroke="#fff" stroke-linecap="round" stroke-miterlimit="10" stroke-width="1.657"/>
      <path d="M296.016,152.087a23.146,23.146,0,0,1-3.682,13.819" fill="none" stroke="#fff" stroke-linecap="round" stroke-miterlimit="10" stroke-width="1.657"/>
    </g>
    <g>
      <path d="M390.611,288.811H309.856c-8,0-16.923-5.862-23.224-15.265l-10.678-15.939c-.994-1.482-.67-3.285.594-3.285,3.832,0,19.68,0,37.048,0a11.209,11.209,0,0,0,9.778,6.916,5.845,5.845,0,0,0,6.1-6.916c17.742,0,33.744,0,36.728,0a3.508,3.508,0,0,1,2.647,1.714c9.286,13.564,16.651,21.593,21.883,26.3C393.237,284.6,393.163,288.811,390.611,288.811Z" fill="#231f20"/>
      <path d="M288.9,271.4c.882,1.027,1.755,2.072,2.666,3.057a28.768,28.768,0,0,0,2.963,2.714,27.905,27.905,0,0,0,14.4,5.955c2.525.253,5.294.167,7.994.236h.021a1.659,1.659,0,0,1-.085,3.317c-.049,0-.1,0-.148-.01l-4.038-.467a41.66,41.66,0,0,1-4.144-.624,30.117,30.117,0,0,1-7.88-2.885,29.613,29.613,0,0,1-9.4-7.968C290.432,273.628,289.678,272.509,288.9,271.4Z" fill="#fff"/>
      <path d="M388.1,286.246c-1.357.065-2.681.149-4.134.171a30.265,30.265,0,0,1-4.24-.29,29.556,29.556,0,0,1-15.081-6.7c-2.093-1.8-3.873-3.828-5.79-5.748,2.094,1.71,4.107,3.568,6.293,5.089a28.454,28.454,0,0,0,7.107,3.513,27.934,27.934,0,0,0,11.56,1.238c1.248-.147,2.615-.369,3.95-.572h.006a1.659,1.659,0,1,1,.5,3.281A1.639,1.639,0,0,1,388.1,286.246Z" fill="#fff"/>
    </g>
    <g>
      <path d="M12.349,136.046C8.873,146.3-5.817,168.3,20.31,168.3s16.6-32.251,37.341-32.251c18.5,0-13.344,34.606,14.465,34.606s15.594-34.606,36.078-34.606c17.634,0-13.456,34.654,12.027,34.605a29.258,29.258,0,0,0,9.9-1.73" fill="none" stroke="#231f20" stroke-linecap="round" stroke-miterlimit="10" stroke-width="6.055"/>
      <path d="M59.323,175.383s9.573,7.548,23.907,1.683" fill="none" stroke="#231f20" stroke-linecap="round" stroke-linejoin="round" stroke-width="1.989"/>
      <path d="M62.168,181.85s7.307,5.761,18.248,1.285" fill="none" stroke="#231f20" stroke-linecap="round" stroke-linejoin="round" stroke-width="1.518"/>
      <path d="M69.834,131.314s-9.573-7.547-23.908-1.682" fill="none" stroke="#231f20" stroke-linecap="round" stroke-linejoin="round" stroke-width="1.989"/>
      <path d="M66.989,124.847s-7.308-5.761-18.249-1.284" fill="none" stroke="#231f20" stroke-linecap="round" stroke-linejoin="round" stroke-width="1.518"/>
    </g>
    <g>
      <path d="M262.626,11.715V47.023H227.318V40.469a2.567,2.567,0,0,0-4.026-2.115c-4.192,2.91-10.385,4.751-17.295,4.751-7.088,0-13.423-1.936-17.617-4.976a2.6,2.6,0,0,0-4.148,2.079v6.815H148.924V11.715h35.308v6.816c0,2.136,4.147,2.079,4.147,2.079S188.61,32.449,206,32.449s17.295-12.064,17.295-12.064,4.026-.044,4.026-2.115V11.715Z" fill="#231f20"/>
      <path d="M185.6,30.049q1.194.78,2.354,1.585c.8.495,1.628.95,2.435,1.425.825.445,1.673.844,2.5,1.267.857.37,1.733.693,2.595,1.04a29.394,29.394,0,0,0,10.919,1.626,37.14,37.14,0,0,0,10.882-2.2c.882-.309,1.771-.61,2.623-1,.858-.379,1.738-.715,2.569-1.157.843-.416,1.714-.788,2.541-1.243s1.66-.9,2.5-1.339a55.363,55.363,0,0,1-4.742,3.157c-.807.509-1.678.9-2.524,1.344s-1.725.82-2.606,1.2a32.5,32.5,0,0,1-11.2,2.571,26.819,26.819,0,0,1-11.33-2c-.87-.416-1.749-.8-2.6-1.241-.824-.49-1.668-.944-2.47-1.462-.77-.568-1.552-1.114-2.3-1.694Q186.657,31,185.6,30.049Z" fill="#fff"/>
    </g>
    <g>
      <path d="M369.513,15.375l-62.429-1.307s-23.215-1.422-24.142,3.311c-2.422,12.366,66.639-1.129,67.445,11.99s-67.23-4.239-69.813,8.142c-1.294,6.2,7.966,6.6,18.194,6.6h70.745" fill="none" stroke="#231f20" stroke-miterlimit="10" stroke-width="5.814"/>
      <line x1="312.824" y1="50.156" x2="366.075" y2="52.586" fill="none" stroke="#231f20" stroke-linecap="round" stroke-linejoin="round" stroke-width="1.989"/>
      <line x1="325.337" y1="55.788" x2="350.229" y2="56.925" fill="none" stroke="#231f20" stroke-linecap="round" stroke-linejoin="round" stroke-width="1.989"/>
      <line x1="348.508" y1="5.534" x2="295.245" y2="7.676" fill="none" stroke="#231f20" stroke-linecap="round" stroke-linejoin="round" stroke-width="1.989"/>
      <line x1="335.558" y1="0.994" x2="310.66" y2="1.995" fill="none" stroke="#231f20" stroke-linecap="round" stroke-linejoin="round" stroke-width="1.989"/>
    </g>
    <g>
      <path d="M250.305,288.811H162.491a4.686,4.686,0,0,1-4.687-4.686V258.667a4.686,4.686,0,0,1,4.687-4.686h55.477a18.349,18.349,0,0,1,12.973,5.373l22.32,22.32A4.181,4.181,0,0,1,250.305,288.811Z" fill="#231f20"/>
      <rect x="241.813" y="242.592" width="10.952" height="43.959" rx="5.476" ry="5.476" transform="translate(-114.651 252.351) rotate(-45)" fill="#231f20"/>
      <line x1="174.018" y1="269.383" x2="195.451" y2="280.044" fill="none" stroke="#fff" stroke-linecap="round" stroke-miterlimit="10" stroke-width="1.657"/>
      <line x1="171.175" y1="264.057" x2="181.892" y2="269.388" fill="none" stroke="#fff" stroke-linecap="round" stroke-miterlimit="10" stroke-width="1.657"/>
      <line x1="171.175" y1="259.755" x2="188.229" y2="268.238" fill="none" stroke="#fff" stroke-linecap="round" stroke-miterlimit="10" stroke-width="1.657"/>
      <line x1="212.719" y1="271.185" x2="229.773" y2="279.669" fill="none" stroke="#fff" stroke-linecap="round" stroke-miterlimit="10" stroke-width="1.657"/>
      <line x1="205.031" y1="263.997" x2="222.085" y2="272.48" fill="none" stroke="#fff" stroke-linecap="round" stroke-miterlimit="10" stroke-width="1.657"/>
    </g>
    <g>
      <g>
        <path d="M206.258,135.343h10.7a8.83,8.83,0,0,1,8.83,8.83V160.83a9.764,9.764,0,0,1-9.764,9.764h0a9.764,9.764,0,0,1-9.764-9.764V135.343A0,0,0,0,1,206.258,135.343Z" fill="#231f20"/>
        <path d="M203.39,152.969v17.625a17.626,17.626,0,1,1,0-35.251h.173Z" fill="#231f20"/>
      </g>
      <path d="M188.621,151.331a23.138,23.138,0,0,1,8.61-11.418" fill="none" stroke="#fff" stroke-linecap="round" stroke-miterlimit="10" stroke-width="1.657"/>
      <ellipse cx="218.794" cy="161.061" rx="3.646" ry="6.192" fill="#fff"/>
    </g>
    <g>
      <path d="M0,29.326H0A17.567,17.567,0,0,0,17.568,46.894H135.216c-21.355-.69-86.745-1.013-86.745-17.4s27.344-17.733,86.745-17.733H17.568A17.568,17.568,0,0,0,0,29.326Z" fill="#231f20"/>
      <ellipse cx="24.066" cy="28.992" rx="20.448" ry="1.484" fill="#fff"/>
    </g>
    <g>
      <path d="M31.589,81.673c-.4-3.752-2.656-6.176-6.076-6.176-4.15,0-6.574,3.586-6.574,9.961,0,6.441,2.424,10.027,6.574,10.027,3.453,0,5.678-2.225,6.11-5.976H42.414c-.3,9.2-6.84,14.908-17.034,14.908-11.322,0-18.361-7.106-18.361-18.959,0-11.721,7.039-18.926,18.3-18.926,10.193,0,16.8,6.076,17.1,15.141Z" fill="none" stroke="#00e0ff" stroke-miterlimit="10" stroke-width="2"/>
      <path d="M47.27,103.553V67.4H62.776l7.7,21.317h.232l7.7-21.317H93.821v36.158H82.963V80.112H82.7l-8.2,20.951h-7.9l-8.2-20.951h-.232v23.441Z" fill="none" stroke="#00e0ff" stroke-miterlimit="10" stroke-width="2"/>
      <path d="M134.539,92.132c-1.129,7.47-7.77,12.285-17.233,12.285-11.521,0-18.394-7.073-18.394-18.76s6.939-19.125,18-19.125c10.89,0,17.83,7.139,17.83,18.2v3.321h-24.4v.73c0,4.316,2.888,7.3,7.138,7.3,3.155,0,5.612-1.494,6.442-3.951ZM110.5,81.341h13.148c-.2-3.852-2.822-6.442-6.541-6.442A6.608,6.608,0,0,0,110.5,81.341Z" fill="none" stroke="#00e0ff" stroke-miterlimit="10" stroke-width="2"/>
      <path d="M140.989,89.11V79.016h21.847V89.11Z" fill="#00e0ff"/>
    </g>
    <g>
      <path d="M8.415,194.258h12.41V223.2h8.844V194.258H42.044V223.2h8.879V194.258H63.3v38.069H8.415Z" fill="none" stroke="#00e0ff" stroke-miterlimit="10" stroke-width="2"/>
      <path d="M68.368,221.316c0-7.132,5.488-11.117,15.346-11.711l8.914-.525v-2.167c0-3.041-2.167-4.719-5.418-4.719-3.356,0-5.489,1.748-5.838,4.09H70.22c.35-7.8,6.991-12.935,17.619-12.935,10.173,0,16.919,5.209,16.919,12.865v26.113H92.7v-5.418h-.244c-2.063,3.845-6.712,5.978-11.291,5.978C74.1,232.887,68.368,228.2,68.368,221.316Zm24.26-2.657v-2.622l-6.921.454c-3.251.245-5.069,1.748-5.069,3.986,0,2.412,1.992,3.88,4.929,3.88C89.342,224.357,92.628,222.05,92.628,218.659Z" fill="none" stroke="#00e0ff" stroke-miterlimit="10" stroke-width="2"/>
      <path d="M136.151,217.505h-12.48v14.822h-12.41V194.258h12.41v14.123h12.48V194.258h12.41v38.069h-12.41Z" fill="none" stroke="#00e0ff" stroke-miterlimit="10" stroke-width="2"/>
      <path d="M156.427,217.121V206.493h23v10.628Z" fill="#00e0ff"/>
    </g>
    <g>
      <path d="M31.829,335.172H19.349v14.822H6.939V311.925h12.41v14.123h12.48V311.925h12.41v38.069H31.829Z" fill="none" stroke="#00e0ff" stroke-miterlimit="10" stroke-width="2"/>
      <path d="M50.881,311.925H63.292v10.417h7.515c9.124,0,14.962,5.384,14.962,13.843,0,8.426-5.838,13.809-14.962,13.809H50.881Zm12.411,19.3v9.754h5c3.145,0,5.172-1.993,5.172-4.894,0-2.867-2.027-4.86-5.172-4.86Zm25.658-19.3h12.376v38.069H88.95Z" fill="none" stroke="#00e0ff" stroke-miterlimit="10" stroke-width="2"/>
      <path d="M107.968,349.994V311.925H120.1v21.5h.28l13.179-21.5h12.061v38.069h-12.1V328.075h-.279l-13.18,21.919Zm13.075-54.29c.139,3.251,2.2,5.733,5.873,5.733a5.553,5.553,0,0,0,5.837-5.733h7.341c-.139,6.327-4.894,11.536-13.178,11.536-8.321,0-13.04-5.209-13.215-11.536Z" fill="none" stroke="#00e0ff" stroke-miterlimit="10" stroke-width="2"/>
    </g>
  </g>
</svg>
