<svg xmlns="http://www.w3.org/2000/svg" width="590.05" height="834.965" viewBox="0 0 590.05 834.965">
  <title>Asset 31r</title>
  <g>
    <path d="M200.737,672.171H163.314v99.515h-42.6V672.171h-37.3V640.644H200.737Z" fill="none" stroke="#00e0ff" stroke-miterlimit="10" stroke-width="6"/>
    <path d="M379.054,640.644h42.717V676.5h25.873c31.406,0,51.5,18.532,51.5,47.652,0,29-20.1,47.531-51.5,47.531h-68.59Zm42.717,66.424v33.573H438.98c10.83,0,17.808-6.859,17.808-16.847,0-9.867-6.978-16.726-17.808-16.726ZM510.1,640.644h42.6V771.686H510.1Z" fill="none" stroke="#00e0ff" stroke-miterlimit="10" stroke-width="6"/>
    <path d="M358.027,413.805c0-41.428,28.793-67.063,73.38-68.156v-39h42.157v39c44.951,1.093,73.137,26,73.137,68.277,0,41.428-28.793,67.062-73.137,68.156v40.7H431.407v-40.7C386.334,480.988,358.027,456.083,358.027,413.805Zm73.865-36.812c-18.222.608-30.372,14.214-30.372,36.933,0,23.083,11.785,36.2,30.372,36.811Zm41.065,0v73.744c18.223-.607,30.372-14.214,30.372-36.811C503.329,390.722,491.423,377.722,472.957,376.993Z" fill="none" stroke="#00e0ff" stroke-miterlimit="10" stroke-width="6"/>
    <path d="M72.627,475.764V335.311h44.754V414.63h1.031l48.624-79.319h44.5V475.764H166.907V394.9h-1.033l-48.622,80.867Z" fill="none" stroke="#00e0ff" stroke-miterlimit="10" stroke-width="6"/>
    <path d="M513.367,107.916c0,39.94-17.889,63-48.378,63-18,0-31.5-8.55-37.465-22.726h-.788v60.529H386.8V46.6h39.715V68.426h.788C433.487,53.687,446.763,44.8,464.427,44.8,495.366,44.8,513.367,67.863,513.367,107.916Zm-40.727,0c0-19.464-9-31.952-23.065-31.952-13.95,0-22.951,12.6-23.064,31.952.113,19.464,9,31.84,23.064,31.84C463.751,139.756,472.64,127.38,472.64,107.916Z" fill="none" stroke="#00e0ff" stroke-miterlimit="10" stroke-width="6"/>
    <g>
      <path d="M506.832,794.565h-118.4a32.117,32.117,0,0,1-22.5-9.2,30.87,30.87,0,0,1-9.3-22.1v-116.3c0-27.9,34.3-41.8,54.3-22.1l118.4,116.4C549.332,760.865,535.132,794.565,506.832,794.565Z" fill="none" stroke="#231f20" stroke-miterlimit="10" stroke-width="5"/>
      <path d="M463.432,594.465a21.915,21.915,0,0,0-30.6,0,20.952,20.952,0,0,0,0,30.1l105.3,103.6a21.915,21.915,0,0,0,30.6,0,20.952,20.952,0,0,0,0-30.1Z" fill="none" stroke="#231f20" stroke-miterlimit="10" stroke-width="5"/>
    </g>
    <g>
      <path d="M97.732,780.765c14.5,0,26.3-33.4,26.3-74.6s-11.8-74.6-26.3-74.6-26.3,33.4-26.3,74.6S83.232,780.765,97.732,780.765Z" fill="none" stroke="#231f20" stroke-miterlimit="10" stroke-width="5"/>
      <path d="M185.232,780.765c14.5,0,26.3-33.4,26.3-74.6s-11.8-74.6-26.3-74.6-26.3,33.4-26.3,74.6S170.732,780.765,185.232,780.765Z" fill="none" stroke="#231f20" stroke-miterlimit="10" stroke-width="5"/>
      <path d="M142.132,620.765c44,0,79.7-11.8,79.7-26.3s-35.7-26.3-79.7-26.3-79.7,11.8-79.7,26.3S98.032,620.765,142.132,620.765Z" fill="none" stroke="#231f20" stroke-miterlimit="10" stroke-width="5"/>
      <path d="M142.132,832.465c22.2,0,40.1-10.9,40.1-24.2,0-13.4-18-24.2-40.1-24.2-22.2,0-40.1,10.9-40.1,24.2C101.932,821.665,119.932,832.465,142.132,832.465Z" fill="none" stroke="#231f20" stroke-miterlimit="10" stroke-width="5"/>
    </g>
    <path d="M578.532,463.665h-59.5v-12.8a4.069,4.069,0,0,0-.8-2.4,3.524,3.524,0,0,0-2-1.4,3.593,3.593,0,0,0-2.5.1,4.26,4.26,0,0,0-2,1.5,70.54,70.54,0,0,1-118.3-2,4.213,4.213,0,0,0-1.9-1.6,3.593,3.593,0,0,0-2.5-.1,3.755,3.755,0,0,0-2.1,1.4,4.069,4.069,0,0,0-.8,2.4v14.9h-59.6a9.473,9.473,0,0,1-4.7-1.3,8.8,8.8,0,0,1-3.3-3.6,9.057,9.057,0,0,1-1-4.8,8.34,8.34,0,0,1,1.7-4.6,70.57,70.57,0,0,0,0-80.2,9.932,9.932,0,0,1-1.7-4.6,8.865,8.865,0,0,1,1-4.8,9.537,9.537,0,0,1,3.3-3.6,8.781,8.781,0,0,1,4.7-1.3h59.5v14.9a4.069,4.069,0,0,0,.8,2.4,3.755,3.755,0,0,0,2.1,1.4,4.27,4.27,0,0,0,2.5-.1,3.754,3.754,0,0,0,1.9-1.6,70.6,70.6,0,0,1,118.3-2,4.208,4.208,0,0,0,4.5,1.6,4.831,4.831,0,0,0,2-1.4,4.069,4.069,0,0,0,.8-2.4v-12.8h59.6a9.473,9.473,0,0,1,4.7,1.3,8.8,8.8,0,0,1,3.3,3.6,9.057,9.057,0,0,1,1,4.8,8.34,8.34,0,0,1-1.7,4.6,70.57,70.57,0,0,0,0,80.2,9.932,9.932,0,0,1,1.7,4.6,8.865,8.865,0,0,1-1,4.8,9.537,9.537,0,0,1-3.3,3.6A8.781,8.781,0,0,1,578.532,463.665Z" fill="none" stroke="#231f20" stroke-miterlimit="10" stroke-width="5"/>
    <path d="M240.832,499.065h-77.7c-41.7,0-80.1-30.5-99.8-79.5l-33.5-83c-3.1-7.7,1.1-17.1,7.7-17.1h124.1c4.7,0,9.1,3.4,11.4,8.9,29.6,70.7,56.8,112.5,77.6,137.1C260.332,477.165,254.132,499.065,240.832,499.065Z" fill="none" stroke="#231f20" stroke-miterlimit="10" stroke-width="5"/>
    <g>
      <path d="M488.432,92.865a22.6,22.6,0,1,0-22.6-22.6A22.577,22.577,0,0,0,488.432,92.865Z" fill="none" stroke="#231f20" stroke-miterlimit="10" stroke-width="5"/>
      <path d="M414.132,239.865a13.366,13.366,0,0,1-5.2-1,16,16,0,0,1-4.4-2.9l-9.5-9.5a38.924,38.924,0,0,1-5.8-47.6c34.7-57.9,22.3-115.8,19.8-125.4-.2-.5-.3-.9-.4-1.2-3-10.1,4.2-15.1,5.7-16a13.411,13.411,0,0,1,16.6,1.8c1.4,1.4,2.7,2.7,4.3,8.5a7.491,7.491,0,0,1,.4,1.6c.6,2.4,1.2,5.4,1.9,9.3a199.612,199.612,0,0,1,2.8,33.6c0,25.3-4.9,63.5-27.9,101.7a11.843,11.843,0,0,0-1.6,7.6,11.361,11.361,0,0,0,3.4,6.9l9.5,9.5a13.353,13.353,0,0,1,3.7,6.9,13.015,13.015,0,0,1-.8,7.8,14.857,14.857,0,0,1-5,6.1,13.513,13.513,0,0,1-7.5,2.3Z" fill="none" stroke="#231f20" stroke-miterlimit="10" stroke-width="5"/>
    </g>
    <g>
      <path d="M40.632,225.965s-66.3-71.3,0-140.4c43.2-45.1,0-74.4,0-74.4" fill="none" stroke="#00e0ff" stroke-linecap="round" stroke-miterlimit="10" stroke-width="22.33"/>
      <path d="M101.532,191.465c-11.2-27.2-16-66.8,21.3-105.8,43.2-45.1,0-74.4,0-74.4" fill="none" stroke="#00e0ff" stroke-linecap="round" stroke-miterlimit="10" stroke-width="22.33"/>
      <path d="M205.332,225.965s-66.4-71.1-.1-140.2c43.2-45.1,0-74.4,0-74.4" fill="none" stroke="#00e0ff" stroke-linecap="round" stroke-miterlimit="10" stroke-width="22.33"/>
      <path d="M40.632,225.965s83.6-77.7,164.7,0c52.9,50.6,87.2,0,87.2,0" fill="none" stroke="#00e0ff" stroke-linecap="round" stroke-miterlimit="10" stroke-width="22.33"/>
    </g>
    <g>
      <g>
        <path d="M122.933,85.76V191.5a110.652,110.652,0,0,0-20.25,2.62C90.673,166.91,84.364,125.96,122.933,85.76Z" fill="none" stroke="#231f20" stroke-linejoin="round" stroke-width="5"/>
        <path d="M122.933,225.96v.2s-.06-.07-.18-.2Z" fill="none" stroke="#231f20" stroke-linejoin="round" stroke-width="5"/>
        <path d="M122.933,85.76V11.37S166.134,40.66,122.933,85.76Z" fill="none" stroke="#231f20" stroke-linejoin="round" stroke-width="5"/>
      </g>
      <path d="M40.632,225.965s-66.3-71.3,0-140.4c43.2-45.1,0-74.4,0-74.4Z" fill="none" stroke="#231f20" stroke-linejoin="round" stroke-width="5"/>
      <path d="M205.232,226.165s-66.3-71.3,0-140.4c43.2-45.1,0-74.4,0-74.4Z" fill="none" stroke="#231f20" stroke-linejoin="round" stroke-width="5"/>
      <path d="M205.334,225.96H40.634s25.529-23.72,62.049-31.84a110.652,110.652,0,0,1,20.25-2.62C148.243,190.6,176.943,198.76,205.334,225.96Z" fill="none" stroke="#231f20" stroke-linejoin="round" stroke-width="5"/>
      <path d="M292.533,225.96s-34.3,50.6-87.2,0Z" fill="none" stroke="#231f20" stroke-linejoin="round" stroke-width="5"/>
    </g>
  </g>
</svg>
