<svg xmlns="http://www.w3.org/2000/svg" width="587.55" height="832.465" viewBox="0 0 587.55 832.465">
  <title>Asset 30r</title>
  <g>
    <g>
      <path d="M506.832,794.565h-118.4a32.117,32.117,0,0,1-22.5-9.2,30.87,30.87,0,0,1-9.3-22.1v-116.3c0-27.9,34.3-41.8,54.3-22.1l118.4,116.4C549.332,760.865,535.132,794.565,506.832,794.565Z" fill="#231f20"/>
      <path d="M463.432,594.465a21.915,21.915,0,0,0-30.6,0,20.952,20.952,0,0,0,0,30.1l105.3,103.6a21.915,21.915,0,0,0,30.6,0,20.952,20.952,0,0,0,0-30.1Z" fill="#231f20"/>
    </g>
    <g>
      <path d="M97.732,780.765c14.5,0,26.3-33.4,26.3-74.6s-11.8-74.6-26.3-74.6-26.3,33.4-26.3,74.6S83.232,780.765,97.732,780.765Z" fill="#231f20"/>
      <path d="M185.232,780.765c14.5,0,26.3-33.4,26.3-74.6s-11.8-74.6-26.3-74.6-26.3,33.4-26.3,74.6S170.732,780.765,185.232,780.765Z" fill="#231f20"/>
      <path d="M142.132,620.765c44,0,79.7-11.8,79.7-26.3s-35.7-26.3-79.7-26.3-79.7,11.8-79.7,26.3S98.032,620.765,142.132,620.765Z" fill="#231f20"/>
      <path d="M142.132,832.465c22.2,0,40.1-10.9,40.1-24.2,0-13.4-18-24.2-40.1-24.2-22.2,0-40.1,10.9-40.1,24.2C101.932,821.665,119.932,832.465,142.132,832.465Z" fill="#231f20"/>
    </g>
    <path d="M578.532,463.665h-59.5v-12.8a4.069,4.069,0,0,0-.8-2.4,3.524,3.524,0,0,0-2-1.4,3.593,3.593,0,0,0-2.5.1,4.26,4.26,0,0,0-2,1.5,70.54,70.54,0,0,1-118.3-2,4.213,4.213,0,0,0-1.9-1.6,3.593,3.593,0,0,0-2.5-.1,3.755,3.755,0,0,0-2.1,1.4,4.069,4.069,0,0,0-.8,2.4v14.9h-59.6a9.473,9.473,0,0,1-4.7-1.3,8.8,8.8,0,0,1-3.3-3.6,9.057,9.057,0,0,1-1-4.8,8.34,8.34,0,0,1,1.7-4.6,70.57,70.57,0,0,0,0-80.2,9.932,9.932,0,0,1-1.7-4.6,8.865,8.865,0,0,1,1-4.8,9.537,9.537,0,0,1,3.3-3.6,8.781,8.781,0,0,1,4.7-1.3h59.5v14.9a4.069,4.069,0,0,0,.8,2.4,3.755,3.755,0,0,0,2.1,1.4,4.27,4.27,0,0,0,2.5-.1,3.754,3.754,0,0,0,1.9-1.6,70.6,70.6,0,0,1,118.3-2,4.208,4.208,0,0,0,4.5,1.6,4.831,4.831,0,0,0,2-1.4,4.069,4.069,0,0,0,.8-2.4v-12.8h59.6a9.473,9.473,0,0,1,4.7,1.3,8.8,8.8,0,0,1,3.3,3.6,9.057,9.057,0,0,1,1,4.8,8.34,8.34,0,0,1-1.7,4.6,70.57,70.57,0,0,0,0,80.2,9.932,9.932,0,0,1,1.7,4.6,8.865,8.865,0,0,1-1,4.8,9.537,9.537,0,0,1-3.3,3.6A8.781,8.781,0,0,1,578.532,463.665Z" fill="#231f20"/>
    <path d="M240.832,499.065h-77.7c-41.7,0-80.1-30.5-99.8-79.5l-33.5-83c-3.1-7.7,1.1-17.1,7.7-17.1h124.1c4.7,0,9.1,3.4,11.4,8.9,29.6,70.7,56.8,112.5,77.6,137.1C260.332,477.165,254.132,499.065,240.832,499.065Z" fill="#231f20"/>
    <g>
      <path d="M488.432,92.865a22.6,22.6,0,1,0-22.6-22.6A22.577,22.577,0,0,0,488.432,92.865Z" fill="#231f20"/>
      <path d="M414.132,239.865a13.366,13.366,0,0,1-5.2-1,16,16,0,0,1-4.4-2.9l-9.5-9.5a38.924,38.924,0,0,1-5.8-47.6c34.7-57.9,22.3-115.8,19.8-125.4-.2-.5-.3-.9-.4-1.2-3-10.1,4.2-15.1,5.7-16a13.411,13.411,0,0,1,16.6,1.8c1.4,1.4,2.7,2.7,4.3,8.5a7.491,7.491,0,0,1,.4,1.6c.6,2.4,1.2,5.4,1.9,9.3a199.612,199.612,0,0,1,2.8,33.6c0,25.3-4.9,63.5-27.9,101.7a11.843,11.843,0,0,0-1.6,7.6,11.361,11.361,0,0,0,3.4,6.9l9.5,9.5a13.353,13.353,0,0,1,3.7,6.9,13.015,13.015,0,0,1-.8,7.8,14.857,14.857,0,0,1-5,6.1,13.513,13.513,0,0,1-7.5,2.3Z" fill="#231f20"/>
    </g>
    <g>
      <path d="M122.932,226.165s-66.3-71.3,0-140.4c43.2-45.1,0-74.4,0-74.4Z" fill="#231f20"/>
      <path d="M40.632,225.965s-66.3-71.3,0-140.4c43.2-45.1,0-74.4,0-74.4Z" fill="#231f20"/>
      <path d="M205.232,226.165s-66.3-71.3,0-140.4c43.2-45.1,0-74.4,0-74.4Z" fill="#231f20"/>
      <path d="M40.632,225.965s83.6-77.7,164.7,0c52.9,50.6,87.2,0,87.2,0Z" fill="#231f20"/>
    </g>
    <g>
      <path d="M40.632,225.965s-66.3-71.3,0-140.4c43.2-45.1,0-74.4,0-74.4" fill="none" stroke="#00e0ff" stroke-linecap="round" stroke-miterlimit="10" stroke-width="22.33"/>
      <path d="M101.532,191.465c-11.2-27.2-16-66.8,21.3-105.8,43.2-45.1,0-74.4,0-74.4" fill="none" stroke="#00e0ff" stroke-linecap="round" stroke-miterlimit="10" stroke-width="22.33"/>
      <path d="M205.332,225.965s-66.4-71.1-.1-140.2c43.2-45.1,0-74.4,0-74.4" fill="none" stroke="#00e0ff" stroke-linecap="round" stroke-miterlimit="10" stroke-width="22.33"/>
      <path d="M40.632,225.965s83.6-77.7,164.7,0c52.9,50.6,87.2,0,87.2,0" fill="none" stroke="#00e0ff" stroke-linecap="round" stroke-miterlimit="10" stroke-width="22.33"/>
    </g>
  </g>
</svg>
