<svg width="1440" height="1482" viewBox="0 0 1440 1482" fill="none" xmlns="http://www.w3.org/2000/svg">
<rect width="1440" height="331" fill="#FF6B49"/>
<rect y="270.093" width="732.65" height="1211" fill="#7567F8"/>
<rect y="270.093" width="732.65" height="777" fill="#7567F8"/>
<g style="mix-blend-mode:darken">
<rect x="603" y="484.093" width="837" height="563" fill="#F89C67"/>
</g>
<path d="M1124.81 52.192L1439.98 357.5L1439.98 1200.11L709.959 471.76L1124.81 52.192Z" fill="#FF156E" fill-opacity="0.49"/>
<path d="M154.719 343.805L141.257 354.1C153.302 354.1 164.639 350.195 175.267 345.935L180.58 343.805H154.719ZM103.706 343.805H89.8894V354.1L103.706 343.805ZM154.719 83.235L141.257 93.53C171.015 96.725 194.751 123.35 194.751 155.655C194.751 171.63 189.083 186.54 179.163 197.545C192.625 186.185 208.567 164.885 208.567 145.36C208.567 113.41 184.477 86.785 154.719 83.235ZM138.778 219.2C138.778 219.2 154.365 219.2 166.41 224.17C191.563 234.82 209.63 258.96 209.63 288.07C209.63 308.66 200.773 326.765 186.603 339.545C204.316 327.12 222.738 301.56 222.738 278.13C222.738 249.02 204.67 224.525 179.518 214.23C174.204 212.1 168.536 211.035 163.93 210.325C158.616 209.26 152.24 209.26 152.24 209.26L138.778 219.2Z" fill="#35E2C3"/>
<path d="M296.183 343.805H377.664V353.745H417.695V94.24H399.628V83.945H296.183L282.721 94.24V353.745L296.183 343.805Z" fill="#35E2C3"/>
<path d="M489.322 83.59L475.152 93.53H439.017V354.1H475.152L489.322 343.805H592.767V305.465H509.161L522.977 295.17H606.583V220.975L592.767 231.27V195.77H509.161L522.977 185.475H606.583V110.925L592.767 121.22V83.59H489.322Z" fill="#35E2C3"/>
<path d="M797.957 354.81L812.836 366.17V96.37L797.957 85.365H683.176L653.063 63V332.8L667.942 343.805V124.415H683.176L756.154 343.805L771.033 354.81H797.957Z" fill="#35E2C3"/>
<path d="M870.431 84.655L856.26 95.305C856.26 95.305 890.269 98.855 905.503 104.89C955.099 124.77 990.171 173.405 990.171 229.85C990.171 269.965 972.458 306.175 944.826 330.67C979.543 306.53 1003.63 265.35 1003.63 219.555C1003.63 162.755 968.561 114.475 918.965 94.595C903.731 88.56 870.431 84.655 870.431 84.655ZM920.027 344.16H870.431L856.26 354.455H868.659C885.664 354.455 902.314 351.26 917.193 345.225L920.027 344.16Z" fill="#35E2C3"/>
<path d="M112.208 392.945L99.1002 402.53H77.4902V652.805H99.1002L112.208 642.865H137.006V652.805H217.424V544.885H150.468L163.93 534.945H230.886V500.51H150.468L163.93 490.925H244.348V429.865H230.886V392.945H112.208Z" fill="#35E2C3"/>
<path d="M500.213 652.805L514.03 664.52C520.406 660.97 526.074 657.065 531.743 652.805H500.213ZM371.262 392.945C320.248 415.665 284.822 466.43 284.822 525.715C284.822 573.64 307.849 616.24 343.63 642.865C315.997 616.24 298.638 578.965 298.638 537.43C298.638 478.145 334.064 427.38 385.078 404.66L371.262 392.945ZM502.339 404.66C511.904 408.92 521.115 414.245 529.617 420.635C517.572 409.275 503.756 399.69 488.168 392.945L502.339 404.66Z" fill="#35E2C3"/>
<path d="M790.691 663.81L805.57 675.17V405.37L790.691 394.365H675.911L645.798 372V641.8L660.677 652.805V433.415H675.911L748.889 652.805L763.768 663.81H790.691Z" fill="#35E2C3"/>
<path d="M903.552 413.89V652.805L918.076 664.875V425.96L903.552 413.89ZM862.457 381.23V413.89H876.982V393.3L862.457 381.23ZM968.027 652.805H953.502L968.027 664.875V652.805Z" fill="#35E2C3"/>
<path d="M154.719 343.805L141.257 354.1C153.302 354.1 164.639 350.195 175.267 345.935L180.58 343.805H154.719ZM103.706 343.805H89.8894V354.1L103.706 343.805ZM154.719 83.235L141.257 93.53C171.015 96.725 194.751 123.35 194.751 155.655C194.751 171.63 189.083 186.54 179.163 197.545C192.625 186.185 208.567 164.885 208.567 145.36C208.567 113.41 184.477 86.785 154.719 83.235ZM138.778 219.2C138.778 219.2 154.365 219.2 166.41 224.17C191.563 234.82 209.63 258.96 209.63 288.07C209.63 308.66 200.773 326.765 186.603 339.545C204.316 327.12 222.738 301.56 222.738 278.13C222.738 249.02 204.67 224.525 179.518 214.23C174.204 212.1 168.536 211.035 163.93 210.325C158.616 209.26 152.24 209.26 152.24 209.26L138.778 219.2Z" stroke="black" stroke-width="5" stroke-linejoin="round"/>
<path d="M296.183 343.805H377.664V353.745H417.695V94.24H399.628V83.945H296.183L282.721 94.24V353.745L296.183 343.805Z" stroke="black" stroke-width="5" stroke-linejoin="round"/>
<path d="M489.322 83.59L475.152 93.53H439.017V354.1H475.152L489.322 343.805H592.767V305.465H509.161L522.977 295.17H606.583V220.975L592.767 231.27V195.77H509.161L522.977 185.475H606.583V110.925L592.767 121.22V83.59H489.322Z" stroke="black" stroke-width="5" stroke-linejoin="round"/>
<path d="M797.957 354.81L812.836 366.17V96.37L797.957 85.365H683.176L653.063 63V332.8L667.942 343.805V124.415H683.176L756.154 343.805L771.033 354.81H797.957Z" stroke="black" stroke-width="5" stroke-linejoin="round"/>
<path d="M870.431 84.655L856.26 95.305C856.26 95.305 890.269 98.855 905.503 104.89C955.099 124.77 990.171 173.405 990.171 229.85C990.171 269.965 972.458 306.175 944.826 330.67C979.543 306.53 1003.63 265.35 1003.63 219.555C1003.63 162.755 968.561 114.475 918.965 94.595C903.731 88.56 870.431 84.655 870.431 84.655ZM920.027 344.16H870.431L856.26 354.455H868.659C885.664 354.455 902.314 351.26 917.193 345.225L920.027 344.16Z" stroke="black" stroke-width="5" stroke-linejoin="round"/>
<path d="M112.208 392.945L99.1002 402.53H77.4902V652.805H99.1002L112.208 642.865H137.006V652.805H217.424V544.885H150.468L163.93 534.945H230.886V500.51H150.468L163.93 490.925H244.348V429.865H230.886V392.945H112.208Z" stroke="black" stroke-width="5" stroke-linejoin="round"/>
<path d="M500.213 652.805L514.03 664.52C520.406 660.97 526.074 657.065 531.743 652.805H500.213ZM371.262 392.945C320.248 415.665 284.822 466.43 284.822 525.715C284.822 573.64 307.849 616.24 343.63 642.865C315.997 616.24 298.638 578.965 298.638 537.43C298.638 478.145 334.064 427.38 385.078 404.66L371.262 392.945ZM502.339 404.66C511.904 408.92 521.115 414.245 529.617 420.635C517.572 409.275 503.756 399.69 488.168 392.945L502.339 404.66Z" stroke="black" stroke-width="5" stroke-linejoin="round"/>
<path d="M790.691 663.81L805.57 675.17V405.37L790.691 394.365H675.911L645.798 372V641.8L660.677 652.805V433.415H675.911L748.889 652.805L763.768 663.81H790.691Z" stroke="black" stroke-width="5" stroke-linejoin="round"/>
<path d="M903.552 413.89V652.805L918.076 664.875V425.96L903.552 413.89ZM862.457 381.23V413.89H876.982V393.3L862.457 381.23ZM968.027 652.805H953.502L968.027 664.875V652.805Z" stroke="black" stroke-width="5" stroke-linejoin="round"/>
<g style="mix-blend-mode:multiply">
<path d="M154.719 83.235L141.257 93.53H103.706V83.235H77.4902V343.805H89.8894V354.1H143.029C153.657 354.1 171.37 348.065 180.58 343.805H243.285V83.235H154.719Z" fill="#35E2C3" fill-opacity="0.5"/>
<path d="M282.721 94.24H265.008V353.745H282.721L296.183 343.805V83.945L282.721 94.24ZM377.664 343.805V353.745L391.126 343.805H377.664Z" fill="#35E2C3" fill-opacity="0.5"/>
<path d="M475.152 93.53V354.1L489.323 343.805V83.59L475.152 93.53ZM509.161 121.22V195.77L522.977 185.475V121.22H509.161ZM509.161 231.27V305.465L522.977 295.17V231.27H509.161Z" fill="#35E2C3" fill-opacity="0.5"/>
<path d="M798.311 354.81L813.19 366.17H834.8V96.37H813.19L798.311 85.365V354.81ZM627.911 63V332.8H653.418L668.297 343.805H756.508L771.387 354.81L698.409 135.42L683.53 124.415V85.365L653.418 63H627.911Z" fill="#35E2C3" fill-opacity="0.5"/>
<path d="M1021.35 84.655H869.722L855.552 94.95V354.455H867.951C884.956 354.455 901.606 350.905 916.485 344.87L919.319 343.805H1021.35V84.655Z" fill="#35E2C3" fill-opacity="0.5"/>
<path d="M99.1002 402.53V652.805L112.208 642.865V392.945L99.1002 402.53ZM150.468 439.45V500.51L163.93 490.925V429.51L150.468 439.45ZM137.006 642.865V652.805L150.468 642.865H137.006Z" fill="#35E2C3" fill-opacity="0.5"/>
<path d="M443.531 392.235C422.984 392.235 402.791 396.85 385.078 404.66L371.262 392.945H265.692V652.805H355.674C380.119 671.265 410.585 682.98 443.531 682.98C469.038 682.98 493.128 676.235 514.03 664.52L500.213 652.805H599.407V392.945H488.168L502.339 404.66C484.272 396.85 464.433 392.235 443.531 392.235Z" fill="#35E2C3" fill-opacity="0.5"/>
<path d="M791.046 663.81L805.925 675.17H827.535V405.37H805.925L791.046 394.365V663.81ZM620.646 372V641.8H646.153L661.032 652.805H749.243L764.122 663.81L691.144 444.42L676.265 433.415V394.365L646.153 372H620.646Z" fill="#35E2C3" fill-opacity="0.5"/>
<path d="M1002.04 381.23H987.866V393.3H876.982L862.457 381.23H848.287V652.805H903.552L918.076 664.875H968.027V652.805H1002.04V381.23Z" fill="#35E2C3" fill-opacity="0.5"/>
<path d="M154.719 83.235L141.257 93.53H103.706V83.235H77.4902V343.805H89.8894V354.1H143.029C153.657 354.1 171.37 348.065 180.58 343.805H243.285V83.235H154.719Z" stroke="black" stroke-width="2" stroke-linejoin="round"/>
<path d="M282.721 94.24H265.008V353.745H282.721L296.183 343.805V83.945L282.721 94.24ZM377.664 343.805V353.745L391.126 343.805H377.664Z" stroke="black" stroke-width="2" stroke-linejoin="round"/>
<path d="M475.152 93.53V354.1L489.323 343.805V83.59L475.152 93.53ZM509.161 121.22V195.77L522.977 185.475V121.22H509.161ZM509.161 231.27V305.465L522.977 295.17V231.27H509.161Z" stroke="black" stroke-width="2" stroke-linejoin="round"/>
<path d="M798.311 354.81L813.19 366.17H834.8V96.37H813.19L798.311 85.365V354.81ZM627.911 63V332.8H653.418L668.297 343.805H756.508L771.387 354.81L698.409 135.42L683.53 124.415V85.365L653.418 63H627.911Z" stroke="black" stroke-width="2" stroke-linejoin="round"/>
<path d="M1021.35 84.655H869.722L855.552 94.95V354.455H867.951C884.956 354.455 901.606 350.905 916.485 344.87L919.319 343.805H1021.35V84.655Z" stroke="black" stroke-width="2" stroke-linejoin="round"/>
<path d="M99.1002 402.53V652.805L112.208 642.865V392.945L99.1002 402.53ZM150.468 439.45V500.51L163.93 490.925V429.51L150.468 439.45ZM137.006 642.865V652.805L150.468 642.865H137.006Z" stroke="black" stroke-width="2" stroke-linejoin="round"/>
<path d="M443.531 392.235C422.984 392.235 402.791 396.85 385.078 404.66L371.262 392.945H265.692V652.805H355.674C380.119 671.265 410.585 682.98 443.531 682.98C469.038 682.98 493.128 676.235 514.03 664.52L500.213 652.805H599.407V392.945H488.168L502.339 404.66C484.272 396.85 464.433 392.235 443.531 392.235Z" stroke="black" stroke-width="2" stroke-linejoin="round"/>
<path d="M791.046 663.81L805.925 675.17H827.535V405.37H805.925L791.046 394.365V663.81ZM620.646 372V641.8H646.153L661.032 652.805H749.243L764.122 663.81L691.144 444.42L676.265 433.415V394.365L646.153 372H620.646Z" stroke="black" stroke-width="2" stroke-linejoin="round"/>
<path d="M1002.04 381.23H987.866V393.3H876.982L862.457 381.23H848.287V652.805H903.552L918.076 664.875H968.027V652.805H1002.04V381.23Z" stroke="black" stroke-width="2" stroke-linejoin="round"/>
</g>
</svg>
