<svg width="1030" height="167" viewBox="0 0 1030 167" fill="none" xmlns="http://www.w3.org/2000/svg">
<path d="M98.9453 14.6836H100.859L98.0957 27.3789H102.871L105.586 14.6836H107.49L104.775 27.3789H109.502L112.236 14.6836H114.121L111.064 29H95.8496L98.9453 14.6836Z" fill="black"/>
<path d="M252.859 124L255.857 109.684H261.834C262.869 109.684 263.644 109.804 264.158 110.045C264.679 110.279 265.109 110.686 265.447 111.266C265.786 111.839 265.955 112.483 265.955 113.199C265.955 113.792 265.835 114.394 265.594 115.006C265.353 115.618 265.047 116.122 264.676 116.52C264.311 116.917 263.94 117.216 263.562 117.418C263.185 117.62 262.781 117.77 262.352 117.867C261.434 118.082 260.506 118.189 259.568 118.189H255.984L254.773 124H252.859ZM256.326 116.568H259.48C260.704 116.568 261.603 116.438 262.176 116.178C262.749 115.911 263.208 115.507 263.553 114.967C263.898 114.426 264.07 113.854 264.07 113.248C264.07 112.779 263.979 112.398 263.797 112.105C263.615 111.806 263.357 111.588 263.025 111.451C262.693 111.308 262.055 111.236 261.111 111.236H257.439L256.326 116.568Z" fill="black"/>
<path d="M452.926 26.6836H454.752L452.418 37.6797L462.232 26.6836H464.029L460.963 41H459.146L461.49 30.082L451.705 41H449.85L452.926 26.6836Z" fill="black"/>
<path d="M566.209 138.684H568.045L567.791 140.031C569.204 140.044 570.402 140.438 571.385 141.213C572.368 141.981 572.859 143.12 572.859 144.631C572.859 145.822 572.531 146.991 571.873 148.137C571.215 149.283 570.333 150.109 569.227 150.617C568.12 151.118 566.824 151.389 565.34 151.428L565.018 153H563.123L563.504 151.35C562.111 151.285 560.945 150.865 560.008 150.09C559.07 149.309 558.602 148.186 558.602 146.721C558.602 144.963 559.223 143.41 560.467 142.062C561.71 140.715 563.549 139.999 565.984 139.914L566.209 138.684ZM565.633 141.564C563.986 141.63 562.719 142.199 561.834 143.273C560.955 144.348 560.516 145.568 560.516 146.936C560.516 147.788 560.809 148.469 561.395 148.977C561.98 149.484 562.794 149.738 563.836 149.738L565.633 141.564ZM565.691 149.807C567.378 149.794 568.673 149.24 569.578 148.146C570.49 147.053 570.945 145.812 570.945 144.426C570.945 143.514 570.636 142.821 570.018 142.346C569.406 141.87 568.553 141.626 567.459 141.613L565.691 149.807Z" fill="black"/>
<path d="M792.541 64L795.188 51.3145H790.49L790.832 49.6836H802.102L801.76 51.3145H797.102L794.455 64H792.541Z" fill="black"/>
<path d="M1009.52 16.6836H1011.43L1008.38 31H1006.48L1009.52 16.6836ZM996.896 16.6836H998.791L997.502 22.7773H1000.4C1001.83 22.7773 1002.85 22.8848 1003.44 23.0996C1004.03 23.3079 1004.53 23.6823 1004.92 24.2227C1005.33 24.7565 1005.53 25.4206 1005.53 26.2148C1005.53 27.1654 1005.25 28.0378 1004.69 28.832C1004.14 29.6263 1003.46 30.1862 1002.65 30.5117C1001.84 30.8372 1000.54 31 998.742 31H993.85L996.896 16.6836ZM996.105 29.3789H997.785C999.471 29.3789 1000.67 29.2845 1001.39 29.0957C1002.11 28.9004 1002.66 28.5391 1003.04 28.0117C1003.42 27.4779 1003.62 26.9082 1003.62 26.3027C1003.62 25.8535 1003.49 25.4759 1003.23 25.1699C1002.99 24.8574 1002.65 24.6523 1002.21 24.5547C1001.78 24.4505 1001.09 24.3984 1000.15 24.3984H997.15L996.105 29.3789Z" fill="black"/>
</svg>
