<?xml version="1.0" encoding="utf-8"?>
<!-- Generator: Adobe Illustrator 22.0.1, SVG Export Plug-In . SVG Version: 6.00 Build 0)  -->
<svg version="1.1" id="Layer_1" xmlns="http://www.w3.org/2000/svg" xmlns:xlink="http://www.w3.org/1999/xlink" x="0px" y="0px"
	 viewBox="0 0 1075 76" style="enable-background:new 0 0 1075 76;" xml:space="preserve">
<style type="text/css">
	.st0{fill:#231F20;}
	.st1{fill:none;stroke:#FFFFFF;stroke-width:2;stroke-linecap:round;stroke-miterlimit:10;}
	.st2{fill:#FFFFFF;}
	.st3{fill:none;stroke:#231F20;stroke-width:6;stroke-linecap:round;stroke-miterlimit:10;}
	.st4{fill:none;stroke:#231F20;stroke-width:3.702;stroke-linecap:round;stroke-linejoin:round;}
	.st5{fill:none;stroke:#231F20;stroke-width:2.826;stroke-linecap:round;stroke-linejoin:round;}
	.st6{fill:none;stroke:#231F20;stroke-width:5;stroke-miterlimit:10;}
	.st7{fill:none;stroke:#B5FF17;stroke-width:3;stroke-linejoin:round;stroke-miterlimit:10;}
</style>
<path class="st0" d="M804,57.5c5.1,0,9.3-9,9.3-20.1s-4.1-20.1-9.3-20.1c-5.1,0-9.3,9-9.3,20.1C794.8,48.5,798.9,57.5,804,57.5z"/>
<path class="st0" d="M783.1,31.7h-35.5c-3.2,0-5.8,2.6-5.8,5.8s2.6,5.8,5.8,5.8h35.5c3.2,0,5.8-2.6,5.8-5.8S786.3,31.7,783.1,31.7z"
	/>
<path class="st1" d="M810.2,36.5c0.3,5.6-1.2,11.1-4.2,15.8"/>
<path class="st0" d="M649.3,57.5c5.1,0,9.3-9,9.3-20.1s-4.1-20.1-9.3-20.1c-5.1,0-9.3,9-9.3,20.1C640.1,48.5,644.2,57.5,649.3,57.5z
	"/>
<path class="st0" d="M726.7,57.5c5.1,0,9.3-9,9.3-20.1s-4.1-20.1-9.3-20.1c-5.1,0-9.3,9-9.3,20.1S721.6,57.5,726.7,57.5z"/>
<path class="st0" d="M705.7,31.7h-35.5c-3.2,0-5.8,2.6-5.8,5.8s2.6,5.8,5.8,5.8h35.5c3.2,0,5.8-2.6,5.8-5.8S708.9,31.7,705.7,31.7z"
	/>
<path class="st1" d="M732.1,36.5c0.3,5.6-1.2,11.1-4.2,15.7"/>
<path class="st1" d="M655,36.5c0.3,5.6-1.2,11.1-4.2,15.7"/>
<path class="st0" d="M1072.8,57.5h-92c-9.1,0-19.3-6.7-26.5-17.4L942.1,22c-1.1-1.7-0.8-3.7,0.7-3.7c4.4,0,22.4,0,42.2,0
	c1.8,4.5,6.5,7.9,11.1,7.9s7.5-3.4,6.9-7.9c20.2,0,38.5,0,41.9,0c1,0,2.2,0.7,3,2c10.6,15.5,19,24.6,24.9,30
	C1075.8,52.7,1075.7,57.5,1072.8,57.5z"/>
<path class="st2" d="M956.8,37.7c1,1.2,2,2.4,3,3.5s2.2,2.1,3.4,3.1c4.7,3.8,10.4,6.1,16.4,6.8c1.5,0.1,3,0.2,4.5,0.2l4.6,0.1
	c0.3,0,0.5,0.1,0.7,0.1c0.2,0.1,0.4,0.2,0.6,0.4c0.2,0.2,0.3,0.4,0.4,0.6c0.1,0.2,0.1,0.5,0.1,0.7c0,0.3-0.1,0.5-0.2,0.7
	c-0.1,0.2-0.2,0.4-0.4,0.6c-0.2,0.2-0.4,0.3-0.6,0.4c-0.2,0.1-0.5,0.1-0.7,0.1c-0.1,0-0.1,0-0.2,0l-4.6-0.5
	c-1.6-0.2-3.2-0.4-4.7-0.7c-3.1-0.7-6.1-1.8-9-3.3c-4.2-2.2-7.8-5.3-10.7-9.1C958.6,40.2,957.7,39,956.8,37.7z"/>
<path class="st2" d="M1069.9,54.6c-1.6,0.1-3.1,0.2-4.7,0.2s-3.2-0.1-4.8-0.3c-6.3-0.9-12.3-3.5-17.2-7.6c-1.2-1-2.3-2.1-3.4-3.2
	l-3.2-3.3l3.6,3c1.2,1,2.4,1.9,3.6,2.8c2.5,1.7,5.2,3.1,8.1,4c4.3,1.4,8.7,1.9,13.2,1.4c1.4-0.2,3-0.4,4.5-0.7l0,0
	c0.5-0.1,1,0.1,1.4,0.4c0.4,0.3,0.7,0.7,0.7,1.2c0.1,0.5-0.1,1-0.3,1.4c-0.3,0.4-0.7,0.7-1.2,0.8C1070,54.6,1070,54.6,1069.9,54.6z"
	/>
<path class="st3" d="M434.6,18.2c-4,11.7-20.7,36.8,9.1,36.8c29.8,0,18.9-36.8,42.6-36.8c21.1,0-15.2,39.4,16.5,39.4
	s17.8-39.4,41.1-39.4c20.1,0-15.3,39.5,13.7,39.4c3.8,0,7.7-0.7,11.3-2"/>
<path class="st4" d="M488.1,63c0,0,10.9,8.6,27.2,1.9"/>
<path class="st5" d="M491.4,70.4c0,0,8.3,6.6,20.8,1.5"/>
<path class="st4" d="M500.1,12.8c0,0-10.9-8.6-27.2-1.9"/>
<path class="st5" d="M496.9,5.4c0,0-8.3-6.6-20.8-1.5"/>
<path class="st0" d="M296.3,17.5v40.2h-40.2v-7.5c0-0.5-0.1-1.1-0.4-1.5c-0.3-0.5-0.7-0.8-1.1-1.1c-0.5-0.2-1-0.4-1.5-0.3
	c-0.5,0-1,0.2-1.5,0.5c-4.8,3.3-11.8,5.4-19.7,5.4c-8.1,0-15.3-2.2-20.1-5.7c-0.4-0.3-1-0.5-1.5-0.6c-0.5,0-1.1,0.1-1.6,0.3
	s-0.9,0.6-1.2,1.1s-0.4,1-0.4,1.5v7.8h-40.2V17.5h40.2v7.8c0,2.4,4.7,2.4,4.7,2.4s0.3,13.5,20.1,13.5s19.7-13.8,19.7-13.8
	s4.6-0.1,4.6-2.4v-7.5L296.3,17.5z"/>
<path class="st2" d="M208.5,38.4c3.5,2.5,7.3,4.6,11.3,6.1c4,1.4,8.2,2,12.4,1.9c4.2-0.2,8.4-1.1,12.4-2.5c4-1.5,7.9-3.3,11.7-5.4
	c-3.5,2.6-7.2,4.8-11.2,6.5c-0.5,0.2-1,0.4-1.5,0.6L242,46c-0.5,0.2-1,0.4-1.6,0.5l-1.6,0.4c-0.5,0.1-1.1,0.3-1.6,0.4l-1.6,0.2
	c-1.1,0.2-2.2,0.3-3.3,0.3c-2.2,0.1-4.4-0.1-6.6-0.4c-0.5-0.1-1.1-0.2-1.6-0.4l-1.6-0.4c-1-0.3-2.1-0.7-3.1-1.1
	C215.3,43.9,211.7,41.4,208.5,38.4z"/>
<path class="st6" d="M411.1,21.7L340,20.2c0,0-26.5-1.6-27.5,3.8c-2.8,14.1,75.9-1.3,76.9,13.7c0.9,15-76.6-4.8-79.6,9.3
	c-1.5,7.1,9.1,7.5,20.7,7.5h80.6"/>
<path class="st4" d="M346.4,61.3l60.7,2.8"/>
<path class="st4" d="M360.7,67.7l28.4,1.3"/>
<path class="st4" d="M387.1,10.5l-60.7,2.4"/>
<path class="st4" d="M372.4,5.3L344,6.4"/>
<path class="st0" d="M927.3,57.5H827.2c-1.4,0-2.8-0.6-3.8-1.6s-1.6-2.4-1.6-3.8v-29c0-1.4,0.6-2.8,1.6-3.8s2.4-1.6,3.8-1.6h63.2
	c5.5,0,10.9,2.2,14.8,6.1l25.4,25.4c0.7,0.7,1.1,1.5,1.3,2.4s0.1,1.9-0.3,2.8c-0.4,0.9-1,1.6-1.8,2.1
	C929.2,57.3,928.3,57.5,927.3,57.5z"/>
<path class="st0" d="M915,12.2c-2.4-2.4-6.4-2.4-8.8,0c-2.4,2.4-2.4,6.4,0,8.8l26.6,26.6c2.4,2.4,6.4,2.4,8.8,0
	c2.4-2.4,2.4-6.4,0-8.8L915,12.2z"/>
<path class="st1" d="M840.4,35.4l24.4,12.2"/>
<path class="st1" d="M837.1,29.3l12.2,6.1"/>
<path class="st1" d="M837.1,24.4l19.4,9.7"/>
<path class="st1" d="M884.5,37.5l19.4,9.7"/>
<path class="st1" d="M875.7,29.3l19.4,9.7"/>
<path class="st0" d="M607.9,17.4h12.2c2.7,0,5.2,1.1,7.1,2.9c1.9,1.9,2.9,4.4,2.9,7.1v19c0,1.5-0.3,2.9-0.8,4.3
	c-0.6,1.4-1.4,2.6-2.4,3.6s-2.3,1.9-3.6,2.4c-1.4,0.6-2.8,0.8-4.3,0.8c-3,0-5.8-1.2-7.9-3.3c-2.1-2.1-3.3-4.9-3.3-7.9L607.9,17.4
	L607.9,17.4z"/>
<path class="st0" d="M604.6,37.5v20.1c-2.6,0-5.3-0.5-7.7-1.5c-2.5-1-4.7-2.5-6.6-4.3c-1.9-1.9-3.4-4.1-4.4-6.5s-1.5-5.1-1.5-7.7
	s0.5-5.3,1.5-7.7s2.5-4.7,4.4-6.5c1.9-1.9,4.1-3.3,6.6-4.3s5.1-1.5,7.7-1.5h0.2L604.6,37.5z"/>
<path class="st1" d="M587.8,35.6c1.8-5.3,5.2-9.8,9.8-13"/>
<path class="st2" d="M622.1,53.7c2.3,0,4.2-3.2,4.2-7.1s-1.9-7.1-4.2-7.1s-4.2,3.2-4.2,7.1C618,50.6,619.9,53.7,622.1,53.7z"/>
<path class="st0" d="M0,37.6C0,42.9,2.1,48,5.9,51.7c3.8,3.8,8.8,5.9,14.2,5.9h134.1c-41.8,0-98.9-3.9-98.9-20.4
	s53.4-19.6,98.9-19.6H20c-2.6,0-5.2,0.5-7.7,1.5c-2.4,1-4.6,2.5-6.5,4.3c-1.9,1.9-3.3,4.1-4.3,6.5C0.5,32.3,0,34.9,0,37.6z"/>
<path class="st2" d="M26.4,38.9c12.9,0,23.3-0.8,23.3-1.7s-10.4-1.7-23.3-1.7S3.1,36.3,3.1,37.2C3.1,38.1,13.5,38.9,26.4,38.9z"/>
<g>
	<path class="st7" d="M84.9,33.6c-0.3-3.2-2.3-5.3-5.3-5.3c-3.6,0-5.7,3.1-5.7,8.6c0,5.6,2.1,8.7,5.7,8.7c3,0,4.9-1.9,5.3-5.2h9.3
		c-0.3,8-5.9,12.9-14.7,12.9c-9.8,0-15.9-6.1-15.9-16.4c0-10.1,6.1-16.4,15.8-16.4c8.8,0,14.5,5.3,14.8,13.1
		C94.2,33.6,84.9,33.6,84.9,33.6z"/>
</g>
<g>
	<path class="st7" d="M211.2,52.6V21.3h13.4l6.7,18.4h0.2l6.7-18.4h13.3v31.3h-9.4V32.3h-0.2l-7.1,18.1H228l-7.1-18.1h-0.2v20.3
		C220.7,52.6,211.2,52.6,211.2,52.6z"/>
</g>
<g>
	<path class="st7" d="M372.5,42.7c-1,6.5-6.7,10.6-14.9,10.6c-10,0-15.9-6.1-15.9-16.2s6-16.5,15.6-16.5c9.4,0,15.4,6.2,15.4,15.7
		v2.9h-21.1v0.6c0,3.7,2.5,6.3,6.2,6.3c2.7,0,4.9-1.3,5.6-3.4H372.5z M351.6,33.4H363c-0.2-3.3-2.4-5.6-5.7-5.6
		C354.2,27.8,351.9,30.1,351.6,33.4z"/>
</g>
<g>
	<path class="st7" d="M463.7,21.3h10.2v23.8h7.3V21.3h10.2v23.8h7.3V21.3h10.2v31.3h-45.1V21.3H463.7z"/>
</g>
<g>
	<path class="st7" d="M594.1,43.5c0-5.9,4.5-9.1,12.6-9.6l7.3-0.4v-1.8c0-2.5-1.8-3.9-4.5-3.9c-2.8,0-4.5,1.4-4.8,3.4h-9.2
		c0.3-6.4,5.7-10.6,14.5-10.6c8.4,0,13.9,4.3,13.9,10.6v21.5H614v-4.5h-0.2c-1.7,3.2-5.5,4.9-9.3,4.9
		C598.8,53,594.1,49.2,594.1,43.5z M614,41.3v-2.2l-5.7,0.4c-2.7,0.2-4.2,1.4-4.2,3.3c0,2,1.6,3.2,4.1,3.2
		C611.3,46,614,44.1,614,41.3z"/>
</g>
<g>
	<path class="st7" d="M694.1,40.4h-10.3v12.2h-10.2V21.3h10.2v11.6h10.3V21.3h10.2v31.3h-10.2V40.4z"/>
</g>
<g>
	<path class="st7" d="M769.5,40.4h-10.3v12.2H749V21.3h10.2v11.6h10.3V21.3h10.2v31.3h-10.2V40.4z"/>
</g>
<g>
	<path class="st7" d="M849.6,21.3h10.2v8.6h6.2c7.5,0,12.3,4.4,12.3,11.4c0,6.9-4.8,11.3-12.3,11.3h-16.4V21.3z M859.8,37.1v8h4.1
		c2.6,0,4.3-1.6,4.3-4s-1.7-4-4.3-4H859.8z M880.9,21.3h10.2v31.3h-10.2V21.3z"/>
</g>
<g>
	<path class="st7" d="M993.4,52.6V21.3h10V39h0.2l10.8-17.7h9.9v31.3h-9.9v-18h-0.2l-10.8,18H993.4z M1004.2,8
		c0.1,2.7,1.8,4.7,4.8,4.7s4.7-2,4.8-4.7h6c-0.1,5.2-4,9.5-10.8,9.5s-10.7-4.3-10.9-9.5H1004.2z"/>
</g>
</svg>
