<svg width="952" height="144" viewBox="0 0 952 144" fill="none">
    <g id='g1' style="mix-blend-mode:multiply">
        <path d="M86.6722 130L80.4402 134.756C86.0162 134.756 91.2642 132.952 96.1842 130.984L98.6442 130H86.6722ZM63.0562 130H56.6602V134.756L63.0562 130ZM86.6722 9.62402L80.4402 14.38C94.2162 15.856 105.204 28.156 105.204 43.08C105.204 50.46 102.58 57.348 97.9882 62.432C104.22 57.184 111.6 47.344 111.6 38.324C111.6 23.564 100.448 11.264 86.6722 9.62402ZM79.2922 72.436C79.2922 72.436 86.5082 72.436 92.0842 74.732C103.728 79.652 112.092 90.804 112.092 104.252C112.092 113.764 107.992 122.128 101.432 128.032C109.632 122.292 118.16 110.484 118.16 99.66C118.16 86.212 109.796 74.896 98.1522 70.14C95.6922 69.156 93.0682 68.664 90.9362 68.336C88.4762 67.844 85.5242 67.844 85.5242 67.844L79.2922 72.436Z" fill="#FF7246"/>
        <path d="M152.16 130H189.88V134.592H208.412V14.708H200.048V9.95197H152.16L145.928 14.708V134.592L152.16 130Z" fill="#FF7246"/>
        <path d="M241.571 9.78802L235.011 14.38H218.283V134.756H235.011L241.571 130H289.459V112.288H250.755L257.151 107.532H295.855V73.256L289.459 78.012V61.612H250.755L257.151 56.856H295.855V22.416L289.459 27.172V9.78802H241.571Z" fill="#FF7246"/>
        <path d="M384.449 135.084L391.337 140.332V15.692L384.449 10.608H331.313L317.373 0.276001V124.916L324.261 130V28.648H331.313L365.097 130L371.985 135.084H384.449Z" fill="#FF7246"/>
        <path d="M417.999 10.28L411.439 15.2C411.439 15.2 427.183 16.84 434.235 19.628C457.195 28.812 473.431 51.28 473.431 77.356C473.431 95.888 465.231 112.616 452.439 123.932C468.511 112.78 479.663 93.756 479.663 72.6C479.663 46.36 463.427 24.056 440.467 14.872C433.415 12.084 417.999 10.28 417.999 10.28ZM440.959 130.164H417.999L411.439 134.92H417.179C425.051 134.92 432.759 133.444 439.647 130.656L440.959 130.164Z" fill="#FF7246"/>
        <path d="M554.828 9.95197L548.76 14.38H538.756V130H548.76L554.828 125.408H566.308V130H603.536V80.144H572.54L578.772 75.552H609.768V59.644H572.54L578.772 55.216H616V27.008H609.768V9.95197H554.828Z" fill="#FF7246"/>
        <path d="M734.448 130L740.844 135.412C743.796 133.772 746.42 131.968 749.044 130H734.448ZM674.752 9.95197C651.136 20.448 634.736 43.9 634.736 71.288C634.736 93.428 645.396 113.108 661.96 125.408C649.168 113.108 641.132 95.888 641.132 76.7C641.132 49.312 657.532 25.86 681.148 15.364L674.752 9.95197ZM735.432 15.364C739.86 17.332 744.124 19.792 748.06 22.744C742.484 17.496 736.088 13.068 728.872 9.95197L735.432 15.364Z" fill="#FF7246"/>
        <path d="M868.922 135.084L875.81 140.332V15.692L868.922 10.608H815.786L801.846 0.276001V124.916L808.734 130V28.648H815.786L849.57 130L856.458 135.084H868.922Z" fill="#FF7246"/>
        <path d="M921.169 19.628V130L927.893 135.576V25.204L921.169 19.628ZM902.145 4.53998V19.628H908.869V10.116L902.145 4.53998ZM951.017 130H944.293L951.017 135.576V130Z" fill="#FF7246"/>
    </g>
    <g id='g2' style="mix-blend-mode:multiply">
        <path d="M36.6719 9.62402L30.4399 14.38H13.0559V9.62402H0.919922V130H6.65992V134.756H31.2599C36.1799 134.756 44.3799 131.968 48.6439 130H77.6719V9.62402H36.6719Z" fill="#00F0FF"/>
        <path d="M95.9285 14.708H87.7285V134.592H95.9285L102.16 130V9.95197L95.9285 14.708ZM139.88 130V134.592L146.112 130H139.88Z" fill="#00F0FF"/>
        <path d="M185.012 14.38V134.756L191.572 130V9.78802L185.012 14.38ZM200.756 27.172V61.612L207.152 56.856V27.172H200.756ZM200.756 78.012V112.288L207.152 107.532V78.012H200.756Z" fill="#00F0FF"/>
        <path d="M334.613 135.084L341.501 140.332H351.505V15.692H341.501L334.613 10.608V135.084ZM255.729 0.276001V124.916H267.536L274.424 130H315.26L322.148 135.084L288.365 33.732L281.477 28.648V10.608L267.536 0.276001H255.729Z" fill="#00F0FF"/>
        <path d="M437.863 10.28H367.671L361.111 15.036V134.92H366.851C374.723 134.92 382.431 133.28 389.319 130.492L390.631 130H437.863V10.28Z" fill="#00F0FF"/>
        <path d="M498.76 14.38V130L504.828 125.408V9.95197L498.76 14.38ZM522.54 31.436V59.644L528.772 55.216V26.844L522.54 31.436ZM516.308 125.408V130L522.54 125.408H516.308Z" fill="#00F0FF"/>
        <path d="M658.209 9.62402C648.697 9.62402 639.349 11.756 631.149 15.364L624.753 9.95201H575.881V130H617.537C628.853 138.528 642.957 143.94 658.209 143.94C670.017 143.94 681.169 140.824 690.845 135.412L684.449 130H730.369V9.95201H678.873L685.433 15.364C677.069 11.756 667.885 9.62402 658.209 9.62402Z" fill="#00F0FF"/>
        <path d="M819.085 135.084L825.973 140.332H835.977V15.692H825.973L819.085 10.608V135.084ZM740.201 0.276001V124.916H752.009L758.897 130H799.733L806.621 135.084L772.837 33.732L765.949 28.648V10.608L752.009 0.276001H740.201Z" fill="#00F0FF"/>
        <path d="M916.76 4.53998H910.2V10.116H858.868L852.144 4.53998H845.584V130H871.168L877.892 135.576H901.016V130H916.76V4.53998Z" fill="#00F0FF"/>
    </g>
</svg>
