<?xml version="1.0" encoding="utf-8"?>
<!-- Generator: Adobe Illustrator 22.0.1, SVG Export Plug-In . SVG Version: 6.00 Build 0)  -->
<svg version="1.1" id="Layer_1" xmlns="http://www.w3.org/2000/svg" xmlns:xlink="http://www.w3.org/1999/xlink" x="0px" y="0px"
	 viewBox="0 0 436.9 370.8" style="enable-background:new 0 0 436.9 370.8;" xml:space="preserve">
<style type="text/css">
	.st0{fill:#FF7246;}
	.st1{fill:#00F0FF;}
</style>
<g>
	<path class="st0" d="M35.8,188.9l-6.2,4.8c5.6,0,10.8-1.8,15.7-3.8l2.5-1H35.8z M12.1,188.9H5.7v4.8L12.1,188.9z M35.8,68.5
		l-6.2,4.8c13.8,1.5,24.8,13.8,24.8,28.7c0,7.4-2.6,14.3-7.2,19.4c6.2-5.2,13.6-15.1,13.6-24.1C60.7,82.5,49.5,70.2,35.8,68.5z
		 M28.4,131.4c0,0,7.2,0,12.8,2.3c11.6,4.9,20,16.1,20,29.5c0,9.5-4.1,17.9-10.7,23.8c8.2-5.7,16.7-17.5,16.7-28.4
		c0-13.4-8.4-24.8-20-29.5c-2.5-1-5.1-1.5-7.2-1.8c-2.5-0.5-5.4-0.5-5.4-0.5L28.4,131.4z"/>
	<path class="st0" d="M101.2,188.9H139v4.6h18.5V73.6h-8.4v-4.7h-47.9L95,73.6v119.9L101.2,188.9z"/>
	<path class="st0" d="M190.7,68.7l-6.6,4.6h-16.7v120.4h16.7l6.6-4.8h47.9v-17.7h-38.7l6.4-4.8H245v-34.2l-6.4,4.8v-16.5h-38.7
		l6.4-4.8H245V81.3l-6.4,4.8V68.7H190.7z"/>
	<path class="st0" d="M333.5,194l6.9,5.2V74.6l-6.9-5.1h-53.1l-13.9-10.3v124.6l6.9,5.1V87.6h7.1L314.3,189l6.9,5.1h12.3V194z"/>
	<path class="st0" d="M367.1,69.2l-6.6,4.9c0,0,15.7,1.6,22.8,4.4c23,9.2,39.2,31.7,39.2,57.7c0,18.5-8.2,35.3-21,46.6
		c16.1-11.2,27.2-30.2,27.2-51.3c0-26.2-16.2-48.5-39.2-57.7C382.5,71,367.1,69.2,367.1,69.2z M390,189.1h-23l-6.6,4.8h5.7
		c7.9,0,15.6-1.5,22.5-4.3L390,189.1z"/>
	<path class="st0" d="M16.1,236.9l-6.1,4.4H0v115.6h10l6.1-4.6h11.5v4.6h37.2V307h-31l6.2-4.6h31v-15.9H33.8l6.2-4.4h37.2v-28.2H71
		v-17.1H16.1V236.9z"/>
	<path class="st0" d="M195.7,356.9l6.4,5.4c3-1.6,5.6-3.4,8.2-5.4H195.7z M136,236.9c-23.6,10.5-40,33.9-40,61.3
		c0,22.1,10.7,41.8,27.2,54.1c-12.8-12.3-20.8-29.5-20.8-48.7c0-27.4,16.4-50.8,40-61.3L136,236.9z M196.7,242.3
		c4.4,2,8.7,4.4,12.6,7.4c-5.6-5.2-12-9.7-19.2-12.8L196.7,242.3z"/>
	<path class="st0" d="M330.2,362l6.9,5.2V242.6l-6.9-5.1H277l-13.9-10.3v124.6l6.9,5.1V255.6h7.1L310.9,357l6.9,5.1h12.4V362z"/>
	<path class="st0" d="M382.4,246.5v110.4l6.7,5.6V252.1L382.4,246.5z M363.4,231.5v15.1h6.7v-9.5L363.4,231.5z M412.3,356.9h-6.7
		l6.7,5.6V356.9z"/>
</g>
<g>
	<path class="st1" d="M35.8,68.5l-6.2,4.8H12.1v-4.8H0v120.4h5.7v4.8h24.6c4.9,0,13.1-2.8,17.4-4.8h29V68.5H35.8z"/>
	<path class="st1" d="M95,73.6h-8.2v119.9H95l6.2-4.6v-120L95,73.6z M139,188.9v4.6l6.2-4.6H139z"/>
	<path class="st1" d="M184.1,73.3v120.4l6.6-4.8V68.7L184.1,73.3z M199.8,86v34.4l6.4-4.8V86H199.8z M199.8,136.9v34.3l6.4-4.8
		v-29.5H199.8z"/>
	<path class="st1" d="M333.7,194l6.9,5.2h10V74.6h-10l-6.9-5.1V194z M254.8,59.1v124.6h11.8l6.9,5.1h40.8l6.9,5.1L287.4,92.6
		l-6.9-5.1v-18l-13.9-10.3h-11.8V59.1z"/>
	<path class="st1" d="M436.9,69.2h-70.2l-6.6,4.8v119.9h5.7c7.9,0,15.6-1.6,22.5-4.4l1.3-0.5h47.2L436.9,69.2L436.9,69.2z"/>
	<path class="st1" d="M10,241.2v115.6l6.1-4.6V236.8L10,241.2z M33.8,258.3v28.2l6.2-4.4v-28.4L33.8,258.3z M27.6,352.3v4.6l6.2-4.6
		H27.6z"/>
	<path class="st1" d="M169.5,236.5c-9.5,0-18.9,2.1-27.1,5.7l-6.4-5.4H87.1v120h41.7c11.3,8.5,25.4,13.9,40.7,13.9
		c11.8,0,23-3.1,32.6-8.5l-6.4-5.4h45.9v-120h-51.5l6.6,5.4C188.3,238.6,179.1,236.5,169.5,236.5z"/>
	<path class="st1" d="M330.3,361.9l6.9,5.2h10V242.6h-10l-6.9-5.1V361.9z M251.4,227.1v124.6h11.8l6.9,5.1H311l6.9,5.1l-33.8-101.4
		l-6.9-5.1v-18l-13.9-10.3L251.4,227.1L251.4,227.1z"/>
	<path class="st1" d="M428,231.4h-6.6v5.6h-51.3l-6.7-5.6h-6.6v125.5h25.6l6.7,5.6h23.1v-5.6H428V231.4z"/>
</g>
</svg>
