<?xml version="1.0" encoding="utf-8"?>
<!-- Generator: Adobe Illustrator 22.0.1, SVG Export Plug-In . SVG Version: 6.00 Build 0)  -->
<svg version="1.1" id="Layer_1" xmlns="http://www.w3.org/2000/svg" xmlns:xlink="http://www.w3.org/1999/xlink" x="0px" y="0px"
	 viewBox="0 0 594.3 41.2" style="enable-background:new 0 0 594.3 41.2;" xml:space="preserve">
<style type="text/css">
	.st0{fill:#231F20;}
	.st1{fill:none;stroke:#FFFFFF;stroke-width:1.1057;stroke-linecap:round;stroke-miterlimit:10;}
	.st2{fill:#FFFFFF;}
	.st3{fill:none;stroke:#231F20;stroke-width:3.317;stroke-linecap:round;stroke-miterlimit:10;}
	.st4{fill:none;stroke:#231F20;stroke-width:2.0466;stroke-linecap:round;stroke-linejoin:round;}
	.st5{fill:none;stroke:#231F20;stroke-width:1.5623;stroke-linecap:round;stroke-linejoin:round;}
	.st6{fill:none;stroke:#231F20;stroke-width:2.7642;stroke-miterlimit:10;}
</style>
<path class="st0" d="M444.5,31.5c2.8,0,5.1-5,5.1-11.1c0-6.1-2.3-11.1-5.1-11.1c-2.8,0-5.1,5-5.1,11.1
	C439.4,26.5,441.7,31.5,444.5,31.5z"/>
<path class="st0" d="M432.9,17.2h-19.6c-1.8,0-3.2,1.4-3.2,3.2s1.4,3.2,3.2,3.2h19.6c1.8,0,3.2-1.4,3.2-3.2S434.7,17.2,432.9,17.2z"
	/>
<path class="st1" d="M447.9,19.8c0.2,3.1-0.6,6.1-2.3,8.7"/>
<path class="st0" d="M359,31.5c2.8,0,5.1-5,5.1-11.1c0-6.1-2.3-11.1-5.1-11.1c-2.8,0-5.1,5-5.1,11.1C353.8,26.5,356.1,31.5,359,31.5
	z"/>
<path class="st0" d="M401.7,31.5c2.8,0,5.1-5,5.1-11.1c0-6.1-2.3-11.1-5.1-11.1c-2.8,0-5.1,5-5.1,11.1
	C396.6,26.5,398.9,31.5,401.7,31.5z"/>
<path class="st0" d="M390.2,17.2h-19.6c-1.8,0-3.2,1.4-3.2,3.2s1.4,3.2,3.2,3.2h19.6c1.8,0,3.2-1.4,3.2-3.2S391.9,17.2,390.2,17.2z"
	/>
<path class="st1" d="M404.7,19.8c0.2,3.1-0.6,6.1-2.3,8.7"/>
<path class="st1" d="M362.1,19.8c0.2,3.1-0.6,6.1-2.3,8.7"/>
<path class="st0" d="M593.1,31.5h-50.9c-5,0-10.7-3.7-14.6-9.6l-6.7-10c-0.6-0.9-0.4-2.1,0.4-2.1c2.4,0,12.4,0,23.3,0
	c1,2.5,3.6,4.4,6.2,4.4c2.6,0,4.2-1.9,3.8-4.4c11.2,0,21.3,0,23.1,0c0.6,0,1.2,0.4,1.7,1.1c5.8,8.5,10.5,13.6,13.8,16.6
	C594.7,28.8,594.7,31.5,593.1,31.5z"/>
<path class="st2" d="M529,20.5c0.6,0.6,1.1,1.3,1.7,1.9c0.6,0.6,1.2,1.2,1.9,1.7c2.6,2.1,5.7,3.4,9.1,3.8c0.8,0.1,1.6,0.1,2.5,0.1
	l2.6,0c0.1,0,0.3,0,0.4,0.1c0.1,0.1,0.2,0.1,0.3,0.2c0.1,0.1,0.2,0.2,0.2,0.3c0,0.1,0.1,0.3,0.1,0.4c0,0.1,0,0.3-0.1,0.4
	c-0.1,0.1-0.1,0.2-0.2,0.3c-0.1,0.1-0.2,0.2-0.3,0.2c-0.1,0-0.3,0.1-0.4,0.1c0,0-0.1,0-0.1,0l-2.5-0.3c-0.9-0.1-1.7-0.2-2.6-0.4
	c-1.7-0.4-3.4-1-5-1.8c-2.3-1.2-4.3-3-5.9-5C529.9,21.9,529.5,21.2,529,20.5z"/>
<path class="st2" d="M591.5,29.9c-0.9,0-1.7,0.1-2.6,0.1c-0.9,0-1.8-0.1-2.7-0.2c-3.5-0.5-6.8-1.9-9.5-4.2c-0.7-0.6-1.3-1.2-1.9-1.8
	l-1.8-1.8l2,1.6c0.6,0.6,1.3,1.1,2,1.6c1.4,0.9,2.9,1.7,4.5,2.2c2.3,0.8,4.8,1,7.3,0.8c0.8-0.1,1.6-0.2,2.5-0.4h0
	c0.3,0,0.5,0,0.8,0.2c0.2,0.2,0.4,0.4,0.4,0.7c0,0.3,0,0.5-0.2,0.8c-0.2,0.2-0.4,0.4-0.7,0.4C591.6,29.9,591.5,29.9,591.5,29.9z"/>
<path class="st3" d="M240.2,9.7c-2.2,6.5-11.4,20.3,5,20.3c16.5,0,10.5-20.3,23.5-20.3c11.7,0-8.4,21.8,9.1,21.8
	c17.5,0,9.8-21.8,22.7-21.8c11.1,0-8.5,21.8,7.6,21.8c2.1,0,4.2-0.4,6.2-1.1"/>
<path class="st4" d="M269.8,34.5c0,0,6,4.8,15.1,1.1"/>
<path class="st5" d="M271.6,38.6c0,0,4.6,3.6,11.5,0.8"/>
<path class="st4" d="M276.5,6.7c0,0-6-4.8-15.1-1.1"/>
<path class="st5" d="M274.7,2.7c0,0-4.6-3.6-11.5-0.8"/>
<path class="st0" d="M163.8,9.3v22.2h-22.2v-4.1c0-0.3-0.1-0.6-0.2-0.8c-0.2-0.3-0.4-0.5-0.6-0.6c-0.3-0.1-0.6-0.2-0.8-0.2
	c-0.3,0-0.6,0.1-0.8,0.3c-2.6,1.8-6.5,3-10.9,3c-4.5,0-8.5-1.2-11.1-3.1c-0.2-0.2-0.5-0.3-0.8-0.3c-0.3,0-0.6,0-0.9,0.2
	c-0.3,0.1-0.5,0.3-0.7,0.6c-0.2,0.3-0.2,0.6-0.2,0.9v4.3H92.2V9.3h22.2v4.3c0,1.3,2.6,1.3,2.6,1.3s0.1,7.5,11.1,7.5
	c11,0,10.9-7.6,10.9-7.6s2.5,0,2.5-1.3V9.4L163.8,9.3z"/>
<path class="st2" d="M115.3,20.9c1.9,1.4,4,2.5,6.2,3.3c2.2,0.8,4.5,1.1,6.9,1c2.3-0.1,4.7-0.6,6.9-1.4c2.2-0.8,4.4-1.8,6.5-3
	c-1.9,1.5-4,2.7-6.2,3.6c-0.3,0.1-0.6,0.2-0.8,0.3l-0.9,0.3c-0.3,0.1-0.6,0.2-0.9,0.3l-0.9,0.2c-0.3,0.1-0.6,0.2-0.9,0.2l-0.9,0.1
	c-0.6,0.1-1.2,0.1-1.8,0.2c-1.2,0-2.4,0-3.6-0.2c-0.3,0-0.6-0.1-0.9-0.2l-0.9-0.2c-0.6-0.2-1.2-0.4-1.7-0.6
	C119,23.9,117,22.6,115.3,20.9z"/>
<path class="st6" d="M227.2,11.7l-39.3-0.8c0,0-14.6-0.9-15.2,2.1c-1.5,7.8,42-0.7,42.5,7.6c0.5,8.3-42.4-2.7-44,5.1
	c-0.8,3.9,5,4.2,11.5,4.2h44.6"/>
<path class="st4" d="M191.5,33.6l33.6,1.5"/>
<path class="st4" d="M199.4,37.1l15.7,0.7"/>
<path class="st4" d="M214,5.5l-33.6,1.3"/>
<path class="st4" d="M205.8,2.6l-15.7,0.6"/>
<path class="st0" d="M512.7,31.5h-55.3c-0.8,0-1.5-0.3-2.1-0.9c-0.6-0.6-0.9-1.3-0.9-2.1v-16c0-0.8,0.3-1.5,0.9-2.1
	c0.6-0.6,1.3-0.9,2.1-0.9h35c3.1,0,6,1.2,8.2,3.4L514.5,27c0.4,0.4,0.6,0.8,0.7,1.3c0.1,0.5,0,1-0.1,1.5c-0.2,0.5-0.5,0.9-1,1.2
	C513.7,31.3,513.2,31.5,512.7,31.5z"/>
<path class="st0" d="M505.8,6.4c-1.3-1.3-3.5-1.3-4.9,0c-1.3,1.3-1.3,3.5,0,4.9L515.7,26c1.3,1.3,3.5,1.3,4.9,0
	c1.3-1.3,1.3-3.5,0-4.9L505.8,6.4z"/>
<path class="st1" d="M464.6,19.2l13.5,6.7"/>
<path class="st1" d="M462.8,15.9l6.8,3.4"/>
<path class="st1" d="M462.8,13.2l10.7,5.3"/>
<path class="st1" d="M489,20.4l10.7,5.3"/>
<path class="st1" d="M484.1,15.9l10.7,5.3"/>
<path class="st0" d="M336,9.3h6.7c1.5,0,2.9,0.6,3.9,1.6c1,1,1.6,2.5,1.6,3.9v10.5c0,0.8-0.2,1.6-0.5,2.4c-0.3,0.7-0.8,1.4-1.3,2
	c-0.6,0.6-1.2,1-2,1.3c-0.7,0.3-1.5,0.5-2.4,0.5c-1.6,0-3.2-0.6-4.4-1.8c-1.2-1.2-1.8-2.7-1.8-4.4L336,9.3L336,9.3z"/>
<path class="st0" d="M334.2,20.4v11.1c-1.5,0-2.9-0.3-4.3-0.8c-1.4-0.6-2.6-1.4-3.6-2.4c-1-1-1.9-2.3-2.4-3.6
	c-0.6-1.4-0.9-2.8-0.9-4.3s0.3-2.9,0.9-4.3c0.6-1.4,1.4-2.6,2.4-3.6c1-1,2.3-1.8,3.6-2.4c1.4-0.6,2.8-0.8,4.3-0.8h0.1L334.2,20.4z"
	/>
<path class="st1" d="M324.9,19.4c1-2.9,2.9-5.4,5.4-7.2"/>
<path class="st2" d="M343.9,29.4c1.3,0,2.3-1.7,2.3-3.9c0-2.2-1-3.9-2.3-3.9c-1.3,0-2.3,1.7-2.3,3.9
	C341.6,27.6,342.7,29.4,343.9,29.4z"/>
<path class="st0" d="M0,20.4c0,2.9,1.2,5.8,3.2,7.8c2.1,2.1,4.9,3.2,7.8,3.2h74.1c-23.1,0-54.7-2.1-54.7-11.3
	c0-9.1,29.5-10.9,54.7-10.9H11.1c-1.5,0-2.9,0.3-4.2,0.8c-1.3,0.6-2.6,1.4-3.6,2.4c-1,1-1.8,2.2-2.4,3.6C0.3,17.6,0,19,0,20.4z"/>
<path class="st2" d="M14.6,21.2c7.1,0,12.9-0.4,12.9-0.9c0-0.5-5.8-0.9-12.9-0.9c-7.1,0-12.9,0.4-12.9,0.9
	C1.7,20.8,7.5,21.2,14.6,21.2z"/>
</svg>
