<svg width="1075" height="76" viewBox="0 0 1075 76" fill="none" xmlns="http://www.w3.org/2000/svg">
<path d="M804.035 57.544C809.147 57.544 813.292 48.55 813.292 37.4558C813.292 26.3611 809.147 17.3671 804.035 17.3671C798.922 17.3671 794.777 26.3611 794.777 37.4558C794.777 48.55 798.922 57.544 804.035 57.544Z" fill="#231F20"/>
<path d="M783.098 31.67H747.612C744.417 31.67 741.826 34.2604 741.826 37.4558C741.826 40.6512 744.417 43.2416 747.612 43.2416H783.098C786.294 43.2416 788.884 40.6512 788.884 37.4558C788.884 34.2604 786.294 31.67 783.098 31.67Z" fill="#231F20"/>
<path d="M810.214 36.451C810.514 42.0125 809.045 47.526 806.018 52.201" stroke="white" stroke-width="2" stroke-miterlimit="10" stroke-linecap="round"/>
<path d="M649.314 57.544C654.427 57.544 658.571 48.55 658.571 37.4558C658.571 26.3611 654.427 17.3671 649.314 17.3671C644.201 17.3671 640.057 26.3611 640.057 37.4558C640.057 48.55 644.201 57.544 649.314 57.544Z" fill="#231F20"/>
<path d="M726.675 57.544C731.788 57.544 735.933 48.55 735.933 37.4558C735.933 26.3611 731.788 17.3671 726.675 17.3671C721.563 17.3671 717.418 26.3611 717.418 37.4558C717.418 48.55 721.563 57.544 726.675 57.544Z" fill="#231F20"/>
<path d="M705.739 31.67H670.253C667.057 31.67 664.467 34.2604 664.467 37.4558C664.467 40.6512 667.057 43.2416 670.253 43.2416H705.739C708.934 43.2416 711.525 40.6512 711.525 37.4558C711.525 34.2604 708.934 31.67 705.739 31.67Z" fill="#231F20"/>
<path d="M732.107 36.4511C732.406 42.0126 730.937 47.526 727.91 52.201" stroke="white" stroke-width="2" stroke-miterlimit="10" stroke-linecap="round"/>
<path d="M654.982 36.4511C655.281 42.0126 653.812 47.526 650.785 52.201" stroke="white" stroke-width="2" stroke-miterlimit="10" stroke-linecap="round"/>
<path d="M1072.77 57.544H980.729C971.609 57.544 961.449 50.864 954.259 40.146L942.089 21.9804C940.959 20.2906 941.329 18.2371 942.769 18.2371C947.139 18.2371 965.199 18.2371 984.989 18.2371C986.789 22.6894 991.519 26.1193 996.139 26.1193C1000.76 26.1193 1003.66 22.6907 1003.08 18.2371C1023.3 18.2371 1041.54 18.2371 1044.94 18.2371C1045.98 18.2371 1047.13 18.9822 1047.96 20.1902C1058.54 35.6484 1066.94 44.8028 1072.9 50.169C1075.76 52.748 1075.68 57.544 1072.77 57.544Z" fill="#231F20"/>
<path d="M956.85 37.6958C957.86 38.8664 958.85 40.0572 959.89 41.1801C960.94 42.2888 962.07 43.3224 963.27 44.2732C967.98 48.048 973.67 50.403 979.68 51.061C981.17 51.205 982.66 51.274 984.16 51.268L988.79 51.329C989.04 51.33 989.29 51.38 989.52 51.476C989.75 51.573 989.96 51.714 990.13 51.893C990.31 52.071 990.45 52.282 990.54 52.514C990.63 52.747 990.68 52.995 990.68 53.245C990.67 53.496 990.62 53.743 990.52 53.973C990.42 54.202 990.28 54.41 990.1 54.584C989.92 54.757 989.7 54.893 989.47 54.984C989.24 55.074 988.99 55.118 988.74 55.111C988.67 55.111 988.61 55.107 988.55 55.099L983.94 54.567C982.36 54.409 980.78 54.172 979.22 53.857C976.09 53.185 973.07 52.078 970.24 50.568C966.07 48.325 962.42 45.231 959.53 41.4862C958.6 40.2403 957.74 38.965 956.85 37.6958Z" fill="white"/>
<path d="M1069.91 54.621C1068.36 54.695 1066.85 54.791 1065.2 54.816C1063.58 54.819 1061.97 54.708 1060.36 54.485C1054.03 53.624 1048.07 50.976 1043.18 46.851C1042 45.834 1040.87 44.7566 1039.81 43.6224L1036.58 40.2997L1040.13 43.2765C1041.29 44.2802 1042.5 45.223 1043.75 46.1C1046.25 47.806 1048.98 49.154 1051.85 50.104C1056.1 51.493 1060.58 51.974 1065.03 51.516C1066.45 51.348 1068.01 51.094 1069.53 50.863H1069.54C1070.03 50.797 1070.52 50.927 1070.92 51.224C1071.32 51.522 1071.58 51.963 1071.66 52.454C1071.73 52.944 1071.61 53.444 1071.32 53.846C1071.03 54.248 1070.59 54.52 1070.1 54.603C1070.04 54.611 1069.97 54.618 1069.91 54.621Z" fill="white"/>
<path d="M434.578 18.1685C430.616 29.8571 413.874 54.926 443.652 54.926C473.429 54.926 462.566 18.1685 486.209 18.1685C507.296 18.1685 471.001 57.61 502.696 57.61C534.391 57.61 520.468 18.1685 543.815 18.1685C563.912 18.1685 528.479 57.665 557.522 57.609C561.369 57.608 565.187 56.941 568.807 55.638" stroke="#231F20" stroke-width="6" stroke-miterlimit="10" stroke-linecap="round"/>
<path d="M488.117 63.002C488.117 63.002 499.028 71.604 515.362 64.92" stroke="#231F20" stroke-width="3.702" stroke-linecap="round" stroke-linejoin="round"/>
<path d="M491.361 70.373C491.361 70.373 499.688 76.939 512.159 71.837" stroke="#231F20" stroke-width="2.826" stroke-linecap="round" stroke-linejoin="round"/>
<path d="M500.097 12.7764C500.097 12.7764 489.186 4.17429 472.852 10.8589" stroke="#231F20" stroke-width="3.702" stroke-linecap="round" stroke-linejoin="round"/>
<path d="M496.854 5.40551C496.854 5.40551 488.528 -1.16028 476.057 3.94162" stroke="#231F20" stroke-width="2.826" stroke-linecap="round" stroke-linejoin="round"/>
<path d="M296.293 17.4994V57.741H256.051V50.271C256.052 49.738 255.906 49.214 255.63 48.756C255.355 48.299 254.959 47.926 254.486 47.678C254.014 47.43 253.482 47.316 252.949 47.348C252.416 47.38 251.902 47.558 251.463 47.861C246.687 51.178 239.626 53.276 231.748 53.276C223.67 53.276 216.45 51.072 211.666 47.604C211.226 47.278 210.704 47.081 210.159 47.034C209.613 46.987 209.065 47.092 208.576 47.338C208.086 47.583 207.674 47.96 207.386 48.425C207.097 48.891 206.944 49.427 206.942 49.975V57.741H166.703V17.4994H206.942V25.2682C206.942 27.7032 211.669 27.6377 211.669 27.6377C211.669 27.6377 211.932 41.1311 231.751 41.1311C251.571 41.1311 251.463 27.3811 251.463 27.3811C251.463 27.3811 256.055 27.3309 256.055 24.9707V17.5012L296.293 17.4994Z" fill="#231F20"/>
<path d="M208.504 38.395C211.966 40.9199 215.759 42.9564 219.777 44.4471C223.768 45.854 227.99 46.486 232.218 46.308C236.455 46.102 240.636 45.254 244.618 43.7932C248.646 42.3072 252.549 40.5021 256.29 38.395C252.831 41.0293 249.051 43.2134 245.041 44.8946C244.536 45.1 244.04 45.334 243.525 45.517L241.967 46.03C241.445 46.194 240.931 46.387 240.402 46.528L238.803 46.92C238.269 47.042 237.74 47.195 237.195 47.276L235.564 47.521C234.475 47.687 233.377 47.788 232.276 47.821C230.071 47.897 227.863 47.75 225.687 47.382C225.144 47.294 224.605 47.176 224.074 47.029L222.47 46.635C221.421 46.308 220.388 45.922 219.359 45.548C215.332 43.8517 211.651 41.4268 208.504 38.395Z" fill="white"/>
<path d="M411.052 21.6713L339.902 20.1816C339.902 20.1816 313.443 18.561 312.387 23.955C309.626 38.0497 388.336 22.6692 389.254 37.6205C390.173 52.572 312.631 32.7886 309.687 46.9C308.212 53.965 318.767 54.43 330.423 54.43H411.052" stroke="#231F20" stroke-width="5" stroke-miterlimit="10"/>
<path d="M346.443 61.312L407.134 64.081" stroke="#231F20" stroke-width="3.702" stroke-linecap="round" stroke-linejoin="round"/>
<path d="M360.705 67.731L389.076 69.026" stroke="#231F20" stroke-width="3.702" stroke-linecap="round" stroke-linejoin="round"/>
<path d="M387.113 10.4554L326.408 12.8958" stroke="#231F20" stroke-width="3.702" stroke-linecap="round" stroke-linejoin="round"/>
<path d="M372.353 5.28119L343.977 6.42249" stroke="#231F20" stroke-width="3.702" stroke-linecap="round" stroke-linejoin="round"/>
<path d="M927.33 57.544H827.244C825.827 57.544 824.468 56.982 823.467 55.98C822.465 54.978 821.902 53.62 821.902 52.203V23.1884C821.902 21.7718 822.465 20.4133 823.467 19.4116C824.468 18.4099 825.827 17.8471 827.244 17.8471H890.472C896.017 17.8468 901.335 20.0491 905.257 23.9697L930.7 49.409C931.36 50.075 931.82 50.924 932 51.849C932.19 52.773 932.09 53.732 931.73 54.603C931.37 55.474 930.76 56.218 929.98 56.742C929.19 57.266 928.27 57.545 927.33 57.544Z" fill="#231F20"/>
<path d="M915.001 12.2043C912.564 9.7671 908.613 9.7671 906.176 12.2043C903.738 14.6414 903.738 18.5928 906.176 21.0299L932.779 47.631C935.209 50.068 939.169 50.068 941.599 47.631C944.039 45.194 944.039 41.2427 941.599 38.8056L915.001 12.2043Z" fill="#231F20"/>
<path d="M840.383 35.4017L864.811 47.552" stroke="white" stroke-width="2" stroke-miterlimit="10" stroke-linecap="round"/>
<path d="M837.143 29.3318L849.356 35.4072" stroke="white" stroke-width="2" stroke-miterlimit="10" stroke-linecap="round"/>
<path d="M837.143 24.4289L856.579 34.097" stroke="white" stroke-width="2" stroke-miterlimit="10" stroke-linecap="round"/>
<path d="M884.49 37.4558L903.926 47.125" stroke="white" stroke-width="2" stroke-miterlimit="10" stroke-linecap="round"/>
<path d="M875.729 29.2626L895.164 38.9313" stroke="white" stroke-width="2" stroke-miterlimit="10" stroke-linecap="round"/>
<path d="M607.862 17.3677H620.054C622.723 17.3677 625.283 18.428 627.171 20.3154C629.058 22.2029 630.119 24.7627 630.119 27.4319V46.416C630.119 47.878 629.831 49.325 629.271 50.675C628.712 52.026 627.892 53.252 626.858 54.286C625.825 55.319 624.598 56.139 623.247 56.698C621.897 57.257 620.449 57.545 618.988 57.544C616.036 57.544 613.206 56.372 611.119 54.285C609.032 52.198 607.859 49.367 607.859 46.416V17.3677H607.862Z" fill="#231F20"/>
<path d="M604.594 37.4558V57.544C601.947 57.559 599.323 57.05 596.872 56.047C594.422 55.044 592.195 53.567 590.318 51.7C588.44 49.833 586.951 47.614 585.934 45.169C584.918 42.7248 584.395 40.1035 584.395 37.4561C584.395 34.8087 584.918 32.1874 585.934 29.7429C586.951 27.2984 588.44 25.0789 590.318 23.2121C592.195 21.3453 594.422 19.8679 596.872 18.8649C599.323 17.8619 601.947 17.3531 604.594 17.3677H604.791L604.594 37.4558Z" fill="#231F20"/>
<path d="M587.764 35.5902C589.578 30.325 593.012 25.7693 597.575 22.5762" stroke="white" stroke-width="2" stroke-miterlimit="10" stroke-linecap="round"/>
<path d="M622.149 53.736C624.444 53.736 626.305 50.576 626.305 46.679C626.305 42.781 624.444 39.6213 622.149 39.6213C619.855 39.6213 617.994 42.781 617.994 46.679C617.994 50.576 619.855 53.736 622.149 53.736Z" fill="white"/>
<path d="M3.6197e-07 37.5715C3.6197e-07 42.8813 2.1093 47.974 5.8639 51.728C9.6185 55.483 14.7109 57.592 20.021 57.592H154.104C112.279 57.592 55.239 53.735 55.239 37.1888C55.239 20.6422 108.675 17.5471 154.104 17.5471H20.021C17.3912 17.5471 14.7875 18.0651 12.3583 19.0715C9.929 20.0778 7.7218 21.5529 5.8626 23.4123C4.0035 25.2718 2.5288 27.4793 1.5229 29.9088C0.517004 32.3382 -0.000499638 34.942 3.6197e-07 37.5715Z" fill="#231F20"/>
<path d="M26.356 38.8823C39.226 38.8823 49.66 38.1249 49.66 37.1906C49.66 36.2564 39.226 35.499 26.356 35.499C13.4847 35.499 3.05078 36.2564 3.05078 37.1906C3.05078 38.1249 13.4847 38.8823 26.356 38.8823Z" fill="white"/>
</svg>
