<?xml version="1.0" encoding="utf-8"?>
<!-- Generator: Adobe Illustrator 22.0.1, SVG Export Plug-In . SVG Version: 6.00 Build 0)  -->
<svg version="1.1" id="Layer_1" xmlns="http://www.w3.org/2000/svg" xmlns:xlink="http://www.w3.org/1999/xlink" x="0px" y="0px"
	 viewBox="0 0 1147.7 70.7" style="enable-background:new 0 0 1147.7 70.7;" xml:space="preserve">
<style type="text/css">
	.st0{fill:#231F20;}
	.st1{fill:#FFFFFF;}
	.st2{fill:#231F20;stroke:#FFFFFF;stroke-width:1.925;stroke-linecap:round;stroke-miterlimit:10;}
	.st3{fill:#231F20;stroke:#FFFFFF;stroke-width:1.974;stroke-linecap:round;stroke-miterlimit:10;}
	.st4{fill:none;stroke:#FFFFFF;stroke-width:2.005;stroke-linecap:round;stroke-miterlimit:10;}
	.st5{fill:none;stroke:#000000;stroke-width:7.099;stroke-miterlimit:10;}
	.st6{fill:none;stroke:#000000;stroke-width:2.428;stroke-linecap:round;stroke-linejoin:round;}
	.st7{fill:none;stroke:#B5FF17;stroke-width:3;stroke-linejoin:round;}
	.st8{fill:none;stroke:#B5FF17;stroke-width:2.4555;stroke-linejoin:round;}
	.st9{fill:none;stroke:#B5FF17;stroke-width:2.4018;stroke-linejoin:round;}
	.st10{fill:none;stroke:#B5FF17;stroke-width:2.4763;stroke-linejoin:round;}
	.st11{fill:none;stroke:#B5FF17;stroke-width:2.4357;stroke-linejoin:round;}
	.st12{fill:none;stroke:#B5FF17;stroke-width:2.4715;stroke-linejoin:round;}
	.st13{fill:none;stroke:#B5FF17;stroke-width:2.4669;stroke-linejoin:round;}
	.st14{fill:none;stroke:#B5FF17;stroke-width:2.4805;stroke-linejoin:round;}
</style>
<path class="st0" d="M106.3,57.5H82.1v-5.2c0-0.4-0.1-0.7-0.3-1c-0.2-0.3-0.5-0.5-0.8-0.6c-0.3-0.1-0.7-0.1-1,0
	c-0.3,0.1-0.6,0.3-0.8,0.6c-9,13.2-26.8,16.7-40,7.9C35.9,57,33,54,30.9,50.6c-0.2-0.3-0.5-0.5-0.8-0.7c-0.3-0.1-0.7-0.1-1,0
	c-0.3,0.1-0.6,0.3-0.9,0.6c-0.2,0.3-0.3,0.6-0.3,1v6.1H3.7c-0.7,0-1.3-0.2-1.9-0.5c-0.6-0.4-1-0.9-1.3-1.5c-0.3-0.6-0.5-1.3-0.4-2
	c0-0.7,0.3-1.3,0.7-1.9c3.2-4.8,5-10.5,5-16.4C5.8,29.5,4,23.8,0.7,19c-0.4-0.6-0.6-1.2-0.7-1.9s0.1-1.4,0.4-2s0.8-1.1,1.3-1.5
	c0.6-0.4,1.2-0.5,1.9-0.5h24.2v6.1c0,0.4,0.1,0.7,0.3,1c0.2,0.3,0.5,0.5,0.9,0.6c0.3,0.1,0.7,0.1,1,0s0.6-0.4,0.8-0.7
	C39.2,6.6,57,2.6,70.4,11c3.4,2.1,6.3,4.9,8.5,8.3c0.4,0.6,1.1,0.8,1.8,0.7c0.3-0.1,0.6-0.3,0.8-0.6c0.2-0.3,0.3-0.6,0.3-1v-5.2
	h24.3c0.7,0,1.3,0.2,1.9,0.5c0.6,0.4,1,0.9,1.3,1.5s0.5,1.3,0.4,2c0,0.7-0.3,1.3-0.7,1.9c-6.8,9.8-6.8,22.8,0,32.7
	c0.4,0.6,0.6,1.2,0.7,1.9c0.1,0.7-0.1,1.4-0.4,2c-0.3,0.6-0.8,1.1-1.3,1.5C107.7,57.3,107,57.5,106.3,57.5z"/>
<path class="st0" d="M260.7,56.3h-94c-9.7,0-21.2-7.1-29.8-18.6l-14.6-19.4c-1.4-1.8-1.1-4,0.4-4h104.8c1.4,0.2,2.6,0.9,3.4,2.1
	c12.7,16.5,22.4,26.3,29.3,32C263.5,51.2,263.8,56.3,260.7,56.3z"/>
<g>
	<ellipse class="st0" cx="330.2" cy="34.5" rx="52.9" ry="19.6"/>
	<ellipse class="st0" cx="278.9" cy="34.5" rx="6.3" ry="21.8"/>
	<rect x="289.7" y="28.9" class="st1" width="81" height="11.2"/>
</g>
<g>
	<ellipse class="st0" cx="690.9" cy="35.8" rx="9.4" ry="20.5"/>
	<ellipse class="st0" cx="769.8" cy="35.8" rx="9.4" ry="20.5"/>
	<path class="st0" d="M712.3,30h36.2c3.3,0,5.9,2.6,5.9,5.9l0,0c0,3.3-2.6,5.9-5.9,5.9h-36.2c-3.3,0-5.9-2.6-5.9-5.9l0,0
		C706.4,32.6,709,30,712.3,30z"/>
	<path class="st2" d="M775.3,34.8c0.3,5.7-1.2,11.3-4.3,16.1"/>
	<path class="st2" d="M696.7,34.8c0.3,5.7-1.2,11.3-4.3,16.1"/>
</g>
<g>
	<ellipse class="st0" cx="849.8" cy="35.3" rx="9.7" ry="21"/>
	<path class="st0" d="M790.8,29.3h37.1c3.3,0,6,2.7,6,6l0,0c0,3.3-2.7,6-6,6h-37.1c-3.3,0-6-2.7-6-6l0,0
		C784.7,32,787.4,29.3,790.8,29.3z"/>
	<path class="st3" d="M855.4,34.3c0.3,5.8-1.2,11.6-4.4,16.5"/>
</g>
<g>
	<path class="st0" d="M985.1,56.5H878.8c-3.1,0-5.7-2.5-5.7-5.7V20c0-3.1,2.5-5.7,5.7-5.7H946c5.9,0,11.5,2.3,15.7,6.5l27,27
		c2,2,2,5.2,0,7.2C987.7,55.9,986.4,56.5,985.1,56.5z"/>
	<path class="st0" d="M962.6,8.3L962.6,8.3c2.6-2.6,6.8-2.6,9.4,0l28.2,28.2c2.6,2.6,2.6,6.8,0,9.4l0,0c-2.6,2.6-6.8,2.6-9.4,0
		l-28.2-28.2C960,15.1,960,10.9,962.6,8.3z"/>
	<line class="st4" x1="892.8" y1="33" x2="918.7" y2="45.9"/>
	<line class="st4" x1="889.4" y1="26.5" x2="902.3" y2="33"/>
	<line class="st4" x1="889.4" y1="21.3" x2="910" y2="31.6"/>
	<line class="st4" x1="939.6" y1="35.1" x2="960.2" y2="45.4"/>
	<line class="st4" x1="930.3" y1="26.4" x2="950.9" y2="36.7"/>
</g>
<g>
	<path class="st0" d="M536.6,14.3v42h-42v-7.8c0-1.7-1.4-3.1-3-3.1c-0.6,0-1.2,0.2-1.7,0.5c-5,3.5-12.3,5.6-20.6,5.6
		c-8.4,0-16-2.3-20.9-5.9c-1.4-1-3.3-0.7-4.3,0.6c-0.4,0.5-0.6,1.2-0.6,1.8v8.1h-42v-42h42v8.1c0,2.5,4.9,2.5,4.9,2.5
		s0.3,14.1,20.9,14.1s20.5-14.1,20.5-14.1s4.8-0.1,4.8-2.5v-7.8h42V14.3z"/>
	<path class="st1" d="M445,36.1c3.6,2.6,7.6,4.8,11.8,6.3c4.2,1.5,8.6,2.1,13,1.9s8.8-1.1,12.9-2.6c4.2-1.5,8.3-3.4,12.2-5.6
		c-3.6,2.7-7.6,5-11.7,6.8c-4.2,1.8-8.7,2.8-13.3,3.1c-4.6,0.2-9.2-0.6-13.5-2.4C452.1,41.8,448.3,39.3,445,36.1z"/>
</g>
<g>
	<path class="st5" d="M663.7,18.7l-76.2-1.6c0,0-28.3-1.7-29.5,4c-3,15.1,81.4-1.4,82.4,14.6s-82.1-5.2-85.2,9.9
		c-1.6,7.6,9.7,8.1,22.2,8.1h86.4"/>
	<line class="st6" x1="594.5" y1="61.2" x2="659.5" y2="64.2"/>
	<line class="st6" x1="609.7" y1="68.1" x2="640.1" y2="69.5"/>
	<line class="st6" x1="638" y1="6.7" x2="573" y2="9.3"/>
	<line class="st6" x1="622.2" y1="1.2" x2="591.8" y2="2.4"/>
</g>
<g>
	<path class="st0" d="M1145.3,56.5h-98.7c-9.8,0-20.7-7.2-28.4-18.7l-13.1-19.5c-1.2-1.8-0.8-4,0.7-4c4.7,0,24.1,0,45.3,0
		c1.9,4.8,7,8.5,12,8.5c3.9,0.2,7.3-2.8,7.6-6.7c0-0.6,0-1.2-0.1-1.8c21.7,0,41.3,0,44.9,0c1.4,0.1,2.6,0.9,3.2,2.1
		c11.4,16.6,20.4,26.4,26.8,32.2C1148.5,51.3,1148.4,56.5,1145.3,56.5z"/>
	<path class="st1" d="M1021,35.2c1.1,1.3,2.1,2.5,3.3,3.7c1.1,1.2,2.3,2.3,3.6,3.3c5.1,4,11.2,6.6,17.6,7.3c1.6,0.2,3.2,0.2,4.8,0.2
		l5,0.1c1.1,0,2,0.9,2,2c0,1.1-0.9,2-2,2c0,0,0,0-0.1,0s-0.1,0-0.2,0l-4.9-0.6c-1.7-0.2-3.4-0.4-5.1-0.8c-3.4-0.7-6.6-1.9-9.6-3.5
		c-4.5-2.4-8.4-5.7-11.5-9.7C1022.9,37.9,1021.9,36.5,1021,35.2z"/>
	<path class="st1" d="M1142.3,53.3c-1.7,0.1-3.3,0.2-5.1,0.2c-1.7,0-3.5-0.1-5.2-0.4c-3.4-0.5-6.7-1.4-9.9-2.8
		c-3.1-1.4-6-3.2-8.6-5.4c-1.3-1.1-2.5-2.2-3.6-3.5l-3.5-3.6l3.8,3.2c1.2,1.1,2.5,2.1,3.9,3c2.7,1.8,5.6,3.3,8.7,4.3
		c4.6,1.5,9.4,2,14.1,1.5c1.5-0.2,3.2-0.5,4.8-0.7l0,0c1.1-0.2,2.2,0.5,2.3,1.7s-0.5,2.2-1.7,2.3h-0.1
		C1142.4,53.3,1142.3,53.3,1142.3,53.3z"/>
</g>
<path class="st7" d="M27,35.1c0-11.8,8.3-18.9,21.1-19.2V5.1h13.6v10.8c13,0.3,21.1,7.2,21.1,19.2c0,11.8-8.3,18.9-21.1,19.2v11.4
	H48.1V54.4C35,53.9,27,47.1,27,35.1z M48.3,25.7C44,25.9,41,29.3,41,35.1c0,6,2.8,9.2,7.3,9.4C48.3,44.4,48.3,25.7,48.3,25.7z
	 M61.5,25.7v18.8c4.3-0.2,7.3-3.6,7.3-9.4C68.8,29.1,65.9,25.9,61.5,25.7z"/>
<path class="st8" d="M176.4,49.2V18.7h11.1v15.7h0.2l9.2-15.7h11.1v30.5h-11.1V33.1h-0.2l-9.2,16.1H176.4z"/>
<path class="st9" d="M343.8,33.6c0,9.8-4.1,15.4-11.5,15.4c-4.4,0-7.6-2.1-9-5.6h-0.2v14.7h-11.1V18.7h11.1v5.4h0.2
	c1.5-3.6,4.6-5.8,8.9-5.8C339.7,18.2,343.8,23.7,343.8,33.6z M332.4,33.6c0-4.1-1.9-6.8-4.7-6.8c-2.9,0-4.7,2.7-4.8,6.8
	c0,4.2,1.9,6.8,4.8,6.8C330.6,40.4,332.4,37.7,332.4,33.6z"/>
<path class="st10" d="M448.5,49.1V18.3h15.3l5.3,16.5h0.2l5.3-16.5h15.2v30.8h-10.5V29.7h-0.2l-6.1,17h-7.6l-6.1-17H459v19.4H448.5z
	"/>
<path class="st11" d="M624.7,39c-0.9,6.5-6.7,10.6-14.9,10.6c-10,0-15.8-5.9-15.8-15.7c0-9.9,6-16.1,15.5-16.1
	c9.4,0,15.5,6,15.5,15.3v3h-20.1v0.7c0,3,2.2,5.1,5.2,5.1c2.3,0,4.1-1.1,4.8-2.9L624.7,39L624.7,39z M604.9,29.9h9.4
	c-0.2-2.7-2.1-4.4-4.7-4.4C607.1,25.4,605.1,27.3,604.9,29.9z"/>
<path class="st12" d="M823.1,37.6h-8.7V49h-11.4V18.2h11.4v11.1h8.7V18.2h11.4V49h-11.4V37.6z"/>
<path class="st12" d="M734.8,37.6h-8.7V49h-11.4V18.2h11.4v11.1h8.7V18.2h11.4V49h-11.4V37.6z"/>
<path class="st13" d="M916,18.3h11.4v8h6.2c7.4,0,12.2,4.4,12.2,11.3c0,7-4.8,11.3-12.2,11.3H916V18.3z M927.4,34.3v6.5h3.5
	c2.1,0,3.5-1.4,3.5-3.3c0-1.9-1.4-3.3-3.5-3.3H927.4z M947.9,18.3h11.4V49h-11.4V18.3z"/>
<path class="st14" d="M1060.1,49.1V18.2h11.2v15.8h0.2l9.3-15.8h11.2v30.8h-11.2V32.8h-0.2l-9.3,16.2H1060.1z M1071.7,5.2
	c0.1,2.4,1.6,4.2,4.5,4.2c2.8,0,4.3-1.8,4.5-4.2h6.6c-0.1,5-4,9.4-11,9.4c-7.1,0-10.9-4.4-11-9.4H1071.7z"/>
</svg>
