<svg xmlns="http://www.w3.org/2000/svg" width="1147.718" height="70.725" viewBox="0 0 1147.718 70.725">
  <title>Asset 48r</title>
  <g>
    <path d="M106.316,57.52H82.081V52.307a1.655,1.655,0,0,0-.326-.978,1.429,1.429,0,0,0-.814-.57,1.465,1.465,0,0,0-1.018.041,1.737,1.737,0,0,0-.815.611A28.731,28.731,0,0,1,30.923,50.6a1.724,1.724,0,0,0-.774-.652,1.459,1.459,0,0,0-1.018-.04,1.529,1.529,0,0,0-.856.57,1.654,1.654,0,0,0-.326.977V57.52H3.673a3.856,3.856,0,0,1-1.914-.529A3.587,3.587,0,0,1,.415,55.525a3.687,3.687,0,0,1-.407-1.956A3.391,3.391,0,0,1,.7,51.7,28.6,28.6,0,0,0,5.791,35.363,28.6,28.6,0,0,0,.7,19.029a4.042,4.042,0,0,1-.692-1.873A3.6,3.6,0,0,1,.415,15.2a3.892,3.892,0,0,1,1.344-1.467,3.581,3.581,0,0,1,1.914-.529H27.909v6.069a1.66,1.66,0,0,0,.325.977,1.529,1.529,0,0,0,.856.57,1.735,1.735,0,0,0,1.018-.04,1.529,1.529,0,0,0,.774-.652,28.754,28.754,0,0,1,48.185-.815,1.715,1.715,0,0,0,1.833.652,1.972,1.972,0,0,0,.815-.57,1.662,1.662,0,0,0,.326-.978V13.205h24.275a3.856,3.856,0,0,1,1.915.529,3.589,3.589,0,0,1,1.344,1.467,3.682,3.682,0,0,1,.407,1.955,3.391,3.391,0,0,1-.692,1.873,28.742,28.742,0,0,0,0,32.667,4.042,4.042,0,0,1,.692,1.873,3.609,3.609,0,0,1-.407,1.956,3.889,3.889,0,0,1-1.344,1.466A3.582,3.582,0,0,1,106.316,57.52Z" fill="#231f20"/>
    <path d="M260.717,56.35H166.748c-9.746,0-21.2-7.128-29.8-18.58l-14.589-19.4c-1.352-1.8-1.136-4,.407-4H227.579a4.732,4.732,0,0,1,3.39,2.08c12.676,16.524,22.437,26.293,29.3,32.042C263.491,51.232,263.826,56.35,260.717,56.35Z" fill="#231f20"/>
    <g>
      <ellipse cx="330.207" cy="34.504" rx="52.908" ry="19.614" fill="#231f20"/>
      <ellipse cx="278.848" cy="34.504" rx="6.32" ry="21.846" fill="#231f20"/>
      <rect x="289.711" y="28.918" width="80.994" height="11.171" fill="#fff"/>
    </g>
    <g>
      <ellipse cx="690.91" cy="35.875" rx="9.436" ry="20.476" fill="#231f20"/>
      <ellipse cx="769.762" cy="35.875" rx="9.436" ry="20.476" fill="#231f20"/>
      <rect x="706.354" y="29.977" width="47.965" height="11.795" rx="5.897" ry="5.897" fill="#231f20"/>
      <path d="M775.3,34.85A26.88,26.88,0,0,1,771.021,50.9" fill="none" stroke="#fff" stroke-linecap="round" stroke-miterlimit="10" stroke-width="1.925"/>
      <path d="M696.686,34.85A26.873,26.873,0,0,1,692.408,50.9" fill="none" stroke="#fff" stroke-linecap="round" stroke-miterlimit="10" stroke-width="1.925"/>
    </g>
    <g>
      <ellipse cx="849.764" cy="35.373" rx="9.677" ry="20.998" fill="#231f20"/>
      <rect x="784.736" y="29.325" width="49.19" height="12.096" rx="6.048" ry="6.048" fill="#231f20"/>
      <path d="M855.441,34.323a27.556,27.556,0,0,1-4.386,16.463" fill="none" stroke="#fff" stroke-linecap="round" stroke-miterlimit="10" stroke-width="1.974"/>
    </g>
    <g>
      <path d="M985.07,56.491H878.845a5.67,5.67,0,0,1-5.669-5.669V20.027a5.67,5.67,0,0,1,5.669-5.669h67.109a22.193,22.193,0,0,1,15.692,6.5l27,27A5.057,5.057,0,0,1,985.07,56.491Z" fill="#231f20"/>
      <rect x="974.798" y="0.581" width="13.248" height="53.175" rx="6.624" ry="6.624" transform="translate(268.241 701.928) rotate(-45)" fill="#231f20"/>
      <line x1="892.79" y1="32.989" x2="918.716" y2="45.886" fill="none" stroke="#fff" stroke-linecap="round" stroke-miterlimit="10" stroke-width="2.005"/>
      <line x1="889.351" y1="26.547" x2="902.314" y2="32.995" fill="none" stroke="#fff" stroke-linecap="round" stroke-miterlimit="10" stroke-width="2.005"/>
      <line x1="889.351" y1="21.343" x2="909.979" y2="31.604" fill="none" stroke="#fff" stroke-linecap="round" stroke-miterlimit="10" stroke-width="2.005"/>
      <line x1="939.605" y1="35.17" x2="960.233" y2="45.431" fill="none" stroke="#fff" stroke-linecap="round" stroke-miterlimit="10" stroke-width="2.005"/>
      <line x1="930.305" y1="26.474" x2="950.933" y2="36.735" fill="none" stroke="#fff" stroke-linecap="round" stroke-miterlimit="10" stroke-width="2.005"/>
    </g>
    <g>
      <path d="M536.568,14.375V56.35H494.592V48.559a3.051,3.051,0,0,0-4.786-2.514c-4.984,3.459-12.347,5.648-20.561,5.648-8.427,0-15.958-2.3-20.945-5.916a3.09,3.09,0,0,0-4.931,2.472v8.1H401.394V14.375h41.975v8.1c0,2.54,4.931,2.472,4.931,2.472s.275,14.075,20.945,14.075,20.561-14.343,20.561-14.343,4.786-.052,4.786-2.514V14.375Z" fill="#231f20"/>
      <path d="M445,36.171a48.4,48.4,0,0,0,11.758,6.313,34.658,34.658,0,0,0,12.977,1.941A43.763,43.763,0,0,0,482.666,41.8a83.132,83.132,0,0,0,12.173-5.631,53.986,53.986,0,0,1-11.733,6.779A38.939,38.939,0,0,1,469.791,46a32.113,32.113,0,0,1-13.474-2.37A37.274,37.274,0,0,1,445,36.171Z" fill="#fff"/>
    </g>
    <g>
      <path d="M663.678,18.775l-76.232-1.6s-28.348-1.736-29.48,4.042c-2.958,15.1,81.373-1.378,82.357,14.641s-82.094-5.175-85.249,9.943c-1.58,7.569,9.728,8.065,22.217,8.065h86.387" fill="none" stroke="#231f20" stroke-miterlimit="10" stroke-width="7.099"/>
      <line x1="594.455" y1="61.245" x2="659.48" y2="64.213" fill="none" stroke="#231f20" stroke-linecap="round" stroke-linejoin="round" stroke-width="2.428"/>
      <line x1="609.735" y1="68.124" x2="640.131" y2="69.511" fill="none" stroke="#231f20" stroke-linecap="round" stroke-linejoin="round" stroke-width="2.428"/>
      <line x1="638.03" y1="6.758" x2="572.989" y2="9.373" fill="none" stroke="#231f20" stroke-linecap="round" stroke-linejoin="round" stroke-width="2.428"/>
      <line x1="622.216" y1="1.214" x2="591.813" y2="2.437" fill="none" stroke="#231f20" stroke-linecap="round" stroke-linejoin="round" stroke-width="2.428"/>
    </g>
    <g>
      <path d="M1145.325,56.491h-98.719c-9.786,0-20.688-7.165-28.39-18.661l-13.053-19.484c-1.216-1.813-.819-4.016.726-4.016,4.684,0,24.057,0,45.289,0,1.923,4.776,7,8.455,11.954,8.455a7.146,7.146,0,0,0,7.452-8.455c21.688,0,41.25,0,44.9,0a4.286,4.286,0,0,1,3.235,2.1c11.352,16.581,20.356,26.4,26.752,32.155C1148.537,51.345,1148.445,56.491,1145.325,56.491Z" fill="#231f20"/>
      <path d="M1020.993,35.2c1.077,1.255,2.144,2.533,3.258,3.737a35.133,35.133,0,0,0,3.622,3.318,34.1,34.1,0,0,0,17.6,7.28,47.766,47.766,0,0,0,4.8.223l4.969.065a2.029,2.029,0,1,1-.054,4.057c-.068,0-.139-.006-.206-.013l-4.936-.571a51.094,51.094,0,0,1-5.066-.762,36.807,36.807,0,0,1-9.633-3.528,36.195,36.195,0,0,1-11.487-9.74C1022.861,37.931,1021.939,36.563,1020.993,35.2Z" fill="#fff"/>
      <path d="M1142.257,53.356c-1.659.079-3.277.182-5.053.209a37.019,37.019,0,0,1-5.184-.355,36.472,36.472,0,0,1-9.866-2.81,36.308,36.308,0,0,1-8.569-5.378,48.032,48.032,0,0,1-3.616-3.463l-3.462-3.564,3.807,3.193a47.486,47.486,0,0,0,3.885,3.029,34.816,34.816,0,0,0,8.688,4.294,34.189,34.189,0,0,0,14.132,1.514c1.526-.18,3.2-.452,4.829-.7h.007a2.029,2.029,0,1,1,.61,4.011C1142.4,53.346,1142.325,53.352,1142.257,53.356Z" fill="#fff"/>
    </g>
  </g>
</svg>
