<?xml version="1.0" encoding="utf-8"?>
<!-- Generator: Adobe Illustrator 22.0.1, SVG Export Plug-In . SVG Version: 6.00 Build 0)  -->
<svg version="1.1" id="Layer_1" xmlns="http://www.w3.org/2000/svg" xmlns:xlink="http://www.w3.org/1999/xlink" x="0px" y="0px"
	 viewBox="0 0 70.7 1147.7" style="enable-background:new 0 0 70.7 1147.7;" xml:space="preserve">
<style type="text/css">
	.st0{fill:#FFFFFF;}
	.st1{stroke:#FFFFFF;stroke-width:1.925;stroke-linecap:round;stroke-miterlimit:10;}
	.st2{stroke:#FFFFFF;stroke-width:1.974;stroke-linecap:round;stroke-miterlimit:10;}
	.st3{fill:none;stroke:#FFFFFF;stroke-width:2.005;stroke-linecap:round;stroke-miterlimit:10;}
	.st4{fill:none;stroke:#000000;stroke-width:7.099;stroke-miterlimit:10;}
	.st5{fill:none;stroke:#000000;stroke-width:2.428;stroke-linecap:round;stroke-linejoin:round;}
	.st6{fill:none;stroke:#26FF37;stroke-width:2.367;stroke-linejoin:round;}
</style>
<g>
	<path d="M13.2,106.3V82.1h5.2c0.4,0,0.7-0.1,1-0.3c0.3-0.2,0.5-0.5,0.6-0.8s0.1-0.7,0-1s-0.3-0.6-0.6-0.8c-13.2-9-16.7-26.8-7.9-40
		c2.2-3.3,5.2-6.2,8.6-8.3c0.3-0.2,0.5-0.5,0.7-0.8c0.1-0.3,0.1-0.7,0-1s-0.3-0.6-0.6-0.9c-0.3-0.2-0.6-0.3-1-0.3h-6.1V3.7
		c0-0.7,0.2-1.3,0.5-1.9c0.4-0.6,0.9-1,1.5-1.3s1.3-0.5,2-0.4c0.7,0,1.3,0.3,1.9,0.7c4.8,3.2,10.5,5,16.4,5c5.8,0,11.5-1.8,16.3-5.1
		c0.6-0.4,1.2-0.6,1.9-0.7s1.4,0.1,2,0.4s1.1,0.8,1.5,1.3c0.4,0.6,0.5,1.2,0.5,1.9v24.2h-6.1c-0.4,0-0.7,0.1-1,0.3
		c-0.3,0.2-0.5,0.5-0.6,0.9c-0.1,0.3-0.1,0.7,0,1s0.4,0.6,0.7,0.8c13.5,8.4,17.5,26.2,9.1,39.6c-2.1,3.4-4.9,6.3-8.3,8.5
		c-0.6,0.4-0.8,1.1-0.7,1.8c0.1,0.3,0.3,0.6,0.6,0.8c0.3,0.2,0.6,0.3,1,0.3h5.2v24.3c0,0.7-0.2,1.3-0.5,1.9c-0.4,0.6-0.9,1-1.5,1.3
		s-1.3,0.5-2,0.4c-0.7,0-1.3-0.3-1.9-0.7c-9.8-6.8-22.8-6.8-32.7,0c-0.6,0.4-1.2,0.6-1.9,0.7c-0.7,0.1-1.4-0.1-2-0.4
		s-1.1-0.8-1.5-1.3C13.4,107.7,13.2,107,13.2,106.3z"/>
	<path d="M14.4,260.7v-94c0-9.7,7.1-21.2,18.6-29.8l19.4-14.6c1.8-1.4,4-1.1,4,0.4v104.8c-0.2,1.4-0.9,2.6-2.1,3.4
		c-16.5,12.7-26.3,22.4-32,29.3C19.5,263.5,14.4,263.8,14.4,260.7z"/>
	<g>
		<ellipse cx="36.2" cy="330.2" rx="19.6" ry="52.9"/>
		<ellipse cx="36.2" cy="278.9" rx="21.8" ry="6.3"/>
		<rect x="30.6" y="289.7" class="st0" width="11.2" height="81"/>
	</g>
	<g>
		<ellipse cx="34.9" cy="690.9" rx="20.5" ry="9.4"/>
		<ellipse cx="34.9" cy="769.8" rx="20.5" ry="9.4"/>
		<path d="M40.7,712.3v36.2c0,3.3-2.6,5.9-5.9,5.9l0,0c-3.3,0-5.9-2.6-5.9-5.9v-36.2c0-3.3,2.6-5.9,5.9-5.9l0,0
			C38.1,706.4,40.7,709,40.7,712.3z"/>
		<path class="st1" d="M35.9,775.3c-5.7,0.3-11.3-1.2-16.1-4.3"/>
		<path class="st1" d="M35.9,696.7c-5.7,0.3-11.3-1.2-16.1-4.3"/>
	</g>
	<g>
		<ellipse cx="35.4" cy="849.8" rx="21" ry="9.7"/>
		<path d="M41.4,790.8v37.1c0,3.3-2.7,6-6,6l0,0c-3.3,0-6-2.7-6-6v-37.1c0-3.3,2.7-6,6-6l0,0C38.7,784.7,41.4,787.4,41.4,790.8z"/>
		<path class="st2" d="M36.4,855.4c-5.8,0.3-11.6-1.2-16.5-4.4"/>
	</g>
	<g>
		<path d="M14.2,985.1V878.8c0-3.1,2.5-5.7,5.7-5.7h30.8c3.1,0,5.7,2.5,5.7,5.7V946c0,5.9-2.3,11.5-6.5,15.7l-27,27
			c-2,2-5.2,2-7.2,0C14.8,987.7,14.2,986.4,14.2,985.1z"/>
		<path d="M62.4,962.6L62.4,962.6c2.6,2.6,2.6,6.8,0,9.4l-28.2,28.2c-2.6,2.6-6.8,2.6-9.4,0l0,0c-2.6-2.6-2.6-6.8,0-9.4L53,962.6
			C55.6,960,59.8,960,62.4,962.6z"/>
		<line class="st3" x1="37.7" y1="892.8" x2="24.8" y2="918.7"/>
		<line class="st3" x1="44.2" y1="889.4" x2="37.7" y2="902.3"/>
		<line class="st3" x1="49.4" y1="889.4" x2="39.1" y2="910"/>
		<line class="st3" x1="35.6" y1="939.6" x2="25.3" y2="960.2"/>
		<line class="st3" x1="44.3" y1="930.3" x2="34" y2="950.9"/>
	</g>
	<g>
		<path d="M56.4,536.6h-42v-42h7.8c1.7,0,3.1-1.4,3.1-3c0-0.6-0.2-1.2-0.5-1.7c-3.5-5-5.6-12.3-5.6-20.6c0-8.4,2.3-16,5.9-20.9
			c1-1.4,0.7-3.3-0.6-4.3c-0.5-0.4-1.2-0.6-1.8-0.6h-8.1v-42h42v42h-8.1c-2.5,0-2.5,4.9-2.5,4.9s-14.1,0.3-14.1,20.9
			S46,489.8,46,489.8s0.1,4.8,2.5,4.8h7.8v42H56.4z"/>
		<path class="st0" d="M34.6,445c-2.6,3.6-4.8,7.6-6.3,11.8c-1.5,4.2-2.1,8.6-1.9,13s1.1,8.8,2.6,12.9c1.5,4.2,3.4,8.3,5.6,12.2
			c-2.7-3.6-5-7.6-6.8-11.7c-1.8-4.2-2.8-8.7-3.1-13.3c-0.2-4.6,0.6-9.2,2.4-13.5C28.9,452.1,31.4,448.3,34.6,445z"/>
	</g>
	<g>
		<path class="st4" d="M52,663.7l1.6-76.2c0,0,1.7-28.3-4-29.5c-15.1-3,1.4,81.4-14.6,82.4s5.2-82.1-9.9-85.2
			c-7.6-1.6-8.1,9.7-8.1,22.2v86.4"/>
		<line class="st5" x1="9.5" y1="594.5" x2="6.5" y2="659.5"/>
		<line class="st5" x1="2.6" y1="609.7" x2="1.2" y2="640.1"/>
		<line class="st5" x1="64" y1="638" x2="61.4" y2="573"/>
		<line class="st5" x1="69.5" y1="622.2" x2="68.3" y2="591.8"/>
	</g>
	<g>
		<path d="M14.2,1145.3v-98.7c0-9.8,7.2-20.7,18.7-28.4l19.5-13.1c1.8-1.2,4-0.8,4,0.7c0,4.7,0,24.1,0,45.3c-4.8,1.9-8.5,7-8.5,12
			c-0.2,3.9,2.8,7.3,6.7,7.6c0.6,0,1.2,0,1.8-0.1c0,21.7,0,41.3,0,44.9c-0.1,1.4-0.9,2.6-2.1,3.2c-16.6,11.4-26.4,20.4-32.2,26.8
			C19.4,1148.5,14.2,1148.4,14.2,1145.3z"/>
		<path class="st0" d="M35.5,1021c-1.3,1.1-2.5,2.1-3.7,3.3c-1.2,1.1-2.3,2.3-3.3,3.6c-4,5.1-6.6,11.2-7.3,17.6
			c-0.2,1.6-0.2,3.2-0.2,4.8l-0.1,5c0,1.1-0.9,2-2,2s-2-0.9-2-2c0,0,0,0,0-0.1s0-0.1,0-0.2l0.6-4.9c0.2-1.7,0.4-3.4,0.8-5.1
			c0.7-3.4,1.9-6.6,3.5-9.6c2.4-4.5,5.7-8.4,9.7-11.5C32.8,1022.9,34.2,1021.9,35.5,1021z"/>
		<path class="st0" d="M17.4,1142.3c-0.1-1.7-0.2-3.3-0.2-5.1c0-1.7,0.1-3.5,0.4-5.2c0.5-3.4,1.4-6.7,2.8-9.9c1.4-3.1,3.2-6,5.4-8.6
			c1.1-1.3,2.2-2.5,3.5-3.6l3.6-3.5l-3.2,3.8c-1.1,1.2-2.1,2.5-3,3.9c-1.8,2.7-3.3,5.6-4.3,8.7c-1.5,4.6-2,9.4-1.5,14.1
			c0.2,1.5,0.5,3.2,0.7,4.8l0,0c0.2,1.1-0.5,2.2-1.7,2.3s-2.2-0.5-2.3-1.7v-0.1C17.4,1142.4,17.4,1142.3,17.4,1142.3z"/>
	</g>
</g>
<path class="st6" d="M1.7,55.6c0-14.2,10-22.8,25.5-23.2v-13h16.4v13C59.3,32.8,69,41.1,69,55.6c0,14.2-10,22.8-25.4,23.2v13.7H27.2
	V78.9C11.4,78.4,1.7,70.1,1.7,55.6z M27.4,44.3c-5.2,0.2-8.8,4.3-8.8,11.3c0,7.2,3.4,11.1,8.8,11.3V44.3z M43.3,44.3v22.7
	c5.2-0.2,8.8-4.3,8.8-11.3C52.1,48.4,48.7,44.5,43.3,44.3z"/>
<path class="st6" d="M12.1,217.9v-45h16.3v23.1h0.3l13.6-23.1h16.3v45H42.3v-23.7H42l-13.6,23.7H12.1z"/>
<path class="st6" d="M61.5,326.2c0,14.8-6.2,23.2-17.4,23.2c-6.6,0-11.5-3.2-13.6-8.4h-0.3v22.2H13.4v-59.4h16.8v8.1h0.3
	c2.2-5.5,6.9-8.8,13.4-8.8C55.2,303,61.5,311.3,61.5,326.2z M44.3,326.2c0-6.2-2.8-10.3-7.1-10.3c-4.4,0-7.1,4-7.2,10.3
	c0,6.3,2.8,10.2,7.2,10.2C41.6,336.5,44.3,332.5,44.3,326.2z"/>
<path class="st6" d="M5.3,492.5v-45h22.3l7.7,24.1h0.3l7.7-24.1h22.2v45H50.1v-28.4h-0.3l-8.9,24.8H29.8l-8.9-24.8h-0.3v28.4H5.3z"
	/>
<path class="st6" d="M58.1,618.6c-1.4,9.7-9.9,15.7-22.2,15.7c-14.8,0-23.5-8.8-23.5-23.4c0-14.7,8.9-23.9,23-23.9
	c13.9,0,23,8.9,23,22.7v4.5H28.5v1.1c0,4.4,3.2,7.6,7.7,7.6c3.4,0,6.1-1.6,7.1-4.3H58.1z M28.7,605.2h14c-0.3-4-3.1-6.6-7-6.6
	C31.9,598.5,29,601.3,28.7,605.2z"/>
<path class="st6" d="M41.7,737.1H29v16.7H12.3v-45H29v16.2h12.7v-16.2h16.7v45H41.7V737.1z"/>
<path class="st6" d="M41.7,816.1H29v16.7H12.3v-45H29v16.2h12.7v-16.2h16.7v45H41.7V816.1z"/>
<path class="st6" d="M3.5,903.2h16.7V915h9.1c10.9,0,17.9,6.5,17.9,16.6c0,10.2-7,16.6-17.9,16.6H3.5V903.2z M20.3,926.7v9.6h5.2
	c3.1,0,5.1-2,5.1-4.8c0-2.8-2-4.8-5.1-4.8H20.3z M50.4,903.2h16.7v45H50.4V903.2z"/>
<path class="st6" d="M12.1,1109.1v-45h16.3v23.1h0.3l13.6-23.1h16.3v45H42.3v-23.7H42l-13.6,23.7H12.1z M29,1045
	c0.2,3.5,2.4,6.1,6.5,6.1s6.3-2.6,6.5-6.1h9.6c-0.2,7.3-5.8,13.7-16.1,13.7s-15.9-6.4-16.1-13.7H29z"/>
</svg>
