<svg width="1037" height="167" viewBox="0 0 1037 167" fill="none" xmlns="http://www.w3.org/2000/svg">
<path d="M987.864 135.552H913.289C907.971 135.552 902.871 133.475 899.111 129.779C895.351 126.082 893.238 121.068 893.238 115.841V42.5262C893.238 24.9653 914.836 16.1704 927.467 28.588L1002.04 101.902C1014.67 114.32 1005.73 135.552 987.864 135.552Z" fill="#231F20"/>
<path d="M960.536 9.48453C955.208 4.24638 946.569 4.2463 941.241 9.48436C935.913 14.7224 935.913 23.215 941.241 28.4532L1007.62 93.7062C1012.94 98.9444 1021.58 98.9445 1026.91 93.7064C1032.24 88.4684 1032.24 79.9757 1026.91 74.7376L960.536 9.48453Z" fill="#231F20"/>
<path d="M771.849 133.903C780.986 133.903 788.392 112.861 788.392 86.9054C788.392 60.9496 780.986 39.9082 771.849 39.9082C762.713 39.9082 755.307 60.9496 755.307 86.9054C755.307 112.861 762.713 133.903 771.849 133.903Z" fill="#231F20"/>
<path d="M826.992 133.903C836.128 133.903 843.535 112.861 843.535 86.9054C843.535 60.9496 836.128 39.9082 826.992 39.9082C817.856 39.9082 810.449 60.9496 810.449 86.9054C810.449 112.861 817.856 133.903 826.992 133.903Z" fill="#231F20"/>
<path d="M799.815 33.0856C827.551 33.0856 850.035 25.6791 850.035 16.5428C850.035 7.40646 827.551 0 799.815 0C772.08 0 749.596 7.40646 749.596 16.5428C749.596 25.6791 772.08 33.0856 799.815 33.0856Z" fill="#231F20"/>
<path d="M799.814 166.539C813.784 166.539 825.108 159.7 825.108 151.263C825.108 142.827 813.784 135.988 799.814 135.988C785.844 135.988 774.52 142.827 774.52 151.263C774.52 159.7 785.844 166.539 799.814 166.539Z" fill="#231F20"/>
<path d="M700.107 118.006H662.594V109.946C662.594 109.408 662.421 108.884 662.101 108.451C661.781 108.018 661.331 107.699 660.816 107.541C660.301 107.384 659.75 107.396 659.243 107.575C658.735 107.755 658.299 108.093 657.998 108.539C653.859 114.678 648.254 119.687 641.691 123.11C635.128 126.533 627.816 128.263 620.416 128.142C613.016 128.022 605.763 126.055 599.315 122.421C592.867 118.786 587.428 113.599 583.49 107.328C583.203 106.861 582.773 106.5 582.263 106.301C581.753 106.101 581.191 106.073 580.664 106.221C580.137 106.37 579.672 106.686 579.341 107.123C579.01 107.559 578.83 108.092 578.829 108.64V118.007H541.316C540.263 118.003 539.231 117.71 538.333 117.16C537.435 116.61 536.706 115.824 536.224 114.887C535.742 113.951 535.526 112.899 535.6 111.848C535.674 110.797 536.036 109.787 536.644 108.928C541.782 101.508 544.528 92.6921 544.512 83.6652C544.527 74.6365 541.782 65.8191 536.644 58.3971C536.037 57.5373 535.676 56.5272 535.603 55.4767C535.529 54.4262 535.745 53.3756 536.227 52.4393C536.708 51.503 537.438 50.717 538.335 50.1668C539.232 49.6166 540.263 49.3233 541.316 49.3189H578.829V58.6853C578.83 59.2334 579.01 59.7661 579.341 60.2026C579.673 60.6391 580.137 60.9555 580.664 61.1039C581.191 61.2522 581.753 61.2244 582.263 61.0245C582.773 60.8247 583.203 60.4638 583.49 59.9966C587.427 53.7255 592.867 48.5372 599.315 44.9022C605.764 41.2673 613.017 39.3006 620.417 39.1806C627.818 39.0607 635.131 40.7912 641.694 44.2153C648.256 47.6394 653.861 52.6486 657.999 58.7888C658.3 59.2356 658.736 59.5739 659.244 59.7538C659.751 59.9337 660.303 59.9458 660.818 59.7883C661.333 59.6307 661.783 59.3119 662.103 58.8787C662.423 58.4456 662.596 57.921 662.595 57.3823V49.3189H700.109C701.161 49.3233 702.193 49.6165 703.09 50.1667C703.987 50.717 704.717 51.5031 705.199 52.4394C705.68 53.3758 705.896 54.4265 705.822 55.4771C705.749 56.5277 705.388 57.5379 704.78 58.3976C699.657 65.8254 696.913 74.6373 696.913 83.6628C696.913 92.6883 699.657 101.5 704.78 108.928C705.389 109.788 705.75 110.798 705.823 111.849C705.897 112.9 705.682 113.951 705.199 114.887C704.717 115.824 703.988 116.61 703.09 117.16C702.192 117.71 701.16 118.002 700.107 118.006Z" fill="#231F20"/>
<path d="M482.911 139.989H433.948C407.667 139.989 383.506 120.74 371.035 89.8647L349.896 37.5362C347.928 32.664 350.572 26.7526 354.719 26.7526C383.99 26.7242 410.63 26.7763 432.89 26.7526C435.872 26.7526 438.628 28.8988 440.083 32.3743C458.724 76.908 475.889 103.272 488.951 118.743C495.22 126.167 491.292 139.989 482.911 139.989Z" fill="#231F20"/>
<path d="M286.047 59.4726C293.925 59.4726 300.311 53.0863 300.311 45.2084C300.311 37.3306 293.925 30.9443 286.047 30.9443C278.169 30.9443 271.783 37.3306 271.783 45.2084C271.783 53.0863 278.169 59.4726 286.047 59.4726Z" fill="#231F20"/>
<path d="M239.214 152.057C238.093 152.058 236.982 151.838 235.946 151.409C234.911 150.979 233.97 150.35 233.178 149.556L227.207 143.587C223.33 139.717 220.859 134.662 220.19 129.225C219.52 123.788 220.69 118.284 223.513 113.59C245.393 77.1086 237.55 40.6367 236.017 34.5841C235.917 34.2652 235.838 34.007 235.777 33.8026C233.915 27.448 238.422 24.2666 239.345 23.6938C240.972 22.6827 242.892 22.2481 244.796 22.4598C246.7 22.6715 248.477 23.5172 249.843 24.861C250.746 25.7517 251.566 26.5582 252.54 30.1912C252.644 30.5188 252.729 30.8524 252.794 31.1901C253.159 32.6983 253.547 34.6149 253.971 37.0797C255.146 44.0858 255.726 51.1788 255.705 58.2828C255.678 74.2143 252.612 98.265 238.155 122.371C237.294 123.802 236.937 125.479 237.141 127.136C237.345 128.793 238.098 130.334 239.28 131.513L245.25 137.483C246.444 138.677 247.257 140.198 247.586 141.854C247.915 143.51 247.746 145.226 247.1 146.786C246.454 148.346 245.36 149.679 243.956 150.617C242.553 151.555 240.902 152.056 239.214 152.056V152.057Z" fill="#231F20"/>
<path d="M76.4109 143.406C76.4109 143.406 34.6656 98.4987 76.4109 54.9099C103.611 26.5082 76.4109 8.05896 76.4109 8.05896" fill="#231F20"/>
<path d="M24.5535 143.327C24.5535 143.327 -17.1919 98.4194 24.5535 54.8311C51.7543 26.4293 24.5535 7.9801 24.5535 7.9801" fill="#231F20"/>
<path d="M24.5535 143.327C24.5535 143.327 -17.1919 98.4194 24.5535 54.8311C51.7543 26.4293 24.5535 7.9801 24.5535 7.9801" stroke="#B5FF17" stroke-width="11" stroke-miterlimit="10" stroke-linecap="round"/>
<path d="M62.9574 121.568C55.8712 104.44 52.8918 79.4656 76.4092 54.9099C103.61 26.5082 76.4092 8.05896 76.4092 8.05896" stroke="#B5FF17" stroke-width="11" stroke-miterlimit="10" stroke-linecap="round"/>
<path d="M128.264 143.406C128.264 143.406 86.5191 98.4987 128.264 54.9099C155.465 26.5082 128.264 8.05896 128.264 8.05896" fill="#231F20"/>
<path d="M128.264 143.406C128.264 143.406 86.5191 98.4987 128.264 54.9099C155.465 26.5082 128.264 8.05896 128.264 8.05896" stroke="#B5FF17" stroke-width="11" stroke-miterlimit="10" stroke-linecap="round"/>
<path d="M24.5527 143.327C24.5527 143.327 77.2192 94.3675 128.339 143.327C161.648 175.227 183.285 143.327 183.285 143.327" fill="#231F20"/>
<path d="M24.5527 143.327C24.5527 143.327 77.2192 94.3675 128.339 143.327C161.648 175.227 183.285 143.327 183.285 143.327" stroke="#B5FF17" stroke-width="11" stroke-miterlimit="10" stroke-linecap="round"/>
</svg>
