<?xml version="1.0" encoding="utf-8"?>
<!-- Generator: Adobe Illustrator 22.0.1, SVG Export Plug-In . SVG Version: 6.00 Build 0)  -->
<svg version="1.1" id="Layer_1" xmlns="http://www.w3.org/2000/svg" xmlns:xlink="http://www.w3.org/1999/xlink" x="0px" y="0px"
	 viewBox="0 0 125.9 282.5" style="enable-background:new 0 0 125.9 282.5;" xml:space="preserve">
<path d="M41.6,125.2c0,0,24.1-24.8,18.7-35.8c-10.5-19.3-44.5,9.8-44.5,9.8s-17.8,16.1-7.3,24.8c6.8,5.6,28.7-3.6,37.3,7.5
	c0,0,9.4,11.6-14,32.4C8.4,185,2.1,199.1,7.4,209c5.3,10,8.2,9.4,11.9,15.2c6.4,10,4.8,46.6,10.2,48.8c3.8,1.6,4.2-6.8,4-10.1
	c-0.7-11.4-10-34.6-6.5-43.2c3.5-8.6,21.7-29.2,33.5-47.1c7.2-10.9,24.4-55,31.8-53.4c10.6,2.2,6.8,34.8,1.2,63.6
	c-5.7,28.8-6.2,60.1,3.3,64.6c12.4,4.2,18.3-17.6,16-23.6c-2.6-5.6-10.6,0.2-11.8-3.4c-1.3-4.1,10.6-22,9.5-26.9
	c-1.1-4.9-10.9-2.7-10.3-12c0.5-6.4,16.9-24.5,15-41.4c-1-8.8-18.1-18-18.9-30.2c-0.8-12.3,24-53.5,20.7-67.5
	c-2.8-11.8-23.4-5.1-23.5-16.2C93.4,17.1,121.2,0,121.2,0l1.1,2.2c0,0-21.1,14.5-21,22.9c0.1,8.4,20.3,3.4,24.2,16.4
	c4.3,14.5-24.5,59.9-22.7,70.2c2,11.6,16.8,15.3,18.7,22.2c3.8,13.2-18.5,43.6-18.2,47.8c0.3,4.1,13.5,1.3,14.6,4.7
	c1.3,4.5-11.1,23.7-10.8,27.8c0.3,4.7,11,2.9,12,8.6c3.1,17-24.9,41.2-28.7,38.9c-23.8-14.6,14.6-124.2,0.3-126.4
	c-7-1.1-33.6,48.6-49.6,76.3c-13.5,23.6,6.1,67.1-5.3,70.7c-7.4,2.5-15-12.9-16.2-24.6c-1.2-12.1,5.7-28.3-14.1-41
	c-11.8-9-1.2-25.3,4-33.3c4.6-7,38.7-36.2,28.1-47.6c-9.4-10.2-28.6,11.4-36.7-9S42.6,63.2,60.3,72c21.6,10.7-17.1,54.6-17.1,54.6
	L41.6,125.2z"/>
</svg>
