<svg width="233" height="283" viewBox="0 0 233 283" fill="none" xmlns="http://www.w3.org/2000/svg">
<path d="M41.5871 125.23C41.5871 125.23 65.7183 100.383 60.2635 89.471C49.7151 70.1906 15.758 99.3139 15.758 99.3139C15.758 99.3139 -2.05141 115.387 8.49697 124.161C15.2523 129.764 37.216 120.585 45.7775 131.644C45.7775 131.644 55.1338 143.22 31.7612 164.085C8.3886 184.951 2.0668 199.07 7.37711 209.024C12.6874 218.977 15.6135 218.461 19.2621 224.212C25.6561 234.239 24.0305 270.809 29.4131 273.058C33.1701 274.643 33.6397 266.238 33.459 262.92C32.8088 251.566 23.4887 228.304 26.9928 219.714C30.4968 211.125 48.6675 190.517 60.4802 172.638C67.7051 161.689 84.8643 117.673 92.306 119.258C102.89 121.47 99.1335 154.021 93.462 182.85C87.7904 211.678 87.2124 242.939 96.7132 247.474C109.104 251.639 115.028 229.889 112.716 223.88C110.079 218.24 102.096 224.064 100.904 220.452C99.567 216.397 111.488 198.443 110.404 193.54C109.321 188.637 99.4586 190.849 100.109 181.559C100.579 175.145 117.015 157.044 115.101 140.197C114.089 131.349 97.0383 122.244 96.2074 109.968C95.3766 97.6918 120.23 56.4401 116.907 42.5052C114.089 30.7084 93.5342 37.4547 93.4258 26.2846C93.3536 17.0684 121.17 0 121.17 0L122.253 2.21189C122.253 2.21189 101.193 16.6629 101.301 25.0681C101.409 33.4364 121.639 28.4965 125.468 41.4729C129.731 55.924 101.012 101.378 102.746 111.664C104.697 123.276 119.58 126.999 121.422 133.856C125.215 147.091 102.927 177.504 103.179 181.67C103.432 185.725 116.726 182.923 117.738 186.352C119.074 190.849 106.647 210.019 106.973 214.185C107.298 218.903 117.991 217.134 119.002 222.774C122.109 239.732 94.1483 263.952 90.3191 261.63C66.4769 247.068 104.877 137.432 90.572 135.183C83.6 134.077 56.94 183.771 41.0091 211.494C27.4624 235.087 47.1141 278.551 35.6988 282.237C28.2932 284.744 20.7071 269.371 19.515 257.648C18.2867 245.52 25.2226 229.336 5.42638 216.618C-6.42248 207.586 4.19815 191.292 9.47233 183.329C14.0963 176.325 48.1618 147.128 37.5773 135.699C28.1487 125.525 8.93046 147.128 0.874685 126.668C-7.18109 106.208 42.5986 63.2232 60.3357 72.0339C81.9021 82.7247 43.2488 126.594 43.2488 126.594L41.5871 125.23Z" fill="black"/>
<path d="M140.295 260.078C140.172 265.695 144.928 270.533 150.504 270.41C156.121 270.533 160.918 265.695 160.795 260.078C160.795 254.379 156.203 249.787 150.545 249.787C144.928 249.664 140.172 254.379 140.295 260.078ZM158.663 260.119C158.663 264.793 155.055 268.483 150.504 268.483C145.953 268.483 142.427 264.793 142.427 260.119C142.427 255.363 145.953 251.714 150.545 251.714C155.055 251.714 158.663 255.363 158.663 260.119Z" fill="black"/>
<path d="M182.333 264.219C182.333 261.882 180.816 260.201 178.315 259.422C179.914 258.561 180.857 257.003 180.857 255.158C180.857 252.165 178.602 250.197 174.871 250.197H166.917V270H175.486C179.75 270 182.333 267.622 182.333 264.219ZM168.967 252.083H174.789C177.413 252.083 178.766 253.231 178.766 255.24C178.766 257.331 177.413 258.725 174.789 258.725H168.967V252.083ZM180.201 264.26C180.201 266.515 178.438 268.114 175.322 268.114H168.967V260.57H175.322C178.438 260.57 180.201 262.005 180.201 264.26Z" fill="black"/>
<path d="M188.858 270H196.115C200.543 270 203.29 267.54 203.29 263.768C203.29 260.037 200.543 257.577 196.115 257.577H190.908V250.197H188.858V270ZM207.267 270H209.317V250.197H207.267V270ZM190.908 268.114V259.463H195.992C199.272 259.463 201.117 261.185 201.117 263.809C201.117 266.433 199.272 268.114 195.992 268.114H190.908Z" fill="black"/>
<path d="M231.604 249.787L218.976 266.269V250.197H216.926V270.41H217.787L230.374 254.01V270H232.465V249.787H231.604ZM219.099 240.316C219.099 244.047 221.354 246.466 224.921 246.466C228.488 246.466 230.743 244.047 230.743 240.316V238.963H228.898V240.234C228.898 243.063 227.422 244.785 224.921 244.785C222.42 244.785 220.944 243.063 220.944 240.234V238.963H219.099V240.316Z" fill="black"/>
</svg>
