<svg xmlns="http://www.w3.org/2000/svg" width="229.804" height="84.341" viewBox="0 0 229.804 84.341">
  <title>Asset 14raa</title>
  <path d="M37.924,65.86C65.307,64.91,87.71,65.4,87.1,47.9c-.475-13.7-15.429-16.994-28.934-14.748-5.76.708-11.433,3.953-13.716,10.638C41.235,52.534,33.6,57.372,23.8,57.457A23.5,23.5,0,0,1,.432,36.419C.105,33.037-1.584,25.5,5.041,22.25c5.513-2.7,23.292-4,25.053,10.9C31.729,12.688,2.916,21.25,4.322,14.223c6.455-21.129,155.111-16.474,215.4-.65,2.834,1.935,4.226,13.065.189,12.7-8.075-.737-17.431-2.191-27.732-1.834C164.8,25.386,142.457,26.668,143,42.4c.343,9.9,11.418,17.388,28.941,15,5.761-.708,11.434-3.953,13.7-11.145,3.39-11.042,10.856-13.333,20.663-13.419a23.5,23.5,0,0,1,23.366,21.038c.383,3.8.149,18.795-3.783,21.472C199.623,93.233,16.539,79.371,10.381,76.723s-4.225-13.065-.188-12.7C18.267,64.763,27.624,66.217,37.924,65.86Z"/>
</svg>
