<svg xmlns="http://www.w3.org/2000/svg" width="27.447" height="90.936" viewBox="0 0 27.447 90.936">
  <title>Asset 15raa</title>
  <path d="M14.725,34.328c6.88,0,6.38-8.86,6.38-19.79a80.48,80.48,0,0,0-1.08-10.99c-.21-1.64,4.67-1.43,4.98-.13,2.44,10.35,2.59,44.87,2.37,53.12v32.61c-.99,1.59-6.93,1.87-8.45,1.77a9.312,9.312,0,0,1-8.59-9.03,9.212,9.212,0,0,1,5.6-8.63,5.668,5.668,0,0,0,3.55-5.36c-.25-6.68-1.37-11.29-6.32-11.29-6.88,0-6.38,8.86-6.38,19.79a80.48,80.48,0,0,0,1.08,10.99c.21,1.64-4.231,1.233-4.98.13C1.212,85.055.535,44.128.535,44.128H.515c-.75-12.98-.62-27.3,0-42.34C1.505.2,7.445-.082,8.965.018a9.312,9.312,0,0,1,8.59,9.03,9.212,9.212,0,0,1-5.6,8.63,5.668,5.668,0,0,0-3.55,5.36C8.655,29.718,9.775,34.328,14.725,34.328Z"/>
</svg>
