<?xml version="1.0" encoding="utf-8"?>
<!-- Generator: Adobe Illustrator 23.1.0, SVG Export Plug-In . SVG Version: 6.00 Build 0)  -->
<svg version="1.1" id="Layer_1" xmlns="http://www.w3.org/2000/svg" xmlns:xlink="http://www.w3.org/1999/xlink" x="0px" y="0px"
	 viewBox="0 0 99.8 113.9" style="enable-background:new 0 0 99.8 113.9;" xml:space="preserve">
<title>Asset 16raa</title>
<path d="M99.8,87.5v23.3c0,1.7-1.4,3.1-3.1,3.1l0,0H70.2c-4.4,0-9.5,0-10.8-4.9c-0.5-2.7-0.8-5.5-0.9-8.3c0-1.6-1.3-19.3,3.9-20.2
	c3.7-0.7,8.2,3.2,11.7,3.7c2.9,0.2,5.3-1.9,5.6-4.8c0.3-1.7,0-5.1-6-8.6c-6.6-3.9-15.8-7.3-20.6-3.9c-3.8,2.7,2.9,13.4-1,11.8
	c-18.4-7.3-34.1-12-37.2-4.1c-0.8,2.1,1.1,3.9,3.3,4.9l16.8,7.1c7.2,3.3,8.4,6,8.4,10.5c-0.2,4-0.7,8-1.4,11.9
	c-1.1,5.6-8.2,4.9-10.9,4.9H3.1c-1.7,0-3.1-1.4-3.1-3.1c0,0,0,0,0,0V81.5c0-29.1,34-11.5,34-11.5l0.5-0.7l-3.2-2
	c-2.7-1.7-8.9-6.7-8.9-12.6V19.1C22.3,8.4,31.8,0,42.5,0c17.6,0,22.6,22.9,48.7,22.9v34.3c0,11.4-24,7.6-24,7.6l-0.1,0.4
	C87.4,70,99.8,80.2,99.8,87.5z"/>
</svg>
