<svg xmlns="http://www.w3.org/2000/svg" width="50.2" height="57.302" viewBox="0 0 50.2 57.302">
  <title>Asset 16raa</title>
  <path d="M50.2,44V55.735a1.555,1.555,0,0,1-1.555,1.555H35.3c-2.231,0-4.795,0-5.426-2.488a22.224,22.224,0,0,1-.432-4.157c0-.79-.637-9.69,1.949-10.176,1.886-.354,4.118,1.616,5.906,1.844a2.69,2.69,0,0,0,2.833-2.407c.143-.853-.018-2.571-3-4.323-3.333-1.958-7.937-3.677-10.375-1.958-1.908,1.346,1.48,6.735-.5,5.945C16.991,35.88,9.1,33.513,7.543,37.519c-.4,1.037.54,1.981,1.642,2.442l8.453,3.573c3.617,1.654,4.242,3,4.242,5.277a43.718,43.718,0,0,1-.7,5.991c-.573,2.823-4.126,2.488-5.5,2.488H1.555A1.555,1.555,0,0,1,0,55.735V41.02c0-14.645,17.089-5.773,17.089-5.773l.229-.33L15.7,33.911c-1.373-.854-4.491-3.388-4.491-6.316V9.583C11.21,4.25,16.005,0,21.38,0c8.875,0,11.375,11.5,24.5,11.5V28.75c0,5.75-12.083,3.833-12.083,3.833l-.058.218C43.963,35.186,50.2,40.365,50.2,44Z"/>
</svg>
