<svg xmlns="http://www.w3.org/2000/svg" width="229.725" height="84.342" viewBox="0 0 229.725 84.342">
  <title>Asset 4raa</title>
  <path d="M229.725,54.552v.01a8.7,8.7,0,0,1-4.96,7.53,22.15,22.15,0,0,1-9.52,1.68c-.14,0-.28-.01-.43-.01l-.55-.03c-.34-.03-.67-.05-1.01-.09-.28-.03-.57-.07-.85-.11-.3-.04-.59-.09-.88-.15a17.11,17.11,0,0,1-1.75-.41c-.26-.07-.53-.16-.79-.24l-.09-.03-.81-.3a.142.142,0,0,0-.06-.02c-.26-.11-.51-.22-.76-.34-.27-.12-.53-.26-.8-.4a15.444,15.444,0,0,1-1.4-.86,1.213,1.213,0,0,0-.14-.1c-.23-.18-.46-.35-.68-.54s-.45-.39-.67-.6-.43-.43-.63-.66a24.082,24.082,0,0,0-2-3.1c-.15-.33-.29-.67-.42-1.03l-.18-.54c-.06-.19-.12-.37-.17-.56-.06-.23-.12-.47-.17-.71-.07-.27-.12-.55-.17-.84s-.09-.6-.13-.91c-.02.29-.04.57-.05.84v.12a16.348,16.348,0,0,0,.04,2.12,12.454,12.454,0,0,0,.26,1.69,6.927,6.927,0,0,0,.26,1.02,9.943,9.943,0,0,0,2.59,4.38c.14.14.28.28.43.41a8.16,8.16,0,0,0,.91.74.01.01,0,0,1,.01.01c.16.12.32.23.49.34a13.179,13.179,0,0,0,1.85,1.01.01.01,0,0,0,.01.01,19.5,19.5,0,0,0,2.01.79,26.6,26.6,0,0,0,3.43.9c.42.09.83.16,1.25.24.4.07.8.14,1.21.2a.772.772,0,0,1,.15.02c.29.05.57.09.86.12,1.05.15,2.07.27,3.04.4.55.08,1.08.15,1.59.22a.875.875,0,0,1,.16.02c.61.1,1.19.2,1.73.31.14.03.29.06.42.09.15.03.29.07.43.11.19.05.37.1.54.16a6.356,6.356,0,0,1,.82.33,2.148,2.148,0,0,1,.26.14,2.544,2.544,0,0,1,.49.35.8.8,0,0,1,.13.13,1.513,1.513,0,0,1,.34.48.37.37,0,0,1,.05.11.878.878,0,0,1,.07.23.088.088,0,0,1,.01.07,1.124,1.124,0,0,1,.04.32,3.023,3.023,0,0,1-.05.5,5.65,5.65,0,0,1-.65,1.39c-.07.1-.14.21-.22.31a.835.835,0,0,1-.12.16,3.067,3.067,0,0,1-.28.35,4.482,4.482,0,0,1-.36.4,9.926,9.926,0,0,1-1.01.9,6.119,6.119,0,0,1-.5.39c-.25.18-.5.35-.78.52-.18.12-.36.24-.56.35-.23.14-.48.28-.74.42s-.52.28-.8.41c-.54.27-1.12.53-1.74.79-.3.12-.62.25-.94.37s-.65.25-.99.37-.68.24-1.04.36-.71.23-1.08.35c-.44.14-.9.27-1.37.41-1.46.42-3.03.81-4.7,1.18q-1.98.45-4.14.84c-.94.18-1.9.34-2.89.51-.53.08-1.06.17-1.6.25-1.04.16-2.1.31-3.18.46l-1.64.21c-1.53.19-3.11.38-4.73.55-.27.03-.54.06-.81.08-.73.08-1.47.15-2.22.22-2.24.21-4.56.41-6.93.57-1.43.1-2.87.2-4.34.29-.26.02-.52.03-.78.04-1.57.09-3.15.17-4.76.25-.73.03-1.46.07-2.2.09-1.2.05-2.41.1-3.63.14s-2.45.07-3.69.11c-.62.01-1.25.03-1.87.04s-1.25.03-1.88.04l-3.81.06c-.82.01-1.65.02-2.48.02-1.1.01-2.21.02-3.32.02h-.61c-.28,0-.56,0-.84-.01-5.08-.01-10.25-.05-15.44-.14-56.17-.91-115.96-5.98-119.44-7.47-6.15-2.65-4.22-13.06-.18-12.69,8.07.73,17.43,2.19,27.73,1.83,27.38-.95,49.78-.46,49.18-17.96-.48-13.71-15.43-17-28.94-14.75-5.76.7-11.43,3.95-13.71,10.63-3.22,8.75-10.85,13.59-20.66,13.68A23.5,23.5,0,0,1,.435,36.422c-.33-3.38-2.02-10.92,4.6-14.17,5.52-2.7,23.3-4,25.06,10.9,1.63-20.46-27.18-11.9-25.77-18.93,6.45-21.13,155.11-16.47,215.4-.65,2.83,1.94,4.22,13.07.19,12.7-8.08-.74-17.43-2.19-27.74-1.83-27.38.95-49.72,2.23-49.17,17.96a12.913,12.913,0,0,0,.89,4.33c2.76,7.06,11.73,11.93,24.84,11l-.01.01c1.04-.08,2.12-.19,3.22-.34a14.744,14.744,0,0,0,1.48-.25,12.6,12.6,0,0,0,1.5-.36c.43-.12.85-.26,1.27-.42q.525-.2,1.02-.42c.29-.13.57-.27.85-.42a10.029,10.029,0,0,0,.95-.54,9.026,9.026,0,0,0,.91-.61,2.659,2.659,0,0,0,.44-.33c.27-.21.54-.44.8-.67a15.454,15.454,0,0,0,4.32-6.63c.05-.16.11-.32.16-.49,3.39-11.04,10.85-13.34,20.66-13.42a23.5,23.5,0,0,1,23.37,21.04C229.7,54.082,229.715,54.3,229.725,54.552Z"/>
</svg>
