<svg xmlns="http://www.w3.org/2000/svg" width="50.2" height="56.54" viewBox="0 0 50.2 56.54">
  <title>Asset 17raa</title>
  <path d="M50.2,43.25V54.985a1.555,1.555,0,0,1-1.555,1.555H35.3c-2.231,0-5.087-.894-5.426-2.488a30.283,30.283,0,0,1-.432-4.157c0-.79-.6-10.812,1.949-10.176,2.593.647,4.118,1.616,5.906,1.844a2.69,2.69,0,0,0,2.833-2.407c.143-.853-.018-2.571-3-4.323-3.333-1.958-7.937-3.677-10.375-1.958-1.908,1.346,1.48,6.735-.5,5.945C16.991,35.13,9.1,32.763,7.543,36.769c-.4,1.037.54,1.981,1.642,2.442l8.453,3.573c3.617,1.654,4.242,3,4.242,5.277v5.991a2.488,2.488,0,0,1-2.488,2.488H1.555A1.555,1.555,0,0,1,0,54.985V40.27C0,25.625,17.089,34.5,17.089,34.5l.229-.33a3.9,3.9,0,0,1-1.641-.8c-1.276-.993-4.467-3.6-4.467-6.523V0C22.222,9.239,33.737,11.943,45.88,6.5V28c0,5.75-12.083,3.833-12.083,3.833-.176.013-.226.077-.112.2C43.909,34.423,50.2,39.615,50.2,43.25Z"/>
</svg>
