<svg xmlns="http://www.w3.org/2000/svg" width="50.2" height="56.54" viewBox="0 0 50.2 56.54">
  <title>Asset 18raa</title>
  <path d="M50.2,43.25V56.54H35.3a4.04,4.04,0,0,1-4.04-4.04V44.15a4.28,4.28,0,0,1,4.28-4.28h5.9a2.157,2.157,0,0,0,1.51-.62,2.135,2.135,0,0,0,.4-2.439,2.185,2.185,0,0,0-1.99-1.181H8.44a2.122,2.122,0,0,0-2.111,2.332A2.213,2.213,0,0,0,8.57,39.87h8.78a4.28,4.28,0,0,1,4.28,4.28V52.5a4.04,4.04,0,0,1-4.04,4.04H0V40.27C0,25.625,17.089,34.5,17.089,34.5l-1.412-1.129a6.99,6.99,0,0,1-4.467-6.523V0H45.88V28c0,5.75-7.458,4.917-7.458,4.917C48.922,35.25,50.2,39.563,50.2,43.25Z"/>
</svg>
