<svg xmlns="http://www.w3.org/2000/svg" viewBox="0 0 110.14 150"><title>33</title><g id="Layer_2" data-name="Layer 2"><g id="Layer_1-2" data-name="Layer 1"><path d="M59.42,80.43C59.42,120.29,35.51,142,0,142V0H37C37,48.55,31.16,80.43,59.42,80.43Z"/><path d="M60.87,0h49.28a0,0,0,0,1,0,0V49.28a0,0,0,0,1,0,0h0A49.28,49.28,0,0,1,60.87,0V0a0,0,0,0,1,0,0Z" transform="translate(60.87 110.14) rotate(-90)"/><path d="M76.81,97.83h34.78a0,0,0,0,1,0,0v0a34.78,34.78,0,0,1-34.78,34.78H42a0,0,0,0,1,0,0v0A34.78,34.78,0,0,1,76.81,97.83Z" transform="translate(192.03 38.41) rotate(90)"/></g></g></svg>