<svg xmlns="http://www.w3.org/2000/svg" viewBox="0 0 190.79 100"><title>34</title><g id="Layer_2" data-name="Layer 2"><g id="Layer_1-2" data-name="Layer 1"><path d="M126.39,63.73A36.88,36.88,0,0,0,89.53,26.27H63.67A26.22,26.22,0,0,1,37.45.05h0A37.45,37.45,0,0,0,0,37.5V100H88.63C108.91,100,126.07,84,126.39,63.73Zm-29.7-15a17.83,17.83,0,0,1,0,28.21A17.23,17.23,0,0,1,86,80.46H37.19A35.17,35.17,0,0,1,72.36,45.29H86A17.43,17.43,0,0,1,96.69,48.77Z"/><path d="M190.79,26.55V47a53,53,0,0,1-52.95,53h0V26.57a26,26,0,0,1,5.23-16.14c10.5-13.88,32-13.93,42.47,0A26.2,26.2,0,0,1,190.79,26.55Z"/></g></g></svg>