<svg id="Layer_1" data-name="Layer 1" xmlns="http://www.w3.org/2000/svg" viewBox="0 0 877.55 393.04"><defs><style>.cls-1{fill:#fff;}.cls-2{fill:#ff1879;}.cls-3{fill:#6a8fff;}</style></defs><title>еще один шрифт</title><rect class="cls-1" width="877.55" height="393.04"/><polygon points="141.24 95.38 87.39 95.38 77.35 41.52 141.24 41.52 141.24 95.38"/><polygon points="141.24 169.85 77.35 169.85 87.39 116 141.24 116 141.24 169.85"/><polygon points="141.24 108.77 87.39 108.77 78.56 105.69 87.39 102.61 141.24 102.61 141.24 108.77"/><path d="M78.56,169.85H60.85a130.43,130.43,0,0,1,0-128.33H78.56Z"/><path class="cls-1" d="M82.65,49.2c0,2.26.79,27.88-1.47,27.88S74.47,51.46,74.47,49.2a4.09,4.09,0,0,1,8.18,0Z"/><path class="cls-1" d="M82.65,159c0-2.26.79-27.88-1.47-27.88S74.47,156.7,74.47,159a4.09,4.09,0,1,0,8.18,0Z"/><path d="M85.44,260.45a159.52,159.52,0,0,1-2.67-27.85c0-4-.12-7.14-.12-7.87a4.1,4.1,0,0,0-8.19,0c0,1.54,4.1,20.85,4.1,56.49s-4.1,51.74-4.1,53.28a4.1,4.1,0,0,0,4.1,4.09v.31l.06-.31a4.09,4.09,0,0,0,4-4.09c0-.46,0-2.84,0-5.72a132.53,132.53,0,0,1,2.25-24h0a16.22,16.22,0,0,1,15.94-13.24h0a40.38,40.38,0,0,1,40.38,40.39v13.47H60.85a130.46,130.46,0,0,1,0-128.33h80.39v53.85H98a12.81,12.81,0,0,1-12.59-10.46Z"/><path d="M144.07,284.3H90.21a3.26,3.26,0,0,1,0-6.16h53.86Z"/><path d="M247.44,260.45a160.5,160.5,0,0,1-2.68-27.85c0-4-.11-7.14-.11-7.87a4.1,4.1,0,0,0-8.19,0c0,1.54,4.1,20.85,4.1,56.49s-4.1,51.74-4.1,53.28a4.1,4.1,0,0,0,4.1,4.09v.31l.06-.31a4.09,4.09,0,0,0,4-4.09c0-.46,0-2.84,0-5.72a132.54,132.54,0,0,1,2.26-24h0a16.21,16.21,0,0,1,15.93-13.24h0a40.39,40.39,0,0,1,40.39,40.39v13.47H222.85a130.46,130.46,0,0,1,0-128.33h80.39V227.7A43.21,43.21,0,0,1,260,270.91h0a12.81,12.81,0,0,1-12.59-10.46Z"/><path d="M390.59,260.45a159.52,159.52,0,0,1-2.67-27.85c0-4-.12-7.14-.12-7.87a4.1,4.1,0,0,0-8.19,0c0,1.54,4.1,20.85,4.1,56.49s-4.1,51.74-4.1,53.28a4.1,4.1,0,0,0,4.1,4.09v.31l.06-.31a4.09,4.09,0,0,0,4-4.09c0-.46,0-2.84,0-5.72a133.44,133.44,0,0,1,2.26-24h0A16.22,16.22,0,0,1,406,291.53h0a40.38,40.38,0,0,1,40.38,40.39v13.47H366a130.46,130.46,0,0,1,0-128.33h26.54a53.85,53.85,0,0,1,53.85,53.85H403.18a12.81,12.81,0,0,1-12.59-10.46Z"/><path d="M512.36,256.34a112.29,112.29,0,0,1-1.89-20.54c0-5.36-.13-10.15-.13-11.07a4.1,4.1,0,0,0-8.19,0c0,1.54,4.1,20.85,4.1,56.49s-4.1,51.74-4.1,53.28a4.1,4.1,0,0,0,4.1,4.09v.31l.06-.31a4.09,4.09,0,0,0,4-4.09c0-.68,0-5.5,0-10a86.15,86.15,0,0,1,1.46-15.62l.53-2.82a17.84,17.84,0,0,1,17.53-14.57h21.2a17.84,17.84,0,0,1,17.84,17.84v18.19a17.83,17.83,0,0,1-17.84,17.83H499.48a17.92,17.92,0,0,1-16.32-10.62,130.51,130.51,0,0,1,0-107.09,17.92,17.92,0,0,1,16.32-10.62h51.61a17.84,17.84,0,0,1,17.84,17.84v18.18a17.83,17.83,0,0,1-17.84,17.83H529.9a17.84,17.84,0,0,1-17.54-14.57Z"/><path d="M630.65,254.71A94.77,94.77,0,0,1,629.06,237c0-5.83-.13-11.28-.13-12.27a4.1,4.1,0,0,0-8.19,0c0,1.54,4.1,20.85,4.1,56.49s-4.1,51.74-4.1,53.28a4.1,4.1,0,0,0,4.1,4.09v.31l.06-.31a4.09,4.09,0,0,0,4-4.09c0-.76,0-6.75,0-11.59a68.67,68.67,0,0,1,1.16-12.39l3.55-19h53.85v14.4a39.46,39.46,0,0,1-39.46,39.46h0a57.45,57.45,0,0,1-57.24-52q-.55-6.08-.56-12.16a130.48,130.48,0,0,1,3.07-28.17,46.09,46.09,0,0,1,45.06-36h49.13a53.85,53.85,0,0,1-53.85,53.85h0Z"/><path d="M777.75,254.71A94.77,94.77,0,0,1,776.16,237c0-5.83-.13-11.28-.13-12.27a4.1,4.1,0,0,0-8.19,0c0,1.54,4.1,20.85,4.1,56.49s-4.1,51.74-4.1,53.28a4.1,4.1,0,0,0,4.1,4.09v.31l.06-.31a4.09,4.09,0,0,0,4-4.09c0-.76,0-6.75,0-11.59a69.6,69.6,0,0,1,1.17-12.39l3.54-19h53.85v14.4a39.46,39.46,0,0,1-39.46,39.46h0a57.43,57.43,0,0,1-57.23-52q-.57-6.08-.57-12.16a130.49,130.49,0,0,1,3.08-28.17,46.08,46.08,0,0,1,45.06-36h0a49.13,49.13,0,0,1,49.12,49.13v4.72H780.77Z"/><path d="M304.12,284.3H250.27a3.26,3.26,0,0,1,0-6.16h53.85Z"/><path d="M446.39,284.3H392.53a3.26,3.26,0,0,1,0-6.16h53.86Z"/><path d="M568.93,284.3H515.07a3.26,3.26,0,0,1,0-6.16h53.86Z"/><path d="M691.47,284.3H637.61a3.26,3.26,0,0,1,0-6.16h53.86Z"/><path d="M838.57,284.3H784.72a3.26,3.26,0,0,1,0-6.16h53.85Z"/><polygon points="264.91 95.38 211.06 95.38 201.02 41.52 264.91 41.52 264.91 95.38"/><polygon points="264.91 169.85 201.02 169.85 211.06 116 264.91 116 264.91 169.85"/><polygon points="264.91 108.77 211.06 108.77 202.23 105.69 211.06 102.61 264.91 102.61 264.91 108.77"/><path d="M202.23,169.85H184.52a130.43,130.43,0,0,1,0-128.33h17.71Z"/><path d="M337.76,86.11v39.15a3.52,3.52,0,0,0,7,.65h0A12.14,12.14,0,0,1,356.68,116h43.76v53.86H320.05a130.46,130.46,0,0,1,0-128.33h80.39V95.38H356.68a12.14,12.14,0,0,1-11.94-9.91h0A3.52,3.52,0,0,0,337.76,86.11Z"/><path d="M400.44,108.77H346.59a3.26,3.26,0,0,1,0-6.16h53.85Z"/><path d="M473.29,86.11v39.15a3.52,3.52,0,0,0,7,.65h0A12.14,12.14,0,0,1,492.2,116H536a53.85,53.85,0,0,1-53.86,53.86h0a40.2,40.2,0,0,1-38.74-29.6,130.52,130.52,0,0,1,0-69.13,40.2,40.2,0,0,1,38.74-29.6h0A53.86,53.86,0,0,1,536,95.38H492.2a12.13,12.13,0,0,1-11.93-9.91h0A3.52,3.52,0,0,0,473.29,86.11Z"/><path d="M536,108.77H482.11a3.26,3.26,0,0,1,0-6.16H536Z"/><path d="M597,86.11v39.15a3.52,3.52,0,0,0,7,.65h0A12.14,12.14,0,0,1,615.88,116h43.76a53.85,53.85,0,0,1-53.86,53.86H579.25a130.46,130.46,0,0,1,0-128.33h26.53a53.86,53.86,0,0,1,53.86,53.86H615.88a12.14,12.14,0,0,1-11.94-9.91h0A3.52,3.52,0,0,0,597,86.11Z"/><path d="M659.64,108.77H605.78a3.26,3.26,0,0,1,0-6.16h53.86Z"/><circle class="cls-2" cx="736.38" cy="83.98" r="5.65"/><circle class="cls-3" cx="804.9" cy="83.98" r="5.65"/><path class="cls-3" d="M812.34,93.37c2.93,3.2,5.88,6.43,7.85,10.33,1.79,3.53,2.65,8,1,11.76-3.42,7.69-13.42,8-20.44,6.5C783,118.11,766,105,747.08,110.1c-8.2,2.22-15.73,8.25-17.92,16.71-.81,3.11,4,4.44,4.82,1.32,1.83-7,8.31-11.74,15.14-13.39,9.07-2.19,18.61.67,27.07,3.87,9,3.42,17.93,7.73,27.63,8.9,8.21,1,18.1-1.59,21.79-9.79,2.23-5,1.6-10.5-.54-15.37s-5.72-8.71-9.19-12.51c-2.18-2.38-5.71,1.16-3.54,3.53Z"/><path class="cls-2" d="M727.85,90.21a30.11,30.11,0,0,0-3.52,47.12,43.57,43.57,0,0,0,14.34,8.42,114.55,114.55,0,0,0,18.32,4.8,2.5,2.5,0,1,0,1.33-4.82c-9.79-1.95-20.3-4.07-28.44-10.24a25.14,25.14,0,0,1,.49-41,2.56,2.56,0,0,0,.9-3.42,2.51,2.51,0,0,0-3.42-.89Z"/><path class="cls-2" d="M718.94,92.3c-1.5-5.14-2.08-10.67-.25-15.81a14.31,14.31,0,0,1,8.12-8.69,2.56,2.56,0,0,0,1.75-3.07A2.52,2.52,0,0,0,725.48,63a19.59,19.59,0,0,0-11.35,11.49c-2.42,6.08-1.81,13,0,19.16.89,3.08,5.72,1.77,4.82-1.33Z"/><path class="cls-2" d="M729.43,106.28c8.2-.78,16.67-1.6,24.08-5.48,6.16-3.24,11.45-8.72,13.1-15.62.75-3.13-4.07-4.46-4.82-1.33-1.4,5.83-5.92,10.15-11.14,12.8-6.51,3.3-14.06,3.95-21.22,4.63a2.57,2.57,0,0,0-2.5,2.5,2.52,2.52,0,0,0,2.5,2.5Z"/><path class="cls-3" d="M808.08,98.3c-3.66.79-7.3-1.2-9.91-3.64-3.17-3-5.21-6.87-7.5-10.5a38.63,38.63,0,0,0-8-9.51,36.07,36.07,0,0,0-10.7-6.05,34,34,0,0,0-13.44-1.92c-3.2.2-3.22,5.2,0,5a30,30,0,0,1,21.35,7.13,40.78,40.78,0,0,1,7.78,9.93c2.29,3.73,4.66,7.58,8.08,10.39,3.89,3.19,8.67,5.08,13.71,4,3.15-.67,1.82-5.49-1.33-4.82Z"/><path class="cls-3" d="M826.74,89.36c2.08-8.6-2.4-16.93-9.35-21.86C810,62.29,800.74,61.2,792,60.9c-3.22-.11-3.21,4.89,0,5,7.55.26,15.38,1.08,21.89,5.24,5.57,3.57,9.7,10.12,8.06,16.89-.75,3.13,4.07,4.46,4.82,1.33Z"/><path class="cls-3" d="M781.09,123.28a12.58,12.58,0,0,0-8.28,5.72,14.75,14.75,0,0,0-1.94,10.52c1.25,7.73,7.55,13.22,14.1,16.77,2.83,1.54,5.35-2.77,2.52-4.31-5.11-2.78-10.11-6.66-11.56-12.59-1.19-4.87,1.2-10.42,6.49-11.29a2.52,2.52,0,0,0,1.75-3.08,2.56,2.56,0,0,0-3.08-1.74Z"/><path class="cls-2" d="M738.67,134.83a34.93,34.93,0,0,1,24.23-7.37,2.51,2.51,0,0,0,2.5-2.5,2.55,2.55,0,0,0-2.5-2.5,40,40,0,0,0-27.76,8.83,2.51,2.51,0,0,0,0,3.54,2.55,2.55,0,0,0,3.53,0Z"/></svg>