<svg xmlns="http://www.w3.org/2000/svg" viewBox="0 0 647.86 137.41"><defs><style>.cls-1{fill:none;stroke:#000;stroke-miterlimit:10;stroke-width:0.25px;}</style></defs><title>Asset 42</title><g id="Layer_2" data-name="Layer 2"><g id="Layer_1-2" data-name="Layer 1"><path d="M421.55,47.93a159.53,159.53,0,0,1-2.68-27.85c0-4-.11-7.14-.11-7.87a4.1,4.1,0,0,0-8.19,0c0,1.54,4.1,20.85,4.1,56.49s-4.1,51.74-4.1,53.28a4.1,4.1,0,0,0,4.1,4.09v.31l.06-.31a4.09,4.09,0,0,0,4-4.09c0-.46,0-2.84,0-5.72a133.43,133.43,0,0,1,2.25-24h0A16.22,16.22,0,0,1,437,79h0a40.39,40.39,0,0,1,40.39,40.39v13.47H397c-11.25-19.91-61.67-42-61.67-64.17S385.71,24.44,397,4.54h80.39V15.18a43.21,43.21,0,0,1-43.21,43.21h0a12.81,12.81,0,0,1-12.59-10.46Z"/><path d="M478.23,71.78H424.37a3.26,3.26,0,0,1,0-6.16h53.86Z"/><path d="M591.18,47.93a160.5,160.5,0,0,1-2.68-27.85c0-4-.11-7.14-.11-7.87a4.09,4.09,0,0,0-4.09-4.09c-2.26,0-66,24.94-66,60.58s63.77,57.37,66,57.37v.31l.06-.31a4.09,4.09,0,0,0,4-4.09c0-.46,0-2.84,0-5.72a132.54,132.54,0,0,1,2.26-24h0A16.21,16.21,0,0,1,606.59,79h0A40.39,40.39,0,0,1,647,119.4v13.47H566.59c-11.25-19.91-61.67-42-61.67-64.17s50.42-44.26,61.67-64.16H647V15.18a43.21,43.21,0,0,1-43.21,43.21h0a12.81,12.81,0,0,1-12.59-10.46Z"/><path d="M647.86,71.78H594a3.26,3.26,0,0,1,0-6.16h53.85Z"/><path d="M210.24,43.51C208.53,34.33,246.11,25,246,15.67c0-4-.12-7.15-.12-7.88a4.09,4.09,0,0,0-4.09-4.09c-2.26,0-66,24.94-66,60.59s63.76,57.36,66,57.36V122l.07-.31a4.08,4.08,0,0,0,4-4.09c0-.46,0-2.84,0-5.72,0-8-39.19-16.09-37.71-24,0,0,48.09-13.24,55.9-13.24h0c8.36,0,10.6,2.55,10.12,6.9-2.24,20.36,9.1,39.72,28.47,46.35l1.79.61h0a8.83,8.83,0,0,1-8.83,8.84H224.11v-8.84s-54.35-42-54.35-64.17S212.86,20,224.11.13H304.5V10.77A43.2,43.2,0,0,1,261.3,54h0C255.13,54,210.24,43.51,210.24,43.51Z"/><path class="cls-1" d="M40.61,43.51C38.9,34.33,76.48,25,76.4,15.67c0-4-.12-7.15-.12-7.88A4.09,4.09,0,0,0,72.19,3.7c-2.26,0-66,24.94-66,60.59s63.76,57.36,66,57.36V122l.06-.31a4.08,4.08,0,0,0,4-4.09c0-.46,0-2.84,0-5.72,0-8-39.19-16.09-37.71-24,0,0,48.09-13.24,55.9-13.24h0c8.36,0,10.6,2.55,10.12,6.9-2.24,20.36,9.1,39.72,28.47,46.35l1.79.61h0a8.83,8.83,0,0,1-8.83,8.84H54.48v-8.84S.12,86.41.13,64.28,43.23,20,54.48.13h80.39V10.77A43.2,43.2,0,0,1,91.67,54h0C85.5,54,40.61,43.51,40.61,43.51Z"/></g></g></svg>