<svg xmlns="http://www.w3.org/2000/svg" viewBox="0 0 296.04 137.42"><defs><style>.cls-1{fill:none;stroke:#000;stroke-miterlimit:10;stroke-width:0.25px;}</style></defs><title>Asset 1</title><g id="Layer_2" data-name="Layer 2"><g id="Layer_1-2" data-name="Layer 1"><path class="cls-1" d="M153.42,66.11C172.16,27.14,217,3.7,219.25,3.7a4.09,4.09,0,0,1,4.09,4.09c0,.73.08,3.91.11,7.88.09,9.34-37.5,18.66-35.78,27.84,0,0,44.88,10.46,51.05,10.46h0a43.21,43.21,0,0,0,43.21-43.2V.13H143.85c-22.32,18.72,5.8,33.89,3.57,65.47-3.11,44.18-35.64,54.43-66.33,56.06-8.93.47-10.88-7.84-4-9.82,7.78-2.25,39.19-16.09,37.71-24,0,0-48.1-13.23-55.9-13.23h0c-8.37,0-10.6,2.54-10.12,6.89,2.23,20.36-9.1,39.72-28.47,46.35l-1.8.62h0a8.83,8.83,0,0,0,8.84,8.83H98.86s-8.14-8.8,0-8.83C169.47,128.13,138.56,97,153.42,66.11Z"/><path class="cls-1" d="M139,60.75C123.39,14.37,69.1,3.25,62.81,3.7c-15.41,1.13-12.72,16.63,5,19C84,24.78,96.1,34.33,94.39,43.51c0,0-44.89,10.46-51.06,10.46h0A43.2,43.2,0,0,1,.13,10.77V.13h85c19.91,0,42.7,8.84,57,48.35,5,13.81,1.3,25.86-5.93,28.75-4.15,1.65-13.74,2.32-13.79-3-.06-6.74,4.86-5,7.18-2.12s4.36,4.36,6.75,3C137.54,74.41,143,72.45,139,60.75Z"/><path class="cls-1" d="M231.69,131.14c-54.36,0-85.84-34.29-73.4-68.1,2.21-6,6.4-6.58,12-5.8,4.29.61,6.25,5,1,7.18-4.1,1.72-8.83-7.92-11.69-.89-12.58,30.92,26.24,65,73.07,54.28,5.76-1.31,4.95-6.23,4.67-8.49C235,90.7,199.63,99.75,199.63,87.83c0,0,48.09-13.23,55.9-13.23h0c8.36,0,10.59,2.54,10.11,6.89-2.23,20.36,9.1,39.72,28.48,46.35l1.79.62h0a8.83,8.83,0,0,1-8.83,8.83H162.27V107"/><path class="cls-1" d="M98.49,128.46a59.39,59.39,0,0,0-16.17,2.68"/></g></g></svg>