<?xml version="1.0" encoding="utf-8"?>
<!-- Generator: Adobe Illustrator 23.1.0, SVG Export Plug-In . SVG Version: 6.00 Build 0)  -->
<svg version="1.1" id="Layer_1" xmlns="http://www.w3.org/2000/svg" xmlns:xlink="http://www.w3.org/1999/xlink" x="0px" y="0px"
	 viewBox="0 0 401.3 122.3" style="enable-background:new 0 0 401.3 122.3;" xml:space="preserve">
<style type="text/css">
	.st0{fill:none;stroke:#000000;stroke-width:0.2;stroke-miterlimit:10;}
	.st1{fill:#FFFFFF;}
</style>
<title>Asset 5</title>
<g>
	<g id="Layer_1-2">
		<rect x="208" width="193.3" height="122.3"/>
		<path class="st0" d="M170.2,29.2V33c-26.5,12.5-37.2,35.5-39.5,57.6l-4.4,3.4c-21,0.9-41.9,3.1-62.6,6.7l-4.7-2
			c21.3-4,42.9-7.8,65.7-8.5c-1.3-1.8-15.8-0.5-19.2-0.4c4.5-31.3,20.9-41.4,41.1-56.5l-1.1-0.1l-32.1,22.7H49.5l-0.7,0.7l50.5,1.3
			c5.1,0.1,9.1,4.4,9,9.5c0,0.5-0.1,1.1-0.2,1.6l-4.3,21.1c0,0-24.8,2.9-48.5,7.1l-4.7-2c-11.3-19.6-8.3-45,2.6-61.4l8.7-4.4
			L170.2,29.2z"/>
		<path class="st1" d="M375.3,25.5v3.7c-26.5,12.5-37.2,35.5-39.5,57.7l-4.4,3.3c-21,0.9-41.9,3.1-62.6,6.7l-4.7-2
			c21.3-4,42.9-7.8,65.7-8.5c-1.3-1.8-15.8-0.5-19.2-0.4c4.5-31.3,20.9-41.4,41.1-56.5l-1.1,0L318.4,52h-63.8l-0.7,0.7l50.5,1.3
			c5.1,0.1,9.1,4.4,9,9.5c0,0.5-0.1,1-0.2,1.5L309,86.1c0,0-24.8,2.9-48.6,7.2l-4.7-2c-11.3-19.6-8.2-45,2.7-61.4l8.7-4.4H375.3z"/>
	</g>
</g>
<rect x="0.1" width="11" height="122.3"/>
<circle cx="170.2" cy="86.4" r="15.2"/>
</svg>
