<svg xmlns="http://www.w3.org/2000/svg" viewBox="0 0 973.72 667.63"><defs><style>.cls-1{fill:#f9a0a0;}.cls-2,.cls-3,.cls-4,.cls-6{fill:none;stroke:#1d006a;stroke-miterlimit:10;}.cls-2{stroke-width:0.25px;}.cls-4{stroke-width:0.29px;}.cls-5{fill:#1d006a;}.cls-6{stroke-width:1.81px;}.cls-7{fill:#fff;}</style></defs><title>Asset 7</title><g id="Layer_2" data-name="Layer 2"><g id="Layer_1-2" data-name="Layer 1"><rect class="cls-1" width="972.42" height="667.63"/><path class="cls-2" d="M239.18,541c0-50.17-27.47-66.17-74.3-55.49-5.76,1.32-5,6.24-4.67,8.5,2.34,18.62,37.69,9.57,37.69,21.48,0,0-48.09,13.24-55.9,13.24h0c-8.36,0-10.59-2.54-10.12-6.89,2.24-20.36-9.09-39.72-28.47-46.35l-1.79-.62h0a8.83,8.83,0,0,1,8.83-8.83H235.26v45.36"/><path class="cls-2" d="M358.49,608.38c6.18-29.35-29.58-74.86-117-56.43a4.36,4.36,0,0,1-.79-4.5c77.63-15.41,126.74,20.76,129.45,47.61.59,5.88,5-6.24,4.67-8.5-2.34-18.61-37.69-9.57-37.69-21.48,0,0,48.09-13.24,55.9-13.24h0c8.36,0,10.59,2.54,10.11,6.9-2.23,20.35,9.1,39.72,28.48,46.35l1.79.61h0a8.83,8.83,0,0,1-8.83,8.83H299.77v-9.39s41.79,12,69.86-.22"/><line class="cls-2" x1="138.68" y1="537.38" x2="138.68" y2="529.88"/><path class="cls-2" d="M125.32,553.31A50.58,50.58,0,0,1,128.5,541c29.44,10.44,67,17.44,107.58,6.58-4.71,25.54-1,49.43,31.88,66.92H128c-18.76-20.92-16.71-58.93-1.3-79.64,74,28.54,142.28-6.75,210.33-8h0a21.45,21.45,0,0,1-10.22-25.4l10.16-31.75-2.14,5.93a87.25,87.25,0,0,1-68.26,56.52h0c-13.24-25.51-8.35-53,2.35-66.12H391.8c-34.82,11.73-47.26,39.1-49.05,64.55-103.25,3.64-129.33,37.9-214.33,7.61a62.41,62.41,0,0,0-4.15,14.8"/><path class="cls-3" d="M32.87,259.67a198.54,198.54,0,0,0-2,36.73,10.21,10.21,0,0,1-9.08,10.51l-7.52.82,6.93.66a12.28,12.28,0,0,1,11,10.76c.64,5.17,1.88,10.2,2.53,14.67-.36-2.52.21-5.13-.12-7.81a15.28,15.28,0,0,1,15.83-17.15c9.64.44,20.23,1.21,37.51,1.35h0c-16.14,0-30-2.18-41.13-3A16,16,0,0,1,32,291.45a226.1,226.1,0,0,1,1.87-31.13"/><path class="cls-3" d="M480.27,132.43a198.56,198.56,0,0,0-2,36.72,10.23,10.23,0,0,1-9.09,10.52l-7.52.81,6.94.66a12.31,12.31,0,0,1,11,10.77c.64,5.17,1.87,10.2,2.53,14.66-.36-2.52.2-5.12-.12-7.8a15.28,15.28,0,0,1,15.82-17.16c9.65.45,20.23,1.22,37.52,1.36h0c-16.15,0-30-2.19-41.14-3a16,16,0,0,1-14.82-15.77,226.47,226.47,0,0,1,1.88-31.14"/><path class="cls-3" d="M496.6,199.26a109.6,109.6,0,0,0-1.11,20.21,5.62,5.62,0,0,1-5,5.79l-4.14.45,3.82.36a6.77,6.77,0,0,1,6.06,5.93c.35,2.84,1,5.61,1.4,8.07-.2-1.39.11-2.82-.07-4.29a8.41,8.41,0,0,1,8.71-9.45c5.31.25,11.14.67,20.65.75h0c-8.89,0-16.51-1.2-22.64-1.65a8.79,8.79,0,0,1-8.16-8.68,125.37,125.37,0,0,1,1-17.14"/><line class="cls-2" x1="634.29" y1="66.65" x2="583.21" y2="83.54"/><line class="cls-2" x1="633.32" y1="74.24" x2="582.25" y2="91.13"/><line class="cls-2" x1="632.36" y1="81.83" x2="581.29" y2="98.72"/><line class="cls-2" x1="631.4" y1="89.42" x2="580.33" y2="106.31"/><line class="cls-2" x1="630.44" y1="97.01" x2="579.36" y2="113.9"/><line class="cls-2" x1="629.48" y1="104.6" x2="578.4" y2="121.49"/><line class="cls-2" x1="628.52" y1="112.19" x2="577.44" y2="129.08"/><line class="cls-2" x1="627.56" y1="119.78" x2="576.48" y2="136.67"/><line class="cls-2" x1="626.59" y1="127.37" x2="575.52" y2="144.26"/><line class="cls-2" x1="625.63" y1="134.96" x2="574.56" y2="151.85"/><line class="cls-2" x1="624.67" y1="142.55" x2="573.6" y2="159.45"/><line class="cls-2" x1="649.82" y1="124.13" x2="632.72" y2="129.79"/><line class="cls-2" x1="649.45" y1="127.09" x2="632.34" y2="132.74"/><line class="cls-2" x1="649.08" y1="130.04" x2="631.97" y2="135.7"/><line class="cls-2" x1="648.7" y1="133" x2="631.59" y2="138.66"/><line class="cls-2" x1="648.33" y1="135.96" x2="631.22" y2="141.61"/><line class="cls-2" x1="647.95" y1="138.91" x2="630.84" y2="144.57"/><line class="cls-2" x1="647.58" y1="141.87" x2="630.47" y2="147.53"/><line class="cls-2" x1="647.2" y1="144.82" x2="630.09" y2="150.48"/><line class="cls-2" x1="646.83" y1="147.78" x2="629.72" y2="153.44"/><line class="cls-2" x1="646.45" y1="150.74" x2="629.35" y2="156.39"/><line class="cls-2" x1="646.08" y1="153.69" x2="628.97" y2="159.35"/><line class="cls-2" x1="645.71" y1="156.65" x2="628.6" y2="162.31"/><line class="cls-2" x1="645.33" y1="159.6" x2="628.22" y2="165.26"/><line class="cls-2" x1="644.96" y1="162.56" x2="627.85" y2="168.22"/><line class="cls-2" x1="644.58" y1="165.52" x2="627.47" y2="171.17"/><line class="cls-2" x1="644.21" y1="168.47" x2="627.1" y2="174.13"/><line class="cls-2" x1="643.83" y1="171.43" x2="626.72" y2="177.09"/><line class="cls-2" x1="643.46" y1="174.38" x2="626.35" y2="180.04"/><line class="cls-2" x1="643.08" y1="177.34" x2="625.98" y2="183"/><line class="cls-2" x1="642.71" y1="180.3" x2="625.6" y2="185.95"/><line class="cls-2" x1="642.34" y1="183.25" x2="625.23" y2="188.91"/><line class="cls-2" x1="641.96" y1="186.21" x2="624.85" y2="191.87"/><line class="cls-2" x1="641.59" y1="189.16" x2="624.48" y2="194.82"/><line class="cls-2" x1="641.21" y1="192.12" x2="624.1" y2="197.78"/><line class="cls-2" x1="640.84" y1="195.08" x2="623.73" y2="200.73"/><line class="cls-2" x1="640.46" y1="198.03" x2="623.35" y2="203.69"/><line class="cls-2" x1="640.09" y1="200.99" x2="622.98" y2="206.65"/><line class="cls-2" x1="639.71" y1="203.94" x2="622.61" y2="209.6"/><line class="cls-2" x1="639.34" y1="206.9" x2="622.23" y2="212.56"/><line class="cls-2" x1="638.97" y1="209.86" x2="621.86" y2="215.51"/><line class="cls-2" x1="623.71" y1="150.15" x2="572.63" y2="167.04"/><line class="cls-2" x1="622.75" y1="157.74" x2="571.67" y2="174.63"/><line class="cls-2" x1="621.79" y1="165.33" x2="570.71" y2="182.22"/><line class="cls-2" x1="620.82" y1="172.92" x2="569.75" y2="189.81"/><path class="cls-2" d="M762.29,113.93s3.51-16.18-1.73-38.76a9.09,9.09,0,0,1,5.05-10.37l1.27-.58-2.43-.14A10.81,10.81,0,0,1,755,57a148.46,148.46,0,0,0-16.72-32.47s6.86,9.82,14.15,30.7a8.05,8.05,0,0,1-5.86,10.52C732.1,69,698.31,77.37,635.22,97.25,683.4,83.37,723.73,73.1,746.84,69.51a10.89,10.89,0,0,1,12.3,8.29c2,8.51,4.19,20.43,2.21,32.53"/><path class="cls-2" d="M674.65,147.24a83.25,83.25,0,0,0-4.25-15,4.32,4.32,0,0,1,2.19-5.45l2.89-1.36-2.86.69a5.2,5.2,0,0,1-5.89-2.79c-1-2-2.15-3.81-3-5.51.49,1,.63,2.08,1.13,3.1a6.46,6.46,0,0,1-4,9c-3.91,1.15-8.25,2.3-15.18,4.62h0c6.45-2.24,12.29-3.26,16.85-4.47a6.76,6.76,0,0,1,8.1,4.27,94.11,94.11,0,0,1,4,12.82"/><path class="cls-3" d="M463.47,186.16a109.68,109.68,0,0,0-1.12,20.22,5.63,5.63,0,0,1-5,5.79l-4.14.45L457,213a6.77,6.77,0,0,1,6.07,5.93c.35,2.84,1,5.61,1.39,8.07-.2-1.39.11-2.82-.07-4.3a8.41,8.41,0,0,1,8.71-9.44c5.31.24,11.14.67,20.65.74h0c-8.88,0-16.5-1.2-22.64-1.64a8.8,8.8,0,0,1-8.16-8.68,123.94,123.94,0,0,1,1-17.14"/><path class="cls-2" d="M237.19,333.32c5-51.07-25.48-66.17-72.31-55.49-5.76,1.31-5,6.23-4.67,8.49,2.34,18.62,37.69,9.57,37.69,21.49,0,0-48.09,13.23-55.9,13.23h0c-8.36,0-10.59-2.54-10.12-6.89,2.24-20.36-9.09-39.72-28.47-46.35l-1.79-.62h0a8.83,8.83,0,0,1,8.83-8.83H235.26v45.37"/><path class="cls-2" d="M358.49,400.66c6.18-29.35-29.58-74.86-117-56.43a4.35,4.35,0,0,1-.79-4.5c77.63-15.41,126.74,20.76,129.45,47.61.59,5.88,5-6.24,4.67-8.49-2.34-18.62-37.69-9.58-37.69-21.49,0,0,48.09-13.24,55.9-13.24h0c8.36,0,10.59,2.55,10.11,6.9-2.23,20.35,9.1,39.72,28.48,46.35l1.79.61h0a8.84,8.84,0,0,1-8.83,8.84H299.77v-9.4s41.79,12,69.86-.22"/><path class="cls-2" d="M266.54,324.46h0c-13.24-25.51-8.35-53,2.35-66.11H391.8c-34.82,11.73-47.26,39.1-49.05,64.55-103.25,3.64-129.33,37.89-214.33,7.6,0,0-5.32,11.32-5.3,28.81a6.87,6.87,0,0,1-5.47,6.77l-1,.21,1.76.52a8.16,8.16,0,0,1,5.77,6.79,111.64,111.64,0,0,0,6.79,26.72s-3.39-8.4-5.21-25a6,6,0,0,1,6.06-6.7c11.15.09,37.43-.34,87.26-4.27-37.84,2-69.28,2.75-86.87,1.47a8.17,8.17,0,0,1-7.57-8.15c0-6.59.38-15.75,3.89-24.32,29.44,10.43,67,17.43,107.58,6.57-4.71,25.55-1,49.43,31.88,66.93H128c-18.76-20.93-16.71-58.94-1.3-79.65,74,28.54,142.28-6.75,210.33-8h0l-.09-2.56S297.88,319.44,266.54,324.46Z"/><path class="cls-4" d="M572.28,552.77c39.57-9.16,62.54-3.88,76.19,2.59,17.62,8.35,23.64,20.57,38.73,21.2,17.1.71,31.87-14.06,41.27-25.86"/><path class="cls-4" d="M572.28,561.6c39.57-9.16,62.54-3.88,76.19,2.59,17.62,8.36,23.64,20.58,38.73,21.2,17.1.72,31.87-14,41.27-25.85"/><path class="cls-4" d="M572.28,570.44c39.57-9.17,62.54-3.89,76.19,2.58,17.62,8.36,23.64,20.58,38.73,21.21,17.1.71,31.87-14.06,41.27-25.86"/><path class="cls-4" d="M572.28,579.27c39.57-9.16,62.54-3.89,76.19,2.59,17.62,8.35,23.64,20.57,38.73,21.2,17.1.71,31.87-14.06,41.27-25.86"/><path class="cls-4" d="M572.28,588.1c39.57-9.16,62.54-3.88,76.19,2.59,17.62,8.35,23.64,20.57,38.73,21.2,17.1.71,31.87-14.06,41.27-25.86"/><circle class="cls-5" cx="676.04" cy="511.38" r="2.42"/><circle class="cls-4" cx="663.57" cy="504.21" r="2.42"/><circle class="cls-6" cx="592.55" cy="573.48" r="2.42"/><circle class="cls-4" cx="624.3" cy="583.51" r="2.42"/><circle class="cls-4" cx="626.73" cy="595.95" r="2.42"/><circle class="cls-4" cx="678.29" cy="492.15" r="6.49"/><path class="cls-4" d="M634.66,550.25,609.1,560.41"/><path class="cls-4" d="M674.45,534.42l-8.34,3.32"/><path class="cls-4" d="M644.13,528.27l-11.51-28.93"/><path class="cls-4" d="M665.65,582.39l-9-22.67"/><path class="cls-4" d="M634.66,550.25l3.71-1.48A12.93,12.93,0,0,1,655.16,556l1.72,4.32"/><path class="cls-4" d="M634.66,550.25l3.71-1.48A12.93,12.93,0,0,0,645.6,532l-1.72-4.32"/><path class="cls-4" d="M666.11,537.74l-3.71,1.48A12.92,12.92,0,0,0,655.16,556"/><path class="cls-4" d="M666.11,537.74l-3.71,1.48A12.93,12.93,0,0,1,645.6,532"/><path class="cls-4" d="M580.37,503.24l12.18-5.1"/><path class="cls-4" d="M561.42,511.18l4-1.66"/><path class="cls-4" d="M576,513.87l5.77,13.79"/><path class="cls-4" d="M565.22,488.09l4.53,10.8"/><path class="cls-4" d="M580.37,503.24l-1.76.74a6.2,6.2,0,0,1-8.12-3.32l-.87-2.06"/><path class="cls-4" d="M580.37,503.24l-1.76.74a6.21,6.21,0,0,0-3.33,8.12l.86,2.06"/><path class="cls-4" d="M565.39,509.52l1.77-.74a6.21,6.21,0,0,0,3.33-8.12"/><path class="cls-4" d="M565.39,509.52l1.77-.74a6.2,6.2,0,0,1,8.12,3.32"/><path class="cls-2" d="M683.24,364a34.39,34.39,0,0,0-9.46,3.15"/><line class="cls-2" x1="595.29" y1="329.71" x2="595.29" y2="340.78"/><path class="cls-2" d="M694.82,348.38c-.17-55.47-31.08-72.28-76.66-61.88-5.76,1.31-4.95,6.23-4.67,8.49,2.34,18.62,37.7,9.57,37.7,21.49,0,0-48.1,13.23-55.9,13.23h0c-8.37,0-10.6-2.54-10.12-6.89,2.23-20.36-9.1-39.72-28.47-46.35l-1.8-.62h0a8.84,8.84,0,0,1,8.84-8.83H688.55v45.37"/><path class="cls-2" d="M694.77,352.9C782.2,334.47,818,380,811.77,409.33c20.19-.12,31.34-2.4,50.41-9.62-53.36,25.15-109.13,6.38-109.13,6.38v9.4H877.86a8.83,8.83,0,0,0,8.83-8.84h0L884.9,406c-19.37-6.63-30.71-26-28.47-46.35.47-4.36-1.76-6.9-10.12-6.9h0c-7.81,0-55.9,13.24-55.9,13.24,0,11.91,35.36,2.87,37.69,21.49.29,2.25-4.07,14.37-4.67,8.49-2.7-26.85-51-63.18-128.6-47.77"/><path class="cls-2" d="M717.27,330.72c-13.24-25.52-5.8-50.57,4.91-63.7h122.9c-34.82,11.73-47.26,39.1-49.05,64.55-103.25,3.63-129.32,37.89-214.32,7.6,0,0-5.14,10.92-5.3,27.89A8.13,8.13,0,0,1,569.9,375h0a10.94,10.94,0,0,1,7.75,8.87A68.87,68.87,0,0,0,586.5,409s-5.66-8.37-7.47-24.92a4.61,4.61,0,0,1,5.87-4.92c13.56,3.95,46.42,11.67,80.25,5.74a191.2,191.2,0,0,1-80.78-8.8,10.19,10.19,0,0,1-6.9-9.61c0-6.61.75-15.81,4.32-24.5,29.43,10.43,67,17.43,107.57,6.57-4.71,25.55-1,49.43,31.89,66.93h-140c-18.77-20.93-16.72-58.94-1.31-79.65,74,28.54,136.51-5.55,210.33-8a111.76,111.76,0,0,0-19.5-1c7.66-33.91,21.15-41.61,43.33-57L787,288.17a17.13,17.13,0,0,1-16.8,1.3l-48-22.45,43.4,22.11A17.09,17.09,0,0,1,774.29,309c-1.83,6.56-3.82,13.92-4.72,18C769.57,327,742.29,328.51,717.27,330.72Z"/><path class="cls-2" d="M239.18,125.6c0-50.17-27.47-66.17-74.3-55.49-5.76,1.31-5,6.24-4.67,8.49,2.34,18.62,37.69,9.58,37.69,21.49,0,0-48.09,13.24-55.9,13.24h0c-8.36,0-10.59-2.54-10.12-6.9,2.24-20.35-9.09-39.72-28.47-46.35l-1.79-.61h0a8.83,8.83,0,0,1,8.83-8.84H235.26V96"/><path class="cls-2" d="M358.49,193c6.18-29.35-29.58-74.86-117-56.43a4.36,4.36,0,0,1-.79-4.5c77.63-15.41,126.74,20.75,129.45,47.6.59,5.89,5-6.23,4.67-8.49-2.34-18.62-37.69-9.57-37.69-21.49,0,0,48.09-13.23,55.9-13.23h0c8.36,0,10.59,2.54,10.11,6.89-2.23,20.36,9.1,39.72,28.48,46.35l1.79.62h0a8.84,8.84,0,0,1-8.83,8.83H299.77v-9.4s41.79,12,69.86-.21"/><path class="cls-2" d="M341.26,51.83,320.61,97.36a23.88,23.88,0,0,1-17.12,13.56l-39.43,7.79c-13.25-25.51-5.87-54.95,4.83-68.08H391.8c-34.82,11.73-47.26,39.1-49.05,64.55-103.25,3.64-129.33,37.89-214.33,7.61a85.07,85.07,0,0,0-5.26,29.47,6.36,6.36,0,0,1-6.54,6.31h0a11,11,0,0,1,7.76,9,110.93,110.93,0,0,0,6.56,25s-3.39-8.4-5.21-25a5,5,0,0,1,5.92-5.5c13.06,2.36,45.42,6.84,95,4.81-48.64.62-79-4.27-95.78-7a7.68,7.68,0,0,1-6.43-7.85c.25-6.95.92-17.58,4.53-26.38C158.38,136,195.51,143,236.08,132.18c-4.71,25.54-1,49.42,31.88,66.92H128c-18.76-20.92-16.71-58.94-1.3-79.65,74,28.55,142.28-6.74,210.33-8l-7.44-1.21a9.29,9.29,0,0,1-7.11-12.7Z"/><path class="cls-7" d="M950.15,0c0,27.81-24,27.81-24,55.63s24,27.82,24,55.63-24,27.82-24,55.64,24,27.81,24,55.63-24,27.82-24,55.64,24,27.81,24,55.63-24,27.82-24,55.64,24,27.81,24,55.63-24,27.82-24,55.64,24,27.82,24,55.63-24,27.82-24,55.65,24,27.82,24,55.64h23.57V0Z"/></g></g></svg>