<svg xmlns="http://www.w3.org/2000/svg" viewBox="0 0 687.72 381.61"><defs><style>.cls-1{fill:#fff;}.cls-2,.cls-3,.cls-4,.cls-5{fill:none;stroke:#000;stroke-miterlimit:10;}.cls-2{stroke-width:0.25px;}.cls-3{stroke-width:0.22px;}.cls-4{stroke-width:0.2px;}.cls-5{stroke-width:0.23px;}</style></defs><title>Asset 12letters</title><g id="Layer_2" data-name="Layer 2"><g id="Layer_1-2" data-name="Layer 1"><rect class="cls-1" width="687.72" height="381.61"/><path class="cls-2" d="M409.43,153.84c6-6.89,9.5-14.13,10.17-20.79.6-5.88,5,6.24,4.67,8.49-.95,7.64-7.48,10.62-14.84,12.3-2.7.63-5.52,1.07-8.21,1.51"/><path class="cls-2" d="M386.58,163c.06-5.16,6.84-6.35,14.64-7.61,9.75-10.71,12.86-23.36,8.21-34.83a6.8,6.8,0,0,0-6-4.16,257.58,257.58,0,0,0-54.23,2.79h0a5.58,5.58,0,0,1,5.58-5.58H474a8.83,8.83,0,0,1,8.83,8.84l-1.79.61c-19.37,6.63-30.71,26-28.47,46.35.48,4.36-1.76,6.9-10.12,6.9-3.91,0-17.88-3.31-30.88-6.62l-25-6.33V163"/><path class="cls-2" d="M390.7,164.36h0l-.1.07c-20.39,13.81-54.82,21.18-99.65,11.73l-5.75-1.38"/><path class="cls-3" d="M238.48,226.27c-2.83.46-5.79.93-8.61,1.6-7.19,1.7-13.5,4.71-14.44,12.21-.28,2.25,4.08,14.37,4.67,8.49.66-6.56,4-13.8,9.77-20.7"/><path class="cls-3" d="M243.24,215.92c22-15.17,59.09-24.4,109.82-12.13,32.62,7.1,62.21,8.09,95.85-3.7a6,6,0,0,1,7.11,2.6c10.33,17.75,11.22,45.53-1.77,62.78a6.44,6.44,0,0,1-5.14,2.59H336.92a1.92,1.92,0,0,1-1-3.54c20.94-13.5,25-30.71,22.68-49.19a4.24,4.24,0,0,1,4.9-4.68c31.34,5.27,62.33.51,85-6.2l1.17-2.21s-48.77,16.44-96.73,4.22l-4.19-1c-45.07-9.5-79.65-2-100,11.95"/><path class="cls-3" d="M248.78,217.41l4.35,1.18c0,5.22-6.81,6.42-14.65,7.68-10.22,11.23-13.13,24.6-7.47,36.49a4.25,4.25,0,0,0,3.62,2.41c31.71,1.6,55.85-6.52,55.85-6.52v9.4H165.68a8.84,8.84,0,0,1-8.84-8.84l1.8-.61c19.37-6.63,30.7-26,28.47-46.35-.48-4.35,1.75-6.9,10.12-6.9,3.9,0,17.88,3.31,30.88,6.62,5.5,1.4,10.82,2.8,15.13,3.95l5.54,1.49"/><path class="cls-4" d="M349.22,119.15c-34,10.28-43.44,23.78-34.43,26.17l79.73,20L313.73,147c-12.24-3.39-25.15,18.23-28.54,27.81"/><path class="cls-5" d="M281.31,200.6c.77-34,17.72-72.45,67.91-81.45"/><path class="cls-2" d="M426.88,173.39a150.19,150.19,0,0,0,6.84,31.12"/></g></g></svg>