<?xml version="1.0" encoding="utf-8"?>
<!-- Generator: Adobe Illustrator 23.1.0, SVG Export Plug-In . SVG Version: 6.00 Build 0)  -->
<svg version="1.1" id="Layer_1" xmlns="http://www.w3.org/2000/svg" xmlns:xlink="http://www.w3.org/1999/xlink" x="0px" y="0px"
	 viewBox="0 0 177.1 78.7" style="enable-background:new 0 0 177.1 78.7;" xml:space="preserve">
<g>
	<path d="M12.4,0c8.8,0,13.9,5,13.9,14.3s-5.2,14.7-13.9,14.7H0V0H12.4z M8.5,22.2h2.7c4.3,0,6.5-2.6,6.5-7.9c0-4.9-2.4-7.5-6.5-7.5
		H8.5V22.2z"/>
	<path d="M50,28.9H29.6V0H50v6.8H38.1v4.7h11.2v6.1H38.1v4.7H50V28.9z"/>
	<path d="M54,28.9V0h20.3v6.8H62.5v5.6h10.7v6.4H62.5v10.2H54z"/>
	<path d="M92.9,23.2h-8.8l-1.5,5.8h-8.7L83.4,0H94l9.4,28.9h-9.1L92.9,23.2z M85.6,17.2h5.7L88.6,6.7h-0.2L85.6,17.2z"/>
	<path d="M113.4,17.7c0,3,1.5,4.7,4.3,4.7s4.3-1.7,4.3-4.7V0h8.5v18.6c0,6.6-5.1,10.8-12.8,10.8s-12.8-4.2-12.8-10.8V0h8.5V17.7z"/>
	<path d="M154.3,28.9h-19.8V0h8.5v22.2h11.3V28.9z"/>
	<path d="M161,28.9V6.8h-7.6V0h23.7v6.8h-7.6v22.2H161z"/>
	<path d="M0,78.2V49.3h20.3V56H8.5v5.6h10.7V68H8.5v10.2H0z"/>
	<path d="M51.8,63.8c0,9.2-5.6,15-14.6,15c-9,0-14.6-5.7-14.6-15s5.6-15,14.6-15C46.2,48.8,51.8,54.5,51.8,63.8z M31.3,63.8
		c0,5,2.3,8.2,5.9,8.2c3.6,0,5.9-3.2,5.9-8.2c0-5-2.4-8.2-5.9-8.2C33.7,55.6,31.3,58.7,31.3,63.8z"/>
	<path d="M55.1,78.2V49.3h6.6l11.2,15H73v-15h8v28.9h-6.5L63.3,63h-0.2v15.2H55.1z"/>
	<path d="M91.6,78.2V56H84v-6.8h23.7V56h-7.6v22.2H91.6z"/>
	<path d="M117.6,69.4c0.3,1.7,2.3,2.7,4.8,2.7c2.5,0,4.1-1,4.1-2.5c0-1.4-1.1-1.9-4.4-2.5l-2.9-0.5c-5.8-1-8.9-3.9-8.9-8.4
		c0-5.8,5-9.5,11.9-9.5c7.7,0,12.1,3.6,12.1,9.3h-7.8c-0.1-1.8-1.9-2.8-4.2-2.8c-2.4,0-3.6,1-3.6,2.3c0,1.3,1.2,1.9,4.1,2.4l2.9,0.5
		c6.2,1.1,9.1,3.7,9.1,8.4c0,6-4.7,9.7-12.6,9.7c-7.5,0-12.5-3.3-12.5-9.3H117.6z"/>
</g>
</svg>
