<svg width="1440" height="1000" viewBox="0 0 1440 1000" fill="none" xmlns="http://www.w3.org/2000/svg">
<path d="M1440 0H0V997H1440V0Z" fill="#FF5581"/>
<path d="M1439 1H1097V511H1439V1Z" stroke="white" stroke-width="3" stroke-miterlimit="10"/>
<path d="M1338.78 699.294H1035.25C1026.25 699.294 1019.05 692.095 1019.05 683.096V595.115C1019.05 586.221 1026.25 578.916 1035.25 578.916H1226.98C1243.82 578.916 1259.91 585.586 1271.87 597.444L1348.95 674.52C1358.05 683.731 1351.6 699.294 1338.78 699.294Z" stroke="#1A243F" stroke-width="3.2849" stroke-miterlimit="10"/>
<path d="M1381.98 669.332C1374.68 676.637 1362.61 676.637 1355.3 669.332L1274.63 588.762C1267.32 581.457 1267.32 569.388 1274.63 562.082C1281.93 554.777 1294 554.777 1301.31 562.082L1381.98 642.652C1389.29 649.957 1389.29 661.921 1381.98 669.332Z" fill="#1A243F"/>
<path d="M1075.05 632.276L1149.16 669.12" stroke="#1A243F" stroke-width="5.1566" stroke-miterlimit="10" stroke-linecap="round"/>
<path d="M1065.31 613.854L1102.26 632.171" stroke="#1A243F" stroke-width="5.1566" stroke-miterlimit="10" stroke-linecap="round"/>
<path d="M1065.31 599.032L1124.18 628.253" stroke="#1A243F" stroke-width="5.1566" stroke-miterlimit="10" stroke-linecap="round"/>
<path d="M1208.88 638.417L1267.74 667.744" stroke="#1A243F" stroke-width="5.1566" stroke-miterlimit="10" stroke-linecap="round"/>
<path d="M1182.2 613.643L1241.17 642.864" stroke="#1A243F" stroke-width="5.1566" stroke-miterlimit="10" stroke-linecap="round"/>
<path d="M390.7 696.413L180.635 691.999C180.635 691.999 102.568 687.172 99.3956 703.033C91.2578 744.55 323.529 699.171 326.288 743.309C329.046 787.446 100.085 728.964 91.3957 770.618C87.12 791.446 118.154 792.825 152.498 792.825H390.562" stroke="#1A243F" stroke-width="17.9128" stroke-miterlimit="10" stroke-linecap="round"/>
<path d="M200.084 813.376L379.115 821.514" stroke="#1A243F" stroke-width="6.1273" stroke-miterlimit="10" stroke-linecap="round" stroke-linejoin="round"/>
<path d="M242.012 832.272L325.734 836.134" stroke="#1A243F" stroke-width="6.1273" stroke-miterlimit="10" stroke-linecap="round" stroke-linejoin="round"/>
<path d="M319.944 663.31L140.775 670.482" stroke="#1A243F" stroke-width="6.1273" stroke-miterlimit="10" stroke-linecap="round" stroke-linejoin="round"/>
<path d="M276.496 648L192.773 651.31" stroke="#1A243F" stroke-width="6.1273" stroke-miterlimit="10" stroke-linecap="round" stroke-linejoin="round"/>
<path d="M730.437 36.8439H676.971V293.693H729.907L811.748 163.363L730.437 36.8439Z" fill="#1A243F" stroke="white" stroke-width="3" stroke-miterlimit="10"/>
<path d="M1281.72 293.693H1400.09V36.8439H1282.25L1363.24 163.363L1281.72 293.693Z" fill="#1A243F" stroke="white" stroke-width="3" stroke-miterlimit="10"/>
<path d="M868.387 36.8439H730.434L811.639 163.363L729.799 293.693H867.752L949.592 163.363L868.387 36.8439Z" fill="#1A243F" stroke="white" stroke-width="3" stroke-miterlimit="10"/>
<path d="M1143.76 293.693H1281.72L1363.24 163.363L1282.25 36.8439H1144.29L1225.29 163.363L1143.76 293.693Z" fill="#1A243F" stroke="white" stroke-width="3" stroke-miterlimit="10"/>
<path d="M949.699 163.363L867.859 293.693H1005.81L1087.65 163.363L1006.34 36.8439H868.389L949.699 163.363Z" fill="#1A243F" stroke="white" stroke-width="3" stroke-miterlimit="10"/>
<path d="M1005.81 293.693H1143.77L1225.29 163.363L1144.29 36.8439H1006.34L1087.55 163.363L1005.81 293.693Z" fill="#1A243F" stroke="white" stroke-width="3" stroke-miterlimit="10"/>
<path d="M666.91 214.711C694.014 214.711 715.929 192.584 715.929 165.269C715.929 137.953 694.014 115.826 666.91 115.826C639.806 115.826 617.891 137.953 617.891 165.269C617.891 192.584 639.912 214.711 666.91 214.711Z" fill="#1A243F" stroke="white" stroke-width="3" stroke-miterlimit="10"/>
<path d="M1312 247.638H926.619C878.659 247.638 841.497 221.593 810.264 180.197L757.328 109.473C752.352 103.015 753.199 94.8626 758.81 94.8626C798.301 94.8626 1164.52 94.8626 1194.59 94.8626C1198.71 94.8626 1203.37 97.8271 1206.87 102.486C1253.03 162.622 1288.39 197.983 1313.59 219.052C1331.9 234.51 1323.43 247.638 1312 247.638Z" fill="#436CFF"/>
<path d="M607.305 714.54C621.915 714.54 633.667 688.919 633.667 657.263C633.667 625.606 621.809 599.985 607.305 599.985C592.694 599.985 580.942 625.606 580.942 657.263C580.836 688.919 592.694 714.54 607.305 714.54Z" fill="#1A243F"/>
<path d="M827.628 714.54C842.239 714.54 853.991 688.919 853.991 657.263C853.991 625.606 842.133 599.985 827.628 599.985C813.123 599.985 801.266 625.606 801.266 657.263C801.266 688.919 813.123 714.54 827.628 714.54Z" fill="#1A243F"/>
<path d="M768.022 673.885H666.807C657.702 673.885 650.396 666.579 650.396 657.474C650.396 648.369 657.702 641.064 666.807 641.064H768.022C777.127 641.064 784.432 648.369 784.432 657.474C784.644 666.368 777.127 673.885 768.022 673.885Z" fill="#1A243F"/>
<path d="M843.085 654.51C843.509 666.579 841.921 682.249 831.016 699.294" stroke="white" stroke-width="2.2293" stroke-miterlimit="10" stroke-linecap="round"/>
<path d="M623.398 654.51C623.821 666.579 622.233 682.249 611.328 699.294" stroke="white" stroke-width="2.2293" stroke-miterlimit="10" stroke-linecap="round"/>
<path d="M607.305 888.384C621.915 888.384 633.667 862.763 633.667 831.107C633.667 799.451 621.809 773.829 607.305 773.829C592.694 773.829 580.942 799.451 580.942 831.107C580.836 862.763 592.694 888.384 607.305 888.384Z" fill="#1A243F"/>
<path d="M827.628 888.384C842.239 888.384 853.991 862.763 853.991 831.107C853.991 799.451 842.133 773.829 827.628 773.829C813.123 773.829 801.266 799.451 801.266 831.107C801.266 862.763 813.123 888.384 827.628 888.384Z" fill="#1A243F"/>
<path d="M768.022 847.729H666.807C657.702 847.729 650.396 840.424 650.396 831.319C650.396 822.213 657.702 814.908 666.807 814.908H768.022C777.127 814.908 784.432 822.213 784.432 831.319C784.644 840.212 777.127 847.729 768.022 847.729Z" fill="#1A243F"/>
<path d="M843.085 828.354C843.509 840.424 841.921 856.093 831.016 873.139" stroke="white" stroke-width="2.2293" stroke-miterlimit="10" stroke-linecap="round"/>
<path d="M623.398 828.354C623.821 840.424 622.233 856.093 611.328 873.139" stroke="white" stroke-width="2.2293" stroke-miterlimit="10" stroke-linecap="round"/>
<path d="M936 538H498V945H936V538Z" stroke="white" stroke-width="3" stroke-miterlimit="10"/>
<path d="M936 538H1439V728H936V538Z" stroke="white" stroke-width="3" stroke-miterlimit="10"/>
<path d="M39.293 945.45V538.155H498.148L497.195 539.108C380.311 649.534 380.841 835.659 498.148 945.45H39.293Z" stroke="white" stroke-width="3" stroke-miterlimit="10"/>
<path d="M1438.79 945.45H936V814.79C936 766.902 977.732 728 1029.18 728H1439L1438.79 945.45Z" fill="#1A243F" stroke="white" stroke-width="3" stroke-miterlimit="10"/>
<path d="M1401.18 896.505H1116.35C1091.94 896.505 1064.68 878.534 1045.45 849.886L1012.81 801.259C1009.74 796.819 1010.8 791.216 1014.6 791.216C1026.23 791.216 1112.86 791.216 1165.79 791.216C1170.65 803.267 1183.22 812.358 1195.69 812.358C1208.05 812.358 1215.76 803.161 1214.39 791.216C1268.59 791.216 1317.5 791.216 1326.48 791.216C1329.12 791.216 1332.4 793.224 1334.51 796.396C1362.83 837.835 1385.44 862.36 1401.39 876.737C1409.31 883.82 1408.89 896.505 1401.18 896.505Z" stroke="#17FFF1" stroke-width="1.8601" stroke-miterlimit="10"/>
<path d="M1061.09 850.203C1061.94 851.155 1062.78 852.212 1063.63 853.163C1066.48 856.018 1069.33 858.872 1072.61 861.409C1078.94 866.694 1086.13 870.606 1093.52 873.883C1100.92 876.949 1108.84 878.957 1116.77 879.803C1120.78 880.12 1124.48 880.331 1128.81 880.331L1141.17 880.543C1143.71 880.543 1145.72 882.657 1145.72 885.194C1145.72 887.731 1143.6 889.74 1141.07 889.74L1128.71 888.26C1128.07 888.154 1127.44 888.048 1126.8 888.048C1123.32 887.626 1119.62 887.097 1116.03 886.357C1107.68 884.56 1099.65 881.494 1092.15 877.583C1084.65 873.46 1077.89 868.703 1071.87 862.783C1068.91 859.929 1066.16 856.758 1063.73 853.586C1062.46 852.423 1061.72 851.261 1061.09 850.203Z" stroke="#17FFF1" stroke-width="0.9752"/>
<path d="M1388.29 888.788C1386.91 888.894 1385.54 888.894 1384.17 889C1381.42 889.211 1378.57 889.317 1375.72 889.317C1371.38 889.317 1367.16 889.105 1362.93 888.471C1354.37 887.414 1346.13 884.877 1338.53 881.494C1330.81 878.111 1323.52 873.46 1317.29 868.069C1314.76 865.954 1312.43 863.523 1310.11 861.197C1309.58 860.563 1308.94 860.035 1308.42 859.506L1306.09 857.075L1308.63 859.189C1311.9 861.832 1314.97 864.369 1318.35 866.8C1325.21 871.452 1332.61 875.151 1340.22 877.583C1347.93 880.12 1355.96 881.6 1363.88 881.706C1367.9 881.917 1371.81 881.706 1375.82 881.389C1376.77 881.283 1377.72 881.177 1378.67 880.966C1381.63 880.543 1384.91 880.12 1387.86 879.591C1390.29 879.274 1392.72 880.86 1393.04 883.503C1393.36 885.934 1391.77 888.365 1389.24 888.683H1389.13H1389.03C1388.92 888.788 1388.82 888.788 1388.71 888.788C1388.39 888.788 1388.39 888.788 1388.29 888.788Z" stroke="#17FFF1" stroke-width="0.9752"/>
<path d="M240.347 510.522H39.293V538.261H240.347V510.522Z" stroke="white" stroke-width="3" stroke-miterlimit="10"/>
<path d="M1 998H39L39 0.999939H1L1 998Z" stroke="white" stroke-width="3" stroke-miterlimit="10"/>
<path d="M240 538L1400 538V511L240 511V538Z" stroke="white" stroke-width="3" stroke-miterlimit="10"/>
<path d="M1097 511L981.264 510.788L981.158 322.185L1 322V294H1097V511Z" fill="#436CFF" stroke="white" stroke-width="3" stroke-miterlimit="10"/>
<path d="M1210.86 321.894V356.98C1210.86 368.005 1189.37 368.323 1189.37 368.323C1189.37 368.323 1189.79 432.983 1096.83 432.983C1003.87 432.983 1002.6 369.595 1002.6 369.595C1002.6 369.595 980.732 370.415 980.732 358.967V321.894L39 322L38.8633 510.788L980.679 510.682V474.324C980.679 462.876 993.596 456.409 1002.81 463.194C1025.25 479.518 1059.14 489.906 1097.04 489.906C1133.99 489.906 1167.14 480.048 1189.58 464.466C1198.69 458.211 1210.86 464.764 1210.86 475.894L1211 493.5V511L1399.86 510.894V321.894H1210.86ZM1159.41 450.473C1149.98 454.395 1140.14 457.575 1130.08 460.013C1120.02 462.346 1109.75 463.83 1099.37 464.254C1089 464.572 1078.72 463.936 1068.45 462.24C1058.29 460.332 1048.23 457.575 1038.81 453.653C1019.64 445.597 1002.38 434.043 987.879 419.945C1004.4 431.711 1022.08 441.781 1040.71 448.353C1050.14 451.639 1059.67 454.183 1069.51 455.561C1079.25 457.151 1089.31 457.575 1099.16 457.151C1109.01 456.833 1118.85 455.561 1128.6 453.547C1138.34 451.639 1147.87 448.671 1157.29 445.385C1176.14 438.601 1194.24 429.697 1212.03 419.945C1195.94 432.135 1178.25 442.629 1159.41 450.473Z" fill="#436CFF" stroke="white" stroke-width="3" stroke-miterlimit="10"/>
<path d="M1212.44 419.858C1196.23 432.024 1178.55 442.603 1159.7 450.432C1150.28 454.346 1140.43 457.52 1130.37 459.953C1120.31 462.281 1110.03 463.762 1099.66 464.185C1089.28 464.502 1079.01 463.868 1068.74 462.175C1058.57 460.271 1048.51 457.52 1039.08 453.606C1019.92 445.565 1002.66 434.034 988.148 419.964C1004.67 431.707 1022.35 441.757 1040.99 448.316C1050.42 451.596 1059.95 454.135 1069.79 455.51C1079.54 457.097 1089.6 457.52 1099.45 457.097C1109.29 456.779 1119.14 455.51 1128.88 453.5C1138.63 451.596 1148.16 448.633 1157.58 445.354C1176.54 438.477 1194.65 429.591 1212.44 419.858Z" fill="#436CFF" stroke="white" stroke-width="3" stroke-miterlimit="10"/>
<path d="M1212.44 419.858C1196.23 432.024 1178.55 442.603 1159.7 450.432C1150.28 454.346 1140.43 457.52 1130.37 459.953C1120.31 462.281 1110.03 463.762 1099.66 464.185C1089.28 464.502 1079.01 463.868 1068.74 462.175C1058.57 460.271 1048.51 457.52 1039.08 453.606C1019.92 445.565 1002.66 434.034 988.148 419.964C1004.67 431.707 1022.35 441.757 1040.99 448.316C1050.42 451.596 1059.95 454.135 1069.79 455.51C1079.54 457.097 1089.6 457.52 1099.45 457.097C1109.29 456.779 1119.14 455.51 1128.88 453.5C1138.63 451.596 1148.16 448.633 1157.58 445.354C1176.54 438.477 1194.65 429.591 1212.44 419.858Z" fill="#436CFF" stroke="white" stroke-width="3" stroke-miterlimit="10"/>
<path d="M320.81 359.017C254.533 359.017 196.515 370.451 165.494 387.603C161.47 366.852 153.636 352.559 146.648 352.559C136.696 352.559 125.262 380.933 125.262 416.189C125.262 451.233 136.908 479.819 146.648 479.819C153.53 479.819 161.365 465.526 165.282 444.774C196.303 461.926 254.321 473.36 320.598 473.36C419.696 473.36 499.948 447.845 499.948 416.189C499.948 384.744 419.696 359.017 320.81 359.017ZM461.198 432.599H188.892V399.99H461.198V432.599Z" fill="#1A243F"/>
<path d="M593.921 164.947C593.921 197.689 615.317 225.753 645.928 238.084C647.729 238.828 648.894 240.104 648.894 241.698V294H39V36H649V88.3016C649 89.8962 647.941 91.1718 646.034 91.916C615.529 104.035 593.921 132.205 593.921 164.947Z" stroke="white" stroke-width="3.0836" stroke-miterlimit="10"/>
<path d="M472.847 233.875H397.147V217.57C397.147 216.405 396.724 215.453 396.089 214.5C395.453 213.653 394.606 213.017 393.548 212.7C392.489 212.276 391.43 212.488 390.371 212.806C389.313 213.229 388.466 213.864 387.83 214.711C379.361 227.099 368.138 237.262 354.904 244.038C341.67 250.814 326.953 254.52 311.919 254.202C297.097 253.99 282.275 250.073 269.358 242.662C256.336 235.251 245.325 224.875 237.49 212.17C236.855 211.323 236.114 210.582 235.055 210.159C233.996 209.735 232.938 209.629 231.879 210.053C230.82 210.265 229.867 210.9 229.232 211.853C228.597 212.7 228.173 213.759 228.173 214.923V233.769H152.156C150.039 233.769 148.027 233.133 146.227 232.181C144.428 231.016 142.945 229.534 142.098 227.628C141.04 225.722 140.722 223.605 140.828 221.593C140.934 219.476 141.675 217.464 142.945 215.77C153.427 200.736 158.826 183.055 158.826 164.739C158.826 146.635 153.427 128.742 142.945 113.708C141.675 111.908 141.04 109.897 140.828 107.885C140.722 105.768 141.04 103.756 142.098 101.85C143.157 99.9446 144.533 98.4623 146.227 97.2977C148.027 96.1331 150.145 95.7096 152.156 95.7096H228.173V114.555C228.173 115.72 228.597 116.673 229.232 117.625C229.867 118.472 230.82 119.108 231.879 119.425C232.938 119.637 233.996 119.637 235.055 119.319C236.114 118.896 236.961 118.155 237.49 117.308C245.431 104.603 256.442 94.1215 269.358 86.8163C282.381 79.511 296.991 75.4878 311.919 75.2761C326.742 75.0643 341.67 78.5581 354.904 85.4399C368.138 92.3217 379.466 102.486 387.83 114.767C388.466 115.614 389.313 116.249 390.371 116.673C391.43 117.096 392.489 117.096 393.548 116.778C394.606 116.355 395.453 115.72 396.089 114.979C396.724 114.132 397.147 113.073 397.147 111.908V95.4979H472.741C474.858 95.4979 476.87 96.1331 478.67 97.086C480.47 98.2506 481.952 99.7328 482.799 101.639C483.858 103.544 484.175 105.662 484.069 107.673C483.964 109.791 483.222 111.802 481.952 113.496C471.576 128.53 466.071 146.211 466.071 164.527C466.071 182.632 471.576 200.524 481.952 215.558C483.222 217.358 483.858 219.37 484.069 221.381C484.175 223.499 483.858 225.511 482.799 227.416C481.74 229.322 480.364 230.804 478.67 231.969C477.082 233.345 474.964 233.875 472.847 233.875Z" fill="white"/>
<path d="M1400.09 214.711V291.575L729.907 293.693L815.559 157.222H676.971V36.8439H1122.27C1122.27 36.8439 1138.39 113.058 1122.27 157.222C1113.29 181.843 1087.65 214.711 1087.65 214.711H1400.09Z" stroke="white" stroke-width="3" stroke-miterlimit="10" stroke-linejoin="round"/>
<path d="M500 294C425.216 376.996 213.928 294 213.928 294V190.098H39L213.822 36H499.788C499.788 36 567.445 219.148 500 294Z" stroke="white" stroke-width="3" stroke-miterlimit="10" stroke-linejoin="round"/>
<path d="M1400 322V511H1210.97V449L743 448.742V322H931.304V402.394H1212V322H1400Z" stroke="white" stroke-width="3" stroke-miterlimit="10" stroke-linejoin="round"/>
<path d="M742.93 384.1V448.422C742.93 448.422 653.218 448.21 604.284 448.21C392.343 448.21 220.545 433.822 220.545 416.155C220.545 398.488 392.343 384.1 604.284 384.1C653.218 384.1 742.93 384.1 742.93 384.1Z" stroke="white" stroke-width="3" stroke-miterlimit="10" stroke-linejoin="round"/>
<path d="M742.928 322H39V384.1H742.928V322Z" stroke="white" stroke-width="3" stroke-miterlimit="10" stroke-linejoin="round"/>
<path d="M742.928 448.422H39V510.522H742.928V448.422Z" stroke="white" stroke-width="3" stroke-miterlimit="10" stroke-linejoin="round"/>
<path d="M498 538V621.872H122.878V687H39V538H498Z" stroke="white" stroke-width="3" stroke-miterlimit="10" stroke-linejoin="round"/>
<path d="M498.148 945.45H39.293V873.139H428.484C408.368 812.685 354.372 746.514 213.137 750.749H39.293V687.013H212.819C418.214 684.366 498.148 789.287 498.148 945.45Z" stroke="white" stroke-width="3" stroke-miterlimit="10" stroke-linejoin="round"/>
<path d="M1439 728H936V837H1439V728Z" stroke="white" stroke-width="3" stroke-miterlimit="10" stroke-linejoin="round"/>
<path d="M1439 837H936V946H1439V837Z" stroke="white" stroke-width="3" stroke-miterlimit="10" stroke-linejoin="round"/>
<path d="M498 945H936V538L498 622V945Z" stroke="white" stroke-width="3" stroke-miterlimit="10" stroke-linejoin="round"/>
<path d="M498 622H936V538L498 622Z" stroke="white" stroke-width="3" stroke-miterlimit="10" stroke-linejoin="round"/>
</svg>
