<?xml version="1.0" encoding="utf-8"?>
<!-- Generator: Adobe Illustrator 22.0.1, SVG Export Plug-In . SVG Version: 6.00 Build 0)  -->
<svg version="1.1" id="Layer_1" xmlns="http://www.w3.org/2000/svg" xmlns:xlink="http://www.w3.org/1999/xlink" x="0px" y="0px"
	 viewBox="0 0 335.5 220.1" style="enable-background:new 0 0 335.5 220.1;" xml:space="preserve">
<path d="M46.6,88.9c0,0-27.3-29.4,0-57.8c17.8-18.6,0-30.6,0-30.6"/>
<path d="M12.7,88.8c0,0-27.3-29.4,0-57.8c17.8-18.6,0-30.6,0-30.6"/>
<path d="M80.5,88.9c0,0-27.3-29.4,0-57.8c17.8-18.6,0-30.6,0-30.6"/>
<path d="M12.7,88.8c0,0,34.4-32,67.8,0c21.8,20.8,35.9,0,35.9,0"/>
<path d="M95.2,56.1h9.3l1.8-8.5h-1.1l-1.6,7.5h-3l1.6-7.5h-1.1l-1.6,7.5h-3l1.6-7.5H97L95.2,56.1z"/>
<path d="M186.6,47.6l-1.8,8.5h1.1l0.6-3h2c1.9,0,3.4-1.2,3.4-3.2c0-1.4-1.1-2.3-2.4-2.3H186.6z M187.5,48.6h1.7c1,0,1.7,0.5,1.7,1.4
	c0,1.4-0.9,2.1-2.4,2.1h-1.8L187.5,48.6z"/>
<path d="M313.1,21.4h1.1l1.8-8.5h-1.1l-5.9,6.7h-0.1l1.4-6.7h-1.1l-1.8,8.5h1.1l5.9-6.6h0.1L313.1,21.4z"/>
<path d="M18.6,137.3l0.2-0.9c2.6-0.1,4.5-1.8,4.5-4.1c0-1.7-1.2-2.8-3.1-2.9l0.2-0.8h-1l-0.2,0.8c-2.6,0.1-4.5,1.8-4.5,4.1
	c0,1.7,1.2,2.8,3.1,2.9l-0.2,0.9H18.6z M15.7,133.5c0-1.7,1.4-3.1,3.3-3.1l-1.1,5.1C16.5,135.4,15.7,134.7,15.7,133.5z M22.2,132.3
	c0,1.7-1.4,3.1-3.3,3.1l1.1-5.1C21.4,130.4,22.2,131.2,22.2,132.3z"/>
<path d="M190.4,145.8l1.6-7.5h2.7l0.2-0.9h-6.5l-0.2,0.9h2.7l-1.6,7.5H190.4z"/>
<path d="M318.2,131.3c1.1,0,1.8,0.5,1.8,1.5c0,1.1-1,1.9-2.2,1.9h-2l0.7-3.4H318.2z M314.6,135.7h3.3c1.8,0,3.2-1.2,3.2-2.9
	c0-1.5-1.1-2.4-2.7-2.4h-1.6l0.7-3.1h-1.1L314.6,135.7z M322.7,135.7l1.8-8.5h-1.1l-1.8,8.5H322.7z"/>
<path d="M312.7,90.6h-36c-19.3,0-37.1-14.3-46.3-37.2l-15.6-38.9c-1.4-3.6,0.5-8,3.6-8c21.5,0,41.2,0,57.5,0c2.2,0,4.2,1.6,5.3,4.2
	c13.7,33.1,26.4,52.7,36,64.1C321.8,80.4,318.9,90.6,312.7,90.6z"/>
<path d="M188.4,27.8c5.9,0,10.7-4.8,10.7-10.7s-4.8-10.7-10.7-10.7s-10.7,4.8-10.7,10.7C177.7,23.1,182.5,27.8,188.4,27.8z"/>
<path d="M153.4,97c-0.8,0-1.7-0.2-2.4-0.5c-0.8-0.3-1.5-0.8-2.1-1.4l-4.5-4.5c-2.9-2.9-4.7-6.7-5.2-10.7c-0.5-4.1,0.4-8.2,2.5-11.7
	c16.3-27.3,10.5-54.5,9.3-59c-0.1-0.2-0.1-0.4-0.2-0.6c-1.4-4.7,2-7.1,2.7-7.6c1.2-0.8,2.7-1.1,4.1-0.9c1.4,0.2,2.8,0.8,3.8,1.8
	c0.7,0.7,1.3,1.3,2,4c0.1,0.2,0.1,0.5,0.2,0.7c0.3,1.1,0.6,2.6,0.9,4.4c0.9,5.2,1.3,10.5,1.3,15.8c0,11.9-2.3,29.9-13.1,47.9
	c-0.6,1.1-0.9,2.3-0.8,3.6c0.2,1.2,0.7,2.4,1.6,3.3l4.4,4.5c0.9,0.9,1.5,2,1.7,3.3s0.1,2.5-0.4,3.7s-1.3,2.2-2.3,2.9
	C155.9,96.6,154.6,97,153.4,97L153.4,97z"/>
<path d="M46.7,88.6c0,0-27.3-29.4,0-57.8c17.8-18.6,0-30.6,0-30.6"/>
<path d="M12.8,88.6c0,0-27.3-29.4,0-57.8c17.8-18.6,0-30.6,0-30.6"/>
<path d="M80.6,88.6c0,0-27.3-29.4,0-57.8c17.8-18.6,0-30.6,0-30.6"/>
<path d="M12.8,88.6c0,0,34.4-32,67.8,0c21.8,20.8,35.9,0,35.9,0"/>
<path d="M312.7,90.6h-36c-19.3,0-37.1-14.3-46.3-37.2l-15.6-38.9c-1.4-3.6,0.5-8,3.6-8c21.5,0,41.2,0,57.5,0c2.2,0,4.2,1.6,5.3,4.2
	c13.7,33.1,26.4,52.7,36,64.1C321.8,80.4,318.9,90.6,312.7,90.6z"/>
<path d="M188.4,27.8c5.9,0,10.7-4.8,10.7-10.7s-4.8-10.7-10.7-10.7s-10.7,4.8-10.7,10.7C177.7,23.1,182.5,27.8,188.4,27.8z"/>
<path d="M153.4,97c-0.8,0-1.7-0.2-2.4-0.5c-0.8-0.3-1.5-0.8-2.1-1.4l-4.5-4.5c-2.9-2.9-4.7-6.7-5.2-10.7c-0.5-4.1,0.4-8.2,2.5-11.7
	c16.3-27.3,10.5-54.5,9.3-59c-0.1-0.2-0.1-0.4-0.2-0.6c-1.4-4.7,2-7.1,2.7-7.6c1.2-0.8,2.7-1.1,4.1-0.9c1.4,0.2,2.8,0.8,3.8,1.8
	c0.7,0.7,1.3,1.3,2,4c0.1,0.2,0.1,0.5,0.2,0.7c0.3,1.1,0.6,2.6,0.9,4.4c0.9,5.2,1.3,10.5,1.3,15.8c0,11.9-2.3,29.9-13.1,47.9
	c-0.6,1.1-0.9,2.3-0.8,3.6c0.2,1.2,0.7,2.4,1.6,3.3l4.4,4.5c0.9,0.9,1.5,2,1.7,3.3s0.1,2.5-0.4,3.7s-1.3,2.2-2.3,2.9
	C155.9,96.6,154.6,97,153.4,97L153.4,97z"/>
<path d="M46.7,88.6c0,0-27.3-29.4,0-57.8c17.8-18.6,0-30.6,0-30.6"/>
<path d="M12.8,88.6c0,0-27.3-29.4,0-57.8c17.8-18.6,0-30.6,0-30.6"/>
<path d="M80.6,88.6c0,0-27.3-29.4,0-57.8c17.8-18.6,0-30.6,0-30.6"/>
<path d="M12.8,88.6c0,0,34.4-32,67.8,0c21.8,20.8,35.9,0,35.9,0"/>
<path d="M4.6,140.7h30.2v6.4c0,0.4,0.1,0.8,0.4,1.2c0.3,0.3,0.6,0.6,1,0.7c0.4,0.1,0.9,0.1,1.3,0c0.4-0.1,0.8-0.4,1-0.8
	c3.3-4.9,7.8-8.9,13.1-11.6c5.3-2.7,11.2-4.1,17.1-4c6,0.1,11.8,1.7,17,4.6c5.2,2.9,9.6,7,12.7,12c0.2,0.4,0.6,0.7,1,0.8
	c0.4,0.2,0.9,0.2,1.3,0.1c0.4-0.1,0.8-0.4,1.1-0.7c0.3-0.3,0.4-0.8,0.4-1.2v-7.5h30.2c0.8,0,1.7,0.2,2.4,0.7
	c0.7,0.4,1.3,1.1,1.7,1.8s0.6,1.6,0.5,2.4c-0.1,0.8-0.4,1.6-0.8,2.3c-4.1,5.9-6.3,13-6.3,20.2s2.2,14.2,6.3,20.2
	c0.5,0.7,0.8,1.5,0.8,2.3c0.1,0.8-0.1,1.7-0.5,2.4s-1,1.4-1.7,1.8c-0.7,0.4-1.6,0.7-2.4,0.7h-30.2V188c0-0.4-0.1-0.9-0.4-1.2
	s-0.6-0.6-1.1-0.7c-0.4-0.1-0.9-0.1-1.3,0.1c-0.4,0.2-0.8,0.4-1,0.8c-3.2,5-7.5,9.1-12.7,12s-11,4.5-17,4.6s-11.8-1.3-17.1-4
	s-9.8-6.7-13.1-11.6c-0.2-0.4-0.6-0.6-1-0.8c-0.4-0.1-0.9-0.2-1.3,0c-0.4,0.1-0.8,0.4-1,0.7c-0.3,0.3-0.4,0.8-0.4,1.2v6.4H4.6
	c-0.8,0-1.7-0.2-2.4-0.7c-0.7-0.4-1.3-1.1-1.7-1.8s-0.6-1.6-0.5-2.4c0.1-0.8,0.4-1.6,0.8-2.3c4.1-5.9,6.3-13,6.3-20.2
	s-2.2-14.2-6.3-20.2c-0.5-0.7-0.8-1.5-0.8-2.3c-0.1-0.8,0.1-1.7,0.5-2.4s1-1.4,1.7-1.8C2.9,141,3.8,140.7,4.6,140.7z"/>
<path d="M307.3,205.2h-49c-3.5,0-6.8-1.4-9.3-3.8c-2.5-2.4-3.9-5.7-3.9-9.2v-48.1c0-11.5,14.2-17.3,22.5-9.2l49,48.1
	C324.9,191.3,319,205.2,307.3,205.2z"/>
<path d="M289.3,122.4c-3.5-3.4-9.2-3.4-12.7,0s-3.5,9,0,12.5l43.6,42.8c3.5,3.4,9.2,3.4,12.7,0s3.5-9,0-12.5L289.3,122.4z"/>
<path d="M171.7,198.2c6.2,0,11.1-14.2,11.1-31.7s-5-31.7-11.1-31.7c-6.2,0-11.1,14.2-11.1,31.7S165.5,198.2,171.7,198.2z"/>
<path d="M208.9,198.2c6.2,0,11.1-14.2,11.1-31.7s-5-31.7-11.1-31.7c-6.2,0-11.1,14.2-11.1,31.7S202.7,198.2,208.9,198.2z"/>
<path d="M190.5,130.2c18.7,0,33.8-5,33.8-11.1S209.2,108,190.5,108s-33.8,5-33.8,11.1S171.9,130.2,190.5,130.2z"/>
<path d="M190.5,220.1c9.4,0,17-4.6,17-10.3s-7.6-10.3-17-10.3s-17,4.6-17,10.3C173.5,215.5,181.1,220.1,190.5,220.1z"/>
<path d="M4.6,140.8h30.2v6.4c0,0.4,0.1,0.8,0.4,1.2c0.3,0.3,0.6,0.6,1,0.7c0.4,0.1,0.9,0.1,1.3,0c0.4-0.1,0.8-0.4,1-0.8
	c3.3-4.9,7.8-8.9,13.1-11.6c5.3-2.7,11.2-4.1,17.1-4c6,0.1,11.8,1.7,17,4.6c5.2,2.9,9.6,7,12.7,12c0.2,0.4,0.6,0.7,1,0.8
	c0.4,0.2,0.9,0.2,1.3,0.1c0.4-0.1,0.8-0.4,1.1-0.7c0.3-0.3,0.4-0.8,0.4-1.2v-7.5h30.2c0.8,0,1.7,0.2,2.4,0.7
	c0.7,0.4,1.3,1.1,1.7,1.8s0.6,1.6,0.5,2.4c-0.1,0.8-0.4,1.6-0.8,2.3c-4.1,5.9-6.3,13-6.3,20.2s2.2,14.2,6.3,20.2
	c0.5,0.7,0.8,1.5,0.8,2.3c0.1,0.8-0.1,1.7-0.5,2.4s-1,1.4-1.7,1.8c-0.7,0.4-1.6,0.7-2.4,0.7h-30.2v-7.5c0-0.4-0.1-0.9-0.4-1.2
	s-0.6-0.6-1.1-0.7c-0.4-0.1-0.9-0.1-1.3,0.1c-0.4,0.2-0.8,0.4-1,0.8c-3.2,5-7.5,9.1-12.7,12s-11,4.5-17,4.6s-11.8-1.3-17.1-4
	s-9.8-6.7-13.1-11.6c-0.2-0.4-0.6-0.6-1-0.8c-0.4-0.1-0.9-0.2-1.3,0c-0.4,0.1-0.8,0.4-1,0.7c-0.3,0.3-0.4,0.8-0.4,1.2v6.4H4.6
	c-0.8,0-1.7-0.2-2.4-0.7c-0.7-0.4-1.3-1.1-1.7-1.8s-0.6-1.6-0.5-2.4c0.1-0.8,0.4-1.6,0.8-2.3c4.1-5.9,6.3-13,6.3-20.2
	S4.9,154,0.8,148c-0.5-0.7-0.8-1.5-0.8-2.3c-0.1-0.8,0.1-1.7,0.5-2.4s1-1.4,1.7-1.8C2.9,141.1,3.8,140.8,4.6,140.8z"/>
</svg>
