<svg width="117" height="686" viewBox="0 0 117 686" fill="none" xmlns="http://www.w3.org/2000/svg">
<path d="M80.1285 686H31.1646C27.6731 686 24.3247 684.637 21.8558 682.209C19.387 679.782 18 676.49 18 673.058V624.922C18 613.392 32.1802 607.617 40.4734 615.77L89.4373 663.907C97.7301 672.06 91.8574 686 80.1285 686Z" fill="black"/>
<path d="M62.1861 603.227C58.6878 599.788 53.0159 599.788 49.5176 603.227C46.0193 606.666 46.0193 612.242 49.5177 615.682L93.0977 658.525C96.596 661.964 102.268 661.964 105.766 658.525C109.265 655.086 109.264 649.51 105.766 646.071L62.1861 603.227Z" fill="black"/>
<path d="M36.995 562.224C43.1511 562.224 48.1416 548.046 48.1416 530.557C48.1416 513.068 43.1511 498.89 36.995 498.89C30.8389 498.89 25.8484 513.068 25.8484 530.557C25.8484 548.046 30.8389 562.224 36.995 562.224Z" fill="black"/>
<path d="M74.15 562.224C80.3061 562.224 85.2966 548.046 85.2966 530.557C85.2966 513.068 80.3061 498.89 74.15 498.89C67.9939 498.89 63.0034 513.068 63.0034 530.557C63.0034 548.046 67.9939 562.224 74.15 562.224Z" fill="black"/>
<path d="M55.8381 494.293C74.5264 494.293 89.6762 489.303 89.6762 483.147C89.6762 476.991 74.5264 472 55.8381 472C37.1498 472 22 476.991 22 483.147C22 489.303 37.1498 494.293 55.8381 494.293Z" fill="black"/>
<path d="M55.8365 584.215C65.2493 584.215 72.8799 579.606 72.8799 573.922C72.8799 568.237 65.2493 563.629 55.8365 563.629C46.4236 563.629 38.793 568.237 38.793 573.922C38.793 579.606 46.4236 584.215 55.8365 584.215Z" fill="black"/>
<path d="M80.9064 323.611V353.798H74.4752C74.0454 353.798 73.627 353.937 73.2815 354.194C72.9359 354.452 72.6816 354.814 72.5559 355.228C72.4301 355.643 72.4397 356.086 72.5831 356.495C72.7265 356.903 72.9961 357.254 73.3524 357.496C78.2513 360.827 82.2477 365.337 84.9793 370.618C87.7109 375.899 89.0913 381.784 88.9953 387.738C88.8994 393.693 87.3301 399.529 84.4297 404.718C81.5294 409.906 77.3897 414.283 72.3861 417.452C72.0133 417.683 71.7253 418.029 71.5658 418.44C71.4064 418.85 71.3842 419.302 71.5026 419.726C71.621 420.15 71.8736 420.524 72.222 420.791C72.5704 421.057 72.9955 421.202 73.4329 421.202H80.9072V451.389C80.9044 452.237 80.6708 453.067 80.2318 453.789C79.7928 454.512 79.1654 455.099 78.4179 455.487C77.6704 455.875 76.8316 456.048 75.9929 455.988C75.1543 455.929 74.348 455.638 73.6621 455.148C67.7411 451.014 60.7064 448.805 53.5029 448.818C46.2981 448.805 39.2619 451.014 33.3392 455.148C32.6532 455.637 31.8471 455.927 31.0088 455.987C30.1705 456.046 29.3321 455.872 28.585 455.484C27.8378 455.097 27.2106 454.51 26.7715 453.788C26.3325 453.066 26.0984 452.236 26.0949 451.389V421.202H33.5692C34.0066 421.202 34.4317 421.057 34.78 420.79C35.1283 420.524 35.3808 420.15 35.4992 419.726C35.6176 419.302 35.5954 418.85 35.4359 418.44C35.2764 418.029 34.9884 417.683 34.6157 417.452C29.6114 414.284 25.4711 409.906 22.5704 404.717C19.6698 399.528 18.1004 393.692 18.0047 387.737C17.9089 381.782 19.2899 375.897 22.0223 370.616C24.7546 365.335 28.752 360.825 33.6518 357.495C34.0083 357.253 34.2783 356.902 34.4218 356.494C34.5654 356.085 34.5751 355.641 34.4494 355.227C34.3236 354.813 34.0692 354.45 33.7236 354.193C33.3779 353.935 32.9593 353.796 32.5294 353.797H26.0949V323.61C26.0984 322.763 26.3324 321.933 26.7715 321.211C27.2105 320.489 27.8378 319.902 28.585 319.514C29.3322 319.127 30.1707 318.953 31.0091 319.012C31.8474 319.072 32.6536 319.362 33.3396 319.851C39.267 323.974 46.2988 326.182 53.5011 326.182C60.7033 326.182 67.7352 323.974 73.6625 319.851C74.3485 319.361 75.1548 319.071 75.9933 319.011C76.8319 318.952 77.6706 319.126 78.4179 319.514C79.1652 319.901 79.7925 320.489 80.2313 321.211C80.6701 321.934 80.9036 322.764 80.9064 323.611Z" fill="black"/>
<path d="M95.0896 305.016H63.3675C46.3411 305.016 30.6884 292.433 22.6086 272.248L8.9136 238.039C7.63837 234.854 9.35137 230.99 12.0383 230.99C31.0015 230.971 48.2609 231.005 62.6821 230.99C64.6143 230.99 66.4001 232.393 67.3425 234.665C79.4197 263.778 90.5398 281.013 99.0021 291.127C103.064 295.98 100.519 305.016 95.0896 305.016Z" fill="black"/>
<path d="M69.3428 141.133C75.2286 141.133 80 136.361 80 130.476C80 124.59 75.2286 119.818 69.3428 119.818C63.457 119.818 58.6855 124.59 58.6855 130.476C58.6855 136.361 63.457 141.133 69.3428 141.133Z" fill="black"/>
<path d="M34.3511 210.306C33.5134 210.307 32.6837 210.142 31.9098 209.822C31.1358 209.501 30.4329 209.031 29.8412 208.437L25.3802 203.977C22.4833 201.087 20.6376 197.309 20.1374 193.247C19.6372 189.186 20.5112 185.073 22.6202 181.566C38.9674 154.309 33.1075 127.06 31.9627 122.538C31.8879 122.299 31.829 122.107 31.783 121.954C30.3917 117.206 33.7593 114.829 34.4492 114.401C35.6649 113.646 37.0992 113.321 38.5217 113.479C39.9442 113.637 41.2722 114.269 42.2922 115.273C42.9674 115.939 43.58 116.541 44.3073 119.256C44.3854 119.5 44.4488 119.75 44.497 120.002C44.7701 121.129 45.0601 122.561 45.3763 124.402C46.2546 129.637 46.688 134.936 46.672 140.244C46.6523 152.147 44.3612 170.116 33.5595 188.127C32.9167 189.195 32.6502 190.449 32.8026 191.687C32.955 192.925 33.5175 194.076 34.4004 194.957L38.861 199.418C39.7529 200.31 40.3602 201.446 40.6062 202.683C40.8522 203.92 40.7259 205.203 40.2432 206.368C39.7605 207.533 38.943 208.529 37.8943 209.23C36.8455 209.931 35.6125 210.305 34.3511 210.305V210.306Z" fill="black"/>
<path d="M46.6003 88.7852C46.6003 88.7852 19.3159 59.434 46.6003 30.9447C64.3783 12.3815 46.6003 0.323242 46.6003 0.323242" fill="black"/>
<path d="M12.706 88.7334C12.706 88.7334 -14.5784 59.3822 12.706 30.8932C30.4843 12.33 12.706 0.271729 12.706 0.271729" fill="black"/>
<path d="M80.4909 88.7852C80.4909 88.7852 53.2065 59.434 80.4909 30.9447C98.2689 12.3815 80.4909 0.323242 80.4909 0.323242" fill="black"/>
<path d="M12.7056 88.7334C12.7056 88.7334 47.128 56.7339 80.5395 88.7334C102.31 109.583 116.452 88.7334 116.452 88.7334" fill="black"/>
</svg>
