<svg width="72" height="658" viewBox="0 0 72 658" fill="none" xmlns="http://www.w3.org/2000/svg">
<path d="M48.6793 129.535C44.1992 129.535 40.5564 100.536 40.5564 64.7715C40.5564 54.5086 40.8598 44.8004 41.3969 36.1766C40.3757 36.2354 39.3275 36.269 38.2693 36.269C23.9466 36.269 12.3279 30.5786 12.3279 23.5602C12.3279 16.5417 23.9432 10.8513 38.2659 10.8513C40.2243 10.8465 42.1812 10.9587 44.1261 11.1875C45.4138 4.12702 46.9865 -4.3241e-08 48.6793 0C50.5377 4.7471e-08 52.249 4.95915 53.6099 13.3056C60.0408 15.6255 64.2166 19.3575 64.2166 23.5602C64.2166 27.2837 60.9511 30.629 55.7532 32.9489C56.4257 42.3461 56.8022 53.2058 56.8022 64.7715C56.8022 100.536 53.1686 129.535 48.6793 129.535Z" fill="black"/>
<path d="M33.8647 128.358V43.6217C33.8647 42.9732 33.339 42.4475 32.6905 42.4475H15.7411C15.0926 42.4475 14.5669 42.9732 14.5669 43.6217V128.358C14.5669 129.007 15.0926 129.533 15.7411 129.533H32.6904C33.339 129.533 33.8647 129.007 33.8647 128.358Z" fill="black"/>
<path d="M7.71167 388.181C7.71167 395.299 18.2972 401.069 31.355 401.069C44.4129 401.069 54.9984 395.299 54.9984 388.181C54.9984 381.062 44.4129 375.292 31.355 375.292C18.2972 375.292 7.71167 381.062 7.71167 388.181Z" fill="black"/>
<path d="M35.6877 446.553C35.6877 470.233 39.5507 489.429 44.3158 489.429C49.081 489.429 52.9439 470.233 52.9439 446.553C52.9439 422.873 49.081 403.676 44.3158 403.676C39.5507 403.676 35.6877 422.873 35.6877 446.553Z" fill="black"/>
<path d="M7.04761 451.27C7.0476 477.555 12.7507 498.863 19.7859 498.863C26.821 498.863 32.5242 477.555 32.5242 451.27C32.5242 424.985 26.821 403.676 19.7859 403.676C12.7507 403.676 7.04761 424.985 7.04761 451.27Z" fill="black"/>
<path d="M4.9402 629.878L4.94022 516.814C4.94044 515.214 5.57628 513.68 6.70789 512.548C7.8395 511.417 9.37419 510.781 10.9744 510.781H43.7553C45.3554 510.781 46.89 511.417 48.0215 512.548C49.1529 513.68 49.7886 515.214 49.7886 516.814V588.243C49.7888 591.345 49.1779 594.417 47.9908 597.283C46.8037 600.149 45.0637 602.753 42.8702 604.946L14.1323 633.684C13.3803 634.439 12.4208 634.954 11.3756 635.164C10.3304 635.373 9.24657 635.267 8.26171 634.859C7.27684 634.451 6.43532 633.76 5.84395 632.873C5.25258 631.986 4.93803 630.944 4.9402 629.878Z" fill="black"/>
<path d="M57.0009 622.679C59.7542 619.926 59.7542 615.462 57.0009 612.709C54.2475 609.955 49.7835 609.955 47.0301 612.709L16.9793 642.759C14.226 645.513 14.226 649.977 16.9793 652.73C19.7327 655.484 24.1967 655.484 26.9501 652.73L57.0009 622.679Z" fill="black"/>
<path d="M37.5953 261.591H18.0293C16.9293 261.59 15.8748 261.152 15.0977 260.373C14.3206 259.595 13.8846 258.539 13.8855 257.439V148.279C13.8867 148.092 13.9582 147.911 14.086 147.774C14.2137 147.636 14.3883 147.552 14.5753 147.537C14.7623 147.522 14.9481 147.578 15.0958 147.694C15.2436 147.81 15.3426 147.976 15.3732 148.161L30.8811 244.806C31.6964 249.631 32.6714 251.06 34.5038 250.942C37.4288 250.757 37.5969 246.21 37.5969 236.375L37.597 140.766C37.597 140.412 37.7379 140.071 37.9889 139.82C38.2398 139.569 38.5802 139.428 38.9351 139.428H56.8426C57.0183 139.428 57.1923 139.463 57.3546 139.53C57.5169 139.597 57.6644 139.696 57.7886 139.82C57.9127 139.945 58.0112 140.092 58.0784 140.254C58.1455 140.417 58.18 140.591 58.1799 140.766V150.918C58.1794 151.073 58.1275 151.224 58.0324 151.346C57.9373 151.468 57.8043 151.555 57.6543 151.593C57.5043 151.632 57.3458 151.62 57.2036 151.558C57.0615 151.497 56.9437 151.39 56.8687 151.255C53.6579 145.489 50.3882 142.303 47.6144 142.841C41.0499 144.102 39.6546 165.527 44.4876 190.692C46.8327 202.889 50.2033 213.723 53.8092 221.506C56.6638 227.612 58.1552 234.267 58.1799 241.007C58.181 243.71 57.6494 246.388 56.6153 248.886C55.5812 251.383 54.065 253.653 52.1533 255.565C50.2416 257.476 47.9719 258.993 45.474 260.027C42.976 261.061 40.2988 261.593 37.5953 261.591Z" fill="black"/>
<path d="M7.27034 297.291C50.9487 294.508 61.6957 280.234 34.4776 277.051C34.3639 277.038 34.2585 276.985 34.1802 276.902C34.102 276.818 34.0558 276.71 34.0501 276.595C34.0443 276.481 34.0793 276.368 34.1488 276.277C34.2184 276.187 34.3179 276.123 34.4297 276.099C54.7597 271.534 65.8791 269.744 71.7006 292.229C71.7467 292.4 71.7528 292.58 71.7185 292.754C71.6842 292.928 71.6104 293.092 71.5028 293.233C71.3953 293.374 71.2567 293.488 71.0979 293.567C70.9391 293.646 70.7643 293.688 70.5869 293.689H66.9785C66.2333 293.69 65.507 293.923 64.9001 294.356C64.2933 294.788 63.8358 295.399 63.5911 296.103C50.6932 332.906 32.3056 320.03 6.0835 301.454C5.69625 301.18 5.40375 300.791 5.2463 300.343C5.08886 299.895 5.07423 299.41 5.20441 298.953C5.33459 298.496 5.60319 298.091 5.97319 297.794C6.34319 297.496 6.79639 297.32 7.27034 297.291Z" fill="black"/>
<path d="M37.4395 346.675V326.502C37.4397 326.226 37.5498 325.96 37.7456 325.765C37.9413 325.569 38.2067 325.459 38.4834 325.459H43.7788C43.7788 327.804 44.7102 330.053 46.3682 331.711C48.0262 333.369 50.2748 334.3 52.6195 334.3V346.672C52.6195 346.948 52.5096 347.214 52.314 347.409C52.1184 347.605 51.8531 347.715 51.5764 347.715H38.4809C38.2052 347.714 37.941 347.605 37.7458 347.41C37.5507 347.215 37.4406 346.951 37.4395 346.675Z" fill="black"/>
<path d="M25.5443 351.434C16.8868 364.663 1.42603 369.719 0.166918 368.895C-1.09221 368.07 4.90836 356.678 13.5693 343.448C22.2301 330.219 30.2723 320.166 31.5306 320.986C32.7889 321.806 34.2052 338.204 25.5443 351.434Z" fill="black"/>
<path d="M3.53906 39C5.45508 39 6.76172 37.582 6.76172 36.1465C6.76172 34.7812 5.64258 33.9141 4.06055 33.9141H2.36133L2.87695 31.4941H6.80273L7.00781 30.5449H1.99805L0.199219 39H3.53906ZM1.47656 38.0625L2.16211 34.8516H3.84375C4.91602 34.8516 5.66016 35.3027 5.66016 36.3047C5.66016 37.2715 4.6875 38.0625 3.42773 38.0625H1.47656Z" fill="black"/>
<path d="M50.0312 176.059C51.502 176.059 52.2754 175.279 53.2129 173.82L57.2383 167.545H56.0371L52.6738 172.988H52.5801L51.4727 167.545H50.3652L51.8359 174.195C51.3672 174.822 50.8809 175.08 50.2363 175.08C49.9844 175.08 49.8438 175.051 49.7793 175.033L49.5801 175.982C49.6387 176.018 49.7969 176.059 50.0312 176.059Z" fill="black"/>
<path d="M14.25 320.545H12.8145L8.31445 324.436H8.25586L9.07617 320.545H7.99805L6.19922 329H7.27734L8.15039 324.898H8.20898L11.3438 329H12.6328L9.35742 324.705L14.25 320.545Z" fill="black"/>
<path d="M60.7148 408C62.6309 408 63.9199 406.881 63.9199 405.316C63.9199 404.479 63.4043 403.77 62.4727 403.623L62.4785 403.6C63.5332 403.312 64.3125 402.475 64.3125 401.408C64.3125 400.277 63.3516 399.545 61.9922 399.545H58.998L57.1992 408H60.7148ZM59.877 400.477H61.5879C62.6426 400.477 63.2168 400.852 63.2168 401.625C63.2168 402.551 62.332 403.189 61.043 403.189H59.3027L59.877 400.477ZM58.4766 407.068L59.1094 404.098H61.0664C62.2148 404.098 62.8008 404.537 62.8008 405.404C62.8008 406.354 61.9336 407.068 60.6797 407.068H58.4766Z" fill="black"/>
<path d="M60.8203 592.617C61.8926 592.617 62.6367 593.098 62.6367 594.123C62.6367 595.26 61.6758 596.062 60.4277 596.062H58.4766L59.2148 592.617H60.8203ZM57.1992 597H60.5391C62.3145 597 63.7383 595.811 63.7383 594.059C63.7383 592.588 62.6191 591.68 61.0371 591.68H59.4082L60.0762 588.545H58.998L57.1992 597ZM65.2852 597L67.084 588.545H66.0059L64.207 597H65.2852Z" fill="black"/>
</svg>
