<svg width="72" height="658" viewBox="0 0 72 658" fill="none" xmlns="http://www.w3.org/2000/svg">
<path d="M48.6792 129.535C44.1991 129.535 40.5563 100.536 40.5563 64.7715C40.5563 54.5086 40.8597 44.8004 41.3968 36.1766C40.3756 36.2354 39.3274 36.269 38.2692 36.269C23.9465 36.269 12.3278 30.5786 12.3278 23.5602C12.3278 16.5417 23.9431 10.8513 38.2658 10.8513C40.2242 10.8465 42.1811 10.9587 44.126 11.1875C45.4137 4.12702 46.9864 -4.40116e-07 48.6792 -3.96875e-07C50.5376 -3.49404e-07 52.2489 4.95915 53.6098 13.3056C60.0407 15.6255 64.2165 19.3575 64.2165 23.5602C64.2165 27.2837 60.951 30.629 55.7531 32.9489C56.4256 42.3461 56.8021 53.2058 56.8021 64.7715C56.8021 100.536 53.1685 129.535 48.6792 129.535Z" fill="black"/>
<path d="M33.8648 128.358L33.8648 43.6216C33.8648 42.9731 33.3391 42.4474 32.6906 42.4474L15.7412 42.4474C15.0927 42.4474 14.567 42.9731 14.567 43.6216L14.567 128.358C14.567 129.007 15.0927 129.533 15.7412 129.533L32.6905 129.533C33.3391 129.533 33.8648 129.007 33.8648 128.358Z" fill="black"/>
<path d="M7.71157 388.181C7.71157 395.299 18.2971 401.069 31.3549 401.069C44.4128 401.069 54.9983 395.299 54.9983 388.181C54.9983 381.062 44.4128 375.292 31.3549 375.292C18.2971 375.292 7.71157 381.062 7.71157 388.181Z" fill="black"/>
<path d="M35.6878 446.553C35.6878 470.233 39.5508 489.429 44.3159 489.429C49.0811 489.429 52.944 470.233 52.944 446.553C52.944 422.873 49.0811 403.676 44.3159 403.676C39.5508 403.676 35.6878 422.873 35.6878 446.553Z" fill="black"/>
<path d="M7.0475 451.27C7.04749 477.555 12.7506 498.863 19.7858 498.863C26.8209 498.863 32.5241 477.555 32.5241 451.27C32.5241 424.985 26.8209 403.676 19.7858 403.676C12.7506 403.676 7.0475 424.985 7.0475 451.27Z" fill="black"/>
<path d="M4.94023 629.878L4.94025 516.814C4.94047 515.214 5.57631 513.68 6.70792 512.548C7.83953 511.417 9.37422 510.781 10.9744 510.781L43.7553 510.781C45.3554 510.781 46.89 511.417 48.0215 512.548C49.1529 513.68 49.7886 515.214 49.7886 516.814L49.7886 588.243C49.7888 591.345 49.1779 594.417 47.9908 597.283C46.8037 600.149 45.0637 602.753 42.8702 604.946L14.1323 633.684C13.3803 634.439 12.4208 634.954 11.3756 635.164C10.3304 635.373 9.2466 635.267 8.26174 634.859C7.27687 634.451 6.43535 633.76 5.84398 632.873C5.25261 631.986 4.93806 630.944 4.94023 629.878Z" fill="black"/>
<path d="M57.001 622.679C59.7543 619.926 59.7543 615.462 57.001 612.709C54.2476 609.955 49.7836 609.955 47.0302 612.709L16.9794 642.759C14.2261 645.513 14.2261 649.977 16.9794 652.73C19.7328 655.484 24.1968 655.484 26.9502 652.73L57.001 622.679Z" fill="black"/>
<path d="M37.5952 261.591L18.0292 261.591C16.9292 261.59 15.8747 261.152 15.0976 260.373C14.3205 259.595 13.8845 258.539 13.8854 257.439L13.8854 148.279C13.8866 148.092 13.9581 147.911 14.0859 147.774C14.2136 147.636 14.3882 147.552 14.5752 147.537C14.7622 147.522 14.948 147.578 15.0957 147.694C15.2435 147.81 15.3425 147.976 15.3731 148.161L30.881 244.806C31.6963 249.631 32.6713 251.06 34.5037 250.942C37.4287 250.757 37.5968 246.21 37.5968 236.375L37.5969 140.766C37.5969 140.412 37.7378 140.071 37.9888 139.82C38.2397 139.569 38.5801 139.428 38.935 139.428L56.8425 139.428C57.0182 139.428 57.1922 139.463 57.3545 139.53C57.5168 139.597 57.6643 139.696 57.7885 139.82C57.9126 139.945 58.0111 140.092 58.0783 140.254C58.1454 140.417 58.1799 140.591 58.1798 140.766L58.1798 150.918C58.1793 151.073 58.1274 151.224 58.0323 151.346C57.9372 151.468 57.8042 151.555 57.6542 151.593C57.5042 151.632 57.3457 151.62 57.2035 151.558C57.0614 151.497 56.9436 151.39 56.8686 151.255C53.6578 145.489 50.3881 142.303 47.6143 142.841C41.0498 144.102 39.6545 165.527 44.4875 190.692C46.8326 202.889 50.2032 213.723 53.8091 221.506C56.6637 227.612 58.1551 234.267 58.1798 241.007C58.1809 243.71 57.6493 246.388 56.6152 248.886C55.5811 251.383 54.0649 253.653 52.1532 255.565C50.2415 257.476 47.9718 258.993 45.4739 260.027C42.9759 261.061 40.2987 261.593 37.5952 261.591Z" fill="black"/>
<path d="M7.27025 297.291C50.9486 294.508 61.6956 280.234 34.4775 277.051C34.3638 277.038 34.2584 276.985 34.1801 276.902C34.1019 276.818 34.0557 276.71 34.05 276.595C34.0442 276.481 34.0792 276.368 34.1487 276.277C34.2183 276.187 34.3178 276.123 34.4296 276.099C54.7596 271.534 65.879 269.744 71.7005 292.229C71.7466 292.4 71.7527 292.58 71.7184 292.754C71.6841 292.928 71.6103 293.092 71.5027 293.233C71.3952 293.374 71.2566 293.488 71.0978 293.567C70.939 293.646 70.7642 293.688 70.5868 293.689L66.9784 293.689C66.2332 293.69 65.5069 293.923 64.9 294.356C64.2932 294.788 63.8357 295.399 63.591 296.103C50.6931 332.906 32.3055 320.03 6.08341 301.454C5.69616 301.18 5.40366 300.791 5.24621 300.343C5.08877 299.895 5.07414 299.41 5.20432 298.953C5.3345 298.496 5.6031 298.091 5.9731 297.794C6.3431 297.496 6.7963 297.32 7.27025 297.291V297.291Z" fill="black"/>
<path d="M37.4395 346.675L37.4395 326.502C37.4397 326.226 37.5498 325.96 37.7456 325.765C37.9413 325.569 38.2067 325.459 38.4834 325.459L43.7788 325.459C43.7788 327.804 44.7102 330.053 46.3682 331.711C48.0262 333.369 50.2748 334.3 52.6195 334.3L52.6195 346.672C52.6195 346.948 52.5096 347.214 52.314 347.409C52.1184 347.605 51.8531 347.715 51.5764 347.715L38.4809 347.715C38.2052 347.714 37.941 347.605 37.7458 347.41C37.5507 347.215 37.4406 346.951 37.4395 346.675V346.675Z" fill="black"/>
<path d="M25.5443 351.434C16.8868 364.663 1.42606 369.719 0.166943 368.895C-1.09218 368.07 4.90839 356.678 13.5693 343.448C22.2301 330.219 30.2723 320.166 31.5306 320.986C32.7889 321.806 34.2052 338.204 25.5443 351.434Z" fill="black"/>
</svg>
