<?xml version="1.0" encoding="utf-8"?>
<!-- Generator: Adobe Illustrator 22.0.1, SVG Export Plug-In . SVG Version: 6.00 Build 0)  -->
<svg version="1.1" id="Layer_1" xmlns="http://www.w3.org/2000/svg" xmlns:xlink="http://www.w3.org/1999/xlink" x="0px" y="0px"
	 viewBox="0 0 369 139.8" style="enable-background:new 0 0 369 139.8;" xml:space="preserve">
<path d="M129.5,23.1c0,4.5-29,8.1-64.8,8.1c-10.3,0-20-0.3-28.6-0.8c0.1,1,0.1,2.1,0.1,3.1c0,14.3-5.7,25.9-12.7,25.9
	c-7,0-12.7-11.6-12.7-25.9c0-2,0.1-3.9,0.3-5.9C4.1,26.3,0,24.8,0,23.1c0-1.9,5-3.6,13.3-4.9c2.3-6.4,6.1-10.6,10.3-10.6
	c3.7,0,7.1,3.3,9.4,8.5c9.4-0.7,20.3-1,31.8-1C100.5,14.9,129.5,18.6,129.5,23.1z"/>
<path d="M128.4,37.9H43.6c-0.6,0-1.2,0.5-1.2,1.2V56c0,0.6,0.5,1.2,1.2,1.2h84.7c0.6,0,1.2-0.5,1.2-1.2V39
	C129.5,38.4,129,37.9,128.4,37.9z"/>
<path d="M24.9,137c7.1,0,12.9-10.6,12.9-23.6c0-13.1-5.8-23.6-12.9-23.6c-7.1,0-12.9,10.6-12.9,23.6C12,126.4,17.8,137,24.9,137z"/>
<path d="M83.3,109.1c23.7,0,42.9-3.9,42.9-8.6c0-4.8-19.2-8.6-42.9-8.6c-23.7,0-42.9,3.9-42.9,8.6C40.4,105.2,59.6,109.1,83.3,109.1
	z"/>
<path d="M88,137.7c26.3,0,47.6-5.7,47.6-12.7c0-7-21.3-12.7-47.6-12.7s-47.6,5.7-47.6,12.7C40.4,132,61.7,137.7,88,137.7z"/>
<path d="M266.6,139.8l-113.1,0c-1.6,0-3.1-0.6-4.3-1.8c-1.1-1.1-1.8-2.7-1.8-4.3V101c0-1.6,0.6-3.1,1.8-4.3c1.1-1.1,2.7-1.8,4.3-1.8
	H225c3.1,0,6.2,0.6,9,1.8c2.9,1.2,5.5,2.9,7.7,5.1l28.7,28.7c0.8,0.8,1.3,1.7,1.5,2.8c0.2,1,0.1,2.1-0.3,3.1s-1.1,1.8-2,2.4
	C268.7,139.5,267.7,139.8,266.6,139.8z"/>
<path d="M259.4,87.7c-2.8-2.8-7.2-2.8-10,0c-2.8,2.8-2.8,7.2,0,10l30,30.1c2.8,2.8,7.2,2.8,10,0c2.8-2.8,2.8-7.2,0-10L259.4,87.7z"
	/>
<path d="M261.6,34.1v19.6c0,1.1-0.4,2.2-1.2,2.9c-0.8,0.8-1.8,1.2-2.9,1.2H148.3c-0.2,0-0.4-0.1-0.5-0.2c-0.1-0.1-0.2-0.3-0.2-0.5
	s0-0.4,0.2-0.5c0.1-0.1,0.3-0.2,0.5-0.3l96.6-15.5c4.8-0.8,6.3-1.8,6.1-3.6c-0.2-2.9-4.7-3.1-14.6-3.1l-95.6,0
	c-0.4,0-0.7-0.1-0.9-0.4c-0.3-0.3-0.4-0.6-0.4-0.9V14.9c0-0.2,0-0.3,0.1-0.5s0.2-0.3,0.3-0.4c0.1-0.1,0.3-0.2,0.4-0.3
	c0.2-0.1,0.3-0.1,0.5-0.1h10.2c0.2,0,0.3,0.1,0.4,0.1c0.1,0.1,0.2,0.2,0.2,0.4c0,0.2,0,0.3,0,0.5c-0.1,0.1-0.2,0.3-0.3,0.3
	c-5.8,3.2-9,6.5-8.4,9.3c1.3,6.6,22.7,8,47.9,3.1c12.2-2.3,23-5.7,30.8-9.3c6.1-2.9,12.8-4.3,19.5-4.4c2.7,0,5.4,0.5,7.9,1.6
	c2.5,1,4.8,2.6,6.7,4.5c1.9,1.9,3.4,4.2,4.5,6.7C261.1,28.8,261.6,31.4,261.6,34.1z"/>
<path d="M297.3,64.5c-2.8-43.7-17.1-54.4-20.2-27.2c0,0.1-0.1,0.2-0.1,0.3c-0.1,0.1-0.2,0.1-0.3,0.1c-0.1,0-0.2,0-0.3-0.1
	c-0.1-0.1-0.2-0.2-0.2-0.3C271.5,17,269.7,5.9,292.2,0c0.2,0,0.4-0.1,0.5,0s0.3,0.1,0.5,0.2c0.1,0.1,0.3,0.2,0.3,0.4
	c0.1,0.2,0.1,0.3,0.1,0.5v3.6c0,0.7,0.2,1.5,0.7,2.1c0.4,0.6,1,1.1,1.7,1.3c36.8,12.9,23.9,31.3,5.4,57.5c-0.3,0.4-0.7,0.7-1.1,0.8
	c-0.4,0.2-0.9,0.2-1.4,0s-0.9-0.4-1.2-0.8C297.5,65.4,297.3,64.9,297.3,64.5z"/>
<path d="M346.7,34.3h-20.2c-0.3,0-0.5-0.1-0.7-0.3c-0.2-0.2-0.3-0.5-0.3-0.7V28c2.3,0,4.6-0.9,6.3-2.6c1.7-1.7,2.6-3.9,2.6-6.3h12.4
	c0.3,0,0.5,0.1,0.7,0.3c0.2,0.2,0.3,0.5,0.3,0.7v13.1c0,0.3-0.1,0.5-0.3,0.7C347.2,34.2,347,34.3,346.7,34.3z"/>
<path d="M351.4,46.2c13.2,8.7,18.3,24.1,17.5,25.4c-0.8,1.3-12.2-4.7-25.4-13.4c-13.2-8.7-23.3-16.7-22.5-18
	C321.8,39,338.2,37.5,351.4,46.2z"/>
</svg>
