<?xml version="1.0" encoding="utf-8"?>
<!-- Generator: Adobe Illustrator 22.0.1, SVG Export Plug-In . SVG Version: 6.00 Build 0)  -->
<svg version="1.1" id="Layer_1" xmlns="http://www.w3.org/2000/svg" xmlns:xlink="http://www.w3.org/1999/xlink" x="0px" y="0px"
	 viewBox="0 0 72 658" style="enable-background:new 0 0 72 658;" xml:space="preserve">
<style type="text/css">
	.st0{fill:#FFFFFF;}
</style>
<path class="st0" d="M48.7,129.5c-4.5,0-8.1-29-8.1-64.8c0-10.3,0.3-20,0.8-28.6c-1,0.1-2.1,0.1-3.1,0.1c-14.3,0-25.9-5.7-25.9-12.7
	c0-7,11.6-12.7,25.9-12.7c2,0,3.9,0.1,5.9,0.3C45.4,4.1,47,0,48.7,0c1.9,0,3.6,5,4.9,13.3c6.4,2.3,10.6,6.1,10.6,10.3
	c0,3.7-3.3,7.1-8.5,9.4c0.7,9.4,1,20.3,1,31.8C56.8,100.5,53.2,129.5,48.7,129.5z"/>
<path class="st0" d="M33.9,128.4V43.6c0-0.6-0.5-1.2-1.2-1.2H15.7c-0.6,0-1.2,0.5-1.2,1.2v84.7c0,0.6,0.5,1.2,1.2,1.2h16.9
	C33.3,129.5,33.9,129,33.9,128.4z"/>
<path class="st0" d="M7.7,388.2c0,7.1,10.6,12.9,23.6,12.9c13.1,0,23.6-5.8,23.6-12.9c0-7.1-10.6-12.9-23.6-12.9
	C18.3,375.3,7.7,381.1,7.7,388.2z"/>
<path class="st0" d="M35.7,446.6c0,23.7,3.9,42.9,8.6,42.9c4.8,0,8.6-19.2,8.6-42.9c0-23.7-3.9-42.9-8.6-42.9
	C39.6,403.7,35.7,422.9,35.7,446.6z"/>
<path class="st0" d="M7,451.3c0,26.3,5.7,47.6,12.7,47.6c7,0,12.7-21.3,12.7-47.6s-5.7-47.6-12.7-47.6C12.8,403.7,7,425,7,451.3z"/>
<path class="st0" d="M4.9,629.9l0-113.1c0-1.6,0.6-3.1,1.8-4.3c1.1-1.1,2.7-1.8,4.3-1.8h32.8c1.6,0,3.1,0.6,4.3,1.8
	c1.1,1.1,1.8,2.7,1.8,4.3v71.4c0,3.1-0.6,6.2-1.8,9c-1.2,2.9-2.9,5.5-5.1,7.7l-28.7,28.7c-0.8,0.8-1.7,1.3-2.8,1.5
	c-1,0.2-2.1,0.1-3.1-0.3c-1-0.4-1.8-1.1-2.4-2C5.3,632,4.9,630.9,4.9,629.9z"/>
<path class="st0" d="M57,622.7c2.8-2.8,2.8-7.2,0-10c-2.8-2.8-7.2-2.8-10,0l-30.1,30c-2.8,2.8-2.8,7.2,0,10c2.8,2.8,7.2,2.8,10,0
	L57,622.7z"/>
<path class="st0" d="M37.6,261.6H18c-1.1,0-2.2-0.4-2.9-1.2c-0.8-0.8-1.2-1.8-1.2-2.9V148.3c0-0.2,0.1-0.4,0.2-0.5
	c0.1-0.1,0.3-0.2,0.5-0.2s0.4,0,0.5,0.2c0.1,0.1,0.2,0.3,0.3,0.5l15.5,96.6c0.8,4.8,1.8,6.3,3.6,6.1c2.9-0.2,3.1-4.7,3.1-14.6
	l0-95.6c0-0.4,0.1-0.7,0.4-0.9c0.3-0.3,0.6-0.4,0.9-0.4h17.9c0.2,0,0.3,0,0.5,0.1s0.3,0.2,0.4,0.3c0.1,0.1,0.2,0.3,0.3,0.4
	c0.1,0.2,0.1,0.3,0.1,0.5v10.2c0,0.2-0.1,0.3-0.1,0.4c-0.1,0.1-0.2,0.2-0.4,0.2c-0.2,0-0.3,0-0.5,0c-0.1-0.1-0.3-0.2-0.3-0.3
	c-3.2-5.8-6.5-9-9.3-8.4c-6.6,1.3-8,22.7-3.1,47.9c2.3,12.2,5.7,23,9.3,30.8c2.9,6.1,4.3,12.8,4.4,19.5c0,2.7-0.5,5.4-1.6,7.9
	c-1,2.5-2.6,4.8-4.5,6.7c-1.9,1.9-4.2,3.4-6.7,4.5C43,261.1,40.3,261.6,37.6,261.6z"/>
<path class="st0" d="M7.3,297.3c43.7-2.8,54.4-17.1,27.2-20.2c-0.1,0-0.2-0.1-0.3-0.1c-0.1-0.1-0.1-0.2-0.1-0.3c0-0.1,0-0.2,0.1-0.3
	c0.1-0.1,0.2-0.2,0.3-0.2c20.3-4.6,31.4-6.4,37.3,16.1c0,0.2,0.1,0.4,0,0.5s-0.1,0.3-0.2,0.5c-0.1,0.1-0.2,0.3-0.4,0.3
	c-0.2,0.1-0.3,0.1-0.5,0.1H67c-0.7,0-1.5,0.2-2.1,0.7c-0.6,0.4-1.1,1-1.3,1.7c-12.9,36.8-31.3,23.9-57.5,5.4
	c-0.4-0.3-0.7-0.7-0.8-1.1c-0.2-0.4-0.2-0.9,0-1.4s0.4-0.9,0.8-1.2C6.3,297.5,6.8,297.3,7.3,297.3L7.3,297.3z"/>
<path class="st0" d="M37.4,346.7v-20.2c0-0.3,0.1-0.5,0.3-0.7c0.2-0.2,0.5-0.3,0.7-0.3h5.3c0,2.3,0.9,4.6,2.6,6.3
	c1.7,1.7,3.9,2.6,6.3,2.6v12.4c0,0.3-0.1,0.5-0.3,0.7c-0.2,0.2-0.5,0.3-0.7,0.3H38.5c-0.3,0-0.5-0.1-0.7-0.3
	C37.6,347.2,37.4,347,37.4,346.7L37.4,346.7z"/>
<path class="st0" d="M25.5,351.4c-8.7,13.2-24.1,18.3-25.4,17.5c-1.3-0.8,4.7-12.2,13.4-25.4c8.7-13.2,16.7-23.3,18-22.5
	S34.2,338.2,25.5,351.4z"/>
</svg>
