<svg width="669" height="1162" viewBox="0 0 669 1162" fill="none" xmlns="http://www.w3.org/2000/svg">
<g opacity="0.212">
<path d="M496.255 638.922L615.757 749.971L604.902 761.644L599.576 756.67L559.81 799.557L559.252 810.875L439.75 699.826L440.917 677.19L470.691 645.063C475.661 639.683 482.458 637.653 488.393 641.612C489.052 642.068 489.509 642.424 490.117 642.982L491.436 644.2L535.818 685.412C536.275 685.869 536.731 686.325 537.137 686.884C541.55 692.568 541.6 700.892 536.63 706.272L506.856 738.399L506.298 749.717L542.006 711.246C546.977 705.866 546.926 697.542 542.463 691.858C541.956 691.249 541.499 690.64 540.941 690.081C540.941 690.081 535.717 685.209 535.565 685.107L491.436 644.098L496.255 638.922Z" stroke="#5A5A91" stroke-miterlimit="10" stroke-linejoin="round"/>
<path d="M66.9896 745.809L56.3379 742.053L51.3164 733.475L192.375 651.407L197.397 659.984L218.65 667.597L140.943 712.819L130.24 709.012L66.9896 745.809Z" stroke="#5A5A91" stroke-miterlimit="10" stroke-linejoin="round"/>
<path d="M441.779 776.413V783.772L450.402 776.413H441.779Z" stroke="#5A5A91" stroke-miterlimit="10" stroke-linejoin="round"/>
<path d="M14.8984 459.61C15.3042 459.61 15.71 459.61 16.1158 459.61C23.3183 459.559 33.615 455.752 39.1437 453.265H23.5212L14.8984 459.61Z" stroke="#5A5A91" stroke-miterlimit="10" stroke-linejoin="round"/>
<path d="M44.9277 318.768L53.5505 312.424H44.9277V318.768Z" stroke="#5A5A91" stroke-miterlimit="10" stroke-linejoin="round"/>
<path d="M209.519 466.258C215.048 474.785 216.925 484.58 215.606 493.665C218.801 483.058 219.917 466.461 213.273 456.209C202.317 439.257 181.013 433.218 164.173 441.643L160.42 451.641C177.26 443.318 198.563 449.307 209.519 466.258Z" stroke="#5A5A91" stroke-miterlimit="10" stroke-linejoin="round"/>
<path d="M344.338 437.582C342.868 434.283 340.94 431.34 339.266 429.005C337.187 426.213 334.346 423.371 334.346 423.371L323.999 421.899C323.999 421.899 330.998 428.751 334.194 436.313C340.889 452.098 338.303 470.877 325.622 483.819C316.644 493.005 304.572 497.268 292.652 496.609C306.043 498.893 325.571 495.543 335.766 485.088C348.498 472.145 351.287 453.265 344.338 437.582Z" stroke="#5A5A91" stroke-miterlimit="10" stroke-linejoin="round"/>
<path d="M134.906 562.233L177.006 606.135L178.223 594.969L187.15 586.392L74.2929 468.593L65.315 477.17L64.0977 488.336L121.617 548.327L134.906 562.233Z" stroke="#5A5A91" stroke-miterlimit="10" stroke-linejoin="round"/>
<path d="M356.006 780.169L347.079 773.317C347.586 775.601 347.89 777.885 348.043 780.22C349.209 800.673 335.362 819.604 314.718 824.172C302.798 826.811 293.06 825.238 283.727 818.792L274.799 811.941L201.303 869.8L210.23 876.651L212.918 888.832L372.237 853.559L356.006 780.169Z" stroke="#5A5A91" stroke-miterlimit="10" stroke-linejoin="round"/>
<path d="M97.8266 966.029C98.6381 951.716 92.2471 937.201 79.5665 928.471C60.2413 915.123 33.6628 919.995 20.3228 939.332L21.388 950.498L12.3594 963.592L13.4245 974.758L147.687 1067.49L146.622 1056.32L191.257 991.608L190.192 980.443L97.8266 966.029Z" stroke="#5A5A91" stroke-miterlimit="10" stroke-linejoin="round"/>
<path d="M434.524 465.801L520.702 518.382L527.549 522.544C545.2 533.304 548.447 555.686 540.28 569.034L529.274 572.739C539.012 556.752 532.571 536.095 516.593 526.35L509.746 522.189L423.467 469.557L434.524 465.801Z" stroke="#5A5A91" stroke-miterlimit="10" stroke-linejoin="round"/>
<path d="M427.779 537.364V542.794L436.706 550.255V544.825L427.779 537.364Z" stroke="#5A5A91" stroke-miterlimit="10" stroke-linejoin="round"/>
<path d="M661.66 326.838L668 317.043L664.501 289.027L502.848 309.43L504.674 324.199L498.436 333.994L504.167 379.774L665.769 359.371L661.66 326.838Z" stroke="#5A5A91" stroke-miterlimit="10" stroke-linejoin="round"/>
<path d="M1.30433 592.228L1 580.961L26.6655 598.725L27.0206 609.992L1.30433 592.228Z" stroke="#5A5A91" stroke-miterlimit="10" stroke-linejoin="round"/>
<path d="M325.523 366.324L316.443 373.074H370.564L379.643 366.324H325.523Z" stroke="#5A5A91" stroke-miterlimit="10" stroke-linejoin="round"/>
<path d="M280.074 695.969L280.886 684.701L304.573 705.104L303.711 716.371L280.074 695.969Z" stroke="#5A5A91" stroke-miterlimit="10" stroke-linejoin="round"/>
<path d="M357.122 573.145L348.043 579.845H402.164L411.243 573.145H357.122Z" stroke="#5A5A91" stroke-miterlimit="10" stroke-linejoin="round"/>
<path d="M321.312 223.402L322.682 234.568L464.552 314.454L463.183 303.289L321.312 223.402Z" stroke="#5A5A91" stroke-miterlimit="10" stroke-linejoin="round"/>
<path d="M404.953 193.864L320.906 147.272L309.747 148.744L301.834 144.328L380.91 1.91357L388.874 6.32914L400.033 4.90804L483.978 51.6013L404.953 193.864Z" stroke="#5A5A91" stroke-miterlimit="10" stroke-linejoin="round"/>
<path d="M253.091 313.084L107.365 386.321L89.7138 351.149C82.917 345.312 76.8303 339.577 73.1783 332.319C72.9754 331.964 72.9247 331.863 72.9247 331.863L58.5195 303.187L64.1497 300.345L60.6499 293.341L206.426 220.103L213.831 234.822L208.201 237.664L219.005 259.183L228.49 264.005L253.091 313.084Z" stroke="#5A5A91" stroke-miterlimit="10" stroke-linejoin="round"/>
<path d="M82.2079 193.762L24.0293 41.2983L60.7523 27.2396C67.2448 21.0477 73.5343 15.5663 81.1427 12.6733C81.5485 12.5211 81.6499 12.4703 81.6499 12.4703L111.627 1L113.859 6.88742L121.163 4.09597L179.341 156.56L163.972 162.447L161.741 156.56L139.271 165.137L133.488 174.12L82.2079 193.762Z" stroke="#5A5A91" stroke-miterlimit="10" stroke-linejoin="round"/>
<path d="M188.165 1160.62L322.528 1063.32L318.014 1050.28L183.701 1147.57L188.165 1160.62Z" stroke="#5A5A91" stroke-miterlimit="10" stroke-linejoin="round"/>
<path d="M50.0487 804.277L39.8535 817.625L40.1071 804.125L50.0487 804.277Z" stroke="#5A5A91" stroke-miterlimit="10" stroke-linejoin="round"/>
<path d="M360.926 890.812L505.89 832.09L532.063 896.75L528.665 910.098L534.041 923.446L414.336 971.967L410.177 988.208L394.2 994.704L363.005 917.711L366.404 904.312L360.926 890.812Z" stroke="#5A5A91" stroke-miterlimit="10" stroke-linejoin="round"/>
</g>
</svg>
