<svg width="1326" height="218" viewBox="0 0 1326 218" fill="none" xmlns="http://www.w3.org/2000/svg">
<path d="M1270.78 191.446H1176.13C1169.38 191.446 1162.9 188.811 1158.13 184.117C1153.36 179.425 1150.68 173.062 1150.68 166.427V73.3747C1150.68 51.0859 1178.09 39.9221 1194.12 55.6828L1288.77 148.737C1304.8 164.498 1293.45 191.446 1270.78 191.446Z" fill="black"/>
<path d="M1236.09 31.4356C1229.33 24.7876 1218.37 24.7876 1211.6 31.4356C1204.84 38.0836 1204.84 48.8627 1211.6 55.5126L1295.85 138.333C1302.61 144.981 1313.58 144.981 1320.34 138.333C1327.1 131.685 1327.1 120.906 1320.34 114.258L1236.09 31.4356Z" fill="black"/>
<path d="M988.393 174.899C1000.29 174.899 1009.94 147.491 1009.94 113.683C1009.94 79.8745 1000.29 52.4667 988.393 52.4667C976.492 52.4667 966.845 79.8745 966.845 113.683C966.845 147.491 976.492 174.899 988.393 174.899Z" fill="black"/>
<path d="M1060.22 174.899C1072.12 174.899 1081.76 147.491 1081.76 113.683C1081.76 79.8745 1072.12 52.4667 1060.22 52.4667C1048.32 52.4667 1038.67 79.8745 1038.67 113.683C1038.67 147.491 1048.32 174.899 1060.22 174.899Z" fill="black"/>
<path d="M1024.82 43.5802C1060.94 43.5802 1090.23 33.934 1090.23 22.0337C1090.23 10.1334 1060.94 0.485229 1024.82 0.485229C988.692 0.485229 959.405 10.1334 959.405 22.0337C959.405 33.934 988.692 43.5802 1024.82 43.5802Z" fill="black"/>
<path d="M1024.82 217.41C1043.01 217.41 1057.76 208.5 1057.76 197.512C1057.76 186.523 1043.01 177.615 1024.82 177.615C1006.62 177.615 991.868 186.523 991.868 197.512C991.868 208.5 1006.62 217.41 1024.82 217.41Z" fill="black"/>
<path d="M638.324 64.0338L697.754 64.0338L697.754 76.695C697.754 77.5411 698.027 78.3648 698.533 79.045C699.041 79.7254 699.754 80.2261 700.569 80.4735C701.386 80.7212 702.258 80.7023 703.063 80.42C703.866 80.1377 704.557 79.6069 705.034 78.9054C711.592 69.2609 720.471 61.3931 730.867 56.0154C741.264 50.6376 752.85 47.92 764.572 48.109C776.295 48.2978 787.785 51.3873 798.001 57.0974C808.214 62.8072 816.831 70.9571 823.07 80.8078C823.525 81.5418 824.206 82.1087 825.015 82.4227C825.823 82.7366 826.712 82.7803 827.547 82.5472C828.382 82.3141 829.118 81.8168 829.644 81.1309C830.167 80.445 830.453 79.6081 830.453 78.747L830.453 64.0322L889.883 64.0322C891.552 64.0377 893.186 64.4976 894.608 65.3619C896.031 66.2261 897.187 67.4613 897.95 68.9329C898.714 70.4045 899.055 72.0559 898.937 73.707C898.821 75.358 898.248 76.9454 897.283 78.2957C889.144 89.9525 884.795 103.802 884.821 117.983C884.795 132.168 889.144 146.02 897.283 157.68C898.246 159.031 898.817 160.618 898.935 162.268C899.051 163.918 898.708 165.569 897.944 167.04C897.183 168.511 896.027 169.746 894.606 170.61C893.184 171.474 891.55 171.935 889.883 171.942L830.453 171.942L830.453 157.227C830.453 156.366 830.167 155.529 829.642 154.844C829.118 154.158 828.382 153.661 827.547 153.428C826.712 153.195 825.823 153.238 825.015 153.552C824.206 153.866 823.525 154.433 823.07 155.167C816.833 165.019 808.214 173.17 797.999 178.881C787.783 184.591 776.294 187.681 764.57 187.869C752.846 188.058 741.26 185.339 730.863 179.96C720.467 174.581 711.588 166.711 705.032 157.065C704.555 156.363 703.864 155.831 703.061 155.549C702.256 155.266 701.382 155.247 700.567 155.494C699.752 155.742 699.037 156.243 698.531 156.923C698.023 157.604 697.75 158.428 697.752 159.274L697.752 171.942L638.322 171.942C636.654 171.935 635.02 171.475 633.599 170.61C632.178 169.746 631.022 168.511 630.258 167.04C629.496 165.569 629.154 163.918 629.27 162.267C629.388 160.617 629.959 159.03 630.922 157.679C639.039 146.01 643.385 132.166 643.385 117.987C643.385 103.808 639.039 89.9641 630.922 78.295C629.957 76.9444 629.386 75.357 629.268 73.7063C629.152 72.0553 629.494 70.4041 630.258 68.9329C631.02 67.4617 632.178 66.2267 633.599 65.3628C635.022 64.499 636.656 64.0393 638.324 64.0338Z" fill="black"/>
<path d="M561.267 199.837H497.4C463.12 199.837 431.606 174.504 415.339 133.865L387.766 64.9909C385.199 58.5785 388.648 50.799 394.057 50.799C432.236 50.7608 466.985 50.8292 496.02 50.799C499.91 50.799 503.505 53.6237 505.403 58.198C529.718 116.812 552.106 151.512 569.144 171.874C577.322 181.645 572.198 199.837 561.267 199.837Z" fill="black"/>
<path d="M341.831 89.0371C351.493 89.0371 359.325 81.2041 359.325 71.5441C359.325 61.8825 351.493 54.0495 341.831 54.0495C332.17 54.0495 324.338 61.8825 324.338 71.5441C324.338 81.2041 332.17 89.0371 341.831 89.0371Z" fill="black"/>
<path d="M284.394 202.581C283.019 202.583 281.657 202.312 280.387 201.787C279.116 201.26 277.963 200.488 276.991 199.513L269.669 192.193C264.914 187.449 261.884 181.247 261.063 174.58C260.242 167.914 261.677 161.162 265.138 155.406C291.972 110.665 282.353 65.9368 280.474 58.5142C280.351 58.1218 280.254 57.8067 280.179 57.5555C277.895 49.7619 283.423 45.8602 284.555 45.1576C286.551 43.9183 288.905 43.3849 291.24 43.6442C293.575 43.9036 295.755 44.941 297.429 46.589C298.537 47.6822 299.543 48.6703 300.737 53.1269C300.865 53.5274 300.969 53.9378 301.048 54.3514C301.496 56.2013 301.972 58.5519 302.491 61.5738C303.933 70.1668 304.645 78.8649 304.618 87.5777C304.586 107.116 300.825 136.611 283.095 166.175C282.04 167.929 281.602 169.987 281.852 172.019C282.102 174.051 283.026 175.941 284.475 177.387L291.797 184.709C293.261 186.173 294.258 188.038 294.662 190.068C295.065 192.099 294.858 194.205 294.066 196.117C293.273 198.03 291.931 199.664 290.21 200.815C288.489 201.966 286.465 202.58 284.394 202.58V202.581Z" fill="black"/>
<path d="M22.8082 188.541C22.8082 188.541 -27.1859 134.76 22.8082 82.5584C55.384 48.5444 22.8082 26.4496 22.8082 26.4496" fill="black"/>
<path d="M147.284 188.502C147.284 188.502 97.2894 134.721 147.284 82.5188C179.859 48.5049 147.284 26.4101 147.284 26.4101" fill="black"/>
<path d="M84.9137 188.636C84.9137 188.636 34.9196 134.855 84.9137 82.6528C117.489 48.6388 84.9137 26.544 84.9137 26.544" fill="black"/>
<path d="M22.8076 188.541C22.8076 188.541 85.881 129.907 147.102 188.541C186.993 226.744 212.906 188.541 212.906 188.541" fill="black"/>
</svg>
