<?xml version="1.0" encoding="utf-8"?>
<!-- Generator: Adobe Illustrator 23.1.0, SVG Export Plug-In . SVG Version: 6.00 Build 0)  -->
<svg version="1.1" id="Layer_1" xmlns="http://www.w3.org/2000/svg" xmlns:xlink="http://www.w3.org/1999/xlink" x="0px" y="0px"
	 viewBox="0 0 1183 216.9" style="enable-background:new 0 0 1183 216.9;" xml:space="preserve">
<g>
	<g>
		<path d="M1131,187h-90.1c-6.4,0-12.6-2.5-17.1-7c-4.5-4.5-7.1-10.5-7.1-16.8V74.6c0-21.2,26.1-31.9,41.4-16.8l90.1,88.6
			C1163.4,161.4,1152.6,187,1131,187z"/>
		<path d="M1098,34.6c-6.4-6.3-16.9-6.3-23.3,0c-6.4,6.3-6.4,16.6,0,22.9l80.2,78.9c6.4,6.3,16.9,6.3,23.3,0
			c6.4-6.3,6.4-16.6,0-22.9L1098,34.6z"/>
	</g>
	<g>
		<path d="M890,174.4c11.9,0,21.5-27.4,21.5-61.2c0-33.8-9.7-61.2-21.5-61.2c-11.9,0-21.5,27.4-21.5,61.2
			C868.5,147,878.1,174.4,890,174.4z"/>
		<path d="M961.8,174.4c11.9,0,21.5-27.4,21.5-61.2c0-33.8-9.6-61.2-21.5-61.2s-21.5,27.4-21.5,61.2
			C940.3,147,949.9,174.4,961.8,174.4z"/>
		<path d="M926.4,43.1c36.1,0,65.4-9.6,65.4-21.5S962.5,0,926.4,0C890.3,0,861,9.6,861,21.5S890.3,43.1,926.4,43.1z"/>
		<path d="M926.4,216.9c18.2,0,32.9-8.9,32.9-19.9c0-11-14.8-19.9-32.9-19.9c-18.2,0-33,8.9-33,19.9
			C893.5,208,908.2,216.9,926.4,216.9z"/>
	</g>
	<path d="M547.2,56.2h67.5v14.4c0,1,0.3,1.9,0.9,2.7c0.6,0.8,1.4,1.3,2.3,1.6c0.9,0.3,1.9,0.3,2.8-0.1c0.9-0.3,1.7-0.9,2.2-1.7
		c7.4-11,17.5-19.9,29.3-26c11.8-6.1,25-9.2,38.3-9c13.3,0.2,26.4,3.7,38,10.2c11.6,6.5,21.4,15.7,28.5,26.9
		c0.5,0.8,1.3,1.5,2.2,1.8c0.9,0.4,1.9,0.4,2.9,0.1c0.9-0.3,1.8-0.8,2.4-1.6c0.6-0.8,0.9-1.7,0.9-2.7V56.2h67.5
		c1.9,0,3.8,0.5,5.4,1.5c1.6,1,2.9,2.4,3.8,4.1c0.9,1.7,1.3,3.5,1.1,5.4c-0.1,1.9-0.8,3.7-1.9,5.2c-9.2,13.2-14.2,29-14.2,45.1
		c0,16.1,4.9,31.8,14.2,45.1c1.1,1.5,1.7,3.3,1.9,5.2c0.1,1.9-0.3,3.7-1.1,5.4c-0.9,1.7-2.2,3.1-3.8,4.1c-1.6,1-3.5,1.5-5.4,1.5
		h-67.5v-16.7c0-1-0.3-1.9-0.9-2.7c-0.6-0.8-1.4-1.3-2.4-1.6c-0.9-0.3-2-0.2-2.9,0.1c-0.9,0.4-1.7,1-2.2,1.8
		c-7.1,11.2-16.9,20.4-28.5,26.9c-11.6,6.5-24.7,10-38,10.2c-13.3,0.2-26.5-2.9-38.3-9c-11.8-6.1-21.9-15-29.3-26
		c-0.5-0.8-1.3-1.4-2.2-1.7c-0.9-0.3-1.9-0.3-2.8-0.1c-0.9,0.3-1.7,0.9-2.3,1.6c-0.6,0.8-0.9,1.7-0.9,2.7v14.4h-67.5
		c-1.9,0-3.8-0.5-5.4-1.5c-1.6-1-2.9-2.4-3.8-4.1c-0.9-1.7-1.3-3.5-1.1-5.4c0.1-1.9,0.8-3.7,1.9-5.2c9.2-13.3,14.2-29,14.2-45.1
		s-4.9-31.8-14.2-45.1c-1.1-1.5-1.7-3.3-1.9-5.2c-0.1-1.9,0.3-3.8,1.1-5.4c0.9-1.7,2.2-3.1,3.8-4.1
		C543.4,56.7,545.3,56.2,547.2,56.2z"/>
	<path d="M499.6,196.3h-61.3c-32.9,0-63.2-24.3-78.8-63.4l-26.5-66.2c-2.5-6.2,0.8-13.6,6-13.6c36.7,0,70.1,0,97.9,0
		c3.7,0,7.2,2.7,9,7.1c23.4,56.3,44.9,89.6,61.2,109.2C515,178.9,510.1,196.3,499.6,196.3z"/>
	<g>
		<path d="M293.9,89.9c9.3,0,16.8-7.5,16.8-16.8c0-9.3-7.5-16.8-16.8-16.8c-9.3,0-16.8,7.5-16.8,16.8
			C277.1,82.4,284.6,89.9,293.9,89.9z"/>
		<path d="M238.7,199c-1.3,0-2.6-0.3-3.8-0.8c-1.2-0.5-2.3-1.2-3.3-2.2l-7-7c-4.6-4.6-7.5-10.5-8.3-16.9c-0.8-6.4,0.6-12.9,3.9-18.4
			c25.8-43,16.5-85.9,14.7-93.1c-0.1-0.4-0.2-0.7-0.3-0.9c-2.2-7.5,3.1-11.2,4.2-11.9c1.9-1.2,4.2-1.7,6.4-1.5
			c2.2,0.2,4.3,1.2,5.9,2.8c1.1,1.1,2,2,3.2,6.3c0.1,0.4,0.2,0.8,0.3,1.2c0.4,1.8,0.9,4,1.4,6.9c1.4,8.3,2.1,16.6,2,25
			c0,18.8-3.6,47.1-20.7,75.5c-1,1.7-1.4,3.7-1.2,5.6s1.1,3.8,2.5,5.2l7,7c1.4,1.4,2.4,3.2,2.8,5.1c0.4,2,0.2,4-0.6,5.8
			c-0.8,1.8-2.1,3.4-3.7,4.5C242.6,198.4,240.7,199,238.7,199L238.7,199z"/>
	</g>
	<g>
		<path d="M21,191.3c0,0-47.4-50.9,0-100.4c30.9-32.2,0-53.1,0-53.1"/>
		<path d="M138.9,191.3c0,0-47.4-50.9,0-100.4c30.9-32.2,0-53.1,0-53.1"/>
		<path d="M79.9,191.4c0,0-47.4-50.9,0-100.4c30.9-32.2,0-53.1,0-53.1"/>
		<path d="M21,191.3c0,0,59.7-55.5,117.7,0c37.8,36.2,62.3,0,62.3,0"/>
	</g>
</g>
</svg>
