<?xml version="1.0" encoding="utf-8"?>
<!-- Generator: Adobe Illustrator 23.1.0, SVG Export Plug-In . SVG Version: 6.00 Build 0)  -->
<svg version="1.1" id="Layer_1" xmlns="http://www.w3.org/2000/svg" xmlns:xlink="http://www.w3.org/1999/xlink" x="0px" y="0px"
	 viewBox="0 0 853.2 94.3" style="enable-background:new 0 0 853.2 94.3;" xml:space="preserve">
<style type="text/css">
	.st0{fill:none;stroke:#000000;stroke-width:0.5;stroke-miterlimit:10;}
</style>
<path class="st0" d="M169.1,30.5c0,5.8-37.7,10.6-84.3,10.6c-13.4,0-26-0.4-37.2-1.1c0.1,1.3,0.1,2.7,0.1,4.1
	c0,18.6-7.4,33.8-16.5,33.8S14.6,62.7,14.6,44.1c0-2.5,0.1-5.1,0.4-7.6c-9.1-1.7-14.5-3.8-14.5-6c0-2.4,6.5-4.6,17.3-6.4
	c3-8.4,7.9-13.8,13.3-13.8c4.8,0,9.2,4.2,12.2,11c12.2-0.9,26.4-1.4,41.4-1.4C131.3,19.9,169.1,24.7,169.1,30.5z"/>
<path class="st0" d="M167.6,49.8H57.3c-0.8,0-1.5,0.7-1.5,1.5v22.1c0,0.8,0.7,1.5,1.5,1.5h110.3c0.8,0,1.5-0.7,1.5-1.5V51.3
	C169.1,50.5,168.4,49.8,167.6,49.8z"/>
<path class="st0" d="M505.7,83.8c9.3,0,16.8-13.8,16.8-30.8s-7.5-30.8-16.8-30.8S488.9,36,488.9,53S496.4,83.8,505.7,83.8z"/>
<path class="st0" d="M581.7,47.4c30.8,0,55.8-5,55.8-11.2S612.5,25,581.7,25s-55.8,5-55.8,11.2S550.9,47.4,581.7,47.4z"/>
<path class="st0" d="M587.8,84.7c34.2,0,61.9-7.4,61.9-16.6S622,51.5,587.8,51.5s-61.9,7.4-61.9,16.6S553.6,84.7,587.8,84.7z"/>
<path class="st0" d="M820.3,87.4H673.1c-2.1,0-4.1-0.8-5.6-2.3s-2.3-3.5-2.3-5.6V36.9c0-2.1,0.8-4.1,2.3-5.6
	c1.5-1.5,3.5-2.3,5.6-2.3h93c4,0,8,0.8,11.8,2.3c3.7,1.5,7.1,3.8,10,6.7l37.3,37.5c1,1,1.7,2.2,1.9,3.6c0.3,1.4,0.1,2.8-0.4,4.1
	c-0.5,1.3-1.4,2.4-2.6,3.1C823,87,821.7,87.4,820.3,87.4z"/>
<path class="st0" d="M810.9,19.7c-3.6-3.6-9.4-3.6-13,0s-3.6,9.4,0,13L837,71.8c3.6,3.6,9.4,3.6,13,0s3.6-9.4,0-13L810.9,19.7z"/>
<path class="st0" d="M341,44.9v25.5c0,1.4-0.6,2.8-1.6,3.8s-2.4,1.6-3.8,1.6H193.5c-0.2,0-0.5-0.1-0.7-0.3c-0.2-0.2-0.3-0.4-0.3-0.6
	s0.1-0.5,0.2-0.7c0.1-0.2,0.4-0.3,0.6-0.4l125.8-20.2c6.3-1.1,8.1-2.3,8-4.7c-0.2-3.8-6.2-4-19-4H183.7c-0.5,0-0.9-0.2-1.2-0.5
	s-0.5-0.8-0.5-1.2V19.9c0-0.2,0-0.5,0.1-0.7s0.2-0.4,0.4-0.6s0.4-0.3,0.6-0.4c0.2-0.1,0.4-0.1,0.7-0.1H197c0.2,0,0.4,0.1,0.6,0.2
	c0.2,0.1,0.3,0.3,0.3,0.5s0,0.4,0,0.6c-0.1,0.2-0.2,0.3-0.4,0.4c-7.5,4.2-11.7,8.4-10.9,12c1.6,8.5,29.5,10.4,62.3,4.1
	c15.9-3.1,30-7.4,40.1-12.1c7.9-3.7,16.6-5.7,25.4-5.7c3.5,0,7,0.7,10.3,2s6.2,3.3,8.7,5.8s4.5,5.4,5.8,8.7
	C340.3,37.9,341,41.4,341,44.9z"/>
<path class="st0" d="M387.4,84.4c-3.6-56.8-22.2-70.8-26.3-35.4c0,0.1-0.1,0.3-0.2,0.4c-0.1,0.1-0.3,0.2-0.4,0.2s-0.3,0-0.4-0.1
	s-0.2-0.2-0.2-0.4c-5.9-26.5-8.3-40.9,21-48.5c0.2-0.1,0.5-0.1,0.7,0c0.2,0,0.4,0.1,0.6,0.3c0.2,0.1,0.3,0.3,0.4,0.5
	s0.2,0.4,0.2,0.7v4.7c0,1,0.3,1.9,0.9,2.7s1.4,1.4,2.3,1.7c47.9,16.8,31.1,40.7,7,74.8c-0.4,0.5-0.9,0.9-1.4,1.1
	c-0.6,0.2-1.2,0.2-1.8,0.1c-0.6-0.2-1.1-0.5-1.5-1C387.7,85.6,387.5,85,387.4,84.4z"/>
<path class="st0" d="M451.7,45.1h-26.3c-0.4,0-0.7-0.1-1-0.4c-0.3-0.3-0.4-0.6-0.4-1v-6.9c3.1,0,6-1.2,8.1-3.4
	c2.2-2.2,3.4-5.1,3.4-8.1h16.1c0.4,0,0.7,0.1,1,0.4s0.4,0.6,0.4,1v17c0,0.4-0.1,0.7-0.4,1C452.4,45,452,45.1,451.7,45.1z"/>
<path class="st0" d="M457.9,60.6c17.2,11.3,23.8,31.4,22.7,33s-15.9-6.1-33.1-17.4s-30.3-21.7-29.2-23.4
	C419.3,51.2,440.7,49.4,457.9,60.6z"/>
</svg>
