<?xml version="1.0" encoding="utf-8"?>
<!-- Generator: Adobe Illustrator 23.1.0, SVG Export Plug-In . SVG Version: 6.00 Build 0)  -->
<svg version="1.1" id="Layer_1" xmlns="http://www.w3.org/2000/svg" xmlns:xlink="http://www.w3.org/1999/xlink" x="0px" y="0px"
	 viewBox="0 0 857 94" style="enable-background:new 0 0 857 94;" xml:space="preserve">
<style type="text/css">
	.st0{fill:none;stroke:#000000;stroke-miterlimit:10;}
</style>
<path class="st0" d="M168.6,30c0,5.8-37.7,10.6-84.3,10.6c-13.4,0-26-0.4-37.2-1.1c0.1,1.3,0.1,2.7,0.1,4.1
	c0,18.6-7.4,33.8-16.5,33.8S14.1,62.2,14.1,43.6c0-2.5,0.1-5.1,0.4-7.6C5.4,34.3,0,32.2,0,30c0-2.4,6.5-4.6,17.3-6.4
	c3-8.4,7.9-13.8,13.3-13.8c4.8,0,9.2,4.2,12.2,11c12.2-0.9,26.4-1.4,41.4-1.4C130.8,19.4,168.6,24.2,168.6,30z"/>
<path class="st0" d="M167.1,49.3H56.8c-0.8,0-1.5,0.7-1.5,1.5v22.1c0,0.8,0.7,1.5,1.5,1.5h110.3c0.8,0,1.5-0.7,1.5-1.5V50.8
	C168.6,50,167.9,49.3,167.1,49.3z"/>
<path class="st0" d="M505.2,83.3c9.3,0,16.8-13.8,16.8-30.8s-7.5-30.8-16.8-30.8c-9.3,0-16.8,13.8-16.8,30.8S495.9,83.3,505.2,83.3z
	"/>
<path class="st0" d="M581.2,46.9c30.8,0,55.8-5,55.8-11.2c0-6.2-25-11.2-55.8-11.2c-30.8,0-55.8,5-55.8,11.2
	C525.4,41.9,550.4,46.9,581.2,46.9z"/>
<path class="st0" d="M587.3,84.2c34.2,0,61.9-7.4,61.9-16.6S621.5,51,587.3,51c-34.2,0-61.9,7.4-61.9,16.6S553.1,84.2,587.3,84.2z"
	/>
<path class="st0" d="M819.8,86.9H672.6c-2.1,0-4.1-0.8-5.6-2.3c-1.5-1.5-2.3-3.5-2.3-5.6V36.4c0-2.1,0.8-4.1,2.3-5.6
	c1.5-1.5,3.5-2.3,5.6-2.3h93c4,0,8,0.8,11.8,2.3c3.7,1.5,7.1,3.8,10,6.7L824.7,75c1,1,1.7,2.2,1.9,3.6c0.3,1.4,0.1,2.8-0.4,4.1
	c-0.5,1.3-1.4,2.4-2.6,3.1C822.5,86.5,821.2,86.9,819.8,86.9z"/>
<path class="st0" d="M810.4,19.2c-3.6-3.6-9.4-3.6-13,0c-3.6,3.6-3.6,9.4,0,13l39.1,39.1c3.6,3.6,9.4,3.6,13,0c3.6-3.6,3.6-9.4,0-13
	L810.4,19.2z"/>
<path class="st0" d="M340.5,44.4v25.5c0,1.4-0.6,2.8-1.6,3.8c-1,1-2.4,1.6-3.8,1.6H193c-0.2,0-0.5-0.1-0.7-0.3
	c-0.2-0.2-0.3-0.4-0.3-0.6c0-0.2,0.1-0.5,0.2-0.7c0.1-0.2,0.4-0.3,0.6-0.4l125.8-20.2c6.3-1.1,8.1-2.3,8-4.7c-0.2-3.8-6.2-4-19-4
	H183.2c-0.5,0-0.9-0.2-1.2-0.5c-0.3-0.3-0.5-0.8-0.5-1.2V19.4c0-0.2,0-0.5,0.1-0.7c0.1-0.2,0.2-0.4,0.4-0.6c0.2-0.2,0.4-0.3,0.6-0.4
	c0.2-0.1,0.4-0.1,0.7-0.1h13.2c0.2,0,0.4,0.1,0.6,0.2c0.2,0.1,0.3,0.3,0.3,0.5s0,0.4,0,0.6c-0.1,0.2-0.2,0.3-0.4,0.4
	c-7.5,4.2-11.7,8.4-10.9,12c1.6,8.5,29.5,10.4,62.3,4.1c15.9-3.1,30-7.4,40.1-12.1c7.9-3.7,16.6-5.7,25.4-5.7c3.5,0,7,0.7,10.3,2
	c3.3,1.3,6.2,3.3,8.7,5.8s4.5,5.4,5.8,8.7C339.8,37.4,340.5,40.9,340.5,44.4z"/>
<path class="st0" d="M386.9,83.9c-3.6-56.8-22.2-70.8-26.3-35.4c0,0.1-0.1,0.3-0.2,0.4c-0.1,0.1-0.3,0.2-0.4,0.2
	c-0.1,0-0.3,0-0.4-0.1c-0.1-0.1-0.2-0.2-0.2-0.4c-5.9-26.5-8.3-40.9,21-48.5c0.2-0.1,0.5-0.1,0.7,0c0.2,0,0.4,0.1,0.6,0.3
	c0.2,0.1,0.3,0.3,0.4,0.5c0.1,0.2,0.2,0.4,0.2,0.7v4.7c0,1,0.3,1.9,0.9,2.7c0.6,0.8,1.4,1.4,2.3,1.7c47.9,16.8,31.1,40.7,7,74.8
	c-0.4,0.5-0.9,0.9-1.4,1.1c-0.6,0.2-1.2,0.2-1.8,0.1c-0.6-0.2-1.1-0.5-1.5-1C387.2,85.1,387,84.5,386.9,83.9z"/>
<path class="st0" d="M451.2,44.6h-26.3c-0.4,0-0.7-0.1-1-0.4c-0.3-0.3-0.4-0.6-0.4-1v-6.9c3.1,0,6-1.2,8.1-3.4
	c2.2-2.2,3.4-5.1,3.4-8.1h16.1c0.4,0,0.7,0.1,1,0.4c0.3,0.3,0.4,0.6,0.4,1v17c0,0.4-0.1,0.7-0.4,1C451.9,44.5,451.5,44.6,451.2,44.6
	z"/>
<path class="st0" d="M457.4,60.1c17.2,11.3,23.8,31.4,22.7,33S464.2,87,447,75.7c-17.2-11.3-30.3-21.7-29.2-23.4
	C418.8,50.7,440.2,48.9,457.4,60.1z"/>
</svg>
