<svg width="1233" height="614" viewBox="0 0 1233 614" fill="none" xmlns="http://www.w3.org/2000/svg">
<path d="M46.576 102.088L38.368 96.04H66.448L74.872 102.088H46.576ZM41.392 8.34401L19.36 166.24L27.568 172.288H75.736L84.16 178.12H90.856V20.44H64.72L56.512 14.392H49.816L41.392 8.34401Z" stroke="black" stroke-linejoin="round"/>
<path d="M151.869 166.24L143.661 172.504C151.005 172.504 157.917 170.128 164.397 167.536L167.637 166.24H151.869ZM120.765 166.24H112.341V172.504L120.765 166.24ZM151.869 7.696L143.661 13.96C161.805 15.904 176.277 32.104 176.277 51.76C176.277 61.48 172.821 70.552 166.773 77.248C174.981 70.336 184.701 57.376 184.701 45.496C184.701 26.056 170.013 9.856 151.869 7.696ZM142.149 90.424C142.149 90.424 151.653 90.424 158.997 93.448C174.333 99.928 185.349 114.616 185.349 132.328C185.349 144.856 179.949 155.872 171.309 163.648C182.109 156.088 193.341 140.536 193.341 126.28C193.341 108.568 182.325 93.664 166.989 87.4C163.749 86.104 160.293 85.456 157.485 85.024C154.245 84.376 150.357 84.376 150.357 84.376L142.149 90.424Z" stroke="black" stroke-linejoin="round"/>
<path d="M271.17 18.712C250.002 33.184 236.178 57.592 236.178 85.024C236.178 119.368 257.346 148.528 287.37 160.408C296.442 164.08 316.53 166.24 316.53 166.24L325.17 159.976C325.17 159.976 304.65 157.6 295.362 153.928C265.554 142.264 244.17 113.104 244.17 78.76C244.17 54.568 254.322 33.4 271.17 18.712ZM325.17 1.864H323.658C312.642 1.864 302.058 4.24 291.906 8.34401H316.53L325.17 1.864Z" stroke="black" stroke-linejoin="round"/>
<path d="M347.15 8.56001L338.51 15.04C338.51 15.04 359.246 17.2 368.534 20.872C398.774 32.968 420.158 62.56 420.158 96.904C420.158 121.312 409.358 143.344 392.51 158.248C413.678 143.56 428.366 118.504 428.366 90.64C428.366 56.08 406.982 26.704 376.742 14.608C367.454 10.936 347.15 8.56001 347.15 8.56001ZM377.39 166.456H347.15L338.51 172.72H346.07C356.438 172.72 366.59 170.776 375.662 167.104L377.39 166.456Z" stroke="black" stroke-linejoin="round"/>
<path d="M482.867 7.912L474.227 13.96H452.195V172.504H474.227L482.867 166.24H554.795V142.912H494.963L503.387 136.648H554.795V76.168H494.963L503.387 69.904H554.795V7.912H482.867Z" stroke="black" stroke-linejoin="round"/>
<path d="M588.535 8.128L580.543 13.96H567.367V166.24H580.543L588.535 160.192H603.655V166.24H652.687V100.576H611.863L620.071 94.528H660.895V73.576H611.863L620.071 67.744H669.103V30.592H660.895V8.128H588.535Z" stroke="black" stroke-linejoin="round"/>
<path d="M796.381 80.488L787.957 87.616V159.976L796.381 152.848V80.488ZM796.381 1L787.957 8.128V36.64L796.381 29.512V1ZM734.173 18.712C713.221 33.184 699.397 57.592 699.397 85.024C699.397 119.368 720.565 148.528 750.373 160.408C759.445 164.08 779.533 166.24 779.533 166.24L787.957 159.976C787.957 159.976 767.437 157.816 758.365 154.144C728.557 142.264 707.389 113.104 707.389 78.76C707.389 54.568 717.325 33.4 734.173 18.712Z" stroke="black" stroke-linejoin="round"/>
<path d="M900.186 8.128H843.378L834.738 14.392V172.504L843.378 166.24H900.186L908.61 159.976H922.65V1.864H908.61L900.186 8.128ZM843.378 99.712L851.802 93.448H908.61L900.186 99.712H843.378Z" stroke="black" stroke-linejoin="round"/>
<path d="M978.432 8.128H935.664V172.72H978.432L987.072 166.456V1.864L978.432 8.128Z" stroke="black" stroke-linejoin="round"/>
<path d="M1089.47 20.872V122.824C1089.47 141.184 1075.43 156.952 1057.28 156.952V166.24L1065.92 173.584V164.08C1081.04 164.08 1098.11 150.04 1098.11 129.952V28L1089.47 20.872ZM1070.67 7.912V20.872H1079.31V15.256L1070.67 7.912Z" stroke="black" stroke-linejoin="round"/>
<path d="M1213.45 7.912H1173.49V1.648H1170.47L1162.04 7.912H1146.06L1137.63 14.392V178.768L1146.06 172.504H1162.04L1170.47 166.024H1197.25V172.504H1214.96L1223.6 166.024L1191.2 74.44L1222.09 1.648L1213.45 7.912ZM1170.47 68.824H1173.49L1165.07 75.088H1162.04L1170.47 68.824Z" stroke="black" stroke-linejoin="round"/>
<path d="M20.224 382.24H69.904V388.288H94.312V230.392H83.296V224.128H20.224L12.016 230.392V388.288L20.224 382.24Z" stroke="black" stroke-linejoin="round"/>
<path d="M146.409 273.808V382.024L154.401 389.152V280.288L146.409 273.808ZM222.009 226.72L214.233 219.592V226.72H222.009ZM121.568 219.592V375.328L129.777 382.024V226.72L121.568 219.592ZM137.769 219.592V226.72H146.409L137.769 219.592Z" stroke="black" stroke-linejoin="round"/>
<path d="M345.149 388.936L354.221 395.848V231.688L345.149 224.992H275.165L256.805 211.384V375.544L265.877 382.24V248.752H275.165L319.661 382.24L328.733 388.936H345.149Z" stroke="black" stroke-linejoin="round"/>
<path d="M523.258 382.24L531.682 389.368C535.57 387.208 539.026 384.832 542.482 382.24H523.258ZM444.634 224.128C413.53 237.952 391.93 268.84 391.93 304.912C391.93 334.072 405.97 359.992 427.786 376.192C410.938 359.992 400.354 337.312 400.354 312.04C400.354 275.968 421.954 245.08 453.058 231.256L444.634 224.128ZM524.554 231.256C530.386 233.848 536.002 237.088 541.186 240.976C533.842 234.064 525.418 228.232 515.914 224.128L524.554 231.256Z" stroke="black" stroke-linejoin="round"/>
<path d="M624.12 209.872L606.624 224.56H596.688V389.584H606.624L615.479 382.24V308.152L624.12 300.808V209.872ZM683.304 382.24H674.664V389.584L683.304 382.24Z" stroke="black" stroke-linejoin="round"/>
<path d="M744.889 382.24C748.129 384.832 751.801 387.208 755.689 389.368L764.113 382.24H744.889ZM771.241 224.128C761.953 228.232 753.529 233.848 746.185 240.976C751.369 237.088 756.985 233.848 762.817 231.256L771.241 224.128ZM917.257 224.128H842.953L834.313 231.256C865.417 244.864 887.017 275.968 887.017 312.04C887.017 342.496 873.193 362.152 873.193 362.152C869.305 367.12 864.985 371.656 864.985 371.656L895.009 400.384L903.649 390.016H917.257V224.128Z" stroke="black" stroke-linejoin="round"/>
<path d="M951.132 224.128L942.708 230.392V300.592L951.132 294.328H958.908L967.332 288.064H999.948V242.056C999.948 232.336 997.356 224.128 984.612 224.128H951.132ZM994.116 294.328L985.476 300.592H942.708V388.72L951.132 382.456H991.524L993.036 388.72H1007.29L1015.72 382.456L994.116 294.328Z" stroke="black" stroke-linejoin="round"/>
<path d="M1085.06 224.128L1075.99 216.568C1075.99 216.568 1063.03 233.632 1063.03 259.336C1063.03 292.816 1083.98 307.072 1083.98 334.504C1083.98 358.48 1064.76 382.24 1064.76 382.24L1073.83 389.8H1121.14V224.128H1085.06Z" stroke="black" stroke-linejoin="round"/>
<path d="M1167.85 236.872V382.24L1176.71 389.584V244.216L1167.85 236.872ZM1142.8 217V236.872H1151.65V224.344L1142.8 217ZM1207.16 382.24H1198.31L1207.16 389.584V382.24Z" stroke="black" stroke-linejoin="round"/>
<path d="M1 426.088V601.696H63.424V598.24H83.512C102.304 597.16 116.992 581.176 116.992 562.168V440.344H42.688L33.184 433.216H22.384L12.88 426.088H1Z" stroke="black" stroke-linejoin="round"/>
<path d="M129.883 433.432V591.76H166.819L175.675 598.24H192.523L201.379 604.72L227.083 446.608L218.227 440.128H149.971L141.115 433.432H129.883Z" stroke="black" stroke-linejoin="round"/>
<path d="M395.556 446.176H326.652L318.228 452.44H264.444L256.02 458.704H248.028V598.456H288.636L305.484 585.928H308.076L307.212 592.192H355.38L363.804 585.928H374.172L382.812 579.664L404.196 439.912L395.556 446.176ZM283.668 574.696H299.652L291.228 580.96H275.028L283.668 574.696ZM335.292 456.76H343.5L335.076 463.024H333.132L335.292 456.76Z" stroke="black" stroke-linejoin="round"/>
<path d="M518.894 604.504H534.23V446.392H514.79L506.15 440.128L485.414 515.296H477.206L455.39 440.128L446.75 433.864H426.878V591.976H446.75L455.39 598.24H510.254L518.894 604.504Z" stroke="black" stroke-linejoin="round"/>
<path d="M661.813 433.648L652.957 440.128L613.213 508.816L572.605 440.128L563.965 446.392H548.629V611.2H604.573L621.853 598.456H668.509V433.648H661.813Z" stroke="black" stroke-linejoin="round"/>
<path d="M757.079 453.736L681.695 568V598.24L701.351 612.712V594.568L691.631 587.44V575.344L767.015 461.08L757.079 453.736Z" stroke="black" stroke-linejoin="round"/>
<path d="M41.392 8.34401H1V166.24H19.36L27.568 172.288L36.424 109H45.496L46.576 102.088L38.368 96.04L49.816 14.392L41.392 8.34401ZM76.384 115.048L67.96 109L75.736 172.288L84.16 178.12L76.384 115.048ZM74.872 102.088L64.72 20.44L56.512 14.392L66.448 96.04L74.872 102.088Z" stroke="black" stroke-linejoin="round"/>
<path d="M151.869 7.696L143.661 13.96H120.765V7.696H104.781V166.24H112.341V172.504H144.741C151.221 172.504 162.021 168.832 167.637 166.24H205.869V7.696H151.869Z" stroke="black" stroke-linejoin="round"/>
<path d="M325.17 1.864H323.658C312.642 1.864 302.058 4.24 291.906 8.34401H218.898V166.24H316.53L325.17 159.976V1.864Z" stroke="black" stroke-linejoin="round"/>
<path d="M439.166 8.56001H346.718L338.078 14.824V172.72H345.638C356.006 172.72 366.158 170.56 375.23 166.888L376.958 166.24H439.166V8.56001Z" stroke="black" stroke-linejoin="round"/>
<path d="M474.227 13.96V172.504L482.867 166.24V7.912L474.227 13.96ZM494.963 30.808V76.168L503.387 69.904V30.808H494.963ZM494.963 97.768V142.912L503.387 136.648V97.768H494.963Z" stroke="black" stroke-linejoin="round"/>
<path d="M580.543 13.96V166.24L588.535 160.192V8.128L580.543 13.96ZM611.863 36.424V73.576L620.071 67.744V30.376L611.863 36.424ZM603.655 160.192V166.24L611.863 160.192H603.655Z" stroke="black" stroke-linejoin="round"/>
<path d="M763.981 87.616L772.405 80.488H796.381L787.957 87.616H763.981ZM808.045 1H796.381L787.957 8.128H682.117V166.24H779.533L787.957 159.976L796.381 152.848H808.045V1Z" stroke="black" stroke-linejoin="round"/>
<path d="M834.738 14.392H820.914V172.504H834.738L843.378 166.24V99.712L851.802 93.448V68.608L843.378 74.872V8.128L834.738 14.392ZM900.402 8.128V69.04H908.826V1.864L900.402 8.128ZM900.402 99.712V166.24L908.826 159.976V93.448L900.402 99.712Z" stroke="black" stroke-linejoin="round"/>
<path d="M987.072 166.456H1030.27V1.864H987.072L978.432 8.128V172.72L987.072 166.456Z" stroke="black" stroke-linejoin="round"/>
<path d="M1070.67 7.912H1043.24V166.24H1057.28L1065.92 173.584H1111.28V15.256H1079.31L1070.67 7.912Z" stroke="black" stroke-linejoin="round"/>
<path d="M1197.25 166.024V172.504L1205.67 166.024H1197.25ZM1162.04 7.912V75.088L1170.47 68.824V1.648L1162.04 7.912ZM1222.09 1.648L1213.45 7.912L1182.56 80.704L1214.96 172.504L1223.6 166.024H1232.03V1.648H1222.09ZM1146.06 7.912L1137.63 14.392H1124.03V178.768H1137.63L1146.06 172.504V7.912ZM1162.04 172.504L1170.47 166.024V103.168L1162.04 109.432V172.504Z" stroke="black" stroke-linejoin="round"/>
<path d="M12.016 230.392H1.216V388.288H12.016L20.224 382.24V224.128L12.016 230.392ZM69.904 382.24V388.288L78.112 382.24H69.904Z" stroke="black" stroke-linejoin="round"/>
<path d="M184.209 302.104L176.001 295.624L205.809 273.808L214.233 280.288L184.209 302.104ZM137.769 219.592V226.72H129.777L121.568 219.592H112.28V375.328H121.568L129.777 382.024H146.409L154.401 389.152H205.809V382.024H222.009V219.592H214.233V226.72H205.809L176.001 248.536L167.793 241.624L197.817 219.592H137.769Z" stroke="black" stroke-linejoin="round"/>
<path d="M345.365 388.936L354.437 395.848H367.613V231.688H354.437L345.365 224.992V388.936ZM241.469 211.384V375.544H257.021L266.093 382.24H319.877L328.949 388.936L284.453 255.448L275.381 248.752V224.992L257.021 211.384H241.469Z" stroke="black" stroke-linejoin="round"/>
<path d="M488.698 223.696C476.17 223.696 463.858 226.504 453.058 231.256L444.634 224.128H380.266V382.24H435.13C450.034 393.472 468.61 400.6 488.698 400.6C504.25 400.6 518.938 396.496 531.682 389.368L523.258 382.24H583.738V224.128H515.914L524.554 231.256C513.538 226.504 501.442 223.696 488.698 223.696Z" stroke="black" stroke-linejoin="round"/>
<path d="M683.304 224.56V222.832C683.304 221.968 683.304 221.536 683.088 220.672C682.008 213.544 675.96 209.872 668.4 209.872H624.12L606.624 224.56V389.584L615.479 382.24H674.664V389.584H690.648V224.56H683.304ZM615.479 308.152L624.12 300.808H668.4C675.96 300.808 682.008 294.976 683.088 287.848C683.304 287.2 683.304 286.336 683.304 285.472V292.816C683.304 293.68 683.304 294.544 683.088 295.192C682.008 302.536 675.96 308.152 668.4 308.152H615.479Z" stroke="black" stroke-linejoin="round"/>
<path d="M798.673 223.696C785.929 223.696 773.833 226.504 762.817 231.256C756.985 233.848 751.369 237.088 746.185 240.976C753.529 233.848 761.953 228.232 771.241 224.128H703.633V382.24H744.889C748.345 384.832 751.801 387.208 755.689 389.368C768.433 396.496 782.905 400.384 798.673 400.384C818.761 400.384 858.073 400.384 858.073 400.384H895.009L903.649 390.016L873.193 362.152C886.585 346.816 895.441 326.944 895.441 304.912C895.441 268.84 874.057 237.736 842.953 224.128L834.313 231.256C823.297 226.504 811.201 223.696 798.673 223.696Z" stroke="black" stroke-linejoin="round"/>
<path d="M958.908 232.984V294.328L967.332 288.064V232.984H958.908ZM985.476 300.592L1007.29 388.72L1015.72 382.456L994.116 294.328L985.476 300.592ZM942.708 230.392H930.396V388.72H942.708L951.132 382.456V318.52H942.708V300.592L951.132 294.328V224.128L942.708 230.392Z" stroke="black" stroke-linejoin="round"/>
<path d="M1075.99 216.568H1028.69V382.24H1064.76L1073.83 389.8C1073.83 389.8 1075.56 387.64 1078.15 383.752C1082.47 376.84 1089.17 365.392 1092.62 352.864C1094.14 347.68 1095.22 342.28 1095.22 336.88C1095.22 328.456 1094.14 321.544 1092.62 315.712C1087.22 294.112 1074.26 285.472 1074.26 259.336C1074.26 240.544 1085.06 224.128 1085.06 224.128L1075.99 216.568Z" stroke="black" stroke-linejoin="round"/>
<path d="M1227.9 217H1219.26V224.344H1151.65L1142.8 217H1134.16V382.24H1167.85L1176.71 389.584H1207.16V382.24H1227.9V217Z" stroke="black" stroke-linejoin="round"/>
<path d="M33.184 587.44C35.992 588.952 39.016 590.032 42.688 590.68V440.344L33.184 433.216V587.44ZM12.88 555.472C12.88 562.6 15.256 568.432 17.632 572.752C19.144 575.344 20.656 577.504 22.384 579.448V433.216L12.88 426.088V555.472ZM63.424 598.24H73.144L63.424 591.112V598.24Z" stroke="black" stroke-linejoin="round"/>
<path d="M166.819 591.76L175.675 598.24L149.971 440.128L141.115 433.432L166.819 591.76ZM192.523 598.24L201.379 604.72H234.211V446.608H227.083L218.227 440.128L192.523 598.24Z" stroke="black" stroke-linejoin="round"/>
<path d="M256.02 458.704L275.028 580.96L283.668 574.696L264.444 452.44L256.02 458.704ZM335.076 463.024L355.38 592.192L363.804 585.928L343.5 456.76L335.076 463.024ZM318.228 452.44L299.652 574.696L291.228 580.96L288.636 598.456L305.484 585.928L326.652 446.176L318.228 452.44ZM308.076 585.928L307.212 592.192L315.636 585.928H308.076ZM404.196 439.912L395.556 446.176L374.172 585.928L382.812 579.664H413.268V439.912H404.196Z" stroke="black" stroke-linejoin="round"/>
<path d="M468.566 509.032L446.75 591.976L455.39 598.24L477.206 515.296H485.414L510.254 598.24L518.894 604.504L493.838 521.776L514.79 446.392L506.15 440.128H455.39L446.75 433.864L468.566 509.032Z" stroke="black" stroke-linejoin="round"/>
<path d="M652.957 440.128H572.605L563.965 446.392L604.573 515.296V611.2L621.853 598.456V502.552L661.813 433.648L652.957 440.128Z" stroke="black" stroke-linejoin="round"/>
<path d="M769.175 446.608V431.272H671.759V446.608H769.175ZM788.831 587.44V461.08H767.015L757.079 453.736H681.695V598.24L701.351 612.712H788.831V594.568H701.351L691.631 587.44H788.831Z" stroke="black" stroke-linejoin="round"/>
</svg>
