<?xml version="1.0" encoding="utf-8"?>
<!-- Generator: Adobe Illustrator 22.0.1, SVG Export Plug-In . SVG Version: 6.00 Build 0)  -->
<svg version="1.1" id="Layer_1" xmlns="http://www.w3.org/2000/svg" xmlns:xlink="http://www.w3.org/1999/xlink" x="0px" y="0px"
	 viewBox="0 0 852 424" style="enable-background:new 0 0 852 424;" xml:space="preserve">
<style type="text/css">
	.st0{fill:none;stroke:#000000;stroke-miterlimit:10;}
</style>
<g id="abc1" class="st0">
	<path stroke-linejoin="round" d="M29.3,6.1H1.5V115h12.7l5.7,4.2L26,75.5h6.3l0.7-4.8l-5.7-4.2l7.9-56.3L29.3,6.1z M53.5,79.7l-5.8-4.2l5.4,43.7l5.8,4L53.5,79.7z M52.4,70.7l-7-56.3l-5.7-4.2l6.9,56.3L52.4,70.7z"/>
	<path stroke-linejoin="round" d="M105.5,5.6L99.9,10H84.1V5.6h-11V115h5.2v4.3h22.4c4.5,0,11.9-2.5,15.8-4.3h26.4V5.6H105.5z"/>
	<path stroke-linejoin="round" d="M225.1,1.6h-1c-7.6,0-14.9,1.6-21.9,4.5h-50.4V115h67.3l6-4.3L225.1,1.6L225.1,1.6z"/>
	<path stroke-linejoin="round" d="M303.7,6.2H240l-6,4.3v108.9h5.2c7.2,0,14.2-1.5,20.4-4l1.2-0.4h42.9V6.2z"/>
	<path stroke-linejoin="round" d="M327.9,10v109.4l6-4.3V5.8L327.9,10z M342.2,21.6v31.3l5.8-4.3v-27C348,21.6,342.2,21.6,342.2,21.6zM342.2,67.8v31.1l5.8-4.3V67.8H342.2z"/>
	<path stroke-linejoin="round" d="M401.2,10v105l5.5-4.2V5.9L401.2,10z M422.9,25.5v25.6l5.7-4V21.3L422.9,25.5z M417.2,110.8v4.2l5.7-4.2H417.2z"/>
	<path stroke-linejoin="round" d="M527.8,60.8l5.8-4.9h16.5l-5.8,4.9H527.8z M558.2,1h-8l-5.8,4.9h-73V115h67.2l5.8-4.3l5.8-4.9h8V1z"/>
	<path stroke-linejoin="round" d="M576.6,10.3h-9.5v109.1h9.5l6-4.3v-46l5.8-4.3V47.7l-5.8,4.3V6L576.6,10.3z M621.9,5.9v42h5.8V1.6L621.9,5.9zM621.9,69.1V115l5.8-4.3V64.8L621.9,69.1z"/>
	<path stroke-linejoin="round" d="M681.7,115.1h29.8V1.6h-29.8l-6,4.3v113.5L681.7,115.1z"/>
	<path stroke-linejoin="round" d="M739.3,5.8h-18.9V115h9.7l6,5.1h31.3V10.8h-22.1L739.3,5.8z"/>
	<path stroke-linejoin="round" d="M826.7,114.9v4.5l5.8-4.5H826.7z M802.4,5.8v46.3l5.8-4.3V1.5L802.4,5.8z M843.8,1.5l-6,4.3L816.5,56l22.3,63.3l6-4.5h5.8V1.5H843.8z M791.3,5.8l-5.8,4.5h-9.4v113.4h9.4l5.8-4.3V5.8z M802.4,119.3l5.8-4.5V71.5l-5.8,4.3V119.3z"/>
	<path stroke-linejoin="round" d="M9.1,159.3H1.6v108.9h7.5l5.7-4.2V154.9L9.1,159.3z M49,264v4.2l5.7-4.2H49z"/>
	<path stroke-linejoin="round" d="M127.9,208.7l-5.7-4.5l20.6-15l5.8,4.5L127.9,208.7z M95.8,151.8v4.9h-5.5l-5.7-4.9h-6.4v107.4h6.4l5.7,4.6h11.5l5.5,4.9h35.5v-4.9H154v-112h-5.4v4.9h-5.8l-20.6,15l-5.7-4.8l20.7-15.2L95.8,151.8L95.8,151.8z"/>
	<path stroke-linejoin="round" d="M239,268.6l6.3,4.8h9.1V160.1h-9.1l-6.3-4.6V268.6z M167.4,146.1v113.2h10.7l6.3,4.6h37.1l6.3,4.6l-30.8-92l-6.3-4.6v-16.4l-12.7-9.4H167.4z"/>
	<path stroke-linejoin="round" d="M337.9,154.6c-8.6,0-17.1,1.9-24.6,5.2l-5.8-4.9h-44.4V264h37.8c10.3,7.7,23.1,12.7,37,12.7c10.7,0,20.9-2.8,29.7-7.7l-5.8-4.9h41.7V154.9h-46.8l6,4.9C355,156.6,346.7,154.6,337.9,154.6z"/>
	<path stroke-linejoin="round" d="M472.1,155.2V154c0-0.6,0-0.9-0.1-1.5c-0.7-4.9-4.9-7.4-10.1-7.4h-30.5l-12.1,10.1V269l6.1-5.1h40.8v5.1h11V155.2H472.1z M425.3,212.9l6-5.1h30.5c5.2,0,9.4-4,10.1-8.9c0.1-0.4,0.1-1,0.1-1.6v5.1c0,0.6,0,1.2-0.1,1.6c-0.7,5.1-4.9,8.9-10.1,8.9H425.3z"/>
	<path stroke-linejoin="round" d="M551.7,154.6c-8.8,0-17.1,1.9-24.7,5.2c-4,1.8-7.9,4-11.5,6.7c5.1-4.9,10.9-8.8,17.3-11.6h-46.6V264h28.5c2.4,1.8,4.8,3.4,7.4,4.9c8.8,4.9,18.8,7.6,29.7,7.6c13.9,0,41,0,41,0h25.5l6-7.2l-21-19.2c9.2-10.6,15.3-24.3,15.3-39.5c0-24.9-14.8-46.3-36.2-55.7l-6,4.9C568.7,156.6,560.4,154.6,551.7,154.6z"/>
	<path stroke-linejoin="round" d="M662.3,161v42.3l5.8-4.3v-38H662.3z M680.6,207.7l15,60.8l5.8-4.3l-14.9-60.8L680.6,207.7z M651.1,159.3h-8.5v109.2h8.5l5.8-4.3V220h-5.8v-12.4l5.8-4.3v-48.4L651.1,159.3z"/>
	<path stroke-linejoin="round" d="M743,149.7h-32.6V264h24.9l6.3,5.2c0,0,1.2-1.5,3-4.2c3-4.8,7.6-12.7,10-21.3c1-3.6,1.8-7.3,1.8-11c0-5.8-0.7-10.6-1.8-14.6c-3.7-14.9-12.7-20.9-12.7-38.9c0-13,7.5-24.3,7.5-24.3L743,149.7z"/>
	<path stroke-linejoin="round" d="M847.8,150h-6v5.1h-46.6l-6.1-5.1h-6v114h23.2l6.1,5.1h21V264h14.3L847.8,150L847.8,150z"/>
	<path stroke-linejoin="round" d="M23.7,405.5c1.9,1,4,1.8,6.6,2.2V304.1l-6.6-4.9V405.5z M9.7,383.5c0,4.9,1.6,8.9,3.3,11.9c1,1.8,2.1,3.3,3.3,4.6V299.2l-6.6-4.9C9.7,294.3,9.7,383.5,9.7,383.5z M44.5,413h6.7l-6.7-4.9V413z"/>
	<path stroke-linejoin="round" d="M115.9,408.5l6.1,4.5l-17.7-109.1l-6.1-4.6L115.9,408.5z M133.6,413l6.1,4.5h22.6V308.4h-4.9l-6.1-4.5L133.6,413z"/>
	<path stroke-linejoin="round" d="M177.4,316.7l13.1,84.3l6-4.3l-13.3-84.3L177.4,316.7z M231.9,319.7l14,89.1l5.8-4.3l-14-89.1L231.9,319.7zM220.3,312.4l-12.8,84.3l-5.8,4.3l-1.8,12.1l11.6-8.6l14.6-96.4L220.3,312.4z M213.3,404.5l-0.6,4.3l5.8-4.3H213.3z M279.6,303.8l-6,4.3l-14.8,96.4l6-4.3h21v-96.4H279.6z"/>
	<path stroke-linejoin="round" d="M324,351.5l-15,57.2l6,4.3l15-57.2h5.7l17.1,57.2l6,4.3l-17.3-57.1l14.5-52l-6-4.3h-35l-6-4.3L324,351.5z"/>
	<path stroke-linejoin="round" d="M451.2,303.9h-55.4l-6,4.3l28,47.5v66.2l11.9-8.8V347l27.6-47.5L451.2,303.9z"/>
	<path stroke-linejoin="round" d="M531.4,308.4v-10.6h-67.2v10.6H531.4z M544.9,405.5v-87.2h-15l-6.9-5.1h-52V413l13.6,10h60.3v-12.5h-60.3l-6.7-4.9h67V405.5z"/>
</g>
<g id="abc2" class="st0">
	<path stroke-linejoin="round" d="M32.9,70.7l-5.7-4.2h19.4l5.8,4.2H32.9z M29.3,6.1L14.1,115l5.7,4.2H53l5.8,4h4.6V14.4h-18l-5.7-4.2h-4.6L29.3,6.1z"/>
	<path stroke-linejoin="round" d="M105.5,115l-5.7,4.3c5.1,0,9.8-1.6,14.3-3.4l2.2-0.9H105.5z M84.1,115h-5.8v4.3L84.1,115z M105.5,5.6L99.9,10c12.5,1.3,22.5,12.5,22.5,26.1c0,6.7-2.4,13-6.6,17.6c5.7-4.8,12.4-13.7,12.4-21.9C128.2,18.3,118.1,7.1,105.5,5.6z M98.8,62.7c0,0,6.6,0,11.6,2.1c10.6,4.5,18.2,14.6,18.2,26.8c0,8.6-3.7,16.2-9.7,21.6c7.4-5.2,15.2-15.9,15.2-25.8c0-12.2-7.6-22.5-18.2-26.8c-2.2-0.9-4.6-1.3-6.6-1.6c-2.2-0.4-4.9-0.4-4.9-0.4L98.8,62.7z"/>
	<path stroke-linejoin="round" d="M187.8,13.2c-14.6,10-24.1,26.8-24.1,45.7c0,23.7,14.6,43.8,35.3,52c6.3,2.5,20.1,4,20.1,4l6-4.3c0,0-14.2-1.6-20.6-4.2c-20.6-8-35.3-28.2-35.3-51.9C169.2,38,176.2,23.4,187.8,13.2z M225.1,1.6h-1c-7.6,0-14.9,1.6-21.9,4.5h17L225.1,1.6z"/>
	<path stroke-linejoin="round" d="M240.3,6.2l-6,4.5c0,0,14.3,1.5,20.7,4c20.9,8.3,35.6,28.8,35.6,52.4c0,16.8-7.5,32-19.1,42.3c14.6-10.1,24.7-27.4,24.7-46.6c0-23.8-14.8-44.1-35.6-52.4C254.3,7.9,240.3,6.2,240.3,6.2z M261.1,115.1h-20.9l-6,4.3h5.2c7.2,0,14.2-1.3,20.4-3.9L261.1,115.1z"/>
	<path stroke-linejoin="round" d="M333.9,5.8l-6,4.2h-15.2v109.4h15.2l6-4.3h43.5V98.9h-35.2l5.8-4.3h35.2V63.4l-5.8,4.3V52.9h-35.2l5.8-4.3h35.2V17.3l-5.8,4.3V5.8H333.9z"/>
	<path stroke-linejoin="round" d="M406.8,5.9l-5.5,4h-9.1v105h9.1l5.5-4.2h10.4v4.2H451V69.7h-28.2l5.7-4.2h28.2V51.1h-33.8l5.7-4h33.8V21.4h-5.7V5.9H406.8z"/>
	<path stroke-linejoin="round" d="M550.1,55.8l-5.8,4.9v49.9l5.8-4.9V55.8z M550.1,1l-5.8,4.9v19.7l5.8-4.9V1z M507.2,13.2c-14.5,10-24,26.8-24,45.7c0,23.7,14.6,43.8,35.2,52c6.3,2.5,20.1,4,20.1,4l5.8-4.3c0,0-14.2-1.5-20.4-4c-20.6-8.2-35.2-28.3-35.2-52C488.7,38,495.6,23.4,507.2,13.2z"/>
	<path stroke-linejoin="round" d="M621.7,5.9h-39.2l-6,4.3v109.1l6-4.3h39.2l5.8-4.3h9.7V1.6h-9.7L621.7,5.9z M582.6,69.1l5.8-4.3h39.2l-5.8,4.3H582.6z"/>
	<path stroke-linejoin="round" d="M675.7,5.9h-29.5v113.5h29.5l6-4.3V1.6L675.7,5.9z"/>
	<path stroke-linejoin="round" d="M752.3,14.7V85c0,12.7-9.7,23.5-22.2,23.5v6.4l6,5.1v-6.6c10.4,0,22.2-9.7,22.2-23.5V19.6L752.3,14.7zM739.3,5.8v8.9h6v-3.9L739.3,5.8z"/>
	<path stroke-linejoin="round" d="M837.8,5.8h-27.6V1.5h-2.1l-5.8,4.3h-11l-5.8,4.5v113.4l5.8-4.3h11l5.8-4.5h18.5v4.5h12.2l6-4.5l-22.4-63.2l21.3-50.2L837.8,5.8z M808.2,47.8h2.1l-5.8,4.3h-2.1L808.2,47.8z"/>
	<path stroke-linejoin="round" d="M14.7,264H49v4.2h16.8V159.3h-7.6V155H14.7L9,159.3v108.9L14.7,264z"/>
	<path stroke-linejoin="round" d="M101.8,189.2v74.6l5.5,4.9v-75.1L101.8,189.2z M153.9,156.7l-5.4-4.9v4.9H153.9z M84.6,151.8v107.4l5.7,4.6V156.7L84.6,151.8z M95.8,151.8v4.9h6L95.8,151.8z"/>
	<path stroke-linejoin="round" d="M238.9,268.6l6.3,4.8V160.1l-6.3-4.6h-48.3l-12.7-9.4v113.2l6.3,4.6v-92.1h6.4l30.7,92.1l6.3,4.6h11.3V268.6z"/>
	<path stroke-linejoin="round" d="M361.7,264l5.8,4.9c2.7-1.5,5.1-3.1,7.5-4.9H361.7z M307.5,154.9c-21.5,9.5-36.4,30.8-36.4,55.7c0,20.1,9.7,38,24.7,49.2C284.3,248.7,277,233,277,215.6c0-24.9,14.9-46.2,36.4-55.7L307.5,154.9z M362.6,159.8c4,1.8,7.9,4,11.5,6.7c-5.1-4.8-10.9-8.8-17.4-11.6L362.6,159.8z"/>
	<path stroke-linejoin="round" d="M431.3,145.1l-12.1,10.1h-6.9V269h6.9l6.1-5.1v-51.1l6-5.1V145.1z M472.1,264h-6v5.1L472.1,264z"/>
	<path stroke-linejoin="round" d="M514.6,264c2.2,1.8,4.8,3.4,7.4,4.9l5.8-4.9H514.6z M532.8,154.9c-6.4,2.8-12.2,6.7-17.3,11.6c3.6-2.7,7.5-4.9,11.5-6.7L532.8,154.9z M633.5,154.9h-51.3l-6,4.9c21.5,9.4,36.4,30.8,36.4,55.7c0,21-9.5,34.6-9.5,34.6c-2.7,3.4-5.7,6.6-5.7,6.6l20.7,19.8l6-7.2h9.4L633.5,154.9L633.5,154.9z"/>
	<path stroke-linejoin="round" d="M656.9,154.9l-5.8,4.3v48.4l5.8-4.3h5.4l5.8-4.3h22.5v-31.7c0-6.7-1.8-12.4-10.6-12.4L656.9,154.9L656.9,154.9z M686.5,203.4l-6,4.3H651v60.8l5.8-4.3h27.9l1,4.3h9.8l5.8-4.3L686.5,203.4z"/>
	<path stroke-linejoin="round" d="M749.3,154.9l-6.3-5.2c0,0-8.9,11.8-8.9,29.5c0,23.1,14.5,32.9,14.5,51.9c0,16.5-13.3,32.9-13.3,32.9l6.3,5.2h32.6V154.9H749.3z"/>
	<path stroke-linejoin="round" d="M806.4,163.7V264l6.1,5.1V168.8L806.4,163.7z M789.1,150v13.7h6.1v-8.6L789.1,150z M833.5,264h-6.1l6.1,5.1V264z"/>
	<path stroke-linejoin="round" d="M1.5,294.2v121.1h43.1V413h13.9c13-0.7,23.1-11.8,23.1-24.9v-84H30.2l-6.6-4.9h-7.4l-6.6-4.9H1.5V294.2z"/>
	<path stroke-linejoin="round" d="M90.4,299.3v109.2h25.5l6.1,4.5h11.6l6.1,4.5l17.7-109.1l-6.1-4.5h-47.1l-6.1-4.6H90.4z"/>
	<path stroke-linejoin="round" d="M273.6,308.1h-47.5l-5.8,4.3h-37.1l-5.8,4.3h-5.5v96.4h28l11.6-8.6h1.8l-0.6,4.3h33.2l5.8-4.3h7.2l6-4.3l14.8-96.4L273.6,308.1z M196.5,396.8h11l-5.8,4.3h-11.2L196.5,396.8z M232.1,315.4h5.7l-5.8,4.3h-1.3L232.1,315.4z"/>
	<path stroke-linejoin="round" d="M358.7,417.3h10.6v-109h-13.4l-6-4.3l-14.3,51.9H330L315,304l-6-4.3h-13.7v109.1H309l6,4.3h37.8L358.7,417.3z"/>
	<path stroke-linejoin="round" d="M457.3,299.5l-6.1,4.5l-27.4,47.4l-28-47.4l-6,4.3h-10.6V422h38.6l11.9-8.8h32.2V299.5H457.3z"/>
	<path stroke-linejoin="round" d="M523,313.3l-52,78.8V413l13.6,10v-12.5l-6.7-4.9v-8.3l52-78.8L523,313.3z"/>
</g>
</svg>
