<svg width="1232" height="1284" viewBox="0 0 1232 1284" fill="none" xmlns="http://www.w3.org/2000/svg" xmlns:xlink="http://www.w3.org/1999/xlink">
<path d="M355.699 1043.19L355.699 295.567L777.873 295.567L777.873 525.652L737.072 525.652L720.447 513.408L621.734 513.408L605.109 501.164L567.064 501.164L567.535 660.274L577.316 671.829L577.368 741.59L586.163 753.399L586.163 844.876L594.864 856.686L594.864 899.173L607.236 915.838L544.201 1043.19L355.699 1043.19Z" fill="white"/>
<path d="M567.6 518.81L567.6 293.548L355.699 293.548L355.699 518.81L567.6 518.81Z" fill="#FF156E"/>
<path d="M355.408 19.271L355.713 19.496L355.408 19.271Z" fill="#FF156E"/>
<path d="M469.018 34.8172L444.29 34.8172L438.715 30.7101L433.731 27.0438L365.963 27.0438L355.711 19.4982L355.407 19.2719L355.407 19.2711L355.406 19.2711L355.403 19.2695L355.404 19.2711L336.36 19.2711L336.36 214.402L360.513 214.402L360.513 214.398L362.517 215.881L371.065 222.173L433.731 222.173L444.288 229.945L444.289 229.948L469.018 229.948L469.018 34.8172Z" fill="#FF156E"/>
<g style="mix-blend-mode:multiply">
<path d="M542.869 504.278L532.317 496.504L505.377 403.622L532.317 301.375L537.293 305.041L542.869 309.141L515.945 411.357L542.869 504.278Z" fill="#3FFFD1"/>
</g>
<g style="mix-blend-mode:multiply">
<path d="M495.354 403.622L469.644 496.503L461.095 490.203L459.092 488.729L484.794 395.848L453.989 293.6L454.289 293.82L464.541 301.374L495.354 403.622Z" fill="#3FFFD1"/>
</g>
<g style="mix-blend-mode:multiply" opacity="0.41">
<rect x="1231.63" y="724.945" width="148.357" height="294.131" transform="rotate(90 1231.63 724.945)" fill="url(#pattern0)"/>
</g>
<path d="M1203.23 753.398L991.252 787.929L982.551 776.119L965.93 787.929L965.93 810.34L1203.23 844.875L1203.23 753.398Z" fill="url(#paint0_linear)"/>
<path d="M1180.46 148.29L1180.46 90.9092L1134.27 90.9092L1128.65 144.278C1126.53 150.84 1122.79 156.762 1117.77 161.494C1122.79 156.763 1126.53 150.842 1128.65 144.279C1126.79 155.501 1120.4 171.367 1109.6 177.89C1091.79 188.657 1069.35 184.647 1057.52 169.238L1047.65 179.039L1098.2 229.944L1180.46 148.29Z" fill="white"/>
<g style="mix-blend-mode:multiply">
<path d="M1109.6 177.893C1120.4 171.37 1126.8 155.501 1128.65 144.283C1126.53 150.845 1122.79 156.766 1117.77 161.497C1115.59 163.566 1113.19 165.394 1110.61 166.951C1092.8 177.714 1070.36 173.706 1058.53 158.298L1058.29 160.962L1057.71 167.248L1057.52 169.241C1069.35 184.65 1091.79 188.661 1109.6 177.893Z" fill="#FF156E"/>
</g>
<g style="mix-blend-mode:multiply">
<path d="M594.928 889.324L760.942 889.324L769.43 882.173L769.43 712.443L777.938 712.443L777.937 1043.19L745.016 1043.19L736.509 1050.34L706.853 1050.34L706.856 1043.19L542.868 1043.19L607.236 915.837L594.864 899.173L594.928 889.324Z" fill="#3FFFD1"/>
</g>
<g style="mix-blend-mode:multiply">
<path d="M745.015 1043.19L736.508 1050.34L736.508 908.654L745.016 901.502L745.015 1043.19Z" fill="#FF156E"/>
</g>
<g style="mix-blend-mode:multiply">
<path d="M769.43 901.503L760.922 901.503L760.943 889.325L769.43 882.174L769.43 901.503Z" fill="#FF156E"/>
</g>
<g style="mix-blend-mode:multiply">
<path d="M715.361 1043.19L706.854 1050.34L706.857 1043.19L715.361 1043.19Z" fill="#FF156E"/>
</g>
<path d="M556.095 1089.29C556.095 1090.31 557.672 1090.25 557.672 1089.24C557.672 1088.22 556.095 1088.28 556.095 1089.29Z" fill="white"/>
<path d="M567.6 566.262L650.289 572.146L645.871 554.661L567.6 549.092L567.6 566.262Z" fill="#FF156E"/>
<g style="mix-blend-mode:multiply">
<path d="M567.6 566.262L650.289 572.146L645.871 554.661L567.6 549.092L567.6 566.262Z" fill="#3FFFD1"/>
</g>
<path d="M650.289 572.146L567.599 657.28L567.6 566.263L650.289 572.146Z" fill="white"/>
<g style="mix-blend-mode:multiply">
<path d="M365.479 686.095L355.764 674.539C355.764 674.539 377.666 657.981 410.522 657.981C453.176 657.981 471.605 684.883 506.707 684.883C537.195 684.883 567.602 660.274 567.602 660.274L577.318 671.828C577.318 671.828 575.516 673.196 572.396 675.303C575.516 673.211 577.318 671.828 577.318 671.828L577.318 732.136L365.482 732.136L365.479 686.095Z" fill="#3FFFD1"/>
</g>
<g style="mix-blend-mode:multiply">
<path d="M482.483 695.907C454.988 688.81 443.992 672.337 410.518 672.337C386.525 672.337 365.478 686.095 365.478 686.095L355.762 674.542L355.762 518.809L567.598 518.809L567.598 660.274L577.314 671.829C577.314 671.829 574.355 674.08 569.395 677.285C560.758 682.865 546.031 691.337 530.153 695.907C523.493 697.917 516.585 698.991 509.628 699.096C500.481 699.195 491.358 698.123 482.483 695.907Z" fill="#FF156E"/>
</g>
<g style="mix-blend-mode:multiply">
<path d="M649.744 373.6C649.501 376.02 649.111 378.422 648.574 380.794C649.104 378.421 649.495 376.019 649.744 373.6Z" fill="#E2E4E8"/>
</g>
<g style="mix-blend-mode:multiply">
<path d="M649.744 373.6C649.501 376.02 649.111 378.422 648.574 380.794C649.104 378.421 649.495 376.019 649.744 373.6Z" fill="#E2E4E8"/>
</g>
<path d="M355.763 862.199L594.929 862.199L594.929 899.173L607.301 915.837L455.603 1004.48L389.151 1043.19L355.763 1043.19L355.763 1026.57L355.763 862.199Z" fill="#FF156E"/>
<g style="mix-blend-mode:multiply">
<path d="M355.763 1026.58L376.775 1026.52L594.929 899.174L607.301 915.838L389.151 1043.19L355.763 1043.19L355.763 1026.58Z" fill="#3FFFD1"/>
</g>
<path d="M577.525 741.589L586.227 753.399L586.227 844.876L594.928 856.685L594.928 871.696L355.763 871.696L355.763 822.088L348.922 810.34L348.922 787.929L365.543 776.119L577.525 741.589Z" fill="#FF156E"/>
<g style="mix-blend-mode:multiply">
<path d="M586.227 844.876L594.928 856.686L355.763 822.088L348.922 810.341L586.227 844.876Z" fill="#3FFFD1"/>
</g>
<g style="mix-blend-mode:multiply">
<path d="M577.525 732.136L577.525 741.59L586.227 753.399L374.244 787.93L365.543 776.12L365.543 732.154L577.525 732.136Z" fill="#3FFFD1"/>
</g>
<path d="M674.086 463.088L657.082 449.558L714.03 295.382L736.711 293.544L777.937 295.567L777.937 425.666L674.086 463.088Z" fill="#3FFFD1"/>
<g style="mix-blend-mode:multiply">
<path d="M736.709 293.548L674.084 463.088L657.086 449.561L714.033 295.382L736.709 293.548Z" fill="#FF156E"/>
</g>
<g style="mix-blend-mode:multiply">
<path d="M780.207 860.82L637.562 755.375L631.604 770.473L777.938 877.686L780.207 860.82Z" fill="#FF156E"/>
</g>
<path d="M637.561 755.375L816.357 727.999L860.764 823.301L780.206 860.82L637.561 755.375Z" fill="white"/>
<path d="M637.561 755.375L816.357 727.999L860.764 823.301L780.206 860.82L637.561 755.375Z" fill="url(#paint1_linear)"/>
<path d="M777.937 1043.19L777.938 295.567L355.763 295.567L355.763 1043.19L777.937 1043.19Z" stroke="black" stroke-width="6"/>
<path d="M784.944 478.447L793.162 486.663L786.251 493.574L849.903 557.213L865.014 558.502L873.234 566.72L717.632 722.287L685.825 690.487L670.702 689.173L642.049 660.527L648.957 653.627L629.34 634.016L784.944 478.447Z" stroke="#FF156E" stroke-width="6" stroke-miterlimit="2"/>
<g style="mix-blend-mode:multiply">
<path d="M685.826 690.488L670.703 689.174L807.619 552.288L822.75 553.596L685.826 690.488Z" stroke="#FF156E" stroke-width="6" stroke-miterlimit="2"/>
</g>
<g style="mix-blend-mode:multiply">
<path d="M846.337 577.177L838.117 568.959L849.905 557.214L865.016 558.502L846.337 577.177Z" stroke="#FF156E" stroke-width="6" stroke-miterlimit="2"/>
</g>
<g style="mix-blend-mode:multiply">
<path d="M657.174 661.843L642.049 660.528L648.957 653.628L657.174 661.843Z" stroke="#FF156E" stroke-width="6" stroke-miterlimit="2"/>
</g>
<g style="mix-blend-mode:multiply" opacity="0.41">
<rect x="614.785" y="724.945" width="148.357" height="294.32" transform="rotate(90 614.785 724.945)" fill="url(#pattern1)"/>
</g>
<g style="mix-blend-mode:multiply" opacity="0.41">
<rect x="899.83" width="121.486" height="277.664" transform="rotate(90 899.83 0)" fill="url(#pattern2)"/>
</g>
<g style="mix-blend-mode:multiply" opacity="0.4">
<rect x="806.33" y="267.005" width="224.618" height="160.693" transform="rotate(90 806.33 267.005)" fill="url(#pattern3)"/>
</g>
<g style="mix-blend-mode:multiply" opacity="0.41">
<rect x="623.301" y="794.015" width="133.598" height="294.51" transform="rotate(90 623.301 794.015)" fill="url(#pattern4)"/>
</g>
<path d="M586.227 753.398L374.244 787.929L365.543 776.119L348.922 787.929L348.922 810.34L586.227 844.875L586.227 753.398Z" fill="url(#paint2_linear)"/>
<path d="M275.609 913.32L56.083 981.959L43.4008 973.879L3.99878 847.914L16.6802 855.998L38.0948 849.3L153.687 895.582C167 897.907 180.705 895.33 192.264 888.328C216.431 873.801 225.83 844.385 214.848 820.474L226.103 825.144L228.603 826.185L246.595 820.559L275.609 913.32Z" stroke="#3FFFD1" stroke-width="4" stroke-miterlimit="3"/>
<g style="mix-blend-mode:multiply">
<g style="mix-blend-mode:multiply">
<path d="M192.26 888.337C180.704 895.34 167.001 897.917 153.689 895.591C168.309 900.473 191.369 902.851 206.015 894.051C230.189 879.526 239.586 850.107 228.603 826.193L226.098 825.153L214.844 820.479C225.826 844.395 216.434 873.813 192.26 888.337Z" stroke="#FF156E" stroke-width="4" stroke-miterlimit="3"/>
</g>
<g style="mix-blend-mode:multiply">
<path d="M56.084 981.963L43.4019 973.883L3.99993 847.92L16.6821 856.001L56.084 981.963Z" stroke="#FF156E" stroke-width="4" stroke-miterlimit="3"/>
</g>
</g>
<path d="M280.551 913.521L61.0243 982.16L48.3422 974.079L8.94018 848.117L21.6216 856.2L43.0355 849.498L158.629 895.786C171.941 898.111 185.646 895.534 197.204 888.532C221.373 874.005 230.771 844.589 219.788 820.678L231.044 825.348L233.543 826.388L251.536 820.763L280.551 913.521Z" fill="#3FFFD1"/>
<g style="mix-blend-mode:multiply">
<g style="mix-blend-mode:multiply">
<path d="M197.2 888.536C185.644 895.539 171.941 898.116 158.629 895.79C173.249 900.671 196.308 903.05 210.954 894.25C235.128 879.725 244.526 850.306 233.542 826.392L231.038 825.352L219.783 820.678C230.763 844.594 221.374 874.012 197.2 888.536Z" fill="#FF156E"/>
</g>
<g style="mix-blend-mode:multiply">
<path d="M61.0234 982.161L48.3414 974.081L8.9395 848.118L21.6216 856.198L61.0234 982.161Z" fill="#FF156E"/>
</g>
</g>
<path d="M594.928 856.685L358.524 822.487L357.344 899.173L594.863 899.173L594.928 856.685Z" fill="url(#paint3_linear)"/>
<path d="M777.937 425.666L777.873 295.567L736.708 296.626L674.086 463.088L777.937 425.666Z" fill="url(#paint4_linear)"/>
<path d="M542.867 504.274L434.938 504.274L434.938 488.728L459.091 488.728L469.645 496.501L532.313 496.501L542.867 504.274Z" fill="white"/>
<path d="M453.984 293.597L567.596 293.548L567.596 309.094L542.867 309.143L532.313 301.371L464.539 301.371L453.984 293.597Z" fill="#3FFFD1"/>
<g style="mix-blend-mode:multiply">
<path d="M425.722 1136.02C425.722 1136.02 447.625 1119.46 480.481 1119.46C523.134 1119.46 541.563 1146.36 576.666 1146.36C607.154 1146.36 637.561 1121.75 637.561 1121.75L637.561 1193.61L425.722 1193.61L425.722 1136.02Z" fill="#3FFFD1"/>
</g>
<path d="M671.228 627.825C671.228 704.553 733.442 766.753 810.187 766.753C886.932 766.753 949.146 704.553 949.146 627.825C949.146 551.097 886.932 488.897 810.187 488.897C733.442 488.897 671.228 551.097 671.228 627.825Z" fill="url(#paint5_radial)"/>
<path d="M836.243 881.547C836.243 882.564 837.82 882.506 837.82 881.492C837.82 880.478 836.243 880.533 836.243 881.547Z" fill="url(#paint6_radial)"/>
<path d="M788.543 1243.57C790.468 1259.03 797.798 1277.79 814.012 1282.97C819.315 1284.67 825.595 1284.51 830.15 1280.63C833.084 1278.01 835.467 1274.84 837.159 1271.3C838.852 1267.75 839.82 1263.9 840.008 1259.98C841.755 1216.59 843.376 1173.19 845.161 1129.8C849.377 1134.47 855.45 1139.22 861.414 1139.57C868.496 1139.99 875.092 1137.24 878.939 1130.93C883.65 1123.2 884.065 1114.97 884.125 1106.12C884.172 1099.41 884.222 1092.7 884.275 1085.99C884.312 1082.29 884.352 1078.59 884.397 1074.88C887.78 1078.61 892.078 1081.39 896.866 1082.95C902.169 1084.64 908.449 1084.49 913.003 1080.6C915.951 1078 918.344 1074.83 920.038 1071.28C921.732 1067.73 922.692 1063.88 922.861 1059.95C922.957 1055.44 923.055 1050.93 923.153 1046.42C923.82 1046.7 924.503 1046.96 925.212 1047.18C930.516 1048.88 936.795 1048.72 941.349 1044.84C943.544 1042.94 945.422 1040.7 946.915 1038.21L949.009 1046.37C951.199 1054.9 956.22 1064.46 962.974 1070.33C967.826 1074.55 976.088 1078.8 982.832 1076.49C999.922 1070.64 1000.79 1048.04 997.06 1033.5L949.309 847.495C947.215 839.339 942.11 828.97 935.345 823.531C929.955 819.195 922.71 814.974 915.487 817.375C908.52 819.616 902.702 824.485 899.268 830.946C893.802 833.548 890.025 836.294 886.48 841.984C883.069 847.46 881.316 853.367 880.139 859.551C876.067 856.471 871.398 854.25 866.553 854.262C860.368 854.278 855.728 855.541 851.403 860.296C846.768 865.391 844.918 871.516 843.923 878.331C843.023 884.506 842.198 890.689 841.448 896.88C841.24 896.773 841.041 896.651 840.829 896.549C831.53 892.063 822.482 894.777 816.577 903.046C803.249 921.709 801.628 945.354 800.331 967.458C799.056 989.139 797.926 1010.83 796.94 1032.52C796.012 1052.46 795.147 1072.4 794.343 1092.35C791.058 1089.04 787.26 1086.28 783.096 1084.17C776.629 1081.01 767.913 1079.82 761.027 1082.35C749.235 1086.69 741.902 1095.44 734.178 1104.91C728.648 1111.69 723.41 1118.71 718.253 1125.78C707.291 1140.8 696.639 1156.08 684.368 1170.07C673.576 1181.46 661.41 1191.5 647.603 1198.99C638.623 1203.17 629.032 1205.89 619.192 1207.04C610.032 1207.01 600.925 1205.66 592.155 1203.01C566.301 1194.05 541.839 1179.57 514.115 1177.24C496.497 1175.75 489.813 1196.28 491.402 1210.69C492.464 1220.3 495.284 1230.51 501.374 1238.2C506.011 1244.07 512.299 1250.49 520.235 1251.16C527.053 1251.78 533.793 1253.08 540.356 1255.03C555.779 1260.4 570.415 1267.8 585.894 1273.02C596.081 1276.46 606.416 1279.74 617.18 1280.7C627.567 1281.59 638.031 1280.9 648.209 1278.64C666.654 1274.51 684.341 1264.66 699.027 1252.93C714.93 1240.22 728.311 1224.35 740.563 1208.18C751.809 1193.34 762.184 1177.78 773.897 1163.29C777.328 1174.99 780.148 1186.86 782.346 1198.85C784.793 1213.71 786.685 1228.64 788.543 1243.57Z" fill="#AEF679"/>
<g style="mix-blend-mode:multiply" opacity="0.41">
<rect x="331.441" y="460.4" width="151.763" height="268.768" transform="rotate(90 331.441 460.4)" fill="url(#pattern5)"/>
</g>
<g style="mix-blend-mode:multiply" opacity="0.5">
<rect x="605.889" y="643.386" width="154.034" height="268.957" transform="rotate(90 605.889 643.386)" fill="url(#pattern6)"/>
</g>
<g style="mix-blend-mode:multiply" opacity="0.41">
<rect x="666.078" y="1044.94" width="151.763" height="268.768" transform="rotate(90 666.078 1044.94)" fill="url(#pattern7)"/>
</g>
<path d="M621.161 417.067L676.678 535.83L690.504 525.643L633.28 406.885L621.161 417.067Z" fill="#FF156E"/>
<path d="M650.123 365.811C650.123 383.097 644.971 395.926 633.28 406.884C644.501 400.104 653.191 389.836 658.021 377.65C662.852 365.465 663.557 352.033 660.029 339.409C656.501 326.785 648.934 315.664 638.486 307.747C628.037 299.829 615.282 295.552 602.172 295.568L567.599 295.568L567.599 305.763L590.057 305.758C605.987 305.763 621.263 312.092 632.527 323.353C643.791 334.615 650.121 349.887 650.126 365.813L650.123 365.811Z" fill="#FF156E"/>
<g style="mix-blend-mode:multiply">
<g style="mix-blend-mode:multiply">
<path d="M621.161 417.067L676.678 535.83L690.504 525.643L633.28 406.885L621.161 417.067Z" fill="#3FFFD1"/>
</g>
<g style="mix-blend-mode:multiply">
<path d="M650.123 365.811C650.123 383.097 644.971 395.926 633.28 406.884C644.501 400.104 653.191 389.836 658.021 377.65C662.852 365.465 663.557 352.033 660.029 339.409C656.501 326.785 648.934 315.664 638.486 307.747C628.037 299.829 615.282 295.552 602.172 295.568L567.599 295.568L567.599 305.763L590.057 305.758C605.987 305.763 621.263 312.092 632.527 323.353C643.791 334.615 650.121 349.887 650.126 365.813L650.123 365.811Z" fill="#3FFFD1"/>
</g>
</g>
<g style="mix-blend-mode:multiply" opacity="0.41">
<rect x="802.922" y="260.383" width="304.473" height="281.45" transform="rotate(90 802.922 260.383)" fill="url(#pattern8)"/>
</g>
<g style="mix-blend-mode:multiply">
<path d="M306.843 394.288L442.594 458.275L430.18 471.357L306.728 413.17L306.843 394.288Z" fill="#3FFFD1"/>
</g>
<path d="M442.594 458.276L399.452 295.567L306.843 295.567L306.843 394.289L442.594 458.276Z" fill="white"/>
<defs>
<pattern id="pattern0" patternContentUnits="objectBoundingBox" width="1" height="1">
<use xlink:href="#image0" transform="scale(0.00127551 0.000643501)"/>
</pattern>
<pattern id="pattern1" patternContentUnits="objectBoundingBox" width="1" height="1">
<use xlink:href="#image1" transform="scale(0.00127551 0.000643087)"/>
</pattern>
<pattern id="pattern2" patternContentUnits="objectBoundingBox" width="1" height="1">
<use xlink:href="#image2" transform="scale(0.00155763 0.000681663)"/>
</pattern>
<pattern id="pattern3" patternContentUnits="objectBoundingBox" width="1" height="1">
<use xlink:href="#image3" transform="scale(0.00084246 0.00117786)"/>
</pattern>
<pattern id="pattern4" patternContentUnits="objectBoundingBox" width="1" height="1">
<use xlink:href="#image4" transform="scale(0.00141643 0.000642674)"/>
</pattern>
<pattern id="pattern5" patternContentUnits="objectBoundingBox" width="1" height="1">
<use xlink:href="#image5" transform="scale(0.00124688 0.000704225)"/>
</pattern>
<pattern id="pattern6" patternContentUnits="objectBoundingBox" width="1" height="1">
<use xlink:href="#image6" transform="scale(0.0012285 0.00070373)"/>
</pattern>
<pattern id="pattern7" patternContentUnits="objectBoundingBox" width="1" height="1">
<use xlink:href="#image7" transform="scale(0.00124688 0.000704225)"/>
</pattern>
<pattern id="pattern8" patternContentUnits="objectBoundingBox" width="1" height="1">
<use xlink:href="#image8" transform="scale(0.000621504)"/>
</pattern>
<linearGradient id="paint0_linear" x1="1082.75" y1="766.939" x2="1092.29" y2="844.666" gradientUnits="userSpaceOnUse">
<stop stop-color="#FF156E" stop-opacity="0"/>
<stop offset="0.085" stop-color="#FF156E" stop-opacity="0.032"/>
<stop offset="0.22" stop-color="#FF156E" stop-opacity="0.121"/>
<stop offset="0.387" stop-color="#FF156E" stop-opacity="0.267"/>
<stop offset="0.58" stop-color="#FF156E" stop-opacity="0.468"/>
<stop offset="0.792" stop-color="#FF156E" stop-opacity="0.722"/>
<stop offset="1" stop-color="#FF156E"/>
</linearGradient>
<linearGradient id="paint1_linear" x1="700.399" y1="830.246" x2="818.782" y2="730.888" gradientUnits="userSpaceOnUse">
<stop stop-color="#90FF3D"/>
<stop offset="0.067" stop-color="#90FF3D" stop-opacity="0.868"/>
<stop offset="0.195" stop-color="#90FF3D" stop-opacity="0.641"/>
<stop offset="0.323" stop-color="#90FF3D" stop-opacity="0.445"/>
<stop offset="0.449" stop-color="#90FF3D" stop-opacity="0.285"/>
<stop offset="0.57" stop-color="#90FF3D" stop-opacity="0.161"/>
<stop offset="0.688" stop-color="#90FF3D" stop-opacity="0.072"/>
<stop offset="0.799" stop-color="#90FF3D" stop-opacity="0.018"/>
<stop offset="0.897" stop-color="#90FF3D" stop-opacity="0"/>
</linearGradient>
<linearGradient id="paint2_linear" x1="-229872" y1="89733.6" x2="-229440" y2="98866.9" gradientUnits="userSpaceOnUse">
<stop stop-color="#FF156E" stop-opacity="0"/>
<stop offset="0.085" stop-color="#FF156E" stop-opacity="0.032"/>
<stop offset="0.22" stop-color="#FF156E" stop-opacity="0.121"/>
<stop offset="0.387" stop-color="#FF156E" stop-opacity="0.267"/>
<stop offset="0.58" stop-color="#FF156E" stop-opacity="0.468"/>
<stop offset="0.792" stop-color="#FF156E" stop-opacity="0.722"/>
<stop offset="1" stop-color="#FF156E"/>
</linearGradient>
<linearGradient id="paint3_linear" x1="478.909" y1="835.516" x2="473.421" y2="898.247" gradientUnits="userSpaceOnUse">
<stop stop-color="#FF156E" stop-opacity="0"/>
<stop offset="0.284" stop-color="#FF156E" stop-opacity="0.343"/>
<stop offset="0.542" stop-color="#FF156E" stop-opacity="0.625"/>
<stop offset="0.753" stop-color="#FF156E" stop-opacity="0.828"/>
<stop offset="0.912" stop-color="#FF156E" stop-opacity="0.953"/>
<stop offset="1" stop-color="#FF156E"/>
</linearGradient>
<linearGradient id="paint4_linear" x1="716.758" y1="304.242" x2="732.564" y2="433.001" gradientUnits="userSpaceOnUse">
<stop stop-color="#3F155A" stop-opacity="0"/>
<stop offset="0.26" stop-color="#3F155A" stop-opacity="0.092"/>
<stop offset="0.667" stop-color="#3F155A" stop-opacity="0.342"/>
<stop offset="1" stop-color="#3F155A" stop-opacity="0.6"/>
</linearGradient>
<radialGradient id="paint5_radial" cx="0" cy="0" r="1" gradientUnits="userSpaceOnUse" gradientTransform="translate(810.187 627.825) rotate(90) scale(90.607 90.6273)">
<stop stop-color="#90FF3D"/>
<stop offset="0.264" stop-color="#90FF3D" stop-opacity="0.683"/>
<stop offset="0.529" stop-color="#90FF3D" stop-opacity="0.392"/>
<stop offset="0.748" stop-color="#90FF3D" stop-opacity="0.18"/>
<stop offset="0.911" stop-color="#90FF3D" stop-opacity="0.049"/>
<stop offset="1" stop-color="#90FF3D" stop-opacity="0"/>
</radialGradient>
<radialGradient id="paint6_radial" cx="0" cy="0" r="1" gradientUnits="userSpaceOnUse" gradientTransform="translate(837.031 881.519) rotate(90) scale(0.775036 0.775233)">
<stop stop-color="#90FF3D"/>
<stop offset="0.08" stop-color="#90FF3D" stop-opacity="0.974"/>
<stop offset="0.194" stop-color="#90FF3D" stop-opacity="0.9"/>
<stop offset="0.329" stop-color="#90FF3D" stop-opacity="0.78"/>
<stop offset="0.479" stop-color="#90FF3D" stop-opacity="0.612"/>
<stop offset="0.642" stop-color="#90FF3D" stop-opacity="0.396"/>
<stop offset="0.813" stop-color="#90FF3D" stop-opacity="0.138"/>
<stop offset="0.897" stop-color="#90FF3D" stop-opacity="0"/>
</radialGradient>
</defs>
</svg>
