<?xml version="1.0" encoding="utf-8"?>
<!-- Generator: Adobe Illustrator 22.0.1, SVG Export Plug-In . SVG Version: 6.00 Build 0)  -->
<svg version="1.1" id="Layer_1" xmlns="http://www.w3.org/2000/svg" xmlns:xlink="http://www.w3.org/1999/xlink" x="0px" y="0px"
	 viewBox="0 0 715.6 229.4" style="enable-background:new 0 0 715.6 229.4;" xml:space="preserve">
<style type="text/css">
	.st0{fill:#2DFEA6;}
	.st1{fill:#FF156E;mix-blend-mode:multiply;}
</style>
<g>
	<path class="st0" d="M58.5,212.4l-10.2,7.8c9.1,0,17.7-3,25.8-6.2l4-1.6H58.5z M19.9,212.4H9.4v7.8L19.9,212.4z M58.5,15.3
		l-10.2,7.8c22.6,2.4,40.6,22.6,40.6,47c0,12.1-4.3,23.4-11.8,31.7c10.2-8.6,22.3-24.7,22.3-39.5C99.4,38.1,81.1,18,58.5,15.3z
		 M46.5,118.2c0,0,11.8,0,20.9,3.8c19.1,8.1,32.8,26.3,32.8,48.3c0,15.6-6.7,29.3-17.5,38.9c13.4-9.4,27.4-28.7,27.4-46.5
		c0-22-13.7-40.6-32.8-48.3c-4-1.6-8.3-2.4-11.8-3c-4-0.8-8.9-0.8-8.9-0.8L46.5,118.2z"/>
	<path class="st0" d="M165.8,212.4h61.8v7.5h30.3V23.6h-13.7v-7.8h-78.4l-10.2,7.8V220L165.8,212.4z"/>
	<path class="st0" d="M312.2,15.6l-10.7,7.5h-27.4v197.1h27.4l10.7-7.8h78.4v-29h-63.4l10.5-7.8h63.4v-56.1l-10.5,7.8v-26.9h-63.4
		l10.5-7.8h63.4V36.3L390.6,44V15.6H312.2z"/>
	<path class="st0" d="M546.2,220.8l11.3,8.6V25.2l-11.3-8.3h-87L436.4,0v204.1l11.3,8.3v-166h11.5l55.3,166l11.3,8.3H546.2z"/>
	<path class="st0" d="M601.1,16.4l-10.7,8.1c0,0,25.8,2.7,37.3,7.3c37.6,15,64.2,51.8,64.2,94.5c0,30.3-13.4,57.7-34.4,76.3
		c26.3-18.3,44.6-49.4,44.6-84.1c0-43-26.6-79.5-64.2-94.5C626.4,19.3,601.1,16.4,601.1,16.4z M638.7,212.7h-37.6l-10.7,7.8h9.4
		c12.9,0,25.5-2.4,36.8-7L638.7,212.7z"/>
	<g>
		<path class="st1" d="M58.5,15.3l-10.2,7.8H19.9v-7.8H0v197.1h9.4v7.8h40.3c8.1,0,21.5-4.6,28.5-7.8h47.5V15.3H58.5z"/>
	</g>
	<g>
		<path class="st1" d="M155.6,23.6h-13.4V220h13.4l10.2-7.5V15.8L155.6,23.6z M227.6,212.4v7.5l10.2-7.5H227.6z"/>
	</g>
	<g>
		<path class="st1" d="M301.5,23.1v197.1l10.7-7.8V15.6L301.5,23.1z M327.3,44v56.4l10.5-7.8V44H327.3z M327.3,127.3v56.1l10.5-7.8
			v-48.3H327.3z"/>
	</g>
	<g>
		<path class="st1" d="M546.5,220.8l11.3,8.6h16.4V25.2h-16.4l-11.3-8.3V220.8z M417.3,0v204.1h19.3l11.3,8.3h66.9l11.3,8.3
			l-55.3-166l-11.3-8.3V16.9L436.6,0H417.3z"/>
	</g>
	<g>
		<path class="st1" d="M715.6,16.4h-115l-10.7,7.8v196.3h9.4c12.9,0,25.5-2.7,36.8-7.3l2.1-0.8h77.4V16.4z"/>
	</g>
</g>
</svg>
