<svg width="988" height="705" viewBox="0 0 988 705" fill="none" xmlns="http://www.w3.org/2000/svg">
<path d="M892.504 640.619H746.253C735.825 640.619 725.823 636.546 718.449 629.297C711.074 622.047 706.932 612.215 706.932 601.962V458.183C706.932 423.744 749.287 406.496 774.058 430.848L920.309 574.628C945.079 598.98 927.538 640.619 892.504 640.619Z" fill="#231F20"/>
<path d="M838.91 393.384C828.461 383.111 811.519 383.111 801.07 393.384C790.621 403.656 790.621 420.311 801.071 430.584L931.241 558.554C941.69 568.826 958.631 568.827 969.081 558.554C979.53 548.282 979.53 531.626 969.08 521.354L838.91 393.384Z" fill="#231F20"/>
<path d="M473.357 633.872C491.274 633.872 505.799 592.608 505.799 541.705C505.799 490.802 491.274 449.537 473.357 449.537C455.439 449.537 440.914 490.802 440.914 541.705C440.914 592.608 455.439 633.872 473.357 633.872Z" fill="#231F20"/>
<path d="M581.499 633.872C599.417 633.872 613.942 592.608 613.942 541.705C613.942 490.802 599.417 449.537 581.499 449.537C563.582 449.537 549.057 490.802 549.057 541.705C549.057 592.608 563.582 633.872 581.499 633.872Z" fill="#231F20"/>
<path d="M528.202 436.157C582.595 436.157 626.689 421.632 626.689 403.715C626.689 385.797 582.595 371.272 528.202 371.272C473.809 371.272 429.715 385.797 429.715 403.715C429.715 421.632 473.809 436.157 528.202 436.157Z" fill="#231F20"/>
<path d="M528.201 697.877C555.598 697.877 577.807 684.464 577.807 667.919C577.807 651.374 555.598 637.962 528.201 637.962C500.805 637.962 478.596 651.374 478.596 667.919C478.596 684.464 500.805 697.877 528.201 697.877Z" stroke="#231F20" stroke-width="13.915" stroke-miterlimit="10"/>
<path d="M340.398 603.586H266.829V587.78C266.829 586.724 266.491 585.696 265.863 584.847C265.236 583.998 264.352 583.373 263.343 583.064C262.334 582.755 261.252 582.778 260.257 583.13C259.262 583.483 258.406 584.146 257.816 585.021C249.698 597.06 238.706 606.882 225.836 613.595C212.966 620.308 198.625 623.701 184.113 623.465C169.601 623.229 155.377 619.372 142.732 612.245C130.086 605.117 119.418 594.943 111.696 582.646C111.134 581.73 110.289 581.022 109.289 580.63C108.289 580.239 107.188 580.184 106.154 580.475C105.12 580.766 104.209 581.387 103.56 582.243C102.91 583.099 102.558 584.144 102.556 585.219V603.588H28.9869C26.9221 603.581 24.8988 603.007 23.1378 601.928C21.3768 600.849 19.9457 599.307 19.0005 597.47C18.0554 595.633 17.6325 593.571 17.778 591.51C17.9236 589.449 18.6319 587.468 19.8259 585.782C29.9017 571.231 35.2857 553.942 35.2545 536.239C35.2855 518.533 29.9016 501.241 19.8259 486.685C18.634 484.999 17.9274 483.018 17.7829 480.958C17.6384 478.898 18.0616 476.838 19.0064 475.001C19.9512 473.165 21.3814 471.624 23.1412 470.545C24.9011 469.466 26.923 468.891 28.9869 468.882H102.556V487.251C102.558 488.325 102.911 489.37 103.56 490.226C104.21 491.082 105.121 491.703 106.154 491.994C107.188 492.285 108.289 492.23 109.289 491.838C110.289 491.446 111.134 490.738 111.696 489.822C119.418 477.524 130.086 467.349 142.732 460.22C155.378 453.092 169.603 449.235 184.116 448.999C198.629 448.764 212.971 452.158 225.841 458.873C238.711 465.588 249.703 475.412 257.819 487.454C258.409 488.33 259.264 488.993 260.259 489.346C261.254 489.699 262.337 489.723 263.346 489.414C264.356 489.105 265.239 488.479 265.867 487.63C266.494 486.78 266.833 485.752 266.832 484.695V468.882H340.401C342.465 468.89 344.487 469.466 346.247 470.545C348.007 471.624 349.438 473.165 350.382 475.002C351.327 476.838 351.75 478.898 351.606 480.959C351.461 483.019 350.754 485 349.562 486.686C339.514 501.253 334.133 518.535 334.133 536.235C334.133 553.935 339.514 571.216 349.562 585.783C350.755 587.469 351.463 589.451 351.608 591.511C351.753 593.572 351.33 595.633 350.384 597.47C349.439 599.307 348.008 600.848 346.247 601.927C344.486 603.005 342.463 603.579 340.398 603.586Z" fill="#231F20"/>
<path d="M949.287 272.887H853.262C801.723 272.887 754.341 235.138 729.883 174.586L688.427 71.9634C684.567 62.4084 689.752 50.8155 697.886 50.8155C755.289 50.7597 807.534 50.8618 851.188 50.8155C857.037 50.8155 862.442 55.0245 865.295 61.8403C901.853 149.177 935.515 200.879 961.13 231.22C973.426 245.781 965.722 272.887 949.287 272.887Z" fill="#231F20"/>
<path d="M563.208 114.984C578.658 114.984 591.182 102.459 591.182 87.0098C591.182 71.5603 578.658 59.036 563.208 59.036C547.759 59.036 535.234 71.5603 535.234 87.0098C535.234 102.459 547.759 114.984 563.208 114.984Z" fill="#231F20"/>
<path d="M471.363 296.553C469.164 296.556 466.986 296.124 464.955 295.282C462.923 294.44 461.078 293.206 459.525 291.649L447.816 279.942C440.212 272.354 435.367 262.439 434.054 251.777C432.741 241.115 435.035 230.321 440.571 221.115C483.48 149.57 468.099 78.044 465.094 66.174C464.898 65.5487 464.743 65.0422 464.622 64.6414C460.97 52.1791 469.81 45.94 471.621 44.8167C474.812 42.8338 478.576 41.9815 482.31 42.3967C486.044 42.8118 489.53 44.4704 492.207 47.1058C493.98 48.8525 495.588 50.4342 497.497 57.559C497.702 58.2015 497.868 58.8556 497.995 59.518C498.712 62.4758 499.473 66.2344 500.303 71.0682C502.608 84.808 503.746 98.7184 503.704 112.65C503.652 143.894 497.638 191.061 469.285 238.336C467.598 241.141 466.898 244.431 467.298 247.68C467.698 250.93 469.175 253.952 471.492 256.265L483.201 267.973C485.542 270.315 487.136 273.297 487.782 276.545C488.428 279.792 488.096 283.158 486.829 286.217C485.562 289.276 483.416 291.89 480.663 293.73C477.91 295.569 474.674 296.551 471.363 296.552V296.553Z" fill="#231F20"/>
<path d="M152.085 279.588C152.085 279.588 70.217 191.519 152.085 106.036C205.428 50.336 152.085 14.1547 152.085 14.1547" fill="#231F20"/>
<path d="M50.3858 279.433C50.3858 279.433 -31.4823 191.363 50.3858 105.881C103.73 50.1813 50.3858 14 50.3858 14" fill="#231F20"/>
<path d="M50.3858 279.433C50.3858 279.433 -31.4823 191.363 50.3858 105.881C103.73 50.1813 50.3858 14 50.3858 14" stroke="#26FF00" stroke-width="27.594" stroke-miterlimit="10" stroke-linecap="round"/>
<path d="M125.703 236.76C111.806 203.17 105.963 154.192 152.083 106.036C205.427 50.336 152.083 14.1547 152.083 14.1547" stroke="#26FF00" stroke-width="27.594" stroke-miterlimit="10" stroke-linecap="round"/>
<path d="M253.778 279.588C253.778 279.588 171.91 191.519 253.778 106.036C307.122 50.336 253.778 14.1547 253.778 14.1547" fill="#231F20"/>
<path d="M253.778 279.588C253.778 279.588 171.91 191.519 253.778 106.036C307.122 50.336 253.778 14.1547 253.778 14.1547" stroke="#26FF00" stroke-width="27.594" stroke-miterlimit="10" stroke-linecap="round"/>
<path d="M50.3867 279.433C50.3867 279.433 153.673 183.417 253.925 279.433C319.249 341.994 361.682 279.433 361.682 279.433" fill="#231F20"/>
<path d="M50.3867 279.433C50.3867 279.433 153.673 183.417 253.925 279.433C319.249 341.994 361.682 279.433 361.682 279.433" stroke="#26FF00" stroke-width="27.594" stroke-miterlimit="10" stroke-linecap="round"/>
</svg>
