<?xml version="1.0" encoding="utf-8"?>
<!-- Generator: Adobe Illustrator 22.0.1, SVG Export Plug-In . SVG Version: 6.00 Build 0)  -->
<svg version="1.1" id="Layer_1" xmlns="http://www.w3.org/2000/svg" xmlns:xlink="http://www.w3.org/1999/xlink" x="0px" y="0px"
	 viewBox="0 0 988 705" style="enable-background:new 0 0 988 705;" xml:space="preserve">
<style type="text/css">
	.st0{fill:#231F20;}
	.st1{fill:none;stroke:#231F20;stroke-width:13.915;stroke-miterlimit:10;}
	.st2{fill:none;stroke:#00E0FF;stroke-width:27.594;stroke-linecap:round;stroke-miterlimit:10;}
</style>
<path class="st0" d="M892.5,640.6H746.3c-10.4,0-20.4-4.1-27.8-11.3c-7.4-7.3-11.5-17.1-11.5-27.3V458.2c0-34.4,42.4-51.7,67.1-27.3
	l146.3,143.8C945.1,599,927.5,640.6,892.5,640.6z"/>
<path class="st0" d="M838.9,393.4c-10.4-10.3-27.4-10.3-37.8,0c-10.4,10.3-10.4,26.9,0,37.2l130.2,128c10.4,10.3,27.4,10.3,37.8,0
	c10.4-10.3,10.4-26.9,0-37.2L838.9,393.4z"/>
<path class="st0" d="M473.4,633.9c17.9,0,32.4-41.3,32.4-92.2c0-50.9-14.5-92.2-32.4-92.2c-17.9,0-32.4,41.3-32.4,92.2
	C440.9,592.6,455.4,633.9,473.4,633.9z"/>
<path class="st0" d="M581.5,633.9c17.9,0,32.4-41.3,32.4-92.2c0-50.9-14.5-92.2-32.4-92.2c-17.9,0-32.4,41.3-32.4,92.2
	C549.1,592.6,563.6,633.9,581.5,633.9z"/>
<path class="st0" d="M528.2,436.2c54.4,0,98.5-14.5,98.5-32.4c0-17.9-44.1-32.4-98.5-32.4c-54.4,0-98.5,14.5-98.5,32.4
	C429.7,421.6,473.8,436.2,528.2,436.2z"/>
<path class="st1" d="M528.2,697.9c27.4,0,49.6-13.4,49.6-30s-22.2-30-49.6-30c-27.4,0-49.6,13.4-49.6,30S500.8,697.9,528.2,697.9z"
	/>
<path class="st0" d="M340.4,603.6h-73.6v-15.8c0-1.1-0.3-2.1-1-2.9c-0.6-0.8-1.5-1.5-2.5-1.8c-1-0.3-2.1-0.3-3.1,0.1
	c-1,0.4-1.9,1-2.4,1.9c-8.1,12-19.1,21.9-32,28.6c-12.9,6.7-27.2,10.1-41.7,9.9c-14.5-0.2-28.7-4.1-41.4-11.2
	c-12.6-7.1-23.3-17.3-31-29.6c-0.6-0.9-1.4-1.6-2.4-2c-1-0.4-2.1-0.4-3.1-0.2c-1,0.3-1.9,0.9-2.6,1.8c-0.6,0.9-1,1.9-1,3v18.4H29
	c-2.1,0-4.1-0.6-5.8-1.7c-1.8-1.1-3.2-2.6-4.1-4.5c-0.9-1.8-1.4-3.9-1.2-6c0.1-2.1,0.9-4,2-5.7c10.1-14.6,15.5-31.8,15.4-49.5
	c0-17.7-5.4-35-15.4-49.6c-1.2-1.7-1.9-3.7-2-5.7s0.3-4.1,1.2-6c0.9-1.8,2.4-3.4,4.1-4.5c1.8-1.1,3.8-1.7,5.8-1.7h73.6v18.4
	c0,1.1,0.4,2.1,1,3c0.7,0.9,1.6,1.5,2.6,1.8c1,0.3,2.1,0.2,3.1-0.2s1.8-1.1,2.4-2c7.7-12.3,18.4-22.5,31-29.6
	c12.6-7.1,26.9-11,41.4-11.2c14.5-0.2,28.9,3.2,41.7,9.9c12.9,6.7,23.9,16.5,32,28.6c0.6,0.9,1.4,1.5,2.4,1.9s2.1,0.4,3.1,0.1
	c1-0.3,1.9-0.9,2.5-1.8c0.6-0.9,1-1.9,1-2.9v-15.8h73.6c2.1,0,4.1,0.6,5.8,1.7c1.8,1.1,3.2,2.6,4.1,4.5c0.9,1.8,1.4,3.9,1.2,6
	c-0.1,2.1-0.9,4-2,5.7c-10,14.6-15.4,31.8-15.4,49.5s5.4,35,15.4,49.5c1.2,1.7,1.9,3.7,2,5.7c0.1,2.1-0.3,4.1-1.2,6
	c-0.9,1.8-2.4,3.4-4.1,4.5C344.5,603,342.5,603.6,340.4,603.6z"/>
<path class="st0" d="M949.3,272.9h-96c-51.5,0-98.9-37.7-123.4-98.3L688.4,72c-3.9-9.6,1.3-21.1,9.5-21.1c57.4-0.1,109.6,0,153.3,0
	c5.8,0,11.3,4.2,14.1,11c36.6,87.3,70.2,139,95.8,169.4C973.4,245.8,965.7,272.9,949.3,272.9z"/>
<path class="st0" d="M563.2,115c15.5,0,28-12.5,28-28c0-15.4-12.5-28-28-28c-15.4,0-28,12.5-28,28C535.2,102.5,547.8,115,563.2,115z
	"/>
<path class="st0" d="M471.4,296.6c-2.2,0-4.4-0.4-6.4-1.3c-2-0.8-3.9-2.1-5.4-3.6l-11.7-11.7c-7.6-7.6-12.4-17.5-13.8-28.2
	c-1.3-10.7,1-21.5,6.5-30.7c42.9-71.5,27.5-143.1,24.5-154.9c-0.2-0.6-0.4-1.1-0.5-1.5c-3.7-12.5,5.2-18.7,7-19.8
	c3.2-2,7-2.8,10.7-2.4c3.7,0.4,7.2,2.1,9.9,4.7c1.8,1.7,3.4,3.3,5.3,10.5c0.2,0.6,0.4,1.3,0.5,2c0.7,3,1.5,6.7,2.3,11.6
	c2.3,13.7,3.4,27.7,3.4,41.6c-0.1,31.2-6.1,78.4-34.4,125.7c-1.7,2.8-2.4,6.1-2,9.3c0.4,3.3,1.9,6.3,4.2,8.6l11.7,11.7
	c2.3,2.3,3.9,5.3,4.6,8.6c0.6,3.2,0.3,6.6-1,9.7c-1.3,3.1-3.4,5.7-6.2,7.5C477.9,295.6,474.7,296.6,471.4,296.6L471.4,296.6z"/>
<path class="st0" d="M152.1,279.6c0,0-81.9-88.1,0-173.6c53.3-55.7,0-91.9,0-91.9"/>
<path class="st0" d="M50.4,279.4c0,0-81.9-88.1,0-173.6c53.3-55.7,0-91.9,0-91.9"/>
<path class="st2" d="M50.4,279.4c0,0-81.9-88.1,0-173.6c53.3-55.7,0-91.9,0-91.9"/>
<path class="st2" d="M125.7,236.8c-13.9-33.6-19.7-82.6,26.4-130.7c53.3-55.7,0-91.9,0-91.9"/>
<path class="st0" d="M253.8,279.6c0,0-81.9-88.1,0-173.6c53.3-55.7,0-91.9,0-91.9"/>
<path class="st2" d="M253.8,279.6c0,0-81.9-88.1,0-173.6c53.3-55.7,0-91.9,0-91.9"/>
<path class="st0" d="M50.4,279.4c0,0,103.3-96,203.5,0c65.3,62.6,107.8,0,107.8,0"/>
<path class="st2" d="M50.4,279.4c0,0,103.3-96,203.5,0c65.3,62.6,107.8,0,107.8,0"/>
</svg>
