<svg xmlns="http://www.w3.org/2000/svg" width="1363" height="946.047" viewBox="0 0 1363 946.047">
  <title>Asset 14raa</title>
  <g>
    <rect x="1.5" y="1.5" width="1360" height="943.047" fill="#436cff"/>
    <rect x="1037.477" y="1.5" width="324.023" height="482.167" fill="none" stroke="#fff" stroke-miterlimit="10" stroke-width="3"/>
    <g>
      <path d="M1265.954,662.042H979.314a15.26,15.26,0,0,1-15.281-15.274v-83.08a15.259,15.259,0,0,1,15.281-15.272H1160.4a59.814,59.814,0,0,1,42.374,17.547l72.822,72.79A13.655,13.655,0,0,1,1265.954,662.042Z" fill="none" stroke="#1a243f" stroke-miterlimit="10" stroke-width="3.285"/>
      <path d="M1306.809,633.663a17.929,17.929,0,0,1-25.249,0l-76.18-76.148a17.85,17.85,0,1,1,25.248-25.239l76.181,76.148A17.91,17.91,0,0,1,1306.809,633.663Z" fill="#1a243f"/>
      <path d="M1016.918,598.675l70.011,34.771" fill="none" stroke="#1a243f" stroke-linecap="round" stroke-miterlimit="10" stroke-width="5.157"/>
      <path d="M1007.708,581.344l34.893,17.331" fill="none" stroke="#1a243f" stroke-linecap="round" stroke-miterlimit="10" stroke-width="5.157"/>
      <path d="M1007.708,567.263l55.6,27.621" fill="none" stroke="#1a243f" stroke-linecap="round" stroke-miterlimit="10" stroke-width="5.157"/>
      <path d="M1143.276,604.524l55.593,27.729" fill="none" stroke="#1a243f" stroke-linecap="round" stroke-miterlimit="10" stroke-width="5.157"/>
      <path d="M1118.141,581.127l55.7,27.622" fill="none" stroke="#1a243f" stroke-linecap="round" stroke-miterlimit="10" stroke-width="5.157"/>
    </g>
    <g>
      <path d="M329.879,669.274l-152.257-3.216s-56.594-3.485-58.918,8.042c-5.9,30.116,162.539-2.77,164.505,29.222S119.24,692.955,112.892,723.16c-3.129,15.1,19.4,16.086,44.346,16.086H329.79" fill="none" stroke="#1a243f" stroke-linecap="round" stroke-miterlimit="10" stroke-width="17.913"/>
      <path d="M191.659,754.08l129.816,5.9" fill="none" stroke="#1a243f" stroke-linecap="round" stroke-linejoin="round" stroke-width="6.127"/>
      <path d="M222.145,767.841l60.705,2.77" fill="none" stroke="#1a243f" stroke-linecap="round" stroke-linejoin="round" stroke-width="6.127"/>
      <path d="M278.649,645.326l-129.906,5.183" fill="none" stroke="#1a243f" stroke-linecap="round" stroke-linejoin="round" stroke-width="6.127"/>
      <path d="M247.088,634.245l-60.707,2.413" fill="none" stroke="#1a243f" stroke-linecap="round" stroke-linejoin="round" stroke-width="6.127"/>
    </g>
    <path d="M691.41,36.311H640.889V278.917h49.969l77.3-123.1Z" fill="#1a243f" stroke="#fff" stroke-miterlimit="10" stroke-width="3"/>
    <path d="M1212.079,278.917h111.8V36.311H1212.627l76.472,119.51Z" fill="#1a243f" stroke="#fff" stroke-miterlimit="10" stroke-width="3"/>
    <path d="M821.717,36.311h-130.3l76.747,119.51-77.3,123.1h130.3l77.3-123.1Z" fill="#1a243f" stroke="#fff" stroke-miterlimit="10" stroke-width="3"/>
    <path d="M1081.774,278.917h130.305l77.02-123.1-76.472-119.51H1082.322l76.472,119.51Z" fill="#1a243f" stroke="#fff" stroke-miterlimit="10" stroke-width="3"/>
    <path d="M898.461,155.821l-77.3,123.1H951.469l77.294-123.1L952.017,36.311h-130.3Z" fill="#1a243f" stroke="#fff" stroke-miterlimit="10" stroke-width="3"/>
    <path d="M951.469,278.917h130.3l77.02-123.1-76.472-119.51h-130.3l76.746,119.51Z" fill="#1a243f" stroke="#fff" stroke-miterlimit="10" stroke-width="3"/>
    <path d="M631.444,204.342c25.559,0,46.278-20.921,46.278-46.728S657,110.886,631.444,110.886s-46.277,20.921-46.277,46.728S605.886,204.342,631.444,204.342Z" fill="#1a243f" stroke="#fff" stroke-miterlimit="10" stroke-width="3"/>
    <path d="M1240.727,235.377h-364c-45.25,0-80.409-24.558-109.948-63.741L716.81,104.859c-4.693-6.071-3.865-13.8,1.381-13.8h411.618c3.863,0,8.283,2.759,11.6,7.174,43.614,56.842,77.019,90.231,100.762,110.1C1259.477,222.987,1251.493,235.377,1240.727,235.377Z" fill="#fff" stroke="#1a243f" stroke-miterlimit="10" stroke-width="3"/>
    <g>
      <path d="M575.053,676.413c13.763,0,24.919-24.225,24.919-54.109S588.816,568.2,575.053,568.2,550.134,592.42,550.134,622.3,561.291,676.413,575.053,676.413Z" fill="#1a243f"/>
      <path d="M783.217,676.413c13.763,0,24.919-24.225,24.919-54.109S796.98,568.2,783.217,568.2,758.3,592.42,758.3,622.3,769.454,676.413,783.217,676.413Z" fill="#1a243f"/>
      <path d="M726.93,637.979H631.335a15.46,15.46,0,1,1,0-30.92H726.93A15.4,15.4,0,0,1,742.4,622.518C742.613,630.893,735.523,637.979,726.93,637.979Z" fill="#1a243f"/>
      <path d="M797.822,619.727a70.6,70.6,0,0,1-11.385,42.3" fill="none" stroke="#fff" stroke-linecap="round" stroke-miterlimit="10" stroke-width="2.229"/>
      <path d="M590.308,619.727a70.6,70.6,0,0,1-11.385,42.3" fill="none" stroke="#fff" stroke-linecap="round" stroke-miterlimit="10" stroke-width="2.229"/>
    </g>
    <g>
      <path d="M575.053,840.617c13.763,0,24.919-24.225,24.919-54.108s-11.156-54.11-24.919-54.11-24.919,24.225-24.919,54.11S561.291,840.617,575.053,840.617Z" fill="#1a243f"/>
      <path d="M783.217,840.617c13.763,0,24.919-24.225,24.919-54.108S796.98,732.4,783.217,732.4,758.3,756.624,758.3,786.509,769.454,840.617,783.217,840.617Z" fill="#1a243f"/>
      <path d="M726.93,802.183H631.335a15.46,15.46,0,1,1,0-30.92H726.93A15.4,15.4,0,0,1,742.4,786.722C742.613,795.1,735.523,802.183,726.93,802.183Z" fill="#1a243f"/>
      <path d="M797.822,783.931a70.6,70.6,0,0,1-11.385,42.3" fill="none" stroke="#fff" stroke-linecap="round" stroke-miterlimit="10" stroke-width="2.229"/>
      <path d="M590.308,783.931a70.609,70.609,0,0,1-11.385,42.3" fill="none" stroke="#fff" stroke-linecap="round" stroke-miterlimit="10" stroke-width="2.229"/>
    </g>
    <path d="M885.477,509.824H472.013V894.547H885.477Z" fill="none" stroke="#fff" stroke-miterlimit="10" stroke-width="3"/>
    <path d="M885.477,509.824H1361.5v179H885.477Z" fill="none" stroke="#fff" stroke-miterlimit="10" stroke-width="3"/>
    <path d="M38.587,894.547V509.824H472.013l-.949.9c-110.316,104.265-109.882,280.109.949,383.826H38.587Z" fill="none" stroke="#fff" stroke-miterlimit="10" stroke-width="3"/>
    <g>
      <path d="M1361.412,894.547H885.477V770.907c0-45.325,39.477-82.083,88.162-82.083H1361.5V894.547Z" fill="#1a243f" stroke="#fff" stroke-miterlimit="10" stroke-width="3"/>
      <g>
        <path d="M1325.82,848.2H1056.213c-23.089,0-48.9-16.969-67.062-44.122l-30.9-45.988c-2.886-4.242-1.867-9.5,1.7-9.5h143.13c4.585,11.37,16.466,20.024,28.347,20.024,11.715,0,19.022-8.654,17.656-20.024H1255.2c2.546,0,5.6,1.867,7.638,4.921,26.825,39.2,48.217,62.449,63.326,76.025C1333.468,836.153,1333.126,848.2,1325.82,848.2Z" fill="none" stroke="#17fff1" stroke-miterlimit="10" stroke-width="1.86"/>
        <path d="M1003.86,804.353c.8.93,1.61,1.856,2.41,2.764l.01.012.009.011.01.01a94.075,94.075,0,0,0,8.516,7.832,83.253,83.253,0,0,0,19.8,11.774h0l.009,0a82.116,82.116,0,0,0,22.036,5.635h.01c3.755.341,7.335.511,11.422.511h0l11.706.169h.01a4.35,4.35,0,0,1-.166,8.7h-.488l-11.676-1.353h0q-.892-.121-1.815-.243c-3.258-.436-6.789-.907-10.2-1.617a88.678,88.678,0,0,1-22.621-8.268,87.774,87.774,0,0,1-19.245-14h0l-.01-.006a75.505,75.505,0,0,1-7.736-8.745Q1004.871,805.922,1003.86,804.353Z" fill="none" stroke="#17fff1" stroke-width="0.975"/>
        <path d="M1313.6,840.926h-.02c-1.288.056-2.575.13-3.863.2-2.634.152-5.267.3-8,.3a73.586,73.586,0,0,1-12.144-.841l-.01,0h-.009a84.132,84.132,0,0,1-43.213-19.233h0v0c-2.429-2.022-4.634-4.258-6.819-6.468q-.819-.826-1.638-1.645l-2.166-2.259,2.361,1.957h0c3.053,2.546,5.95,4.934,9.2,7.155a83.334,83.334,0,0,0,20.67,10.243h0a78.154,78.154,0,0,0,22.377,3.927,83.087,83.087,0,0,0,11.267-.341l.009,0h.02c.868-.125,1.766-.249,2.682-.376,2.839-.392,5.863-.809,8.692-1.323a4.3,4.3,0,0,1,4.877,3.652v0a4.291,4.291,0,0,1-3.648,4.882l-.088.011-.078.037a1.109,1.109,0,0,1-.273.106A.887.887,0,0,1,1313.6,840.926Z" fill="none" stroke="#17fff1" stroke-width="0.975"/>
      </g>
    </g>
    <rect x="38.587" y="483.667" width="189.89" height="26.158" fill="none" stroke="#fff" stroke-miterlimit="10" stroke-width="3"/>
    <rect x="1.5" y="1.5" width="37.087" height="943.047" transform="translate(40.087 946.047) rotate(180)" fill="none" stroke="#fff" stroke-miterlimit="10" stroke-width="3"/>
    <rect x="228.477" y="483.667" width="1095.41" height="26.158" transform="translate(1552.363 993.491) rotate(180)" fill="none" stroke="#fff" stroke-miterlimit="10" stroke-width="3"/>
    <rect x="38.587" y="894.547" width="1084.902" height="50" transform="translate(1162.075 1839.094) rotate(180)" fill="none" stroke="#fff" stroke-miterlimit="10" stroke-width="3"/>
    <polygon points="1037.477 483.667 928.137 483.517 927.987 305.497 1.5 305.497 1.5 278.917 1037.477 278.917 1037.477 483.667" fill="#436cff" stroke="#fff" stroke-miterlimit="10" stroke-width="3"/>
    <g>
      <path d="M1145.477,305.5v33.15c0,10.36-20.27,10.65-20.27,10.65s.44,60.97-87.36,60.97-88.98-59.78-88.98-59.78-20.88.29-20.88-10.51V305.5H38.587v178.17l889.55-.15v-34.33a13.064,13.064,0,0,1,20.88-10.5c21.16,15.39,53.15,25.15,88.98,25.15,34.94,0,66.17-9.32,87.36-23.97a12.907,12.907,0,0,1,20.27,10.65v33.15h178.26V305.5Zm-48.56,121.35a194.19,194.19,0,0,1-27.68,9.02,158.879,158.879,0,0,1-29.02,4,149.1,149.1,0,0,1-29.17-1.92,138.434,138.434,0,0,1-27.98-8.14,155.866,155.866,0,0,1-48.12-31.82c15.55,11.1,32.27,20.57,49.9,26.78a143.481,143.481,0,0,0,27.24,6.81,135.587,135.587,0,0,0,27.98,1.48,160.8,160.8,0,0,0,27.84-3.4,195.245,195.245,0,0,0,27.09-7.7c17.77-6.36,34.94-14.8,51.67-23.97A228.7,228.7,0,0,1,1096.917,426.847Z" fill="#436cff" stroke="#fff" stroke-miterlimit="10" stroke-width="3"/>
      <path d="M1146.667,397.987a228.7,228.7,0,0,1-49.75,28.86,194.19,194.19,0,0,1-27.68,9.02,158.879,158.879,0,0,1-29.02,4,149.1,149.1,0,0,1-29.17-1.92,138.434,138.434,0,0,1-27.98-8.14,155.866,155.866,0,0,1-48.12-31.82c15.55,11.1,32.27,20.57,49.9,26.78a143.481,143.481,0,0,0,27.24,6.81,135.587,135.587,0,0,0,27.98,1.48,160.8,160.8,0,0,0,27.84-3.4,195.245,195.245,0,0,0,27.09-7.7C1112.767,415.6,1129.937,407.157,1146.667,397.987Z" fill="#436cff" stroke="#fff" stroke-miterlimit="10" stroke-width="3"/>
      <path d="M1146.667,397.987a228.7,228.7,0,0,1-49.75,28.86,194.19,194.19,0,0,1-27.68,9.02,158.879,158.879,0,0,1-29.02,4,149.1,149.1,0,0,1-29.17-1.92,138.434,138.434,0,0,1-27.98-8.14,155.866,155.866,0,0,1-48.12-31.82c15.55,11.1,32.27,20.57,49.9,26.78a143.481,143.481,0,0,0,27.24,6.81,135.587,135.587,0,0,0,27.98,1.48,160.8,160.8,0,0,0,27.84-3.4,195.245,195.245,0,0,0,27.09-7.7C1112.767,415.6,1129.937,407.157,1146.667,397.987Z" fill="#436cff" stroke="#fff" stroke-miterlimit="10" stroke-width="3"/>
    </g>
    <path d="M304.457,340.605c-62.647,0-117.371,10.795-146.713,26.989-3.78-19.612-11.161-33.107-17.821-33.107-9.361,0-20.162,26.809-20.162,60.095,0,33.107,10.981,60.1,20.162,60.1,6.48,0,13.861-13.495,17.641-33.107,29.342,16.193,84.067,26.989,146.713,26.989,93.607,0,169.393-24.11,169.393-53.979C473.67,364.9,397.884,340.605,304.457,340.605Zm132.671,69.452H179.885V379.289H437.128Z" fill="#1a243f"/>
    <path d="M562.527,157.554c0,30.8,20.173,57.211,49.109,68.776,1.653.731,2.811,1.948,2.811,3.409v49.178H38.587V36.311h575.86V85.489c0,1.461-.992,2.678-2.811,3.409C582.865,100.341,562.527,126.756,562.527,157.554Z" fill="none" stroke="#fff" stroke-miterlimit="10" stroke-width="3.084"/>
    <path d="M448.147,222.354H376.6V207.005a4.848,4.848,0,0,0-.953-2.857,4.2,4.2,0,0,0-2.381-1.665,4.27,4.27,0,0,0-2.975.119,5.068,5.068,0,0,0-2.381,1.785,84.855,84.855,0,0,1-31.073,27.725,85.772,85.772,0,0,1-40.6,9.638,84.69,84.69,0,0,1-70.358-39.743,5.016,5.016,0,0,0-2.262-1.9,4.281,4.281,0,0,0-2.977-.119,4.474,4.474,0,0,0-2.5,1.666,4.842,4.842,0,0,0-.952,2.856v17.848H145.4a11.276,11.276,0,0,1-5.595-1.546,10.471,10.471,0,0,1-3.929-4.284,10.769,10.769,0,0,1-1.191-5.712,9.923,9.923,0,0,1,2.024-5.473,84.911,84.911,0,0,0,0-96.384,11.824,11.824,0,0,1-2.024-5.474,10.541,10.541,0,0,1,1.191-5.712,11.353,11.353,0,0,1,3.929-4.284,10.462,10.462,0,0,1,5.595-1.546h71.549v17.849a4.844,4.844,0,0,0,.952,2.856,4.484,4.484,0,0,0,2.5,1.666,5.088,5.088,0,0,0,2.977-.119,4.483,4.483,0,0,0,2.262-1.9,84.76,84.76,0,0,1,142.027-2.38,5.012,5.012,0,0,0,5.357,1.9,5.747,5.747,0,0,0,2.38-1.665,4.845,4.845,0,0,0,.952-2.857V91.7h71.669a11.286,11.286,0,0,1,5.595,1.546,10.474,10.474,0,0,1,3.928,4.284,10.769,10.769,0,0,1,1.191,5.712,9.921,9.921,0,0,1-2.024,5.474,84.916,84.916,0,0,0,0,96.384,11.806,11.806,0,0,1,2.024,5.473,10.541,10.541,0,0,1-1.191,5.712,11.343,11.343,0,0,1-3.928,4.284A8.416,8.416,0,0,1,448.147,222.354Z" fill="#436cff" stroke="#1a243f" stroke-miterlimit="10" stroke-width="3"/>
    <polygon points="1323.887 204.341 1323.887 276.911 690.857 278.921 771.807 150.001 640.887 150.001 640.887 36.311 1061.477 36.311 1061.477 150.001 1028.767 204.341 1323.887 204.341" fill="none" stroke="#ff6d39" stroke-linejoin="round" stroke-width="3"/>
    <polygon points="473.667 278.921 203.747 278.921 203.667 181.211 38.587 181.211 203.557 36.311 473.477 36.311 473.667 278.921" fill="none" stroke="#ff6d39" stroke-linejoin="round" stroke-width="3"/>
    <polygon points="1323.887 305.501 1323.887 483.667 1145.627 483.667 1145.987 424.991 703.217 424.991 703.217 305.501 881.107 305.501 881.107 381.291 1145.987 381.291 1145.987 305.501 1323.887 305.501" fill="none" stroke="#ff6d39" stroke-linejoin="round" stroke-width="3"/>
    <g>
      <path d="M703.217,364.173v60.818s-84.734-.24-130.9-.24c-200.092,0-362.3-13.558-362.3-30.289s162.206-30.289,362.3-30.289Z" fill="none" stroke="#ff6d39" stroke-linejoin="round" stroke-width="3"/>
      <rect x="38.587" y="305.497" width="664.624" height="58.676" fill="none" stroke="#ff6d39" stroke-linejoin="round" stroke-width="3"/>
      <rect x="38.587" y="424.991" width="664.624" height="58.676" fill="none" stroke="#ff6d39" stroke-linejoin="round" stroke-width="3"/>
    </g>
    <polygon points="472.017 509.821 472.017 589.001 117.767 589.001 117.767 650.509 38.587 650.509 38.587 509.821 472.017 509.821" fill="none" stroke="#ff6d39" stroke-linejoin="round" stroke-width="3"/>
    <rect x="38.587" y="894.541" width="378.22" height="0.01" fill="none" stroke="#ff6d39" stroke-linejoin="round" stroke-width="3"/>
    <path d="M472.017,894.541H38.587v-68.31h367.58c-18.96-57.1-70.05-119.59-203.36-115.55H38.587V650.5h163.89C396.477,647.911,472.017,747,472.017,894.541Z" fill="none" stroke="#ff6d39" stroke-linejoin="round" stroke-width="3"/>
    <polygon points="1292.157 548.411 1223.652 585.231 1361.497 585.231 1361.497 623.821 1151.855 623.821 1030.917 688.821 885.477 688.821 1006.417 623.821 885.477 623.821 885.477 589.001 1071.911 588.615 1146.717 548.411 885.477 548.411 885.477 509.821 1361.497 509.821 1361.497 548.411 1292.157 548.411" fill="none" stroke="#ff6d39" stroke-linejoin="round" stroke-width="3"/>
    <rect x="885.477" y="688.824" width="476.023" height="102.861" fill="none" stroke="#ff6d39" stroke-linejoin="round" stroke-width="3"/>
    <rect x="885.477" y="791.685" width="476.023" height="102.861" fill="none" stroke="#ff6d39" stroke-linejoin="round" stroke-width="3"/>
    <polygon points="472.017 894.541 885.477 894.547 885.477 509.824 472.017 589.001 472.017 894.541" fill="none" stroke="#ff6d39" stroke-linejoin="round" stroke-width="3"/>
    <polygon points="472.017 589.001 885.477 589.001 885.477 509.824 472.017 589.001" fill="none" stroke="#ff6d39" stroke-linejoin="round" stroke-width="3"/>
  </g>
</svg>
