<?xml version="1.0" encoding="utf-8"?>
<svg version="1.1" id="Layer_1" xmlns="http://www.w3.org/2000/svg" xmlns:xlink="http://www.w3.org/1999/xlink" x="0px" y="0px" viewBox="0 0 1137.2 242.6" style="enable-background:new 0 0 1137.2 242.6;" xml:space="preserve">
<style type="text/css">
	.st0{fill:#436CFF;}
	.st1{fill:#1A243F;}
	.st2{fill:#FFFFFF;}
	.st3{fill:none;stroke:#FF6D39;stroke-width:3;stroke-linejoin:round;}
	.st4{fill:none;stroke:#1A243F;stroke-width:3;stroke-linejoin:round;stroke-miterlimit:10;}
	.st5{fill:none;stroke:#17FFF1;stroke-width:3;stroke-linejoin:round;stroke-miterlimit:10;}
</style>
<rect class="st0" width="1137.2" height="242.6"/>
<g>
	<path class="st1" d="M574.4,241.1V96.8c0-52.5,46.2-95.3,103-95.3h458.3v239.6H574.4z"/>
	<path class="st2" d="M1134.2,3v236.6H575.9V96.8C575.9,45.1,621.5,3,677.4,3H1134.2 M1137.2,0H677.4c-57.7,0-104.5,43.3-104.5,96.8v145.8h564.2h0.1V0L1137.2,0z"/>
</g>
<g id="_x32_">
	<rect x="574.4" y="1.5" class="st3" width="561.3" height="118.4"/>
	<rect x="574.4" y="119.8" class="st3" width="561.3" height="121.3"/>
</g>
<polygon id="_x31_" class="st3" points="434.9,241.1 164.9,241.1 164.8,145.3 1.5,145.3 164.7,1.5 434.9,1.5 "/>
<g id="FIRST">
	
		<rect x="82" y="92.5" transform="matrix(-0.4527 0.8917 -0.8917 -0.4527 296.9815 56.4916)" class="st4" width="98.4" height="53.8"/>
	
		<rect x="335.9" y="92.5" transform="matrix(0.4527 0.8917 -0.8917 0.4527 317.2136 -278.0005)" class="st4" width="98.4" height="53.8"/>
	<g>
		<path class="st1" d="M258.1,93.4c22.5,0,43.7,4.1,59.5,11.6c15.1,7.1,23.5,16.4,23.5,26s-8.3,18.9-23.5,26c-15.8,7.5-37,11.6-59.5,11.6s-43.7-4.1-59.5-11.6c-15.1-7.1-23.5-16.4-23.5-26s8.3-18.9,23.5-26C214.4,97.5,235.6,93.4,258.1,93.4 M258.1,90.4c-47.5,0-86,18.2-86,40.6s38.5,40.6,86,40.6s86-18.2,86-40.6S305.6,90.4,258.1,90.4L258.1,90.4z"/>
	</g>
</g>
<g id="LAST">
	<path class="st5" d="M919.4,62.4V79c-6.4-0.3-12.9-0.4-19.6-0.4c-79.4,0-143.7,18.4-143.7,41.2h-18.8l-44.5,57.4h216.1l9.7-14c0.3-0.4,0.9-0.2,0.9,0.3v13.7h131.2V62.4H919.4z M899.8,163c-3.7,0-6.7-16.6-6.7-37c0-20.4,3-37,6.7-37c3.7,0,6.7,16.6,6.7,37C906.5,146.4,903.5,163,899.8,163z"/>
</g>
<g>
	<path class="st2" d="M572.9,3l0,46.2c0,0.1-0.2,0.3-0.9,0.6c-31,12.3-51,40.4-51,71.4c0,31.1,20,59.1,50.9,71.5c0.6,0.3,0.9,0.6,1,0.7v46.1H3V3H572.9 M575.9,0H0v242.6h575.9v-49.2c0-1.5-1.2-2.7-2.8-3.4c-28.9-11.6-49.1-38-49.1-68.8c0-30.8,20.3-57.2,49.1-68.7c1.8-0.7,2.8-1.9,2.8-3.4V0L575.9,0z"/>
</g>
</svg>
