<svg width="1431" height="824" viewBox="0 0 1431 824" fill="none" xmlns="http://www.w3.org/2000/svg">
<g opacity="0.212">
<path d="M644.437 610.876L507.687 758.035L493.312 744.669L499.437 738.11L446.625 689.14L432.687 688.453L569.437 541.294L597.312 542.73L636.875 579.395C643.5 585.517 646 593.886 641.125 601.194C640.562 602.006 640.125 602.569 639.437 603.318L637.937 604.942L587.187 659.596C586.625 660.158 586.062 660.72 585.375 661.22C578.375 666.654 568.125 666.717 561.5 660.595L521.937 623.93L508 623.243L555.375 667.216C562 673.338 572.25 673.275 579.25 667.778C580 667.154 580.75 666.592 581.437 665.905C581.437 665.905 587.437 659.471 587.562 659.284L638.063 604.942L644.437 610.876Z" stroke="#FFA113" stroke-width="2" stroke-miterlimit="10" stroke-linejoin="round"/>
<path d="M512.814 82.2626L517.439 69.1456L528.002 62.9619L629.064 236.668L618.502 242.851L609.127 269.023L553.439 173.332L558.127 160.152L512.814 82.2626Z" stroke="#FFA113" stroke-width="2" stroke-miterlimit="10" stroke-linejoin="round"/>
<path d="M475.125 543.794L466.062 543.794L475.125 554.413L475.125 543.794Z" stroke="#FFA113" stroke-width="2" stroke-miterlimit="10" stroke-linejoin="round"/>
<path d="M865.248 18.1152C865.248 18.6149 865.248 19.1146 865.248 19.6143C865.311 28.4839 869.998 41.1636 873.061 47.9719L873.061 28.7337L865.248 18.1152Z" stroke="#FFA113" stroke-width="2" stroke-miterlimit="10" stroke-linejoin="round"/>
<path d="M1038.69 55.0947L1046.5 65.7132L1046.5 55.0947L1038.69 55.0947Z" stroke="#FFA113" stroke-width="2" stroke-miterlimit="10" stroke-linejoin="round"/>
<path d="M857.062 257.779C846.562 264.587 834.5 266.898 823.312 265.274C836.375 269.209 856.812 270.583 869.437 262.401C890.312 248.909 897.75 222.675 887.375 201.938L875.062 197.316C885.312 218.053 877.937 244.287 857.062 257.779Z" stroke="#FFA113" stroke-width="2" stroke-miterlimit="10" stroke-linejoin="round"/>
<path d="M892.373 423.802C896.436 421.99 900.061 419.617 902.936 417.556C906.373 414.995 909.873 411.497 909.873 411.497L911.686 398.755C911.686 398.755 903.248 407.374 893.936 411.309C874.498 419.554 851.373 416.369 835.436 400.753C824.123 389.698 818.873 374.832 819.686 360.153C816.873 376.643 820.998 400.691 833.873 413.246C849.811 428.924 873.061 432.359 892.373 423.802Z" stroke="#FFA113" stroke-width="2" stroke-miterlimit="10" stroke-linejoin="round"/>
<path d="M738.873 165.898L684.811 217.741L698.561 219.24L709.123 230.233L854.186 91.2559L843.623 80.2003L829.873 78.7012L755.998 149.533L738.873 165.898Z" stroke="#FFA113" stroke-width="2" stroke-miterlimit="10" stroke-linejoin="round"/>
<path d="M470.5 438.168L478.937 427.175C476.125 427.8 473.313 428.174 470.438 428.362C445.25 429.798 421.938 412.746 416.313 387.325C413.063 372.646 415 360.653 422.937 349.161L431.375 338.167L360.125 247.66L351.687 258.654L336.687 261.964L380.125 458.156L470.5 438.168Z" stroke="#FFA113" stroke-width="2" stroke-miterlimit="10" stroke-linejoin="round"/>
<path d="M241.624 120.237C259.249 121.236 277.124 113.366 287.874 97.7504C304.311 73.9525 298.311 41.2226 274.499 24.7952L260.749 26.1069L244.624 14.9888L230.874 16.3005L116.686 181.636L130.436 180.325L210.124 235.291L223.874 233.979L241.624 120.237Z" stroke="#FFA113" stroke-width="2" stroke-miterlimit="10" stroke-linejoin="round"/>
<path d="M857.625 534.86L792.875 640.982L787.75 649.414C774.5 671.151 746.937 675.149 730.5 665.092L725.937 651.538C745.625 663.531 771.062 655.598 783.062 635.923L788.187 627.49L853 521.243L857.625 534.86Z" stroke="#FFA113" stroke-width="2" stroke-miterlimit="10" stroke-linejoin="round"/>
<path d="M769.502 526.552L762.814 526.552L753.627 537.546L760.315 537.546L769.502 526.552Z" stroke="#FFA113" stroke-width="2" stroke-miterlimit="10" stroke-linejoin="round"/>
<path d="M1028.75 814.563L1040.81 822.37L1075.31 818.061L1050.19 618.995L1032 621.244L1019.94 613.561L963.561 620.619L988.686 819.622L1028.75 814.563Z" stroke="#FFA113" stroke-width="2" stroke-miterlimit="10" stroke-linejoin="round"/>
<path d="M701.938 1.37477L715.812 1L693.937 32.6056L680.062 33.0428L701.938 1.37477Z" stroke="#FFA113" stroke-width="2" stroke-miterlimit="10" stroke-linejoin="round"/>
<path d="M980.123 400.63L971.811 389.449L971.811 456.096L980.123 467.276L980.123 400.63Z" stroke="#FFA113" stroke-width="2" stroke-miterlimit="10" stroke-linejoin="round"/>
<path d="M574.187 344.662L588.062 345.662L562.937 374.831L549.062 373.769L574.187 344.662Z" stroke="#FFA113" stroke-width="2" stroke-miterlimit="10" stroke-linejoin="round"/>
<path d="M725.439 439.544L717.19 428.363L717.19 495.01L725.439 506.19L725.439 439.544Z" stroke="#FFA113" stroke-width="2" stroke-miterlimit="10" stroke-linejoin="round"/>
<path d="M1156.12 395.447L1142.37 397.133L1044 571.838L1057.75 570.152L1156.12 395.447Z" stroke="#FFA113" stroke-width="2" stroke-miterlimit="10" stroke-linejoin="round"/>
<path d="M1192.5 498.445L1249.87 394.946L1248.06 381.204L1253.5 371.46L1428.87 468.838L1423.44 478.644L1425.19 492.386L1367.69 595.76L1192.5 498.445Z" stroke="#FFA113" stroke-width="2" stroke-miterlimit="10" stroke-linejoin="round"/>
<path d="M1045.69 311.435L955.5 131.983L998.812 110.246C1006 101.876 1013.06 94.3809 1022 89.8837C1022.44 89.6338 1022.56 89.5714 1022.56 89.5714L1057.87 71.8323L1061.37 78.7655L1070 74.4557L1160.19 253.97L1142.06 263.09L1138.56 256.157L1112.06 269.461L1106.12 281.141L1045.69 311.435Z" stroke="#FFA113" stroke-width="2" stroke-miterlimit="10" stroke-linejoin="round"/>
<path d="M1192.62 101.003L1380.37 29.3599L1397.69 74.5821C1405.31 82.5771 1412.06 90.3224 1415.62 99.6916C1415.81 100.191 1415.87 100.316 1415.87 100.316L1430 137.231L1422.75 139.979L1426.19 148.974L1238.44 220.617L1231.19 201.691L1238.44 198.943L1227.87 171.273L1216.81 164.152L1192.62 101.003Z" stroke="#FFA113" stroke-width="2" stroke-miterlimit="10" stroke-linejoin="round"/>
<path d="M1.99822 231.483L121.811 396.943L137.873 391.384L18.0607 225.986L1.99822 231.483Z" stroke="#FFA113" stroke-width="2" stroke-miterlimit="10" stroke-linejoin="round"/>
<path d="M440.812 61.401L424.375 48.8462L441 49.1585L440.812 61.401Z" stroke="#FFA113" stroke-width="2" stroke-miterlimit="10" stroke-linejoin="round"/>
<path d="M334.248 444.227L406.561 622.742L326.936 654.973L310.498 650.788L294.061 657.409L234.311 509.999L214.311 504.877L206.311 485.202L301.123 446.788L317.623 450.973L334.248 444.227Z" stroke="#FFA113" stroke-width="2" stroke-miterlimit="10" stroke-linejoin="round"/>
</g>
</svg>
